<svg xmlns="http://www.w3.org/2000/svg" xmlns:xlink="http://www.w3.org/1999/xlink" width="98" height="99" viewBox="0 0 98 99">
  <defs>
    <filter id="Ellipse_53" x="0" y="0" width="98" height="99" filterUnits="userSpaceOnUse">
      <feOffset dy="3" input="SourceAlpha"/>
      <feGaussianBlur stdDeviation="3" result="blur"/>
      <feFlood flood-opacity="0.161"/>
      <feComposite operator="in" in2="blur"/>
      <feComposite in="SourceGraphic"/>
    </filter>
    <clipPath id="clip-path">
      <rect id="Rectangle_256" data-name="Rectangle 256" width="67" height="67" fill="none"/>
    </clipPath>
  </defs>
  <g id="Abstarct_art" data-name="Abstarct art" transform="translate(9 -486)">
    <g transform="matrix(1, 0, 0, 1, -9, 486)" filter="url(#Ellipse_53)">
      <ellipse id="Ellipse_53-2" data-name="Ellipse 53" cx="40" cy="40.5" rx="40" ry="40.5" transform="translate(9 6)" fill="#fefefe"/>
    </g>
    <g id="Group_309" data-name="Group 309" transform="translate(7 499)">
      <g id="Group_308" data-name="Group 308" clip-path="url(#clip-path)">
        <path id="Path_224" data-name="Path 224" d="M0,33.5A33.5,33.5,0,1,1,33.5,67,33.5,33.5,0,0,1,0,33.5" fill="#88438d"/>
        <path id="Path_225" data-name="Path 225" d="M91.412,52.72,83.1,57.572l8.311,4.84Zm0,12.279L83.1,60.146v9.693Zm0,2.574L83.1,72.414l8.311,4.853Zm0,12.267L83.1,75.012v9.693Zm0,2.6L83.1,87.279l8.311,4.853ZM81.049,52.72l-8.311,4.852,8.311,4.84Zm0,12.279-8.311-4.853v9.693Zm0,2.574-8.311,4.84,8.311,4.853Zm0,12.267-8.311-4.828v9.693Zm0,2.6-8.311,4.84,8.311,4.853ZM70.674,57.572,62.362,52.72v9.693Zm0,2.574L62.362,65l8.311,4.84Zm0,12.267-8.311-4.84v9.693Zm0,2.6L62.362,79.84l8.311,4.865Zm0,12.267-8.311-4.84v9.693ZM60.311,57.572,52,52.72v9.693Zm0,2.574L52,65l8.311,4.84Zm0,12.267L52,67.573v9.693Zm0,2.6L52,79.84l8.311,4.865Zm0,12.267L52,82.439v9.693Z" transform="translate(-38.337 -38.868)" fill="#fff"/>
      </g>
    </g>
  </g>
</svg>
