<svg xmlns="http://www.w3.org/2000/svg" xmlns:xlink="http://www.w3.org/1999/xlink" width="98" height="99" viewBox="0 0 98 99">
  <defs>
    <filter id="Ellipse_47" x="0" y="0" width="98" height="99" filterUnits="userSpaceOnUse">
      <feOffset dy="3" input="SourceAlpha"/>
      <feGaussianBlur stdDeviation="3" result="blur"/>
      <feFlood flood-opacity="0.161"/>
      <feComposite operator="in" in2="blur"/>
      <feComposite in="SourceGraphic"/>
    </filter>
    <clipPath id="clip-path">
      <rect id="Rectangle_251" data-name="Rectangle 251" width="67" height="67" fill="none"/>
    </clipPath>
  </defs>
  <g id="Art" transform="translate(-109 -383)">
    <g transform="matrix(1, 0, 0, 1, 109, 383)" filter="url(#Ellipse_47)">
      <ellipse id="Ellipse_47-2" data-name="Ellipse 47" cx="40" cy="40.5" rx="40" ry="40.5" transform="translate(9 6)" fill="#fefefe"/>
    </g>
    <g id="Group_298" data-name="Group 298" transform="translate(125 396)">
      <g id="Group_297" data-name="Group 297" clip-path="url(#clip-path)">
        <path id="Path_214" data-name="Path 214" d="M33.5,0A33.5,33.5,0,1,0,67,33.5,33.5,33.5,0,0,0,33.5,0m8.91,47.376a19.354,19.354,0,0,1-13.715,5.631h-.005A19.061,19.061,0,0,1,19.627,50.4c-3.347-1.971-5.194-4.6-5.194-7.415,0-3.395,1.913-4.813,3.45-5.954,1.256-.93,2.244-1.663,2.244-3.274s-.991-2.344-2.244-3.274c-1.54-1.14-3.455-2.562-3.455-5.956,0-2.811,1.844-5.444,5.192-7.412a19.055,19.055,0,0,1,9.057-2.6h0A19.4,19.4,0,0,1,45.933,24.95l-.021.018c-1.2,1.019-2.465,2.128-3.741,3.274a2.646,2.646,0,0,0-.242-.8A2.691,2.691,0,0,0,38.348,26.2,2.647,2.647,0,0,0,37.1,29.74a2.678,2.678,0,0,0,1.85,1.442c-1.54,1.435-3.016,2.846-4.309,4.128a7.766,7.766,0,0,0-5.11,3.1A11.214,11.214,0,0,0,27.9,42.772c-.066.328-.192.946-.3,1.285a2.9,2.9,0,0,0-.8,5.565A16.6,16.6,0,0,0,32.6,50.744a10.148,10.148,0,0,0,5.9-1.7,9.979,9.979,0,0,0,3.873-5.773c1.655-1.692,3.508-3.671,5.347-5.712a19.05,19.05,0,0,1-5.31,9.816M35.318,37.333,40.4,42.46A8.05,8.05,0,0,1,37.3,47.31a8.087,8.087,0,0,1-4.693,1.327h0a14.464,14.464,0,0,1-5-.964.79.79,0,0,1,.239-1.519c1.477-.118,1.731-1.046,2.12-2.961.447-2.2,1.056-5.163,5.352-5.859M55.844,24.385c-.959,1.4-2.388,3.253-4.249,5.491-2.943,3.547-6.642,7.68-9.814,10.975l-4.827-4.863c3.085-3.011,6.963-6.553,10.326-9.414,7.281-6.2,8.479-6.2,8.931-6.2a1.05,1.05,0,0,1,.765.3c.7.7.139,1.844-1.132,3.7M31.085,25.678A2.659,2.659,0,1,0,29.067,22.5a2.659,2.659,0,0,0,2.018,3.182M25.544,44.5a2.64,2.64,0,0,0-.426-3.734,2.7,2.7,0,0,0-3.768.418,2.644,2.644,0,0,0,.426,3.736,2.7,2.7,0,0,0,3.768-.42M24.133,27.8a2.641,2.641,0,0,0,.426-3.734,2.7,2.7,0,0,0-3.768-.423,2.641,2.641,0,0,0-.423,3.736,2.692,2.692,0,0,0,3.765.42" fill="#88438d"/>
      </g>
    </g>
  </g>
</svg>
