<svg xmlns="http://www.w3.org/2000/svg" xmlns:xlink="http://www.w3.org/1999/xlink" width="98" height="99" viewBox="0 0 98 99">
  <defs>
    <filter id="Ellipse_27" x="0" y="0" width="98" height="99" filterUnits="userSpaceOnUse">
      <feOffset dy="3" input="SourceAlpha"/>
      <feGaussianBlur stdDeviation="3" result="blur"/>
      <feFlood flood-opacity="0.161"/>
      <feComposite operator="in" in2="blur"/>
      <feComposite in="SourceGraphic"/>
    </filter>
    <clipPath id="clip-path">
      <rect id="Rectangle_211" data-name="Rectangle 211" width="67" height="67" fill="none"/>
    </clipPath>
  </defs>
  <g id="Group_274" data-name="Group 274" transform="translate(-1171 -1138)">
    <g transform="matrix(1, 0, 0, 1, 1171, 1138)" filter="url(#Ellipse_27)">
      <ellipse id="Ellipse_27-2" data-name="Ellipse 27" cx="40" cy="40.5" rx="40" ry="40.5" transform="translate(9 6)" fill="#fefefe"/>
    </g>
    <g id="Group_219" data-name="Group 219" transform="translate(1187 1151)">
      <g id="Group_218" data-name="Group 218" clip-path="url(#clip-path)">
        <path id="Path_146" data-name="Path 146" d="M33.5,0A33.487,33.487,0,0,0,4.369,16.947H21.282v.788H3.936q-.69,1.281-1.261,2.627H24.7v.788H2.349a33.636,33.636,0,0,0-.1,24.435H24.7v.788H2.564Q3.124,47.718,3.8,49H21.545v.788H4.22A33.5,33.5,0,1,0,33.5,0M55.723,38H44.809L29.53,53.277H25.163L31.711,38H17.94l-5,4.364H9.884l3.253-8.731L9.884,24.9h3.053l5,4.364h13.77L25.163,13.986H29.53L44.809,29.265H55.723c2.885-.013,6.548,2.189,6.548,4.367S58.582,37.982,55.723,38" fill="#88438d"/>
      </g>
    </g>
  </g>
</svg>
