<svg xmlns="http://www.w3.org/2000/svg" xmlns:xlink="http://www.w3.org/1999/xlink" width="98" height="99" viewBox="0 0 98 99">
  <defs>
    <filter id="Ellipse_39" x="0" y="0" width="98" height="99" filterUnits="userSpaceOnUse">
      <feOffset dy="3" input="SourceAlpha"/>
      <feGaussianBlur stdDeviation="3" result="blur"/>
      <feFlood flood-opacity="0.161"/>
      <feComposite operator="in" in2="blur"/>
      <feComposite in="SourceGraphic"/>
    </filter>
    <clipPath id="clip-path">
      <rect id="Rectangle_242" data-name="Rectangle 242" width="67" height="67" transform="translate(-0.068 -0.068)" fill="none"/>
    </clipPath>
  </defs>
  <g id="Business" transform="translate(-521 -168)">
    <g transform="matrix(1, 0, 0, 1, 521, 168)" filter="url(#Ellipse_39)">
      <ellipse id="Ellipse_39-2" data-name="Ellipse 39" cx="40" cy="40.5" rx="40" ry="40.5" transform="translate(9 6)" fill="#fefefe"/>
    </g>
    <g id="Group_281" data-name="Group 281" transform="translate(537.068 181.068)">
      <g id="Group_280" data-name="Group 280" clip-path="url(#clip-path)">
        <path id="Path_196" data-name="Path 196" d="M196.492,81.757a14.829,14.829,0,0,1-.69,2.331,1.231,1.231,0,0,0-1.072-.886,13.318,13.318,0,0,0,.477-1.712Z" transform="translate(-143.669 -60.122)" fill="#88438d"/>
        <path id="Path_197" data-name="Path 197" d="M33.432,0A33.432,33.432,0,1,0,66.864,33.432,33.431,33.431,0,0,0,33.432,0M27.27,19.44a1.61,1.61,0,0,1,1.61-1.61h8.055a1.61,1.61,0,0,1,1.61,1.61v2.848H37.5V19.771a.891.891,0,0,0-.892-.892H29.211a.891.891,0,0,0-.892.892v2.517H27.27ZM52.18,24.3V45.709a1.229,1.229,0,0,1-1.227,1.227H15.911a1.229,1.229,0,0,1-1.227-1.227V24.491c.144.336.3.666.469.986,3.2,6.115,9.857,8.3,13.509,9.052a1.96,1.96,0,0,0,1.754,1.657h5.506a1.94,1.94,0,0,0,1.738-1.6c3.584-.7,10.5-2.835,13.787-9.109a14,14,0,0,0,.684-1.51,1.231,1.231,0,0,0-1.072-.886,12.9,12.9,0,0,1-.771,1.788c-2.95,5.624-9.154,7.659-12.589,8.37a1.987,1.987,0,0,0-1.778-1.773H30.417a1.974,1.974,0,0,0-1.767,1.72c-3.48-.758-9.458-2.829-12.337-8.317a13.023,13.023,0,0,1-.755-1.741,1.217,1.217,0,0,1,.354-.052H50.953c.037,0,.071,0,.108.005a13.317,13.317,0,0,0,.477-1.712l1.285.267a14.83,14.83,0,0,1-.69,2.331,1.193,1.193,0,0,1,.047.336" fill="#88438d"/>
        <path id="Path_198" data-name="Path 198" d="M196.492,81.757a14.829,14.829,0,0,1-.69,2.331,1.231,1.231,0,0,0-1.072-.886,13.318,13.318,0,0,0,.477-1.712Z" transform="translate(-143.669 -60.122)" fill="#88438d"/>
      </g>
    </g>
  </g>
</svg>
