<svg xmlns="http://www.w3.org/2000/svg" xmlns:xlink="http://www.w3.org/1999/xlink" width="98" height="99" viewBox="0 0 98 99">
  <defs>
    <filter id="Ellipse_44" x="0" y="0" width="98" height="99" filterUnits="userSpaceOnUse">
      <feOffset dy="3" input="SourceAlpha"/>
      <feGaussianBlur stdDeviation="3" result="blur"/>
      <feFlood flood-opacity="0.161"/>
      <feComposite operator="in" in2="blur"/>
      <feComposite in="SourceGraphic"/>
    </filter>
    <clipPath id="clip-path">
      <rect id="Rectangle_248" data-name="Rectangle 248" width="67" height="67" fill="none"/>
    </clipPath>
  </defs>
  <g id="Creativity" transform="translate(-418 -271)">
    <g transform="matrix(1, 0, 0, 1, 418, 271)" filter="url(#Ellipse_44)">
      <ellipse id="Ellipse_44-2" data-name="Ellipse 44" cx="40" cy="40.5" rx="40" ry="40.5" transform="translate(9 6)" fill="#fefefe"/>
    </g>
    <g id="Group_292" data-name="Group 292" transform="translate(434 284)">
      <g id="Group_291" data-name="Group 291" clip-path="url(#clip-path)">
        <path id="Path_206" data-name="Path 206" d="M33.5,0A33.5,33.5,0,1,0,67,33.5,33.5,33.5,0,0,0,33.5,0m1.351,55.818a1.587,1.587,0,0,1-3.174,0V54.231h3.174Zm4.761-3.174h-12.7a1.587,1.587,0,1,1,0-3.174h12.7a1.587,1.587,0,1,1,0,3.174m0-4.761h-12.7a1.587,1.587,0,1,1,0-3.174h12.7a1.587,1.587,0,1,1,0,3.174M41.2,41.535a1.589,1.589,0,0,1-1.587,1.587h-12.7a1.589,1.589,0,0,1-1.587-1.587c0-3.174-7.935-7.935-7.935-15.87a15.87,15.87,0,1,1,31.74,0c0,7.935-7.935,12.7-7.935,15.87" fill="#88438d"/>
        <path id="Path_207" data-name="Path 207" d="M92.563,50.947a1.587,1.587,0,0,1-1.587,1.587,9.53,9.53,0,0,0-9.522,9.522,1.587,1.587,0,0,1-3.174,0,12.711,12.711,0,0,1,12.7-12.7,1.587,1.587,0,0,1,1.587,1.587" transform="translate(-57.712 -36.391)" fill="#88438d"/>
      </g>
    </g>
  </g>
</svg>
