<svg xmlns="http://www.w3.org/2000/svg" xmlns:xlink="http://www.w3.org/1999/xlink" width="98" height="99" viewBox="0 0 98 99">
  <defs>
    <filter id="Ellipse_52" x="0" y="0" width="98" height="99" filterUnits="userSpaceOnUse">
      <feOffset dy="3" input="SourceAlpha"/>
      <feGaussianBlur stdDeviation="3" result="blur"/>
      <feFlood flood-opacity="0.161"/>
      <feComposite operator="in" in2="blur"/>
      <feComposite in="SourceGraphic"/>
    </filter>
    <clipPath id="clip-path">
      <rect id="Rectangle_257" data-name="Rectangle 257" width="67" height="67" fill="none"/>
    </clipPath>
  </defs>
  <g id="Culture" transform="translate(-94 -486)">
    <g transform="matrix(1, 0, 0, 1, 94, 486)" filter="url(#Ellipse_52)">
      <ellipse id="Ellipse_52-2" data-name="Ellipse 52" cx="40" cy="40.5" rx="40" ry="40.5" transform="translate(9 6)" fill="#fefefe"/>
    </g>
    <g id="Group_311" data-name="Group 311" transform="translate(110 499)">
      <g id="Group_310" data-name="Group 310" clip-path="url(#clip-path)">
        <path id="Path_226" data-name="Path 226" d="M95.758,142.963,77.784,155.2,62.29,145.443v-5.578l14.719,9.3a2.619,2.619,0,0,0,.775.31,2.2,2.2,0,0,0,.93-.31l15.959-11a7.383,7.383,0,0,0,1.085,4.8" transform="translate(-45.924 -101.859)" fill="#88438d"/>
        <path id="Path_227" data-name="Path 227" d="M95.758,107.428l-17.974,12.4L62.29,110.063v-5.578l14.719,9.3a2.619,2.619,0,0,0,.775.31,2.2,2.2,0,0,0,.93-.31l15.959-11a7.374,7.374,0,0,0,1.085,4.648" transform="translate(-45.924 -75.775)" fill="#88438d"/>
        <path id="Path_228" data-name="Path 228" d="M33.5,0A33.5,33.5,0,1,0,67,33.5,33.5,33.5,0,0,0,33.5,0M53.553,22.047v.775c0,.155-.155.31-.155.465l-1.085,2.168a4.844,4.844,0,0,0-.531,2.168,4.337,4.337,0,0,0,1.306,3.1c.155.155.31.31.31.465v.155a.932.932,0,0,1,.155.62v.155c0,.155-.155.31-.155.465l-1.085,2.323a4.433,4.433,0,0,0,.775,5.268,1.76,1.76,0,0,1,.465,1.24,1.569,1.569,0,0,1-.62,1.085L32.791,56.443a2.2,2.2,0,0,1-.93.31,2.619,2.619,0,0,1-.775-.31L14.044,45.6a1.38,1.38,0,0,1-.775-1.238V25.765c0-.155,0-.31.31-.775v-.155c.155-.152.155-.307.31-.462h.155l.155-.155L34.341,10.271a1.687,1.687,0,0,1,1.7,0L53.088,21.117l.31.31c0,.155.155.31.155.465Z" fill="#88438d"/>
      </g>
    </g>
  </g>
</svg>
