<svg xmlns="http://www.w3.org/2000/svg" xmlns:xlink="http://www.w3.org/1999/xlink" width="98" height="99" viewBox="0 0 98 99">
  <defs>
    <filter id="Ellipse_45" x="0" y="0" width="98" height="99" filterUnits="userSpaceOnUse">
      <feOffset dy="3" input="SourceAlpha"/>
      <feGaussianBlur stdDeviation="3" result="blur"/>
      <feFlood flood-opacity="0.161"/>
      <feComposite operator="in" in2="blur"/>
      <feComposite in="SourceGraphic"/>
    </filter>
    <clipPath id="clip-path">
      <rect id="Rectangle_249" data-name="Rectangle 249" width="67" height="67" fill="none"/>
    </clipPath>
  </defs>
  <g id="Drama" transform="translate(-521 -271)">
    <g transform="matrix(1, 0, 0, 1, 521, 271)" filter="url(#Ellipse_45)">
      <ellipse id="Ellipse_45-2" data-name="Ellipse 45" cx="40" cy="40.5" rx="40" ry="40.5" transform="translate(9 6)" fill="#fefefe"/>
    </g>
    <g id="Group_294" data-name="Group 294" transform="translate(537 284)">
      <g id="Group_293" data-name="Group 293" clip-path="url(#clip-path)">
        <path id="Path_208" data-name="Path 208" d="M93.44,65.091a3.409,3.409,0,0,0-1.012.168A44.082,44.082,0,0,1,77.292,67.9a37.343,37.343,0,0,1-14.154-2.664,2.722,2.722,0,0,0-1.022-.218c-1.182,0-1.976,1-1.976,2.488V86.231c0,10.021,8.093,18.484,17.672,18.484s17.672-8.463,17.672-18.484V67.508c0-1.492-.783-2.417-2.044-2.417M63.858,81.61a1.3,1.3,0,1,1,1.161-2.32c4.362,2.181,6.458.307,6.545.226a1.3,1.3,0,0,1,1.837.037,1.271,1.271,0,0,1-.026,1.816,6.5,6.5,0,0,1-4.485,1.569,11.23,11.23,0,0,1-5.032-1.327M86.58,97.9a1.3,1.3,0,0,1-1.831-.108,10.339,10.339,0,0,0-13.873,0,1.3,1.3,0,1,1-1.939-1.724,12.888,12.888,0,0,1,17.751,0A1.294,1.294,0,0,1,86.58,97.9m5.381-16.135a11.23,11.23,0,0,1-5.032,1.327,6.5,6.5,0,0,1-4.485-1.569,1.274,1.274,0,0,1-.026-1.816,1.3,1.3,0,0,1,1.837-.037c.087.081,2.183,1.955,6.548-.226a1.3,1.3,0,1,1,1.159,2.32" transform="translate(-44.339 -47.936)" fill="#88438d"/>
        <path id="Path_209" data-name="Path 209" d="M33.5,0A33.5,33.5,0,1,0,67,33.5,33.5,33.5,0,0,0,33.5,0M54.388,38.3c0,11.779-9.577,21.726-20.915,21.726S12.559,50.074,12.559,38.3V19.572c0-3.269,2.244-5.73,5.218-5.73a5.917,5.917,0,0,1,2.244.457,34.093,34.093,0,0,0,12.932,2.425A41.406,41.406,0,0,0,46.926,14.3c.032-.013.066-.026.1-.037a6.518,6.518,0,0,1,2.076-.349c3.064,0,5.286,2.38,5.286,5.66Z" fill="#88438d"/>
      </g>
    </g>
  </g>
</svg>
