<svg xmlns="http://www.w3.org/2000/svg" xmlns:xlink="http://www.w3.org/1999/xlink" width="98" height="99" viewBox="0 0 98 99">
  <defs>
    <filter id="Ellipse_50" x="0" y="0" width="98" height="99" filterUnits="userSpaceOnUse">
      <feOffset dy="3" input="SourceAlpha"/>
      <feGaussianBlur stdDeviation="3" result="blur"/>
      <feFlood flood-opacity="0.161"/>
      <feComposite operator="in" in2="blur"/>
      <feComposite in="SourceGraphic"/>
    </filter>
    <clipPath id="clip-path">
      <rect id="Rectangle_254" data-name="Rectangle 254" width="67" height="67" fill="none"/>
    </clipPath>
  </defs>
  <g id="Energy" transform="translate(-418 -383)">
    <g transform="matrix(1, 0, 0, 1, 418, 383)" filter="url(#Ellipse_50)">
      <ellipse id="Ellipse_50-2" data-name="Ellipse 50" cx="40" cy="40.5" rx="40" ry="40.5" transform="translate(9 6)" fill="#fefefe"/>
    </g>
    <g id="Group_305" data-name="Group 305" transform="translate(434 396)">
      <g id="Group_304" data-name="Group 304" clip-path="url(#clip-path)">
        <path id="Path_221" data-name="Path 221" d="M33.5,0A33.5,33.5,0,1,0,67,33.5,33.5,33.5,0,0,0,33.5,0M50.967,26.091l-19.5,30.865a1.444,1.444,0,0,1-1.3.812.6.6,0,0,1-.489-.163,1.636,1.636,0,0,1-.975-1.787l2.761-20.794H17.178a1.7,1.7,0,0,1-1.463-.812,1.49,1.49,0,0,1,.163-1.624L32.123,9.845A1.62,1.62,0,0,1,33.91,9.2a1.562,1.562,0,0,1,1.138,1.461v13H49.667a1.7,1.7,0,0,1,1.461.812,1.925,1.925,0,0,1-.16,1.624" fill="#88438d"/>
      </g>
    </g>
  </g>
</svg>
