<svg id="sh" xmlns="http://www.w3.org/2000/svg" width="31.257" height="21.172" viewBox="0 0 31.257 21.172">
  <path id="Path_335" data-name="Path 335" d="M0,0H31.257V21.172H0Z" fill="#012169"/>
  <path id="Path_336" data-name="Path 336" d="M3.663,0,15.58,7.983,27.448,0h3.809V2.735l-11.721,7.9,11.721,7.851v2.691H27.35l-11.721-7.9-11.673,7.9H0V18.525l11.673-7.851L0,2.823V0Z" fill="#fff"/>
  <path id="Path_337" data-name="Path 337" d="M20.708,12.394l10.549,7.013v1.764L18.022,12.394Zm-8.986.882.293,1.544L2.637,21.172H0ZM31.257,0V.132L19.1,8.424l.1-1.941L28.815,0ZM0,0,11.673,7.763H8.742L0,1.853Z" fill="#c8102e"/>
  <path id="Path_338" data-name="Path 338" d="M11.77,0V21.172h7.814V0ZM0,7.057v7.057H31.257V7.057Z" fill="#fff"/>
  <path id="Path_339" data-name="Path 339" d="M0,8.513v4.234H31.257V8.513ZM13.333,0V21.172h4.689V0Z" fill="#c8102e"/>
</svg>
