<svg xmlns="http://www.w3.org/2000/svg" xmlns:xlink="http://www.w3.org/1999/xlink" width="98" height="99" viewBox="0 0 98 99">
  <defs>
    <filter id="Ellipse_42" x="0" y="0" width="98" height="99" filterUnits="userSpaceOnUse">
      <feOffset dy="3" input="SourceAlpha"/>
      <feGaussianBlur stdDeviation="3" result="blur"/>
      <feFlood flood-opacity="0.161"/>
      <feComposite operator="in" in2="blur"/>
      <feComposite in="SourceGraphic"/>
    </filter>
    <clipPath id="clip-path">
      <rect id="Rectangle_245" data-name="Rectangle 245" width="67" height="67" transform="translate(0.244 0.244)" fill="none"/>
    </clipPath>
  </defs>
  <g id="Environment" transform="translate(-212 -271)">
    <g transform="matrix(1, 0, 0, 1, 212, 271)" filter="url(#Ellipse_42)">
      <ellipse id="Ellipse_42-2" data-name="Ellipse 42" cx="40" cy="40.5" rx="40" ry="40.5" transform="translate(9 6)" fill="#fefefe"/>
    </g>
    <g id="Group_287" data-name="Group 287" transform="translate(227.756 283.756)">
      <g id="Group_286" data-name="Group 286" clip-path="url(#clip-path)">
        <path id="Path_201" data-name="Path 201" d="M102.49,81.09,82.776,100.807a10,10,0,0,1,1.337-12.495c4.986-4.986,12.746-6.68,18.378-7.223" transform="translate(-59.695 -59.629)" fill="#88438d"/>
        <path id="Path_202" data-name="Path 202" d="M98.54,112.152,118.252,92.44c-.548,5.65-2.242,13.4-7.217,18.375a10.01,10.01,0,0,1-12.494,1.337" transform="translate(-72.461 -67.975)" fill="#88438d"/>
        <path id="Path_203" data-name="Path 203" d="M33.744,0A33.744,33.744,0,1,0,67.488,33.744,33.743,33.743,0,0,0,33.744,0m7.831,45.841a14.221,14.221,0,0,1-18.534,1.376l-6.188,6.188-3-3,6.188-6.188a14.246,14.246,0,0,1,1.376-18.534c7.839-7.839,20.905-8.71,26.326-8.71,1.548,0,2.472.071,2.472.071s1.44,18.717-8.638,28.8" fill="#88438d"/>
      </g>
    </g>
  </g>
</svg>
