<svg xmlns="http://www.w3.org/2000/svg" width="1266.422" height="471.735" viewBox="0 0 1266.422 471.735">
  <g id="Group_565" data-name="Group 565" transform="translate(-150.579 -121.159)">
    <rect id="Rectangle_541" data-name="Rectangle 541" width="200" height="200" rx="15" transform="translate(150.579 298) rotate(-45)" fill="#4a3685"/>
    <rect id="Rectangle_549" data-name="Rectangle 549" width="200" height="200" rx="15" transform="translate(655 389.581) rotate(-45)" fill="#4a3685"/>
    <rect id="Rectangle_559" data-name="Rectangle 559" width="142.209" height="142.209" rx="15" transform="translate(1115.306 455.676) rotate(-45)" fill="#4a3685"/>
    <g id="Rectangle_550" data-name="Rectangle 550" transform="translate(796.421 375.106) rotate(-45)" fill="#88438d" stroke="#fefefe" stroke-width="5">
      <rect width="200" height="200" rx="15" stroke="none"/>
      <rect x="2.5" y="2.5" width="195" height="195" rx="12.5" fill="none"/>
    </g>
    <g id="Rectangle_558" data-name="Rectangle 558" transform="translate(1227.164 343.078) rotate(-45)" fill="#88438d" stroke="#fefefe" stroke-width="5">
      <rect width="134.235" height="134.235" rx="15" stroke="none"/>
      <rect x="2.5" y="2.5" width="129.235" height="129.235" rx="12.5" fill="none"/>
    </g>
    <rect id="Rectangle_542" data-name="Rectangle 542" width="154" height="154" rx="15" transform="translate(275.106 484) rotate(-45)" fill="#88438d"/>
    <g id="Rectangle_547" data-name="Rectangle 547" transform="translate(546.106 248.159) rotate(-45)" fill="none" stroke="#4a3685" stroke-width="4">
      <rect width="154" height="154" rx="15" stroke="none"/>
      <rect x="2" y="2" width="150" height="150" rx="13" fill="none"/>
    </g>
    <g id="Rectangle_551" data-name="Rectangle 551" transform="translate(1000.65 273.615) rotate(-45)" fill="none" stroke="#4a3685" stroke-width="4">
      <rect width="190" height="190" rx="15" stroke="none"/>
      <rect x="2" y="2" width="186" height="186" rx="13" fill="none"/>
    </g>
    <g id="Rectangle_543" data-name="Rectangle 543" transform="translate(448.147 415) rotate(-45)" fill="none" stroke="#4a3685" stroke-width="4">
      <rect width="120" height="120" rx="15" stroke="none"/>
      <rect x="2" y="2" width="116" height="116" rx="13" fill="none"/>
    </g>
    <rect id="Rectangle_544" data-name="Rectangle 544" width="94" height="94" rx="15" transform="translate(466.532 330.147) rotate(-45)" fill="#88438d"/>
    <g id="Rectangle_548" data-name="Rectangle 548" transform="translate(655 308.638) rotate(-45)" fill="#88438d" stroke="#fefefe" stroke-width="5">
      <rect width="94" height="94" rx="15" stroke="none"/>
      <rect x="2.5" y="2.5" width="89" height="89" rx="12.5" fill="none"/>
    </g>
    <g id="Rectangle_552" data-name="Rectangle 552" transform="translate(1068.532 273.615) rotate(-45)" fill="#88438d" stroke="#fefefe" stroke-width="5">
      <rect width="94" height="94" rx="15" stroke="none"/>
      <rect x="2.5" y="2.5" width="89" height="89" rx="12.5" fill="none"/>
    </g>
    <g id="Rectangle_553" data-name="Rectangle 553" transform="translate(949.532 227.615) rotate(-45)" fill="#88438d" stroke="#fefefe" stroke-width="5">
      <rect width="58.645" height="58.645" rx="11" stroke="none"/>
      <rect x="2.5" y="2.5" width="53.645" height="53.645" rx="8.5" fill="none"/>
    </g>
    <g id="Rectangle_556" data-name="Rectangle 556" transform="translate(822 220.679) rotate(-45)" fill="#88438d" stroke="#fefefe" stroke-width="5">
      <rect width="58.645" height="58.645" rx="11" stroke="none"/>
      <rect x="2.5" y="2.5" width="53.645" height="53.645" rx="8.5" fill="none"/>
    </g>
    <g id="Rectangle_554" data-name="Rectangle 554" transform="translate(991 186.147) rotate(-45)" fill="#4a3685" stroke="#fefefe" stroke-width="5">
      <rect width="58.645" height="58.645" rx="11" stroke="none"/>
      <rect x="2.5" y="2.5" width="53.645" height="53.645" rx="8.5" fill="none"/>
    </g>
    <g id="Rectangle_555" data-name="Rectangle 555" transform="translate(822 262.147) rotate(-45)" fill="#4a3685" stroke="#fefefe" stroke-width="5">
      <rect width="58.645" height="58.645" rx="11" stroke="none"/>
      <rect x="2.5" y="2.5" width="53.645" height="53.645" rx="8.5" fill="none"/>
    </g>
    <rect id="Rectangle_545" data-name="Rectangle 545" width="62" height="62" rx="8" transform="translate(332.74 175.106) rotate(-45)" fill="#88438d"/>
    <rect id="Rectangle_563" data-name="Rectangle 563" width="62" height="62" rx="8" transform="translate(173.391 521.679) rotate(-45)" fill="#88438d"/>
    <rect id="Rectangle_546" data-name="Rectangle 546" width="40.923" height="40.923" rx="4" transform="translate(390.273 226.839) rotate(-45)" fill="#4a3685"/>
    <rect id="Rectangle_557" data-name="Rectangle 557" width="40.923" height="40.923" rx="4" transform="translate(570.531 477.839) rotate(-45)" fill="#4a3685"/>
    <rect id="Rectangle_562" data-name="Rectangle 562" width="40.923" height="40.923" rx="4" transform="translate(217.232 448.902) rotate(-45)" fill="#4a3685"/>
    <g id="Rectangle_560" data-name="Rectangle 560" transform="translate(1169 216.078) rotate(-45)" fill="#4a3685" stroke="#fefefe" stroke-width="5">
      <rect width="134.235" height="134.235" rx="15" stroke="none"/>
      <rect x="2.5" y="2.5" width="129.235" height="129.235" rx="12.5" fill="none"/>
    </g>
    <rect id="Rectangle_561" data-name="Rectangle 561" width="60" height="60" rx="9" transform="translate(1264 173.574) rotate(45)" fill="#fff"/>
  </g>
</svg>
