<svg xmlns="http://www.w3.org/2000/svg" width="394.526" height="394.526" viewBox="0 0 394.526 394.526">
  <path id="iconmonstr-facebook-6" d="M263.571,0H15.4A15.4,15.4,0,0,0,0,15.4V263.582a15.4,15.4,0,0,0,15.4,15.39H149.018V170.94H112.658v-42.1h36.359V97.791c0-36.034,22-55.655,54.155-55.655A298.229,298.229,0,0,1,235.662,43.8V81.46l-22.295.012c-17.482,0-20.865,8.311-20.865,20.493V128.85H234.2l-5.428,42.1H192.5v108.02h71.091a15.393,15.393,0,0,0,15.378-15.4V15.4A15.4,15.4,0,0,0,263.571,0Z" transform="translate(197.263) rotate(45)" fill="#6785c1" opacity="0.22"/>
</svg>
