<svg xmlns="http://www.w3.org/2000/svg" width="19.37" height="19.37" viewBox="0 0 19.37 19.37">
  <path id="icons8-twitterx_1_" data-name="icons8-twitterx (1)" d="M7.228,4A3.228,3.228,0,0,0,4,7.228V20.141A3.228,3.228,0,0,0,7.228,23.37H20.141a3.228,3.228,0,0,0,3.228-3.228V7.228A3.228,3.228,0,0,0,20.141,4ZM8.19,8.151h3.661l2.6,3.694L17.6,8.151h1.153l-3.787,4.433,4.669,6.635h-3.66l-3.017-4.286L9.3,19.219H8.151l4.293-5.025Zm1.765.922L16.462,18.3h1.413L11.369,9.073Z" transform="translate(-4 -4)" fill="#fefefe"/>
</svg>
