<svg xmlns="http://www.w3.org/2000/svg" xmlns:xlink="http://www.w3.org/1999/xlink" width="420.029" height="723.32" viewBox="0 0 420.029 723.32">
  <defs>
    <clipPath id="clip-path">
      <path id="Path_74" data-name="Path 74" d="M133.676,132.93C112.382,154.267,91.258,176.4,71.87,200.739c-19.374,24.3-36.885,51.024-49.915,80.569a215.391,215.391,0,0,0-8.535,22.745l-3.8,11.636c-1.152,3.883-1.935,7.88-2.888,11.835L4.118,339.416,2.411,351.464.832,363.5.248,375.6A278.108,278.108,0,0,0,12.681,470.4a270.872,270.872,0,0,0,43.044,83.769C74.9,578.832,98.1,600.3,124.871,614.877A305.442,305.442,0,0,1,44.786,462.09C33.534,406.428,38.47,348.818,60.575,298.235c22.375-51.28,60-96.7,97.681-143.214,18.848-23.414,37.852-47.326,54.651-72.959C229.494,56.344,244.529,29.161,253.463,0c-34.168,50.284-77.212,90.27-119.786,132.93" fill="#4f3687"/>
    </clipPath>
    <clipPath id="clip-path-2">
      <path id="Path_75" data-name="Path 75" d="M196.578,150.369c-43.94,44.324-91.892,87.4-130.27,141.806C27.489,346.671,5.042,412.588.789,478.434c-4.324,65.832,9.09,132.859,41.237,188.42-15.647-62.005-18.293-124.665-8.293-184.679,9.972-60.014,32.418-116.9,67.126-165.832,34.723-49.559,79.545-94.054,120.284-143.869,20.284-24.95,39.687-51.337,55.007-80.256C291.272,63.343,302.623,32.02,305.44,0,282.1,60,240.632,106.23,196.578,150.369" fill="#4f3687"/>
    </clipPath>
  </defs>
  <g id="Group_173" data-name="Group 173" transform="translate(-1417 -1111.5)">
    <g id="Group_162" data-name="Group 162" transform="translate(1520.683 1223.311) rotate(-6)">
      <g id="Group_90" data-name="Group 90" transform="translate(0 0)" clip-path="url(#clip-path)">
        <rect id="Rectangle_60" data-name="Rectangle 60" width="254.58" height="614.877" transform="translate(-1.117 0.003)" fill="#4f3687"/>
      </g>
    </g>
    <g id="Group_161" data-name="Group 161" transform="translate(1417 1143.427) rotate(-6)">
      <g id="Group_92" data-name="Group 92" transform="translate(0 0)" clip-path="url(#clip-path-2)">
        <rect id="Rectangle_61" data-name="Rectangle 61" width="308.975" height="666.854" transform="translate(-3.535 0.003)" fill="#4f3687"/>
      </g>
    </g>
  </g>
</svg>
