<svg xmlns="http://www.w3.org/2000/svg" xmlns:xlink="http://www.w3.org/1999/xlink" width="98" height="99" viewBox="0 0 98 99">
  <defs>
    <filter id="Ellipse_26" x="0" y="0" width="98" height="99" filterUnits="userSpaceOnUse">
      <feOffset dy="3" input="SourceAlpha"/>
      <feGaussianBlur stdDeviation="3" result="blur"/>
      <feFlood flood-opacity="0.161"/>
      <feComposite operator="in" in2="blur"/>
      <feComposite in="SourceGraphic"/>
    </filter>
    <clipPath id="clip-path">
      <rect id="Rectangle_210" data-name="Rectangle 210" width="67" height="67" transform="translate(-0.026 -0.026)" fill="none"/>
    </clipPath>
  </defs>
  <g id="Group_273" data-name="Group 273" transform="translate(-729 -1138)">
    <g transform="matrix(1, 0, 0, 1, 729, 1138)" filter="url(#Ellipse_26)">
      <ellipse id="Ellipse_26-2" data-name="Ellipse 26" cx="40" cy="40.5" rx="40" ry="40.5" transform="translate(9 6)" fill="#fefefe"/>
    </g>
    <g id="Group_216" data-name="Group 216" transform="translate(744.026 1151.026)" clip-path="url(#clip-path)">
      <path id="Path_145" data-name="Path 145" d="M28.936,32.365a4.634,4.634,0,0,1,4.015,2.316h2.833l4.355-6.28a1.622,1.622,0,0,1,2.778.187l5.262,10.285,1.883-3.36a1.626,1.626,0,0,1,1.416-.831H67.246c.011-.348.016-.7.016-1.05a33.6,33.6,0,1,0-.48,5.687H53.243l-4.078,6.739a1.623,1.623,0,0,1-2.843-.121L41.093,35.369,38.8,38.63a1.635,1.635,0,0,1-1.329.688H32.951a4.635,4.635,0,1,1-4.015-6.953M33.573,53.7c2.688-2.611,5.3-5.117,7.7-7.518l2.247,4.3c-3.054,3.018-6.418,6.225-9.952,9.691C19.287,46.182,8.077,36.53,8.077,26.791c0-7.634,5.705-12.806,13.152-12.97a13.875,13.875,0,0,1,12.345,6.842,13.892,13.892,0,0,1,12.176-6.819c7.1,0,13.318,4.9,13.318,12.967a13.608,13.608,0,0,1-.4,3.234H53.828a9.892,9.892,0,0,0,.607-3.268c0-5.392-4.212-8.752-9.327-8.28-6.212.572-10.469,8.6-11.537,10.39-1.221-2-5.239-9.82-11.543-10.414-4.89-.462-9.316,2.735-9.316,8.3,0,7.206,10.076,16.42,20.862,26.921" transform="translate(-0.157 -0.157)" fill="#88438d"/>
    </g>
  </g>
</svg>
