<svg xmlns="http://www.w3.org/2000/svg" xmlns:xlink="http://www.w3.org/1999/xlink" width="98" height="99" viewBox="0 0 98 99">
  <defs>
    <filter id="Ellipse_57" x="0" y="0" width="98" height="99" filterUnits="userSpaceOnUse">
      <feOffset dy="3" input="SourceAlpha"/>
      <feGaussianBlur stdDeviation="3" result="blur"/>
      <feFlood flood-opacity="0.161"/>
      <feComposite operator="in" in2="blur"/>
      <feComposite in="SourceGraphic"/>
    </filter>
    <clipPath id="clip-path">
      <rect id="Rectangle_260" data-name="Rectangle 260" width="67" height="67" fill="none"/>
    </clipPath>
  </defs>
  <g id="HR" transform="translate(-418 -486)">
    <g transform="matrix(1, 0, 0, 1, 418, 486)" filter="url(#Ellipse_57)">
      <ellipse id="Ellipse_57-2" data-name="Ellipse 57" cx="40" cy="40.5" rx="40" ry="40.5" transform="translate(9 6)" fill="#fefefe"/>
    </g>
    <g id="Group_317" data-name="Group 317" transform="translate(434 499)">
      <g id="Group_316" data-name="Group 316" clip-path="url(#clip-path)">
        <path id="Path_232" data-name="Path 232" d="M33.5,0A33.5,33.5,0,1,0,67,33.5,33.5,33.5,0,0,0,33.5,0m-.131,12.612A20.757,20.757,0,1,1,12.612,33.369,20.757,20.757,0,0,1,33.369,12.612M17.6,59.906l-.788-5.78L10.773,53.6l5.16-4.666.095-.095a14.68,14.68,0,0,0,7.62,5.78l-.011.011L17.6,59.906m32.318-6.043-1.051,5.7c-5.861-5.1-5.952-5.265-6.043-5.434a15.213,15.213,0,0,0,7.882-5.518L55.439,53.6l-5.518.263" fill="#88438d"/>
        <path id="Path_233" data-name="Path 233" d="M83.317,112.109H79.935v-6.9H73.593v6.9H70.211v-16h3.382v6.274h6.342V96.111h3.382Z" transform="translate(-51.763 -70.858)" fill="#88438d"/>
        <path id="Path_234" data-name="Path 234" d="M140.1,96.111a7.965,7.965,0,0,1,4.828,1.189,4.247,4.247,0,0,1,1.557,3.606,4.2,4.2,0,0,1-.414,1.916,4.341,4.341,0,0,1-1.1,1.388,6.5,6.5,0,0,1-1.466.93l4.7,6.969h-3.764l-3.809-6.139h-1.816v6.139h-3.382v-16Zm-.246,2.779h-1.032v4.325h1.1a4,4,0,0,0,2.407-.562,1.955,1.955,0,0,0,.729-1.657,1.763,1.763,0,0,0-.773-1.625,4.738,4.738,0,0,0-2.431-.481" transform="translate(-99.857 -70.858)" fill="#88438d"/>
      </g>
    </g>
  </g>
</svg>
