<svg xmlns="http://www.w3.org/2000/svg" xmlns:xlink="http://www.w3.org/1999/xlink" width="98" height="99" viewBox="0 0 98 99">
  <defs>
    <linearGradient id="linear-gradient" x1="0.219" y1="0.893" x2="0.871" y2="0.098" gradientUnits="objectBoundingBox">
      <stop offset="0" stop-color="#4267b2"/>
      <stop offset="0.116" stop-color="#5851db"/>
      <stop offset="0.49" stop-color="#7039a2"/>
      <stop offset="0.711" stop-color="#833ab4"/>
      <stop offset="0.901" stop-color="#c13584"/>
      <stop offset="0.952" stop-color="#e1306c"/>
      <stop offset="1" stop-color="#fd1d1d"/>
    </linearGradient>
    <filter id="Ellipse_30" x="0" y="0" width="98" height="99" filterUnits="userSpaceOnUse">
      <feOffset dy="3" input="SourceAlpha"/>
      <feGaussianBlur stdDeviation="3" result="blur"/>
      <feFlood flood-opacity="0.161"/>
      <feComposite operator="in" in2="blur"/>
      <feComposite in="SourceGraphic"/>
    </filter>
  </defs>
  <g id="Instagram" transform="translate(9 -19)">
    <g transform="matrix(1, 0, 0, 1, -9, 19)" filter="url(#Ellipse_30)">
      <ellipse id="Ellipse_30-2" data-name="Ellipse 30" cx="40" cy="40.5" rx="40" ry="40.5" transform="translate(9 6)" fill="url(#linear-gradient)"/>
    </g>
    <path id="iconmonstr-instagram-11" d="M21.656,3.9c5.782,0,6.468.022,8.753.126,5.869.267,8.61,3.052,8.877,8.877.1,2.283.125,2.969.125,8.751s-.022,6.468-.125,8.751c-.269,5.82-3,8.61-8.877,8.877-2.285.1-2.967.126-8.753.126s-6.468-.022-8.751-.126c-5.883-.269-8.61-3.066-8.877-8.879-.1-2.283-.126-2.967-.126-8.751s.023-6.466.126-8.751c.269-5.824,3-8.61,8.877-8.877,2.285-.1,2.969-.125,8.751-.125Zm0-3.9c-5.882,0-6.618.025-8.928.13C4.864.491.493,4.855.132,12.727.025,15.039,0,15.775,0,21.656s.025,6.62.13,8.93c.361,7.865,4.725,12.236,12.6,12.6,2.312.1,3.048.13,8.93.13s6.62-.025,8.93-.13c7.858-.361,12.24-4.725,12.6-12.6.106-2.31.132-3.048.132-8.93s-.025-6.618-.13-8.928C42.829,4.871,38.46.493,30.588.132,28.276.025,27.538,0,21.656,0Zm0,10.536A11.122,11.122,0,1,0,32.777,21.656,11.121,11.121,0,0,0,21.656,10.536Zm0,18.339a7.219,7.219,0,1,1,7.219-7.219A7.218,7.218,0,0,1,21.656,28.875ZM33.217,7.5a2.6,2.6,0,1,0,2.6,2.6A2.6,2.6,0,0,0,33.217,7.5Z" transform="translate(18.344 43.844)" fill="#fefefe"/>
  </g>
</svg>
