<svg xmlns="http://www.w3.org/2000/svg" xmlns:xlink="http://www.w3.org/1999/xlink" width="98" height="99" viewBox="0 0 98 99">
  <defs>
    <filter id="Ellipse_37" x="0" y="0" width="98" height="99" filterUnits="userSpaceOnUse">
      <feOffset dy="3" input="SourceAlpha"/>
      <feGaussianBlur stdDeviation="3" result="blur"/>
      <feFlood flood-opacity="0.161"/>
      <feComposite operator="in" in2="blur"/>
      <feComposite in="SourceGraphic"/>
    </filter>
    <clipPath id="clip-path">
      <rect id="Rectangle_240" data-name="Rectangle 240" width="67" height="67" transform="translate(-0.296 -0.296)" fill="none"/>
    </clipPath>
  </defs>
  <g id="Judge" transform="translate(-315 -168)">
    <g transform="matrix(1, 0, 0, 1, 315, 168)" filter="url(#Ellipse_37)">
      <ellipse id="Ellipse_37-2" data-name="Ellipse 37" cx="40" cy="40.5" rx="40" ry="40.5" transform="translate(9 6)" fill="#fefefe"/>
    </g>
    <g id="Group_277" data-name="Group 277" transform="translate(331.296 181.296)">
      <g id="Group_276" data-name="Group 276" clip-path="url(#clip-path)">
        <path id="Path_192" data-name="Path 192" d="M33.2,0a33.2,33.2,0,1,0,33.2,33.2A33.2,33.2,0,0,0,33.2,0M51.3,45.395v.2a.239.239,0,0,1-.24.24h-14.1a.239.239,0,0,1-.24-.24v-.2a.6.6,0,0,1,.6-.6H50.7a.6.6,0,0,1,.6.6m-24.238-6.13a1.918,1.918,0,0,1-1.94.3L20.3,44.389a5.315,5.315,0,0,1-1.591,3.229c-1.8,1.8-4.383,2.138-5.766.755s-1.044-3.966.755-5.766A5.193,5.193,0,0,1,17.248,41l4.578-4.576a2.043,2.043,0,0,1,.229-2.172,2.043,2.043,0,0,1,2.172-.229l9.1-9.1a1.187,1.187,0,0,1,.591-.328l-4.073-4.073-.029.026a.605.605,0,0,1-.857,0l-1.573-1.573a.61.61,0,0,1,0-.857l6.526-6.524a.6.6,0,0,1,.854,0l1.573,1.573a.605.605,0,0,1,0,.857l-.026.026L47.4,25.134l.049-.049a.605.605,0,0,1,.857,0l1.573,1.573a.605.605,0,0,1,0,.857l-6.524,6.524a.605.605,0,0,1-.857,0l-1.573-1.573a.605.605,0,0,1,0-.857l.005-.005-4.05-4.05a1.2,1.2,0,0,1-.328.589l-9.183,9.183a1.918,1.918,0,0,1-.3,1.94M52.371,50.028a1.7,1.7,0,0,1-1.2.495H36.59a1.693,1.693,0,1,1,0-3.386H51.173a1.694,1.694,0,0,1,1.2,2.891" fill="#88438d"/>
      </g>
    </g>
  </g>
</svg>
