<svg xmlns="http://www.w3.org/2000/svg" width="450.808" height="530.424" viewBox="0 0 450.808 530.424">
  <g id="logoall" transform="translate(719.51 3842.666)">
    <g id="Group_353" data-name="Group 353" transform="translate(-775.847 -3849.625)">
      <path id="Path_235" data-name="Path 235" d="M427.707,125.4c-13.586-34.682-38.7-64.549-70.052-84.613A177.646,177.646,0,0,0,251.2,13.614c-37.033,2.465-73.32,16.625-101.467,40.472a176.117,176.117,0,0,0-36.058,41.389,168.673,168.673,0,0,0-12.669,24.306,165.62,165.62,0,0,0-8.656,25.911c-8.714,35.313-5.733,73.148,8.255,105.824-10.433-33.937-10.72-70.511-.229-103.645A167.923,167.923,0,0,1,202.588,39.583a151.825,151.825,0,0,1,24.421-6.936,155.513,155.513,0,0,1,25.223-3.1A165.206,165.206,0,0,1,412.859,131.3c13.07,31.243,15.936,66.67,8.656,99.976a168.563,168.563,0,0,1-50.963,87.766c-25.453,23.561-58.587,39.039-93.785,43.969,35.6-1.146,71.027-14.733,99.231-37.663a175.914,175.914,0,0,0,36.4-40.644,172.408,172.408,0,0,0,22.013-50.332C443.815,198.835,441.178,160.082,427.707,125.4Z" transform="translate(0 29.638)" fill="#fefefe"/>
      <path id="Path_236" data-name="Path 236" d="M132.935,272.23c25.051,6.879,59.963,23.5,65.868,4.3s3.44-24.65,14.446-28.147c11.007-3.554-.459-11.179.287-15.765s10.949-1.2,11.121-6.191-7.968-6.707-6.249-12.841c1.72-6.077,17.542-4.471,18.975-12.956s-19.949-25.51-16.682-38.752c3.21-13.242,8.6-12.268,10.949-29.122,1.605-11.637.86-32.79-13.013-50.275a95.581,95.581,0,0,0,2.58-14.561,84.278,84.278,0,0,0-1.147-23.733,61.43,61.43,0,0,0-8.886-21.5,70.687,70.687,0,0,1,4.242,22.07,84.506,84.506,0,0,1-2.35,21.841c-3.382,14.274-9.917,27.287-18.4,39.268-16.682,24.077-39.9,43.912-59.16,68.963-9.516,12.554-18.23,26.427-23.332,42.077l-1.834,5.9c-.516,2.006-.917,4.013-1.319,6.019-1.032,3.955-1.261,8.083-1.834,12.153a111.074,111.074,0,0,0,.573,24.306,112.312,112.312,0,0,0,15.879,44.886,98.89,98.89,0,0,0,32.79,32.905A118.82,118.82,0,0,1,121.871,272.8,16.332,16.332,0,0,1,132.935,272.23Z" transform="translate(91.609 74.449)" fill="#fefefe"/>
      <path id="Path_237" data-name="Path 237" d="M124.933,153.762c9-20.637,24.192-38.982,39.383-57.727,7.567-9.4,15.249-19.09,22.013-29.408,6.707-10.376,12.726-21.325,16.338-33.077-13.758,20.236-31.128,36.4-48.268,53.6a335.456,335.456,0,0,0-24.937,27.344,150.965,150.965,0,0,0-20.121,32.446,83.713,83.713,0,0,0-3.44,9.172l-1.548,4.7c-.459,1.548-.8,3.153-1.146,4.758l-1.032,4.815-.688,4.873-.631,4.873-.229,4.873a112.53,112.53,0,0,0,4.987,38.179,109.758,109.758,0,0,0,17.37,33.765c7.739,9.917,17.083,18.574,27.86,24.478a123.082,123.082,0,0,1-32.274-61.568C114.041,197.33,116.048,174.113,124.933,153.762Z" transform="translate(61.89 125.845)" fill="#fefefe"/>
      <path id="Path_238" data-name="Path 238" d="M107.419,221.488a160.721,160.721,0,0,1,27.058-66.842c13.988-19.949,32.045-37.892,48.5-57.957,8.2-10.032,15.994-20.695,22.185-32.332,6.077-11.637,10.663-24.249,11.809-37.147-9.4,24.192-26.141,42.823-43.854,60.594C155.4,105.689,136.082,123,120.6,144.957A146.637,146.637,0,0,0,94.177,220c-1.72,26.542,3.669,53.542,16.625,75.957A182.221,182.221,0,0,1,107.419,221.488Z" transform="translate(30.39 95.84)" fill="#fefefe"/>
      <path id="Path_239" data-name="Path 239" d="M466.007,205.944a208.466,208.466,0,0,0-21.841-82.205,216.059,216.059,0,0,0-52.8-67.071,212.992,212.992,0,0,0-74.982-40.759A209.9,209.9,0,0,0,231.658,8.4a214.071,214.071,0,0,0-41.561,9,205.253,205.253,0,0,0-38.638,17.37A202.168,202.168,0,0,0,89.49,90.547a222.678,222.678,0,0,1,65.294-49.7,208.379,208.379,0,0,1,77.963-21.5c53.886-4.357,108.8,13.242,149.563,48.154,41.217,34.4,67.931,85.416,72.747,139.245a211.519,211.519,0,0,1-7.968,80.486,221.318,221.318,0,0,1-38.007,72.689,201.942,201.942,0,0,0,44.6-70.511A208.249,208.249,0,0,0,466.007,205.944Z" transform="translate(9.682 0)" fill="#fefefe"/>
    </g>
    <g id="Group_355" data-name="Group 355" transform="translate(-737.64 -3500.508)">
      <g id="Group_319" data-name="Group 319" transform="translate(18.13 86.38)">
        <path id="Path_240" data-name="Path 240" d="M29.007,99.417V97.844a.334.334,0,0,1,.371-.371h3.385a.334.334,0,0,1,.371.371v11.9a2.136,2.136,0,0,0,.415,1.529,1.806,1.806,0,0,0,1.332.415h1.4c.983,0,1.463.612,1.463,1.835a2.021,2.021,0,0,1-.349,1.441,1.516,1.516,0,0,1-1.114.349h-2.97a5.181,5.181,0,0,1-2.817-.633,3.187,3.187,0,0,1-1.332-2.206,5.3,5.3,0,0,1-1.835.983,7.679,7.679,0,0,1-2.25.328,9.124,9.124,0,0,1-2.708-.393,5.794,5.794,0,0,1-2.206-1.245,6.065,6.065,0,0,1-1.485-2.14,7.952,7.952,0,0,1-.546-3.145,8.974,8.974,0,0,1,.612-3.56,5.8,5.8,0,0,1,1.616-2.293,6.135,6.135,0,0,1,2.293-1.223,9.854,9.854,0,0,1,2.686-.371ZM22,94.939a.334.334,0,0,1-.371-.371V91.4A.334.334,0,0,1,22,91.03h3.079a.334.334,0,0,1,.371.371v3.167a.334.334,0,0,1-.371.371Zm3.56,15.223a3.148,3.148,0,0,0,2.6-1,4.478,4.478,0,0,0,.852-2.948v-3.123H25.73a3.754,3.754,0,0,0-2.533.808,3.78,3.78,0,0,0-.961,2.97,3.168,3.168,0,0,0,.874,2.49A3.519,3.519,0,0,0,25.556,110.162Zm1.2-15.223a.334.334,0,0,1-.371-.371V91.4a.334.334,0,0,1,.371-.371h3.08a.334.334,0,0,1,.371.371v3.167a.334.334,0,0,1-.371.371Z" transform="translate(-18.13 -80.874)" fill="#fefefe"/>
        <path id="Path_241" data-name="Path 241" d="M27.339,104.116a1.2,1.2,0,0,1-1-.371,2.443,2.443,0,0,1-.284-1.354,2.972,2.972,0,0,1,.262-1.507,1.16,1.16,0,0,1,1.026-.393H31.75a1.421,1.421,0,0,1,1.092.393,2.1,2.1,0,0,1,.371,1.4,2.156,2.156,0,0,1-.349,1.485,1.516,1.516,0,0,1-1.114.349Z" transform="translate(-8.752 -69.673)" fill="#fefefe"/>
        <path id="Path_242" data-name="Path 242" d="M29.349,104.116a1.2,1.2,0,0,1-1-.371,2.443,2.443,0,0,1-.284-1.354,2.972,2.972,0,0,1,.262-1.507,1.16,1.16,0,0,1,1.026-.393H33.76a1.421,1.421,0,0,1,1.092.393,2.1,2.1,0,0,1,.371,1.4,2.156,2.156,0,0,1-.349,1.485,1.516,1.516,0,0,1-1.114.349Z" transform="translate(-6.372 -69.673)" fill="#fefefe"/>
        <path id="Path_243" data-name="Path 243" d="M31.369,104.116a1.2,1.2,0,0,1-1-.371,2.443,2.443,0,0,1-.284-1.354,2.972,2.972,0,0,1,.262-1.507,1.16,1.16,0,0,1,1.026-.393H35.78a1.421,1.421,0,0,1,1.092.393,2.1,2.1,0,0,1,.371,1.4,2.156,2.156,0,0,1-.349,1.485,1.516,1.516,0,0,1-1.114.349Z" transform="translate(-3.981 -69.673)" fill="#fefefe"/>
        <path id="Path_244" data-name="Path 244" d="M33.389,104.116a1.2,1.2,0,0,1-1-.371,2.443,2.443,0,0,1-.284-1.354,2.972,2.972,0,0,1,.262-1.507,1.16,1.16,0,0,1,1.027-.393H37.8a1.421,1.421,0,0,1,1.092.393,2.1,2.1,0,0,1,.371,1.4,2.156,2.156,0,0,1-.349,1.485,1.516,1.516,0,0,1-1.114.349Z" transform="translate(-1.589 -69.673)" fill="#fefefe"/>
        <path id="Path_245" data-name="Path 245" d="M43.358,108.536A2.749,2.749,0,0,1,41.808,110a8.226,8.226,0,0,1-2.817.393H35.583a1.494,1.494,0,0,1-1.092-.349,1.958,1.958,0,0,1-.371-1.376,2.314,2.314,0,0,1,.349-1.485,1.374,1.374,0,0,1,1.114-.415h2.381a2.042,2.042,0,0,0,1-.2,1.273,1.273,0,0,0,.524-.633,3.621,3.621,0,0,0,.2-1.092c.022-.437.044-1,.044-1.66V95.541a.309.309,0,0,1,.2-.306,1.373,1.373,0,0,1,.415-.066h3.167a.334.334,0,0,1,.371.371V104.5a1.939,1.939,0,0,0,.83,1.682,3.744,3.744,0,0,0,2.228.59h.633a1.421,1.421,0,0,1,1.092.393,2.008,2.008,0,0,1,.371,1.354,2.2,2.2,0,0,1-.349,1.463,1.441,1.441,0,0,1-1.114.393,7.7,7.7,0,0,1-2.49-.349A2.734,2.734,0,0,1,43.358,108.536Zm-5.722,8.911a.334.334,0,0,1-.371-.371v-3.167a.334.334,0,0,1,.371-.371h3.08a.334.334,0,0,1,.371.371v3.167a.334.334,0,0,1-.371.371Zm4.783,0a.334.334,0,0,1-.371-.371v-3.167a.334.334,0,0,1,.371-.371H45.5a.334.334,0,0,1,.371.371v3.167a.334.334,0,0,1-.371.371Z" transform="translate(0.803 -75.972)" fill="#fefefe"/>
        <path id="Path_246" data-name="Path 246" d="M41.063,110.415a1.873,1.873,0,0,1-1.092-.262,1.215,1.215,0,0,1-.371-1.027,3.61,3.61,0,0,1,.349-1.638,1.177,1.177,0,0,1,1.114-.721h1.791a1.806,1.806,0,0,0,1.332-.415,2.136,2.136,0,0,0,.415-1.529V95.541a.334.334,0,0,1,.371-.371H48.38a.334.334,0,0,1,.371.371v10.243a5.177,5.177,0,0,1-.983,3.494,4.232,4.232,0,0,1-3.3,1.114H41.063Zm3.232,6.967a.334.334,0,0,1-.371-.371v-3.167a.334.334,0,0,1,.371-.371h3.516a.334.334,0,0,1,.371.371v3.167a.334.334,0,0,1-.371.371Z" transform="translate(7.291 -75.972)" fill="#fefefe"/>
        <path id="Path_247" data-name="Path 247" d="M48.972,95.541a.334.334,0,0,1,.371-.371h3.407a.334.334,0,0,1,.371.371V104.5a1.939,1.939,0,0,0,.83,1.682,3.744,3.744,0,0,0,2.228.59h.633a1.421,1.421,0,0,1,1.092.393,2.008,2.008,0,0,1,.371,1.354,2.2,2.2,0,0,1-.349,1.463,1.441,1.441,0,0,1-1.114.393,8.724,8.724,0,0,1-2.14-.218,2.907,2.907,0,0,1-1.529-.983v.7a16.315,16.315,0,0,1-.328,3.473,6.11,6.11,0,0,1-1.092,2.468,4.5,4.5,0,0,1-2.009,1.485,8.412,8.412,0,0,1-3.08.5H45.281a.334.334,0,0,1-.371-.371V114.5a.334.334,0,0,1,.371-.371h.808a3.222,3.222,0,0,0,1.66-.371,2.056,2.056,0,0,0,.852-1.092,6.215,6.215,0,0,0,.328-1.725c.044-.677.066-1.441.066-2.337V95.541Z" transform="translate(13.579 -75.972)" fill="#fefefe"/>
        <path id="Path_248" data-name="Path 248" d="M61.418,94.87q4.226,0,6.159,1.573a5.115,5.115,0,0,1,1.944,4.15,5.915,5.915,0,0,1-.349,2.075,8.078,8.078,0,0,1-.9,1.791,9.155,9.155,0,0,1-1.245,1.485,9.577,9.577,0,0,1-1.354,1.092,2.967,2.967,0,0,0,.633.066H71.64a1.289,1.289,0,0,1,1.136.437A2.7,2.7,0,0,1,73.081,109a1.969,1.969,0,0,1-.349,1.376,1.46,1.46,0,0,1-1.092.349H66.18a13.245,13.245,0,0,1-2.512-.24,6.654,6.654,0,0,1-2.25-.9,8.218,8.218,0,0,1-2.577.9,14.864,14.864,0,0,1-2.424.24H51.131a1.479,1.479,0,0,1-1.07-.371A1.931,1.931,0,0,1,49.69,109a3.508,3.508,0,0,1,.24-1.441c.153-.328.568-.48,1.2-.48h4.3c.393,0,.83-.022,1.332-.066a12.762,12.762,0,0,0,1.725-.284,8.4,8.4,0,0,0-.786-2.1,7.612,7.612,0,0,0-1.114-1.551,10.053,10.053,0,0,0-1.332-1.223l-1.441-1.048a1.177,1.177,0,0,1-.459-.524,1.911,1.911,0,0,1-.066-.524V97.447c0-.262.24-.568.7-.874a6.545,6.545,0,0,1,1.835-.852,15.106,15.106,0,0,1,2.6-.633A22.171,22.171,0,0,1,61.418,94.87Zm.546,11.073a12.722,12.722,0,0,0,1.2-.874,8.545,8.545,0,0,0,1.07-1.114,5.963,5.963,0,0,0,.743-1.31,3.612,3.612,0,0,0,.284-1.441,2.186,2.186,0,0,0-1.092-2.1,5.741,5.741,0,0,0-2.774-.59,10.862,10.862,0,0,0-2.555.284,7.1,7.1,0,0,0-1.485.524,10.237,10.237,0,0,1,2.883,2.774A10.568,10.568,0,0,1,61.964,105.943Z" transform="translate(19.238 -76.327)" fill="#fefefe"/>
        <path id="Path_249" data-name="Path 249" d="M60.543,115.684a1.494,1.494,0,0,1-1.092-.349,2.013,2.013,0,0,1-.371-1.42,2.252,2.252,0,0,1,.349-1.441,1.374,1.374,0,0,1,1.114-.415h1.791a1.806,1.806,0,0,0,1.332-.415,2.136,2.136,0,0,0,.415-1.529V91.091a.334.334,0,0,1,.371-.371H67.86a.334.334,0,0,1,.371.371v19.962a5.177,5.177,0,0,1-.983,3.494,4.232,4.232,0,0,1-3.3,1.114H60.543Z" transform="translate(30.356 -81.241)" fill="#fefefe"/>
        <path id="Path_250" data-name="Path 250" d="M69.62,115.324a.334.334,0,0,1-.371.371H65.841a.334.334,0,0,1-.371-.371V91.081a.334.334,0,0,1,.371-.371h3.407a.334.334,0,0,1,.371.371Z" transform="translate(37.923 -81.253)" fill="#fefefe"/>
        <path id="Path_251" data-name="Path 251" d="M80.727,114.764a10.383,10.383,0,0,1-3.08-.437,5.789,5.789,0,0,1-2.381-1.4,6.537,6.537,0,0,1-1.551-2.468,10.649,10.649,0,0,1-.546-3.669,11.555,11.555,0,0,1,.568-3.822,5.958,5.958,0,0,1,3.975-3.931,10.149,10.149,0,0,1,3.014-.437,10.364,10.364,0,0,1,3.014.437,6.016,6.016,0,0,1,2.4,1.4,6.268,6.268,0,0,1,1.573,2.534,11.555,11.555,0,0,1,.568,3.822,10.649,10.649,0,0,1-.546,3.669,6.537,6.537,0,0,1-1.551,2.468,6.282,6.282,0,0,1-2.4,1.4A9.86,9.86,0,0,1,80.727,114.764ZM76.861,95.609a.334.334,0,0,1-.371-.371V92.071a.334.334,0,0,1,.371-.371h3.08a.334.334,0,0,1,.371.371v3.167a.334.334,0,0,1-.371.371Zm3.866,6.683a3.061,3.061,0,0,0-2.643,1.136,5.447,5.447,0,0,0-.852,3.3,5.344,5.344,0,0,0,.852,3.385,3.234,3.234,0,0,0,2.621,1.026,3.1,3.1,0,0,0,2.6-1.048,5.315,5.315,0,0,0,.852-3.363C84.178,103.778,83.02,102.293,80.727,102.293Zm.917-6.683a.334.334,0,0,1-.371-.371V92.071a.334.334,0,0,1,.371-.371h3.08a.334.334,0,0,1,.371.371v3.167a.334.334,0,0,1-.371.371Z" transform="translate(47.04 -80.081)" fill="#fefefe"/>
        <path id="Path_252" data-name="Path 252" d="M82.666,92.146a3.7,3.7,0,0,1-.415-.939,3.9,3.9,0,0,1-.175-1.158,4.364,4.364,0,0,1,.2-1.267A3.2,3.2,0,0,1,82.95,87.6a3.558,3.558,0,0,1,1.2-.874,4.031,4.031,0,0,1,1.791-.349,4.186,4.186,0,0,1,1.835.393,3.535,3.535,0,0,1,1.289,1q.1.229,0,.328l-.961.917c-.153.131-.262.131-.371.044a4.371,4.371,0,0,0-.808-.612,2.022,2.022,0,0,0-.961-.24,1.727,1.727,0,0,0-1.332.524,1.887,1.887,0,0,0-.48,1.332,2.081,2.081,0,0,0,.393,1.267,3.336,3.336,0,0,0,.786.786h3.713c.153,0,.218.087.218.262V93.74c0,.175-.066.262-.218.262H81.268c-.153,0-.218-.087-.218-.262V92.386c0-.175.066-.262.218-.262h1.4Zm4.7,28.305a.334.334,0,0,1-.371.371H83.584a.334.334,0,0,1-.371-.371V96.208a.334.334,0,0,1,.371-.371h3.407a.334.334,0,0,1,.371.371Z" transform="translate(56.37 -86.38)" fill="#fefefe"/>
        <path id="Path_253" data-name="Path 253" d="M89.112,95.541a.334.334,0,0,1,.371-.371h3.407a.334.334,0,0,1,.371.371V104.5a1.939,1.939,0,0,0,.83,1.682,3.744,3.744,0,0,0,2.228.59h.633a1.421,1.421,0,0,1,1.092.393,2.008,2.008,0,0,1,.371,1.354,2.2,2.2,0,0,1-.349,1.463,1.441,1.441,0,0,1-1.114.393,8.724,8.724,0,0,1-2.14-.218,2.907,2.907,0,0,1-1.529-.983v.7a16.315,16.315,0,0,1-.328,3.473,6.248,6.248,0,0,1-1.092,2.468,4.626,4.626,0,0,1-2.009,1.485,8.412,8.412,0,0,1-3.08.5H85.421a.334.334,0,0,1-.371-.371V114.5a.334.334,0,0,1,.371-.371h.808a3.167,3.167,0,0,0,1.66-.371,2.056,2.056,0,0,0,.852-1.092,6.213,6.213,0,0,0,.328-1.725c.044-.677.066-1.441.066-2.337V95.541Z" transform="translate(61.106 -75.972)" fill="#fefefe"/>
        <path id="Path_254" data-name="Path 254" d="M95.008,102.689a10.385,10.385,0,0,1,.612-3.626,6.569,6.569,0,0,1,1.572-2.424,6.065,6.065,0,0,1,2.359-1.354,9.865,9.865,0,0,1,2.97-.415,10.364,10.364,0,0,1,3.014.437,6.016,6.016,0,0,1,2.4,1.4,6.268,6.268,0,0,1,1.573,2.533,11.555,11.555,0,0,1,.568,3.822v.633a5.757,5.757,0,0,1-.044.612,3,3,0,0,0,.721,2.184,2.18,2.18,0,0,0,1.551.633h1.07a1.421,1.421,0,0,1,1.092.393,2.008,2.008,0,0,1,.371,1.354,2.2,2.2,0,0,1-.349,1.463,1.441,1.441,0,0,1-1.114.393c-.415,0-.852-.022-1.31-.044a5.685,5.685,0,0,1-1.354-.24,4.9,4.9,0,0,1-1.289-.59,3.987,3.987,0,0,1-1.092-1.092,5.381,5.381,0,0,1-2.468,1.682,10.068,10.068,0,0,1-3.363.524,10.255,10.255,0,0,1-3.3-.5,5.712,5.712,0,0,1-2.468-1.638,3.385,3.385,0,0,1-.874.961,4.6,4.6,0,0,1-1.07.568,6.649,6.649,0,0,1-1.136.284,10.048,10.048,0,0,1-1.092.066H91.273a1.355,1.355,0,0,1-1.092-.415,2.17,2.17,0,0,1-.371-1.42,2.133,2.133,0,0,1,.349-1.441,1.52,1.52,0,0,1,1.114-.371h1.441a2.12,2.12,0,0,0,1.573-.721,3.9,3.9,0,0,0,.743-2.621,4.989,4.989,0,0,1-.044-.546A2.945,2.945,0,0,0,95.008,102.689Zm7.535-4.15a2.977,2.977,0,0,0-2.6,1.136,5.447,5.447,0,0,0-.852,3.3,5.344,5.344,0,0,0,.852,3.385,3.829,3.829,0,0,0,5.242-.022,5.315,5.315,0,0,0,.852-3.363C106.037,100.024,104.858,98.539,102.543,98.539Z" transform="translate(66.742 -76.327)" fill="#fefefe"/>
        <path id="Path_255" data-name="Path 255" d="M103.184,112.048a1.806,1.806,0,0,0,1.332-.415,2.136,2.136,0,0,0,.415-1.529V91.081a.334.334,0,0,1,.371-.371h3.407a.334.334,0,0,1,.371.371v18.7a1.939,1.939,0,0,0,.83,1.682,3.744,3.744,0,0,0,2.228.59h.612a1.421,1.421,0,0,1,1.092.393,2.008,2.008,0,0,1,.371,1.354,2.2,2.2,0,0,1-.349,1.463,1.441,1.441,0,0,1-1.114.393,7.7,7.7,0,0,1-2.49-.349,2.933,2.933,0,0,1-1.682-1.529,2.89,2.89,0,0,1-1.485,1.441,6.717,6.717,0,0,1-2.621.415h-3.08a1.494,1.494,0,0,1-1.092-.349,2.236,2.236,0,0,1-.371-1.529,2.044,2.044,0,0,1,.349-1.376,1.44,1.44,0,0,1,1.114-.393h1.791Z" transform="translate(78.725 -81.253)" fill="#fefefe"/>
        <path id="Path_256" data-name="Path 256" d="M106.6,115.684a1.494,1.494,0,0,1-1.092-.349,2.013,2.013,0,0,1-.371-1.42,2.253,2.253,0,0,1,.349-1.441,1.374,1.374,0,0,1,1.114-.415h1.791a1.806,1.806,0,0,0,1.332-.415,2.136,2.136,0,0,0,.415-1.529V91.091a.334.334,0,0,1,.371-.371h3.407a.334.334,0,0,1,.371.371v19.962a5.177,5.177,0,0,1-.983,3.494,4.232,4.232,0,0,1-3.3,1.114H106.6Z" transform="translate(84.893 -81.241)" fill="#fefefe"/>
        <path id="Path_257" data-name="Path 257" d="M119.213,107.559a4.742,4.742,0,0,0,.524,2.337,4.187,4.187,0,0,0,1.332,1.485,4.888,4.888,0,0,0,1.835.764,9.487,9.487,0,0,0,2.1.218h7.317a5.469,5.469,0,0,0,2.927-.568,1.687,1.687,0,0,0,.786-1.42,1.455,1.455,0,0,0-.612-1.092,12.994,12.994,0,0,0-1.551-1.158c-.612-.415-1.289-.83-2.009-1.31a14,14,0,0,1-2.009-1.594,8.113,8.113,0,0,1-1.551-2.009,5.229,5.229,0,0,1-.612-2.577,6.231,6.231,0,0,1,.5-2.468,6.626,6.626,0,0,1,1.441-2.031,7.028,7.028,0,0,1,2.25-1.354,8.47,8.47,0,0,1,2.97-.5,8.965,8.965,0,0,1,4.062.786,8.007,8.007,0,0,1,2.577,2.075c.153.175.109.349-.109.524l-1.987,1.944a.341.341,0,0,1-.524-.044,5.734,5.734,0,0,0-1.66-1.2,4.961,4.961,0,0,0-2.162-.415,3.782,3.782,0,0,0-2.228.677,2.281,2.281,0,0,0-.983,2.009,2.411,2.411,0,0,0,.612,1.616A11.162,11.162,0,0,0,134,103.693c.633.459,1.289.939,2.031,1.42a18.125,18.125,0,0,1,2.009,1.551,8.452,8.452,0,0,1,1.551,1.791,4.083,4.083,0,0,1,.633,2.228,5.208,5.208,0,0,1-.415,2.1,4.5,4.5,0,0,1-1.289,1.747,6.377,6.377,0,0,1-2.271,1.179,11.641,11.641,0,0,1-3.342.415h-8.561c-3.189,0-5.548-.743-7.1-2.206a7.861,7.861,0,0,1-2.337-5.984,12.6,12.6,0,0,1,.633-3.975,13.691,13.691,0,0,1,1.551-3.407c.131-.218.306-.24.546-.066l2.97,1.179q.2.066.2.2a.364.364,0,0,1-.066.284,16.587,16.587,0,0,0-1.114,2.4A12.875,12.875,0,0,0,119.213,107.559Zm4.849,14.851a.334.334,0,0,1-.371-.371v-3.167a.334.334,0,0,1,.371-.371h3.079a.334.334,0,0,1,.371.371v3.167a.334.334,0,0,1-.371.371Zm4.783,0a.334.334,0,0,1-.371-.371v-3.167a.334.334,0,0,1,.371-.371h3.08a.334.334,0,0,1,.371.371v3.167a.334.334,0,0,1-.371.371Z" transform="translate(96.462 -77.026)" fill="#fefefe"/>
        <path id="Path_258" data-name="Path 258" d="M131.848,118.186a.334.334,0,0,1-.371-.371v-2.927a.334.334,0,0,1,.371-.371h4.3a5.716,5.716,0,0,0,1.463-.175,2.243,2.243,0,0,0,1.027-.568,2.815,2.815,0,0,0,.633-1.136,6.42,6.42,0,0,0,.218-1.878h-3.713a10.821,10.821,0,0,1-3.058-.393,5.123,5.123,0,0,1-2.25-1.289,5.793,5.793,0,0,1-1.42-2.337,10.989,10.989,0,0,1-.5-3.516,10.653,10.653,0,0,1,.633-3.844,7.1,7.1,0,0,1,1.66-2.6,6.124,6.124,0,0,1,2.381-1.463,8.826,8.826,0,0,1,2.861-.459,10.3,10.3,0,0,1,3.036.437,5.852,5.852,0,0,1,2.359,1.4,6.46,6.46,0,0,1,1.551,2.49,11.231,11.231,0,0,1,.546,3.778v4.15h2.533a1.421,1.421,0,0,1,1.092.393,2.008,2.008,0,0,1,.371,1.354,2.257,2.257,0,0,1-.349,1.529,1.516,1.516,0,0,1-1.114.349h-2.533v.808c0,2.293-.568,3.975-1.725,5.023a7.213,7.213,0,0,1-5.023,1.573h-4.98Zm4.259-19.635A3.034,3.034,0,0,0,133.53,99.8a5.372,5.372,0,0,0-.939,3.342c0,1.551.306,2.6.939,3.167a3.91,3.91,0,0,0,2.708.852h3.276v-4.193a5.5,5.5,0,0,0-.808-3.276A3,3,0,0,0,136.107,98.551Z" transform="translate(112.612 -76.339)" fill="#fefefe"/>
        <path id="Path_259" data-name="Path 259" d="M145.161,108.6a1.939,1.939,0,0,0,.83,1.682,3.744,3.744,0,0,0,2.228.59h.633a1.421,1.421,0,0,1,1.092.393,2.008,2.008,0,0,1,.371,1.354,2.2,2.2,0,0,1-.349,1.463,1.44,1.44,0,0,1-1.114.393,7.7,7.7,0,0,1-2.49-.349,2.933,2.933,0,0,1-1.682-1.529,2.779,2.779,0,0,1-1.529,1.463,7.871,7.871,0,0,1-2.774.393h-2.9a2.075,2.075,0,0,1-1.092-.24c-.24-.153-.371-.5-.371-1.048a3.61,3.61,0,0,1,.349-1.638,1.2,1.2,0,0,1,1.158-.721h1.769a2.4,2.4,0,0,0,.983-.175,1.156,1.156,0,0,0,.524-.59,3.342,3.342,0,0,0,.2-1.07c.022-.437.044-.983.044-1.616V99.584a.334.334,0,0,1,.371-.371h3.407a.334.334,0,0,1,.371.371v9.02Zm-3.822-13a.334.334,0,0,1-.371-.371V92.071a.334.334,0,0,1,.371-.371h3.516a.334.334,0,0,1,.371.371v3.167a.334.334,0,0,1-.371.371Z" transform="translate(121.445 -80.081)" fill="#fefefe"/>
        <path id="Path_260" data-name="Path 260" d="M151.383,104.508a2.187,2.187,0,0,0,.612,1.725,2.806,2.806,0,0,0,1.922.546,6.22,6.22,0,0,0,1.441-.131,1.272,1.272,0,0,0,.786-.524,2.158,2.158,0,0,0,.306-1.092c.044-.459.066-1.092.066-1.878v-4.7a.334.334,0,0,1,.371-.371h3.407a.334.334,0,0,1,.371.371V104.6a1.95,1.95,0,0,0,.7,1.66,2.952,2.952,0,0,0,1.835.524,5.535,5.535,0,0,0,1.354-.131,1.272,1.272,0,0,0,.786-.524,2.385,2.385,0,0,0,.349-1.092c.044-.48.066-1.092.066-1.856V95.531a.334.334,0,0,1,.371-.371h3.407a.334.334,0,0,1,.371.371v8.955a1.939,1.939,0,0,0,.83,1.682,3.744,3.744,0,0,0,2.228.59h.633a1.421,1.421,0,0,1,1.092.393,2.008,2.008,0,0,1,.371,1.354,2.187,2.187,0,0,1-.371,1.463,1.421,1.421,0,0,1-1.092.393,7.469,7.469,0,0,1-2.468-.349,2.962,2.962,0,0,1-1.66-1.529,2.89,2.89,0,0,1-1.485,1.441,6.717,6.717,0,0,1-2.621.415h-1.573a4.484,4.484,0,0,1-2.184-.5,3.321,3.321,0,0,1-1.376-1.42,2.9,2.9,0,0,1-1.485,1.485,6.716,6.716,0,0,1-2.621.415h-1.616a3.594,3.594,0,0,1-3.56-1.944,2.941,2.941,0,0,1-1.485,1.507,6.676,6.676,0,0,1-2.621.437h-3.975c-.262,0-.524-.022-.743-.044a1.021,1.021,0,0,1-.546-.2.925.925,0,0,1-.328-.5,3.276,3.276,0,0,1-.109-.917,2.536,2.536,0,0,1,.349-1.551,1.318,1.318,0,0,1,1.114-.437h2.948a2.043,2.043,0,0,0,1-.2,1.171,1.171,0,0,0,.524-.633,3.218,3.218,0,0,0,.175-1.114c.022-.459.022-1,.022-1.66v-4.7a.334.334,0,0,1,.371-.371h3.407a.334.334,0,0,1,.371.371v6.137Z" transform="translate(127.519 -75.984)" fill="#fefefe"/>
        <path id="Path_261" data-name="Path 261" d="M156.793,115.684a1.494,1.494,0,0,1-1.092-.349,2.013,2.013,0,0,1-.371-1.42,2.252,2.252,0,0,1,.349-1.441,1.374,1.374,0,0,1,1.114-.415h1.791a1.806,1.806,0,0,0,1.332-.415,2.136,2.136,0,0,0,.415-1.529V91.091a.334.334,0,0,1,.371-.371h3.407a.334.334,0,0,1,.371.371v19.962a5.177,5.177,0,0,1-.983,3.494,4.232,4.232,0,0,1-3.3,1.114h-3.407Z" transform="translate(144.321 -81.241)" fill="#fefefe"/>
        <path id="Path_262" data-name="Path 262" d="M165.86,115.324a.334.334,0,0,1-.371.371h-3.407a.334.334,0,0,1-.371-.371V91.081a.334.334,0,0,1,.371-.371h3.407a.334.334,0,0,1,.371.371Z" transform="translate(151.875 -81.253)" fill="#fefefe"/>
        <path id="Path_263" data-name="Path 263" d="M171.572,103.669c.131-.218.306-.24.546-.066l2.97,1.179q.2.066.2.2a.364.364,0,0,1-.066.284,16.6,16.6,0,0,0-1.114,2.4,8.436,8.436,0,0,0-.524,3.036,5.612,5.612,0,0,0,.459,2.4,4.3,4.3,0,0,0,1.179,1.551,4.137,4.137,0,0,0,1.594.83,6.842,6.842,0,0,0,1.725.24,5,5,0,0,0,3.407-1.114,4.572,4.572,0,0,0,1.289-3.626v-10.9a.334.334,0,0,1,.371-.371h3.407a.334.334,0,0,1,.371.371v11.008a9.926,9.926,0,0,1-.633,3.669,7.1,7.1,0,0,1-1.835,2.621,7.47,7.47,0,0,1-2.839,1.551,12.22,12.22,0,0,1-3.669.5,12.451,12.451,0,0,1-3.582-.5,7.96,7.96,0,0,1-2.839-1.551,7.246,7.246,0,0,1-1.9-2.621,9.238,9.238,0,0,1-.677-3.713,12.6,12.6,0,0,1,.633-3.975A14.449,14.449,0,0,1,171.572,103.669Zm6.094-5.81a.334.334,0,0,1-.371-.371V94.321a.334.334,0,0,1,.371-.371h3.516a.334.334,0,0,1,.371.371v3.167a.334.334,0,0,1-.371.371Z" transform="translate(160.992 -77.417)" fill="#fefefe"/>
        <path id="Path_264" data-name="Path 264" d="M179.77,91.081a.334.334,0,0,1,.371-.371h3.407a.334.334,0,0,1,.371.371V110.1a2.136,2.136,0,0,0,.415,1.529,1.806,1.806,0,0,0,1.332.415h1.289a1.355,1.355,0,0,1,1.092.415,2.24,2.24,0,0,1,.371,1.441c0,.764-.109,1.245-.349,1.441a1.617,1.617,0,0,1-1.114.306h-2.9a4.2,4.2,0,0,1-3.3-1.114,5.215,5.215,0,0,1-.983-3.494Z" transform="translate(173.259 -81.253)" fill="#fefefe"/>
        <path id="Path_265" data-name="Path 265" d="M183.853,110.794a1.355,1.355,0,0,1-1.092-.415,2.171,2.171,0,0,1-.371-1.42,2.133,2.133,0,0,1,.349-1.441,1.434,1.434,0,0,1,1.114-.371h9.763a6.071,6.071,0,0,0,1.551-.153,1.6,1.6,0,0,0,.917-.524,1.861,1.861,0,0,0,.437-.983A9.4,9.4,0,0,0,196.63,104a9.875,9.875,0,0,0-.218-2.184,4.862,4.862,0,0,0-.743-1.747,3.533,3.533,0,0,0-1.332-1.136,4.8,4.8,0,0,0-2.075-.415,4.881,4.881,0,0,0-2.206.481,6.339,6.339,0,0,0-1.769,1.289.336.336,0,0,1-.5.044l-1.9-1.987q-.295-.295-.066-.524a9.557,9.557,0,0,1,2.708-2.119,8.289,8.289,0,0,1,3.866-.852,9.86,9.86,0,0,1,4.106.743,6.751,6.751,0,0,1,2.643,2.031,7.946,7.946,0,0,1,1.42,2.927,14.28,14.28,0,0,1,.415,3.538,12.415,12.415,0,0,1-.371,3.276,4.753,4.753,0,0,1-1.092,2.031,3.8,3.8,0,0,1-1.791,1.048,9.581,9.581,0,0,1-2.512.284H183.853Zm7.295,6.967a.334.334,0,0,1-.371-.371v-3.167a.334.334,0,0,1,.371-.371h3.516a.334.334,0,0,1,.371.371v3.167a.334.334,0,0,1-.371.371Z" transform="translate(176.361 -76.351)" fill="#fefefe"/>
        <path id="Path_266" data-name="Path 266" d="M195.832,95.541a.334.334,0,0,1,.371-.371h3.407a.334.334,0,0,1,.371.371V104.5a1.939,1.939,0,0,0,.83,1.682,3.744,3.744,0,0,0,2.228.59h.633a1.421,1.421,0,0,1,1.092.393,2.008,2.008,0,0,1,.371,1.354,2.2,2.2,0,0,1-.349,1.463,1.441,1.441,0,0,1-1.114.393,8.723,8.723,0,0,1-2.14-.218A2.906,2.906,0,0,1,200,109.17v.7a16.318,16.318,0,0,1-.328,3.473,6.248,6.248,0,0,1-1.092,2.468,4.626,4.626,0,0,1-2.009,1.485,8.412,8.412,0,0,1-3.079.5h-1.354a.334.334,0,0,1-.371-.371V114.5a.334.334,0,0,1,.371-.371h.808a3.167,3.167,0,0,0,1.66-.371,2.057,2.057,0,0,0,.852-1.092,6.215,6.215,0,0,0,.328-1.725c.044-.677.066-1.441.066-2.337V95.541Z" transform="translate(187.467 -75.972)" fill="#fefefe"/>
        <path id="Path_267" data-name="Path 267" d="M196.54,108.935a2.133,2.133,0,0,1,.349-1.441,1.434,1.434,0,0,1,1.114-.371h3.6v-4.193a9.7,9.7,0,0,1,.633-3.778,6.873,6.873,0,0,1,1.638-2.49,6.111,6.111,0,0,1,2.359-1.376,9.08,9.08,0,0,1,2.774-.415,10.561,10.561,0,0,1,3.058.415,6.408,6.408,0,0,1,2.4,1.31,5.809,5.809,0,0,1,1.573,2.293,9.225,9.225,0,0,1,.568,3.385,9.747,9.747,0,0,1-.393,2.752,8.514,8.514,0,0,1-.874,2.1h3.735a1.486,1.486,0,0,1,1.114.371,2.1,2.1,0,0,1,.349,1.441,2.212,2.212,0,0,1-.371,1.42,1.355,1.355,0,0,1-1.092.415h-3.56a4.19,4.19,0,0,1,.764,2.577,4.449,4.449,0,0,1-1.922,3.888,9.044,9.044,0,0,1-5.242,1.354,14.492,14.492,0,0,1-3.058-.306,7.239,7.239,0,0,1-2.359-.983,4.6,4.6,0,0,1-1.529-1.769,5.965,5.965,0,0,1-.524-2.621v-2.14h-3.6Q196.54,110.77,196.54,108.935Zm12.493-10.4a3.133,3.133,0,0,0-2.446,1.026,4.362,4.362,0,0,0-.9,3.014v4.587h3.626a2.54,2.54,0,0,0,1.441-.393,3.018,3.018,0,0,0,.983-.983,4.471,4.471,0,0,0,.568-1.4,6.727,6.727,0,0,0,.175-1.638,4.887,4.887,0,0,0-.9-3.167A3.127,3.127,0,0,0,209.033,98.539Zm0,16.489a4.085,4.085,0,0,0,2.446-.546,1.872,1.872,0,0,0,.721-1.573,3.348,3.348,0,0,0-.131-.983,1.409,1.409,0,0,0-.524-.721,2.552,2.552,0,0,0-1.07-.437,9.247,9.247,0,0,0-1.747-.153h-3.058v1.944C205.691,114.2,206.805,115.029,209.033,115.029Z" transform="translate(193.115 -76.327)" fill="#fefefe"/>
        <path id="Path_268" data-name="Path 268" d="M211.36,102.689a10.386,10.386,0,0,1,.612-3.626,6.569,6.569,0,0,1,1.572-2.424,6.065,6.065,0,0,1,2.359-1.354,9.865,9.865,0,0,1,2.97-.415,10.364,10.364,0,0,1,3.014.437,6.016,6.016,0,0,1,2.4,1.4,6.268,6.268,0,0,1,1.573,2.533,11.556,11.556,0,0,1,.568,3.822v.633a5.761,5.761,0,0,1-.044.612,3,3,0,0,0,.721,2.184,2.18,2.18,0,0,0,1.551.633h1.07a1.421,1.421,0,0,1,1.092.393,2.008,2.008,0,0,1,.371,1.354,2.2,2.2,0,0,1-.35,1.463,1.44,1.44,0,0,1-1.114.393c-.415,0-.852-.022-1.31-.044a5.685,5.685,0,0,1-1.354-.24,4.9,4.9,0,0,1-1.289-.59,3.987,3.987,0,0,1-1.092-1.092,5.381,5.381,0,0,1-2.468,1.682,10.067,10.067,0,0,1-3.363.524,10.255,10.255,0,0,1-3.3-.5,5.712,5.712,0,0,1-2.468-1.638,3.385,3.385,0,0,1-.874.961,4.6,4.6,0,0,1-1.07.568,6.648,6.648,0,0,1-1.136.284,10.119,10.119,0,0,1-1.114.066H207.6a1.355,1.355,0,0,1-1.092-.415,2.17,2.17,0,0,1-.371-1.42,2.133,2.133,0,0,1,.35-1.441,1.434,1.434,0,0,1,1.114-.371h1.441a2.12,2.12,0,0,0,1.573-.721,3.9,3.9,0,0,0,.743-2.621,4.986,4.986,0,0,1-.044-.546A1.5,1.5,0,0,0,211.36,102.689Zm7.513-4.15a2.977,2.977,0,0,0-2.6,1.136,5.447,5.447,0,0,0-.852,3.3,5.344,5.344,0,0,0,.852,3.385,3.829,3.829,0,0,0,5.242-.022,5.315,5.315,0,0,0,.852-3.363C222.367,100.024,221.21,98.539,218.873,98.539Z" transform="translate(204.482 -76.327)" fill="#fefefe"/>
        <path id="Path_269" data-name="Path 269" d="M217.723,115.684a1.494,1.494,0,0,1-1.092-.349,2.013,2.013,0,0,1-.371-1.42,2.253,2.253,0,0,1,.349-1.441,1.374,1.374,0,0,1,1.114-.415h1.791a1.806,1.806,0,0,0,1.332-.415,2.136,2.136,0,0,0,.415-1.529V91.091a.334.334,0,0,1,.371-.371h3.407a.334.334,0,0,1,.371.371v19.962a5.177,5.177,0,0,1-.983,3.494,4.232,4.232,0,0,1-3.3,1.114h-3.407Z" transform="translate(216.464 -81.241)" fill="#fefefe"/>
        <path id="Path_270" data-name="Path 270" d="M226.79,115.324a.334.334,0,0,1-.371.371h-3.407a.334.334,0,0,1-.371-.371V91.081a.334.334,0,0,1,.371-.371h3.407a.334.334,0,0,1,.371.371Z" transform="translate(224.018 -81.253)" fill="#fefefe"/>
      </g>
      <g id="Group_321" data-name="Group 321" transform="translate(190.385 174.703)">
        <path id="Path_299" data-name="Path 299" d="M97,140.024l.262-3.342.2-4.172.131-4.15v-1.42c.721.022,1.376.022,2.009.022.459,0,1.092,0,1.856-.022s1.42-.022,1.987-.022a15.411,15.411,0,0,1,2.1.131,5.423,5.423,0,0,1,1.682.5,4.384,4.384,0,0,1,1.245.917,5.954,5.954,0,0,1,.874,1.223,6.431,6.431,0,0,1,.5,1.507,8.662,8.662,0,0,1,.175,1.7,9.009,9.009,0,0,1-.568,3.145,5.839,5.839,0,0,1-1.7,2.468,5.347,5.347,0,0,1-2.512,1.245,16.737,16.737,0,0,1-3.123.284l-3.254-.022C98.638,140,98,140.024,97,140.024Zm2.948-2.031c.524.022,1.048.044,1.551.044a12.444,12.444,0,0,0,1.616-.087,8.334,8.334,0,0,0,1.289-.262,3.928,3.928,0,0,0,1.987-1.747,4.733,4.733,0,0,0,.524-1.376,7.337,7.337,0,0,0,.175-1.551,4.98,4.98,0,0,0-.48-2.359,3.046,3.046,0,0,0-1.289-1.332,5.848,5.848,0,0,0-2.468-.415c-.721,0-1.551.022-2.49.044Z" transform="translate(-97 -126.702)" fill="#fefefe"/>
        <path id="Path_300" data-name="Path 300" d="M113.566,138.213c-.568-.022-1-.022-1.289-.022-.371,0-.808,0-1.289.022l.022-1.594a6.436,6.436,0,0,1-.48.655,2.853,2.853,0,0,1-.524.481,2.813,2.813,0,0,1-.721.371,7.11,7.11,0,0,1-.874.24,5.362,5.362,0,0,1-1.048.087,5.461,5.461,0,0,1-1.878-.306,2.93,2.93,0,0,1-1.267-.939,3.043,3.043,0,0,1-.459-1.813v-.2l.153-2.468.153-3.254v-.983c.612.022,1.092.022,1.42.022.371,0,.808,0,1.332-.022l-.328,4.368c-.022.349-.044.633-.044.852,0,.24-.022.393-.022.5a2.978,2.978,0,0,0,.2,1.158,1.331,1.331,0,0,0,.721.7,2.656,2.656,0,0,0,1.092.24,2.441,2.441,0,0,0,1.048-.218,1.959,1.959,0,0,0,.764-.546,2.958,2.958,0,0,0,.546-.939,4.429,4.429,0,0,0,.24-1.179c.044-.349.087-.961.131-1.813.044-1.027.087-2.1.109-3.167.633.022,1.114.022,1.441.022.371,0,.808,0,1.289-.022-.087.917-.153,2.053-.24,3.429s-.131,2.512-.175,3.407C113.61,136.181,113.566,137.142,113.566,138.213Z" transform="translate(-88.996 -124.89)" fill="#fefefe"/>
        <path id="Path_301" data-name="Path 301" d="M109.34,140.024c.109-1.223.24-3.32.393-6.334.131-3.014.218-5.264.218-6.771.568.022,1.07.022,1.463.022.415,0,.852,0,1.332-.022q-.164,1.343-.262,3.407c.633-.131,1.136-.2,1.507-.24a9.436,9.436,0,0,1,1.092-.066,5.828,5.828,0,0,1,2.533.48,3.714,3.714,0,0,1,1.66,1.573,5.343,5.343,0,0,1,.633,2.665,7.643,7.643,0,0,1-.306,2.119,6.077,6.077,0,0,1-.939,1.835,3.746,3.746,0,0,1-1.507,1.179,4.644,4.644,0,0,1-1.922.371,4.09,4.09,0,0,1-.917-.087,4.15,4.15,0,0,1-.786-.262,2.651,2.651,0,0,1-.633-.415,3.025,3.025,0,0,1-.459-.459,7.48,7.48,0,0,1-.437-.633l-.044,1.638c-.524-.022-.939-.022-1.245-.022C110.476,140,110.017,140.024,109.34,140.024Zm2.97-7.731-.087,1.638c-.022.349-.022.7-.022,1.026a6.133,6.133,0,0,0,.24,1.878,2.029,2.029,0,0,0,.83,1.07,2.473,2.473,0,0,0,1.31.371,2.3,2.3,0,0,0,1.376-.437,2.561,2.561,0,0,0,.9-1.245,5.156,5.156,0,0,0,.306-1.747,3.174,3.174,0,0,0-.7-2.119,2.532,2.532,0,0,0-2.053-.786,6.962,6.962,0,0,0-.917.065C113.184,132.074,112.791,132.162,112.31,132.293Z" transform="translate(-82.389 -126.702)" fill="#fefefe"/>
        <path id="Path_302" data-name="Path 302" d="M115.98,130.721c.087-.459.153-.786.175-.961s.066-.459.131-.852c.874-.2,1.638-.349,2.293-.437a14.712,14.712,0,0,1,1.922-.131,7.766,7.766,0,0,1,1.944.24,2.831,2.831,0,0,1,1.376.786,2.243,2.243,0,0,1,.5,1.551c0,.371-.044,1.289-.153,2.8-.109,1.485-.153,3.036-.175,4.63-.48-.022-.939-.022-1.354-.022-.393,0-.852,0-1.376.022q.131-1.147.2-2.686l.131-2.381c-.24.153-.437.262-.546.328a1.651,1.651,0,0,1-.437.175,8.528,8.528,0,0,1-.852.24c-.393.109-.721.218-.961.284a4.545,4.545,0,0,0-.655.284,2.263,2.263,0,0,0-.5.349,1.012,1.012,0,0,0-.284.415,1.141,1.141,0,0,0-.087.459,1.128,1.128,0,0,0,.24.7,1.268,1.268,0,0,0,.59.415,2.467,2.467,0,0,0,.83.109c.2,0,.415-.022.655-.044a4.781,4.781,0,0,0,.917-.24c-.131.371-.284.917-.481,1.638a9.839,9.839,0,0,1-1.092.153c-.262.022-.524.022-.743.022a5.176,5.176,0,0,1-1.988-.328,2.322,2.322,0,0,1-1.158-1.026,3.145,3.145,0,0,1-.371-1.441,2.12,2.12,0,0,1,.153-.808,3.088,3.088,0,0,1,.415-.743,4.3,4.3,0,0,1,.721-.655,4.889,4.889,0,0,1,1.267-.612,17.9,17.9,0,0,1,2.206-.59,5.647,5.647,0,0,0,.764-.2,4.156,4.156,0,0,0,.633-.218,1.663,1.663,0,0,0,.415-.262,1.333,1.333,0,0,0,.262-.349,1.148,1.148,0,0,0,.087-.371.951.951,0,0,0-.24-.633,1.4,1.4,0,0,0-.633-.371,3.494,3.494,0,0,0-.852-.109A12,12,0,0,0,115.98,130.721Z" transform="translate(-76.078 -125.02)" fill="#fefefe"/>
        <path id="Path_303" data-name="Path 303" d="M120.04,140.1c.087-.961.175-1.769.2-2.4.066-1.027.131-2.206.175-3.538s.087-2.6.109-3.8c.633.022,1.092.022,1.4.022.284,0,.743,0,1.4-.022-.087,1.114-.153,2.184-.2,3.189s-.087,2.162-.109,3.473-.044,2.337-.044,3.1c-.59-.022-1.048-.022-1.4-.022C121.2,140.074,120.7,140.1,120.04,140.1Zm.524-11.423c.022-.655.044-1.158.044-1.507v-.306c.59.022,1.048.022,1.42.022.5,0,.961,0,1.4-.022-.022.153-.022.349-.044.546l-.044,1.267c-.48,0-.939-.022-1.354-.022S121.088,128.651,120.564,128.673Z" transform="translate(-69.72 -126.773)" fill="#fefefe"/>
        <path id="Path_304" data-name="Path 304" d="M124.67,140.131c.022-.24.022-.437.022-.59l.066-1.4c.808-.721,1.529-1.4,2.184-2.075s1.332-1.376,2.031-2.14,1.2-1.376,1.572-1.835a5.075,5.075,0,0,0,.568-.852c.087-.2.153-.349.2-.481a2.407,2.407,0,0,0,.044-.393,1.152,1.152,0,0,0-.328-.852,2.272,2.272,0,0,0-.874-.524,3.807,3.807,0,0,0-1.289-.2,11.867,11.867,0,0,0-1.463.109,16.675,16.675,0,0,0-2.031.437l.175-.961c.044-.24.087-.612.175-1.158a24.523,24.523,0,0,1,4.259-.393,9.574,9.574,0,0,1,1.791.175,4.608,4.608,0,0,1,1.551.612,2.642,2.642,0,0,1,.983.983,2.5,2.5,0,0,1,.306,1.179,4.016,4.016,0,0,1-.066.721,2.876,2.876,0,0,1-.2.655,9.429,9.429,0,0,1-.655,1.2,19.664,19.664,0,0,1-1.245,1.616c-.568.677-1.179,1.354-1.856,2.053s-1.42,1.442-2.228,2.206h3.014c.721,0,1.223,0,1.572-.022.328-.022.721-.044,1.2-.087-.022.2-.044.459-.066.764-.022.328-.066.743-.109,1.267-1.463-.022-2.97-.022-4.521-.022C127.553,140.109,125.959,140.131,124.67,140.131Z" transform="translate(-64.238 -126.808)" fill="#fefefe"/>
        <path id="Path_305" data-name="Path 305" d="M135.646,126.82a4.94,4.94,0,0,1,2.6.655,4.384,4.384,0,0,1,1.682,2.075,8.305,8.305,0,0,1,.59,3.342,12.936,12.936,0,0,1-.371,3.014,7.239,7.239,0,0,1-1,2.446,4.232,4.232,0,0,1-1.769,1.485,5.594,5.594,0,0,1-2.4.524,4.663,4.663,0,0,1-2.184-.48,4.215,4.215,0,0,1-1.573-1.332,5.452,5.452,0,0,1-.852-1.922,10.5,10.5,0,0,1-.24-2.206,13.2,13.2,0,0,1,.371-3.079,7.7,7.7,0,0,1,1.048-2.533,4.141,4.141,0,0,1,1.791-1.507A5.641,5.641,0,0,1,135.646,126.82Zm-.066,1.987a1.713,1.713,0,0,0-.721.153,1.94,1.94,0,0,0-.677.48,3.237,3.237,0,0,0-.546.764,5.017,5.017,0,0,0-.393,1.07,10.356,10.356,0,0,0-.284,1.507,16.018,16.018,0,0,0-.109,1.769,7.071,7.071,0,0,0,.262,2.118,2.628,2.628,0,0,0,.786,1.267,1.869,1.869,0,0,0,1.2.459,1.646,1.646,0,0,0,.721-.153,2.055,2.055,0,0,0,.721-.568,4.051,4.051,0,0,0,.655-1.2,8.179,8.179,0,0,0,.437-1.747,13.97,13.97,0,0,0,.131-1.922,7.815,7.815,0,0,0-.262-2.206,2.829,2.829,0,0,0-.764-1.332A1.653,1.653,0,0,0,135.58,128.808Z" transform="translate(-57.785 -126.82)" fill="#fefefe"/>
        <path id="Path_306" data-name="Path 306" d="M135.65,140.131c.022-.24.022-.437.022-.59l.066-1.4c.808-.721,1.529-1.4,2.184-2.075s1.332-1.376,2.031-2.14,1.2-1.376,1.573-1.835a5.076,5.076,0,0,0,.568-.852c.087-.2.153-.349.2-.481a2.412,2.412,0,0,0,.044-.393,1.152,1.152,0,0,0-.328-.852,2.273,2.273,0,0,0-.874-.524,3.807,3.807,0,0,0-1.289-.2,11.867,11.867,0,0,0-1.463.109,16.67,16.67,0,0,0-2.031.437l.175-.961c.044-.24.087-.612.175-1.158a24.522,24.522,0,0,1,4.259-.393,9.575,9.575,0,0,1,1.791.175,4.608,4.608,0,0,1,1.551.612,2.641,2.641,0,0,1,.983.983,2.5,2.5,0,0,1,.306,1.179,4.021,4.021,0,0,1-.066.721,2.874,2.874,0,0,1-.2.655,9.423,9.423,0,0,1-.655,1.2,19.666,19.666,0,0,1-1.245,1.616c-.568.677-1.179,1.354-1.856,2.053s-1.42,1.442-2.228,2.206h3.014c.721,0,1.223,0,1.572-.022.328-.022.721-.044,1.2-.087-.022.2-.044.459-.066.764-.022.328-.066.743-.109,1.267-1.463-.022-2.97-.022-4.521-.022C138.533,140.109,136.939,140.131,135.65,140.131Z" transform="translate(-51.237 -126.808)" fill="#fefefe"/>
        <path id="Path_307" data-name="Path 307" d="M146.332,140.012c.131-1.289.2-2.6.24-3.953h-1.944l-3.538.066a9.828,9.828,0,0,0,.066-1.07c.022-.633.044-1.07.044-1.289l.721-.917c.175-.24.459-.612.83-1.114l2.075-2.839c.2-.284.393-.546.59-.852.2-.284.437-.655.743-1.114.764.022,1.42.022,1.922.022.481,0,1.048,0,1.682-.022-.2,2.73-.306,5.111-.349,7.12h2.1c-.022.5-.022,1.07-.022,1.725v.328c-.393-.022-1.114-.022-2.14-.022-.022.284-.044.568-.044.808s-.022.677-.022,1.289-.022,1.048-.022,1.31v.546c-.5-.022-.961-.022-1.42-.022C147.424,139.991,146.921,140.012,146.332,140.012Zm.612-5.875c.022-.371.022-.59.022-.633l.175-4.652c-.983,1.42-1.616,2.315-1.922,2.73l-1.856,2.555Z" transform="translate(-44.796 -126.69)" fill="#fefefe"/>
      </g>
      <line id="Line_20" data-name="Line 20" x2="154.412" transform="translate(310.508 183.81)" fill="none" stroke="#fefefe" stroke-miterlimit="10" stroke-width="0.5"/>
      <g id="Group_320" data-name="Group 320" transform="translate(19.244 141.243)">
        <path id="Path_271" data-name="Path 271" d="M23.358,129.272l.284-3.735.284-5.569.175-5.482h-.9l-.83.022-.786.022-2.948.087c.066-1.223.109-2.162.109-2.8,2.446.022,5.023.022,7.71.022l4.586-.022,2.446-.022c-.087,1.223-.131,2.14-.131,2.8-1.551-.087-3.014-.109-4.434-.109h-.983l-.153,2.337-.371,9-.022,1.507c0,.612-.022,1.267-.022,1.944l-1.944-.022C25.236,129.251,24.537,129.251,23.358,129.272Z" transform="translate(-18.64 -111.145)" fill="#fefefe"/>
        <path id="Path_272" data-name="Path 272" d="M25.9,129.261l.306-4.15.306-5.941.175-7.36c.743.022,1.376.022,1.878.022.655,0,1.267,0,1.856-.022l-.24,3.036c-.044.743-.131,1.966-.2,3.626a7.139,7.139,0,0,1,.677-.917,5.083,5.083,0,0,1,.612-.568,3.385,3.385,0,0,1,.7-.437c.24-.109.524-.218.83-.328a4.871,4.871,0,0,1,1.07-.218,10.715,10.715,0,0,1,1.2-.087,8.769,8.769,0,0,1,2.031.24,4.058,4.058,0,0,1,1.682.83,3.1,3.1,0,0,1,.983,1.354,5.013,5.013,0,0,1,.262,1.616c0,.371-.022.939-.066,1.725l-.306,5.591c-.022.59-.044,1.245-.044,2.009-.7-.022-1.289-.022-1.835-.022-.568,0-1.223,0-1.966.022.109-1,.24-2.381.349-4.128s.175-2.97.175-3.713a3.123,3.123,0,0,0-.328-1.573,2.153,2.153,0,0,0-.961-.852,3.6,3.6,0,0,0-1.376-.284,3.768,3.768,0,0,0-1.7.349,2.947,2.947,0,0,0-1.2,1,4.859,4.859,0,0,0-.655,1.573,17.891,17.891,0,0,0-.415,3.32c-.044.721-.087,2.162-.153,4.281-.677-.022-1.267-.022-1.747-.022C27.385,129.239,26.73,129.239,25.9,129.261Z" transform="translate(-10.044 -111.133)" fill="#fefefe"/>
        <path id="Path_273" data-name="Path 273" d="M45.429,124.13c-.109.5-.262,1.4-.48,2.708a22.6,22.6,0,0,1-2.337.393,18.484,18.484,0,0,1-1.9.109,12.424,12.424,0,0,1-2.992-.328A5.391,5.391,0,0,1,35.4,125.79a5.222,5.222,0,0,1-1.463-2.184,8.031,8.031,0,0,1-.48-2.708,8.6,8.6,0,0,1,.546-3.058,6.268,6.268,0,0,1,1.551-2.424,5.654,5.654,0,0,1,2.25-1.332,8.793,8.793,0,0,1,2.643-.393,9.263,9.263,0,0,1,2.49.328,4.733,4.733,0,0,1,1.987,1.07,5.127,5.127,0,0,1,1.223,1.791,6.072,6.072,0,0,1,.437,2.315,6.355,6.355,0,0,1-.131,1.245l-9.37.022c-.022.306-.022.568-.022.764a4.11,4.11,0,0,0,.284,1.573,3.433,3.433,0,0,0,.852,1.223,3.547,3.547,0,0,0,1.354.743,4.747,4.747,0,0,0,1.529.24,10.431,10.431,0,0,0,1.922-.2A21.438,21.438,0,0,0,45.429,124.13Zm-8.278-5.176,5.984.022a7.68,7.68,0,0,0-.044-.9,3.446,3.446,0,0,0-.175-.677,2.133,2.133,0,0,0-.371-.655,1.924,1.924,0,0,0-.546-.48,2.161,2.161,0,0,0-.721-.284,3.677,3.677,0,0,0-.874-.109,3.514,3.514,0,0,0-1.048.175,2.835,2.835,0,0,0-.917.48,2.994,2.994,0,0,0-.677.721,3.642,3.642,0,0,0-.393.764C37.326,118.233,37.238,118.56,37.151,118.954Z" transform="translate(-1.093 -108.907)" fill="#fefefe"/>
        <path id="Path_274" data-name="Path 274" d="M42.39,129.272c.9-1.573,1.922-3.516,3.123-5.831l3.363-6.465c1.048-1.987,1.922-3.735,2.621-5.176,1.114.022,1.9.022,2.359.022.808,0,1.594,0,2.381-.022l1.835,5.242,3.975,10.833.546,1.4-1.922-.022c-.437,0-1.179,0-2.228.022-.2-.764-.524-1.791-.961-3.08s-.808-2.337-1.114-3.145H49.641c-1,2.031-1.966,4.106-2.9,6.2l-2.1-.022C44.2,129.251,43.482,129.251,42.39,129.272Zm8.343-8.867h4.914l-2.009-5.919-1.026,2.162Z" transform="translate(9.481 -111.145)" fill="#fefefe"/>
        <path id="Path_275" data-name="Path 275" d="M52.34,127.011c.2-1.944.349-4.106.481-6.53s.2-4.586.218-6.487c.786.022,1.42.022,1.878.022.546,0,1.136,0,1.769-.022l-.153,2.184a10.042,10.042,0,0,1,.7-.9,4.752,4.752,0,0,1,.764-.655,3.335,3.335,0,0,1,1-.5,8.42,8.42,0,0,1,1.179-.306,9.247,9.247,0,0,1,1.376-.109,7.987,7.987,0,0,1,2.184.284,3.782,3.782,0,0,1,1.682.917,3.3,3.3,0,0,1,.852,1.376,5.356,5.356,0,0,1,.2,1.573c0,.24-.022.59-.044,1.092l-.262,5.591c-.044.786-.066,1.594-.066,2.49-.677-.022-1.245-.022-1.725-.022-.655,0-1.31,0-1.966.022.066-.743.153-2.031.262-3.888s.153-3.079.153-3.669a3.365,3.365,0,0,0-.328-1.616,2.273,2.273,0,0,0-.983-.939,3.244,3.244,0,0,0-1.441-.328,3.612,3.612,0,0,0-1.441.284,3.194,3.194,0,0,0-1.158.852,3.737,3.737,0,0,0-.786,1.42,12.823,12.823,0,0,0-.437,2.948c-.087,1.223-.153,2.861-.2,4.892-.655-.022-1.245-.022-1.791-.022C53.76,126.989,53.1,126.989,52.34,127.011Z" transform="translate(21.262 -108.883)" fill="#fefefe"/>
        <path id="Path_276" data-name="Path 276" d="M60.02,127.011c.2-1.944.349-4.106.48-6.53s.2-4.586.218-6.487c.786.022,1.42.022,1.878.022.546,0,1.136,0,1.769-.022l-.153,2.184a10.044,10.044,0,0,1,.7-.9,4.751,4.751,0,0,1,.764-.655,3.335,3.335,0,0,1,1-.5,8.421,8.421,0,0,1,1.179-.306,9.247,9.247,0,0,1,1.376-.109,7.987,7.987,0,0,1,2.184.284,3.782,3.782,0,0,1,1.682.917,3.3,3.3,0,0,1,.852,1.376,5.356,5.356,0,0,1,.2,1.573c0,.24-.022.59-.044,1.092l-.262,5.591c-.044.786-.066,1.594-.066,2.49-.677-.022-1.245-.022-1.725-.022-.655,0-1.31,0-1.966.022.066-.743.153-2.031.262-3.888s.153-3.079.153-3.669a3.365,3.365,0,0,0-.328-1.616,2.273,2.273,0,0,0-.983-.939,3.244,3.244,0,0,0-1.441-.328,3.612,3.612,0,0,0-1.441.284,3.194,3.194,0,0,0-1.158.852,3.737,3.737,0,0,0-.786,1.42,12.824,12.824,0,0,0-.437,2.948c-.087,1.223-.153,2.861-.2,4.892-.655-.022-1.245-.022-1.791-.022C61.44,126.989,60.784,126.989,60.02,127.011Z" transform="translate(30.356 -108.883)" fill="#fefefe"/>
        <path id="Path_277" data-name="Path 277" d="M80.871,126.857c-.743-.022-1.332-.022-1.725-.022-.5,0-1.07,0-1.725.022l.022-2.119c-.24.349-.459.655-.633.874a3.32,3.32,0,0,1-.7.633,4.84,4.84,0,0,1-.939.5,6.564,6.564,0,0,1-1.179.306,7.4,7.4,0,0,1-1.4.131,6.607,6.607,0,0,1-2.49-.415,3.789,3.789,0,0,1-1.682-1.267,4.06,4.06,0,0,1-.612-2.424v-.262l.2-3.3.2-4.346c0-.349.022-.786.022-1.31.808.022,1.441.022,1.9.022.48,0,1.07,0,1.769-.022l-.415,5.831c-.022.459-.044.83-.066,1.136s-.022.546-.022.677a3.54,3.54,0,0,0,.284,1.529,1.8,1.8,0,0,0,.961.917A3.5,3.5,0,0,0,75.5,124a3.117,3.117,0,0,0,1.026-.721,3.741,3.741,0,0,0,.721-1.245,5.748,5.748,0,0,0,.328-1.551c.066-.459.109-1.267.175-2.424.066-1.376.109-2.8.153-4.215.852.022,1.485.022,1.944.022.5,0,1.07,0,1.7-.022-.109,1.223-.218,2.752-.328,4.565-.109,1.835-.175,3.342-.218,4.521S80.892,125.437,80.871,126.857Z" transform="translate(39.579 -108.729)" fill="#fefefe"/>
        <path id="Path_278" data-name="Path 278" d="M76.649,116.867c.109-.612.2-1.048.218-1.289s.087-.633.153-1.136c1.158-.262,2.184-.459,3.079-.568a21.291,21.291,0,0,1,2.577-.175,9.568,9.568,0,0,1,2.577.328,3.773,3.773,0,0,1,1.835,1.048,2.934,2.934,0,0,1,.655,2.053c0,.481-.066,1.725-.2,3.713s-.218,4.04-.24,6.181C86.652,127,86.062,127,85.516,127c-.524,0-1.136,0-1.835.022.109-1.026.2-2.228.262-3.582l.175-3.189a7.925,7.925,0,0,1-.743.459,4.432,4.432,0,0,1-.568.24c-.2.066-.59.175-1.136.328s-.961.284-1.289.393a6.563,6.563,0,0,0-.874.371,2.545,2.545,0,0,0-.655.48,1.817,1.817,0,0,0-.393.546,1.466,1.466,0,0,0-.131.612,1.45,1.45,0,0,0,.306.917,1.829,1.829,0,0,0,.786.546,3.349,3.349,0,0,0,1.114.153,6.351,6.351,0,0,0,.874-.066,6.953,6.953,0,0,0,1.223-.328A21.793,21.793,0,0,0,82,127.088a13.52,13.52,0,0,1-1.441.2c-.349.022-.7.044-1,.044a6.949,6.949,0,0,1-2.643-.437,2.949,2.949,0,0,1-1.529-1.376,4.121,4.121,0,0,1-.5-1.9,3.206,3.206,0,0,1,.2-1.092,2.964,2.964,0,0,1,.568-.983,5.4,5.4,0,0,1,.961-.874,6.919,6.919,0,0,1,1.7-.808,24.769,24.769,0,0,1,2.948-.786c.328-.066.655-.153,1-.24a5.11,5.11,0,0,0,.83-.284,1.861,1.861,0,0,0,.546-.371,2.13,2.13,0,0,0,.349-.459,1,1,0,0,0,.109-.5,1.224,1.224,0,0,0-.328-.852,1.65,1.65,0,0,0-.852-.48,4.631,4.631,0,0,0-1.136-.131A14.163,14.163,0,0,0,76.649,116.867Z" transform="translate(47.951 -108.895)" fill="#fefefe"/>
        <path id="Path_279" data-name="Path 279" d="M82.05,129.272c.131-1.442.284-4.041.459-7.775s.284-6.967.328-9.7c.9.022,1.529.022,1.9.022.5,0,1.114,0,1.835-.022l-.306,4.674-.437,10.418-.044,2.381c-.7-.022-1.289-.022-1.791-.022C83.841,129.251,83.208,129.251,82.05,129.272Z" transform="translate(56.44 -111.145)" fill="#fefefe"/>
        <path id="Path_280" data-name="Path 280" d="M88.34,129.284c.153-1.682.262-3.014.306-4.04.087-1.7.2-4.128.306-7.295.087-2.337.109-4,.109-4.958v-1.179c2.446.022,4.586.022,6.421.022l3.582-.022,2.14-.022c-.087,1.267-.153,2.184-.153,2.774l-1.835-.066-.743-.022H95.526l-2.643.022-.153,4.586,2.184.044c1.66,0,2.708,0,3.189-.022l1.747-.022c-.066.983-.087,1.9-.109,2.708-1.485-.044-2.665-.044-3.538-.044-1.114,0-2.315.022-3.6.044l-.131,5.657-.022,1.158v.655l-1.966-.022C90.371,129.262,89.672,129.262,88.34,129.284Z" transform="translate(63.888 -111.157)" fill="#fefefe"/>
        <path id="Path_281" data-name="Path 281" d="M106.9,124.13c-.109.5-.262,1.4-.48,2.708a22.6,22.6,0,0,1-2.337.393,18.485,18.485,0,0,1-1.9.109,12.425,12.425,0,0,1-2.992-.328,5.391,5.391,0,0,1-2.315-1.223,5.221,5.221,0,0,1-1.463-2.184,8.031,8.031,0,0,1-.481-2.708,8.6,8.6,0,0,1,.546-3.058,6.269,6.269,0,0,1,1.551-2.424,5.654,5.654,0,0,1,2.25-1.332,8.793,8.793,0,0,1,2.643-.393,9.263,9.263,0,0,1,2.49.328,4.733,4.733,0,0,1,1.987,1.07,5.127,5.127,0,0,1,1.223,1.791,6.073,6.073,0,0,1,.437,2.315,6.355,6.355,0,0,1-.131,1.245l-9.37.022c-.022.306-.022.568-.022.764a4.11,4.11,0,0,0,.284,1.573,3.434,3.434,0,0,0,.852,1.223,3.546,3.546,0,0,0,1.354.743,4.748,4.748,0,0,0,1.529.24,10.431,10.431,0,0,0,1.922-.2A20.247,20.247,0,0,0,106.9,124.13Zm-8.278-5.176,5.984.022a7.678,7.678,0,0,0-.044-.9,3.447,3.447,0,0,0-.175-.677,2.132,2.132,0,0,0-.371-.655,1.924,1.924,0,0,0-.546-.48,2.162,2.162,0,0,0-.721-.284,3.677,3.677,0,0,0-.874-.109,3.514,3.514,0,0,0-1.048.175,2.835,2.835,0,0,0-.917.48,3,3,0,0,0-.677.721,3.642,3.642,0,0,0-.393.764C98.8,118.233,98.708,118.56,98.621,118.954Z" transform="translate(71.691 -108.907)" fill="#fefefe"/>
        <path id="Path_282" data-name="Path 282" d="M101.814,126.759l-.284-2.817a16.246,16.246,0,0,0,2.119.721,6.11,6.11,0,0,0,1.594.2,3.919,3.919,0,0,0,1.223-.175,1.451,1.451,0,0,0,.743-.5,1.241,1.241,0,0,0,.24-.721,1.343,1.343,0,0,0-.022-.306,1.515,1.515,0,0,0-.109-.284,1.111,1.111,0,0,0-.2-.284,4.011,4.011,0,0,0-.306-.306c-.131-.109-.306-.262-.546-.437l-.7-.546c-.655-.524-1.179-.939-1.529-1.223a5.694,5.694,0,0,1-.874-.917,3.633,3.633,0,0,1-.546-.983,2.936,2.936,0,0,1-.175-1.048,3.1,3.1,0,0,1,.568-1.769,3.362,3.362,0,0,1,1.66-1.245,7.481,7.481,0,0,1,2.555-.393,22.256,22.256,0,0,1,3.866.393l.175,2.665a7.754,7.754,0,0,0-2.861-.612,4.534,4.534,0,0,0-1.289.153,1.522,1.522,0,0,0-.808.459.993.993,0,0,0-.24.677,1.041,1.041,0,0,0,.087.437,1.546,1.546,0,0,0,.262.437,4.122,4.122,0,0,0,.437.437c.153.131.524.415,1.048.808s.983.764,1.4,1.092a5.956,5.956,0,0,1,.983.983,3.58,3.58,0,0,1,.59,1.048,3.453,3.453,0,0,1,.2,1.136,2.968,2.968,0,0,1-.59,1.769,3.818,3.818,0,0,1-1.769,1.289,7.332,7.332,0,0,1-2.665.459,16.626,16.626,0,0,1-1.878-.131A21.254,21.254,0,0,1,101.814,126.759Z" transform="translate(79.505 -108.871)" fill="#fefefe"/>
        <path id="Path_283" data-name="Path 283" d="M115.348,125.862c-.109.459-.262,1.332-.48,2.621-.721.153-1.289.262-1.682.306a10.578,10.578,0,0,1-1.158.066,8.013,8.013,0,0,1-1.7-.175,2.6,2.6,0,0,1-1.245-.633,2.2,2.2,0,0,1-.655-1.07,4.923,4.923,0,0,1-.175-1.267,3.9,3.9,0,0,1,.022-.459c.022-.2.044-.786.109-1.813l.284-5.329H106.83c.044-.5.087-1.332.109-2.468h1.922c.044-.5.109-1.332.153-2.512l1.507-.284c.328-.066.917-.2,1.835-.415-.066,1.158-.087,2.228-.109,3.232H115.5c-.066,1.158-.087,1.966-.087,2.468h-3.254q-.262,5.209-.262,6.028a3.543,3.543,0,0,0,.175,1.223,1.207,1.207,0,0,0,.546.633,1.725,1.725,0,0,0,.83.2c.218,0,.437-.022.677-.044A11.907,11.907,0,0,0,115.348,125.862Z" transform="translate(85.781 -110.399)" fill="#fefefe"/>
        <path id="Path_284" data-name="Path 284" d="M111.54,129.391q.2-1.933.262-3.211c.087-1.354.153-2.948.218-4.718.066-1.791.109-3.473.131-5.089.83.022,1.463.022,1.878.022.371,0,1,0,1.856-.022-.109,1.485-.218,2.9-.284,4.259s-.131,2.883-.153,4.63-.044,3.123-.044,4.128c-.786-.022-1.4-.022-1.878-.022C113.091,129.369,112.435,129.369,111.54,129.391Zm.7-15.245c.044-.874.044-1.551.044-2.031V111.7c.786.022,1.4.022,1.9.022.655,0,1.289,0,1.856-.022a7.1,7.1,0,0,0-.044.721l-.065,1.7c-.655-.022-1.245-.022-1.791-.022S112.96,114.124,112.239,114.146Z" transform="translate(91.357 -111.263)" fill="#fefefe"/>
        <path id="Path_285" data-name="Path 285" d="M118.8,126.869q-.852-2.686-4.543-13.017c.743.022,1.4.022,1.944.022.59,0,1.179,0,1.791-.022l2.992,9.763.415-1.114,2.883-7.317c.131-.349.306-.786.524-1.354.7.022,1.31.022,1.856.022s1.179,0,1.9-.022l-2.075,4.521-3.014,6.836-.677,1.66c-.764-.022-1.42-.022-1.922-.022C120.266,126.847,119.589,126.847,118.8,126.869Z" transform="translate(94.578 -108.741)" fill="#fefefe"/>
        <path id="Path_286" data-name="Path 286" d="M122.619,116.867c.109-.612.2-1.048.218-1.289s.087-.633.153-1.136c1.158-.262,2.184-.459,3.08-.568a21.29,21.29,0,0,1,2.577-.175,9.567,9.567,0,0,1,2.577.328,3.773,3.773,0,0,1,1.835,1.048,2.934,2.934,0,0,1,.655,2.053c0,.481-.066,1.725-.2,3.713s-.218,4.04-.24,6.181c-.655-.022-1.245-.022-1.791-.022-.524,0-1.136,0-1.835.022.109-1.026.2-2.228.262-3.582l.175-3.189a7.923,7.923,0,0,1-.743.459,4.433,4.433,0,0,1-.568.24c-.2.066-.59.175-1.136.328s-.961.284-1.289.393a6.566,6.566,0,0,0-.874.371,2.547,2.547,0,0,0-.655.48,1.818,1.818,0,0,0-.393.546,1.465,1.465,0,0,0-.131.612,1.45,1.45,0,0,0,.306.917,1.829,1.829,0,0,0,.786.546,3.349,3.349,0,0,0,1.114.153,6.351,6.351,0,0,0,.874-.066,6.953,6.953,0,0,0,1.223-.328,21.8,21.8,0,0,0-.633,2.184,13.522,13.522,0,0,1-1.441.2c-.349.022-.7.044-1,.044a6.949,6.949,0,0,1-2.643-.437,2.95,2.95,0,0,1-1.529-1.376,4.121,4.121,0,0,1-.5-1.9,3.205,3.205,0,0,1,.2-1.092,2.963,2.963,0,0,1,.568-.983,5.4,5.4,0,0,1,.961-.874,6.92,6.92,0,0,1,1.7-.808,24.769,24.769,0,0,1,2.948-.786c.328-.066.655-.153,1-.24a5.109,5.109,0,0,0,.83-.284,1.861,1.861,0,0,0,.546-.371,2.131,2.131,0,0,0,.349-.459,1,1,0,0,0,.109-.5,1.225,1.225,0,0,0-.328-.852,1.65,1.65,0,0,0-.852-.48,4.631,4.631,0,0,0-1.136-.131A14.07,14.07,0,0,0,122.619,116.867Z" transform="translate(102.381 -108.895)" fill="#fefefe"/>
        <path id="Path_287" data-name="Path 287" d="M128.01,129.272c.131-1.442.284-4.041.459-7.775s.284-6.967.328-9.7c.9.022,1.529.022,1.9.022.5,0,1.114,0,1.835-.022l-.306,4.674-.437,10.418-.044,2.381c-.7-.022-1.289-.022-1.791-.022C129.823,129.251,129.167,129.251,128.01,129.272Z" transform="translate(110.859 -111.145)" fill="#fefefe"/>
        <path id="Path_288" data-name="Path 288" d="M141.38,113.7a9.272,9.272,0,0,1,2.817.437,5.951,5.951,0,0,1,2.293,1.31,5.662,5.662,0,0,1,1.42,2.119,7.065,7.065,0,0,1,.48,2.621,8.144,8.144,0,0,1-.5,2.817,6.866,6.866,0,0,1-1.441,2.359,5.731,5.731,0,0,1-2.359,1.485,9.091,9.091,0,0,1-3.014.5,9.271,9.271,0,0,1-2.817-.437,5.992,5.992,0,0,1-2.293-1.332,5.8,5.8,0,0,1-1.442-2.14,7.2,7.2,0,0,1-.5-2.643,7.891,7.891,0,0,1,.459-2.686,6.279,6.279,0,0,1,1.4-2.271,6.446,6.446,0,0,1,2.446-1.551A8.739,8.739,0,0,1,141.38,113.7Zm0,2.643a3.627,3.627,0,0,0-1.987.546,3.354,3.354,0,0,0-1.31,1.616,6.352,6.352,0,0,0-.437,2.337,5.2,5.2,0,0,0,.349,1.987,2.9,2.9,0,0,0,1.158,1.4,3.409,3.409,0,0,0,1.9.546,3.5,3.5,0,0,0,1.966-.546,3.338,3.338,0,0,0,1.267-1.638,6.415,6.415,0,0,0,.437-2.381,5.378,5.378,0,0,0-.328-1.922,2.811,2.811,0,0,0-1.114-1.4A3.306,3.306,0,0,0,141.38,116.343Z" transform="translate(117.975 -108.895)" fill="#fefefe"/>
        <path id="Path_289" data-name="Path 289" d="M142.388,129.628l.153-2.119.393-8.321H141.34c.022-.262.044-.677.087-1.245s.044-1,.066-1.267h1.747v-.5a16.288,16.288,0,0,1,.109-2.1,2.611,2.611,0,0,1,.437-1.179,3.13,3.13,0,0,1,.874-.808,3.411,3.411,0,0,1,1.245-.459,7.4,7.4,0,0,1,1.4-.131,11.972,11.972,0,0,1,3.08.415c.022.961.066,1.769.131,2.446a7.03,7.03,0,0,0-2.25-.437,2.51,2.51,0,0,0-.721.087,1.814,1.814,0,0,0-.546.262,1.149,1.149,0,0,0-.349.437,2.4,2.4,0,0,0-.2.633,4.884,4.884,0,0,0-.044.83v.48h3.254c-.044.59-.109,1.42-.153,2.512h-3.079c-.175,3.385-.284,6.88-.371,10.44-.764-.022-1.4-.022-1.856-.022C143.742,129.606,143.131,129.606,142.388,129.628Z" transform="translate(126.642 -111.5)" fill="#fefefe"/>
        <path id="Path_290" data-name="Path 290" d="M147.77,129.272c.9-1.573,1.922-3.516,3.123-5.831l3.363-6.465c1.048-1.987,1.922-3.735,2.621-5.176,1.114.022,1.9.022,2.359.022.808,0,1.594,0,2.381-.022l1.835,5.242,3.975,10.833.546,1.4-1.922-.022c-.437,0-1.179,0-2.228.022-.2-.764-.524-1.791-.961-3.08s-.808-2.337-1.114-3.145h-6.727c-1,2.031-1.966,4.106-2.9,6.2l-2.1-.022C149.583,129.251,148.862,129.251,147.77,129.272Zm8.365-8.867h4.914l-2.009-5.919-1.027,2.162Z" transform="translate(134.255 -111.145)" fill="#fefefe"/>
        <path id="Path_291" data-name="Path 291" d="M157.75,127.023l.371-6.072.109-3.538c.022-.721.022-1.463.022-2.184,0-.131,0-.524-.022-1.223.786.022,1.376.022,1.747.022.437,0,1,0,1.725-.022l-.065,1.813a8.611,8.611,0,0,1,.83-1.027,4.175,4.175,0,0,1,.764-.59,3.384,3.384,0,0,1,.961-.371,4.352,4.352,0,0,1,1.07-.131,4.308,4.308,0,0,1,1.048.131c0,.786.044,1.791.109,3.014a5.492,5.492,0,0,0-1.376-.2,3.434,3.434,0,0,0-1.31.218,3.108,3.108,0,0,0-1.026.677,3.68,3.68,0,0,0-.743,1.114,5,5,0,0,0-.349,1.4c-.066.437-.131,1.2-.175,2.271s-.066,2.14-.066,3.167c0,.393.022.9.044,1.507-.655-.022-1.245-.022-1.791-.022C159.126,127,158.493,127,157.75,127.023Z" transform="translate(146.072 -108.895)" fill="#fefefe"/>
        <path id="Path_292" data-name="Path 292" d="M163.829,116.867c.109-.612.2-1.048.218-1.289s.087-.633.153-1.136c1.158-.262,2.184-.459,3.08-.568a21.29,21.29,0,0,1,2.577-.175,9.567,9.567,0,0,1,2.577.328,3.774,3.774,0,0,1,1.835,1.048,2.934,2.934,0,0,1,.655,2.053c0,.481-.066,1.725-.2,3.713s-.218,4.04-.24,6.181c-.655-.022-1.245-.022-1.791-.022-.524,0-1.136,0-1.835.022.109-1.026.2-2.228.262-3.582l.175-3.189a7.912,7.912,0,0,1-.743.459,4.436,4.436,0,0,1-.568.24c-.2.066-.59.175-1.136.328s-.961.284-1.289.393a6.564,6.564,0,0,0-.874.371,2.547,2.547,0,0,0-.655.48,1.817,1.817,0,0,0-.393.546,1.466,1.466,0,0,0-.131.612,1.45,1.45,0,0,0,.306.917,1.829,1.829,0,0,0,.786.546,3.349,3.349,0,0,0,1.114.153,6.35,6.35,0,0,0,.874-.066,6.953,6.953,0,0,0,1.223-.328,21.787,21.787,0,0,0-.633,2.184,13.521,13.521,0,0,1-1.441.2c-.349.022-.7.044-1,.044a6.949,6.949,0,0,1-2.643-.437,2.949,2.949,0,0,1-1.529-1.376,4.121,4.121,0,0,1-.5-1.9,3.206,3.206,0,0,1,.2-1.092,2.964,2.964,0,0,1,.568-.983,5.4,5.4,0,0,1,.961-.874,6.919,6.919,0,0,1,1.7-.808,24.769,24.769,0,0,1,2.948-.786c.328-.066.655-.153,1-.24a5.11,5.11,0,0,0,.83-.284,1.861,1.861,0,0,0,.546-.371,2.128,2.128,0,0,0,.349-.459,1,1,0,0,0,.109-.5,1.225,1.225,0,0,0-.328-.852,1.65,1.65,0,0,0-.852-.48,4.631,4.631,0,0,0-1.136-.131A14.163,14.163,0,0,0,163.829,116.867Z" transform="translate(151.175 -108.895)" fill="#fefefe"/>
        <path id="Path_293" data-name="Path 293" d="M169.23,129.272c.153-1.616.328-4.434.5-8.452s.284-7.011.284-9.02c.764.022,1.42.022,1.966.022s1.136,0,1.769-.022c-.153,1.2-.262,2.73-.349,4.565.83-.153,1.507-.262,1.987-.328a10.967,10.967,0,0,1,1.463-.087,8.214,8.214,0,0,1,3.385.633,4.747,4.747,0,0,1,2.206,2.1,7.21,7.21,0,0,1,.83,3.56,9.5,9.5,0,0,1-.415,2.839,7.838,7.838,0,0,1-1.245,2.446A4.827,4.827,0,0,1,179.6,129.1a6.583,6.583,0,0,1-2.555.5,5.439,5.439,0,0,1-2.271-.48,3.355,3.355,0,0,1-.852-.546,4.263,4.263,0,0,1-.633-.612,5.565,5.565,0,0,1-.59-.852l-.065,2.184c-.7-.022-1.245-.022-1.66-.022C170.737,129.251,170.125,129.251,169.23,129.272Zm3.953-10.309-.109,2.184c-.022.459-.044.917-.044,1.376a7.774,7.774,0,0,0,.328,2.512,2.688,2.688,0,0,0,1.114,1.42,3.2,3.2,0,0,0,1.747.5,3.1,3.1,0,0,0,1.835-.568,3.569,3.569,0,0,0,1.2-1.66,6.39,6.39,0,0,0,.415-2.315,4.069,4.069,0,0,0-.939-2.817,3.415,3.415,0,0,0-2.73-1.07,7.868,7.868,0,0,0-1.223.087A13.619,13.619,0,0,0,173.183,118.964Z" transform="translate(159.665 -111.145)" fill="#fefefe"/>
        <path id="Path_294" data-name="Path 294" d="M185.658,129.272c-2.1-5.875-4.259-11.685-6.508-17.472.83.022,1.485.022,1.987.022.568,0,1.223,0,1.988-.022l3.582,10.593,1.507,4.172c.328-.633.808-1.638,1.463-3.036s1.114-2.424,1.4-3.08c-.393-1.2-.9-2.643-1.485-4.324-.612-1.7-1.136-3.123-1.573-4.3.721.022,1.354.022,1.9.022.612,0,1.245,0,1.9-.022.393,1.551.852,3.08,1.332,4.587q1.081-2.326,1.966-4.587c.743.022,1.332.022,1.791.022.524,0,1.114,0,1.791-.022q-.819,1.638-2.031,4.193c-.808,1.7-1.463,3.123-1.944,4.237.2.612.546,1.66,1.048,3.123.524,1.463.9,2.512,1.136,3.1l3.429-7.317,2.49-5.482.83-1.878c.83.022,1.485.022,1.966.022.546,0,1.2,0,1.987-.022l-2.4,4.783-5.023,10.309-1.136,2.381c-.917-.022-1.7-.022-2.337-.022-.677,0-1.463,0-2.359.022-.5-1.725-1.07-3.407-1.66-5.067-.808,1.66-1.573,3.342-2.293,5.067-.917-.022-1.7-.022-2.359-.022C187.318,129.251,186.532,129.251,185.658,129.272Z" transform="translate(171.411 -111.145)" fill="#fefefe"/>
        <path id="Path_295" data-name="Path 295" d="M199.51,113.7a9.272,9.272,0,0,1,2.817.437,5.952,5.952,0,0,1,2.293,1.31,5.662,5.662,0,0,1,1.42,2.119,7.065,7.065,0,0,1,.48,2.621,8.144,8.144,0,0,1-.5,2.817,6.865,6.865,0,0,1-1.441,2.359,5.73,5.73,0,0,1-2.359,1.485,9.09,9.09,0,0,1-3.014.5,9.271,9.271,0,0,1-2.817-.437,5.992,5.992,0,0,1-2.293-1.332,5.8,5.8,0,0,1-1.441-2.14,7.2,7.2,0,0,1-.5-2.643,7.89,7.89,0,0,1,.459-2.686,6.278,6.278,0,0,1,1.4-2.271,6.446,6.446,0,0,1,2.446-1.551A8.739,8.739,0,0,1,199.51,113.7Zm0,2.643a3.627,3.627,0,0,0-1.988.546,3.354,3.354,0,0,0-1.31,1.616,6.351,6.351,0,0,0-.437,2.337,5.2,5.2,0,0,0,.349,1.987,2.9,2.9,0,0,0,1.158,1.4,3.409,3.409,0,0,0,1.9.546,3.5,3.5,0,0,0,1.966-.546,3.338,3.338,0,0,0,1.267-1.638,6.415,6.415,0,0,0,.437-2.381,5.378,5.378,0,0,0-.328-1.922,2.812,2.812,0,0,0-1.114-1.4A3.307,3.307,0,0,0,199.51,116.343Z" transform="translate(186.803 -108.895)" fill="#fefefe"/>
        <path id="Path_296" data-name="Path 296" d="M199.74,127.035c.109-1.441.24-3.626.371-6.508s.2-5.045.2-6.508c.721.022,1.31.022,1.769.022.524,0,1.092,0,1.682-.022l-.087,2.053a11.383,11.383,0,0,1,.743-.983,3.61,3.61,0,0,1,.874-.7,4.792,4.792,0,0,1,1.267-.5,5.642,5.642,0,0,1,1.485-.175,6.021,6.021,0,0,1,1.114.109,4.69,4.69,0,0,1,.983.306,3.221,3.221,0,0,1,.764.459,2.529,2.529,0,0,1,.524.568,6.688,6.688,0,0,1,.481.917c.2-.306.371-.546.524-.743a3.4,3.4,0,0,1,.633-.612,3.933,3.933,0,0,1,.874-.546,5.332,5.332,0,0,1,1.092-.349,5.932,5.932,0,0,1,1.267-.131,6.047,6.047,0,0,1,2.1.371,3.215,3.215,0,0,1,1.551,1.158,3.3,3.3,0,0,1,.568,1.944c0,.415-.022,1-.087,1.813-.066.786-.131,2.1-.218,3.888s-.131,3.189-.131,4.172c-.633-.022-1.179-.022-1.66-.022-.568,0-1.223,0-1.988.022.087-1.092.153-2.25.218-3.451l.153-2.927c.044-.743.066-1.376.066-1.878a2.587,2.587,0,0,0-.284-1.376,1.773,1.773,0,0,0-.721-.677,2.425,2.425,0,0,0-1-.2,2.374,2.374,0,0,0-1.048.218,2.573,2.573,0,0,0-.874.7,3.349,3.349,0,0,0-.611,1.136,9.085,9.085,0,0,0-.328,1.813c-.066.786-.131,1.813-.175,3.079l-.087,3.56c-.7-.022-1.289-.022-1.769-.022s-1.092,0-1.878.022c.066-.655.153-2.009.262-4.041s.175-3.407.175-4.106a4.115,4.115,0,0,0-.087-.961,1.83,1.83,0,0,0-.371-.743,1.769,1.769,0,0,0-.633-.524,2.041,2.041,0,0,0-.852-.175,2.348,2.348,0,0,0-1.572.59,3.238,3.238,0,0,0-.983,1.573,16.989,16.989,0,0,0-.459,3.822c-.087,1.878-.131,3.407-.131,4.521-.786-.022-1.376-.022-1.769-.022C201.181,127.013,200.548,127.013,199.74,127.035Z" transform="translate(195.79 -108.907)" fill="#fefefe"/>
        <path id="Path_297" data-name="Path 297" d="M222.259,124.13c-.109.5-.262,1.4-.48,2.708a22.6,22.6,0,0,1-2.337.393,18.484,18.484,0,0,1-1.9.109,12.424,12.424,0,0,1-2.992-.328,5.391,5.391,0,0,1-2.315-1.223,5.221,5.221,0,0,1-1.463-2.184,8.031,8.031,0,0,1-.481-2.708,8.6,8.6,0,0,1,.546-3.058,6.268,6.268,0,0,1,1.551-2.424,5.654,5.654,0,0,1,2.25-1.332,8.793,8.793,0,0,1,2.643-.393,9.263,9.263,0,0,1,2.49.328,4.733,4.733,0,0,1,1.988,1.07,5.127,5.127,0,0,1,1.223,1.791,6.071,6.071,0,0,1,.437,2.315,6.356,6.356,0,0,1-.131,1.245l-9.37.022c-.022.306-.022.568-.022.764a4.11,4.11,0,0,0,.284,1.573,3.434,3.434,0,0,0,.852,1.223,3.546,3.546,0,0,0,1.354.743,4.747,4.747,0,0,0,1.529.24,10.431,10.431,0,0,0,1.922-.2A20.249,20.249,0,0,0,222.259,124.13ZM214,118.954l5.984.022a7.676,7.676,0,0,0-.044-.9,3.445,3.445,0,0,0-.175-.677,2.133,2.133,0,0,0-.371-.655,1.924,1.924,0,0,0-.546-.48,2.161,2.161,0,0,0-.721-.284,3.677,3.677,0,0,0-.874-.109,3.514,3.514,0,0,0-1.048.175,2.834,2.834,0,0,0-.917.48,3,3,0,0,0-.677.721,3.644,3.644,0,0,0-.393.764C214.178,118.233,214.09,118.56,214,118.954Z" transform="translate(208.282 -108.907)" fill="#fefefe"/>
        <path id="Path_298" data-name="Path 298" d="M217.14,127.011c.2-1.944.349-4.106.48-6.53s.2-4.586.218-6.487c.786.022,1.42.022,1.878.022.546,0,1.136,0,1.769-.022l-.153,2.184a10.05,10.05,0,0,1,.7-.9,4.755,4.755,0,0,1,.764-.655,3.336,3.336,0,0,1,1-.5,8.422,8.422,0,0,1,1.179-.306,9.247,9.247,0,0,1,1.376-.109,7.987,7.987,0,0,1,2.184.284,3.782,3.782,0,0,1,1.682.917,3.3,3.3,0,0,1,.852,1.376,5.358,5.358,0,0,1,.2,1.573c0,.24-.022.59-.044,1.092l-.262,5.591c-.044.786-.066,1.594-.066,2.49-.677-.022-1.245-.022-1.725-.022-.655,0-1.31,0-1.966.022.066-.743.153-2.031.262-3.888s.153-3.079.153-3.669a3.366,3.366,0,0,0-.328-1.616,2.273,2.273,0,0,0-.983-.939,3.244,3.244,0,0,0-1.441-.328,3.612,3.612,0,0,0-1.441.284,3.194,3.194,0,0,0-1.158.852,3.738,3.738,0,0,0-.786,1.42,12.824,12.824,0,0,0-.437,2.948c-.087,1.223-.153,2.861-.2,4.892-.655-.022-1.245-.022-1.791-.022C218.56,126.989,217.9,126.989,217.14,127.011Z" transform="translate(216.392 -108.883)" fill="#fefefe"/>
      </g>
      <line id="Line_21" data-name="Line 21" x2="154.412" transform="translate(24.464 183.81)" fill="none" stroke="#fefefe" stroke-miterlimit="10" stroke-width="0.5"/>
    </g>
  </g>
</svg>
