<svg xmlns="http://www.w3.org/2000/svg" xmlns:xlink="http://www.w3.org/1999/xlink" width="98" height="99" viewBox="0 0 98 99">
  <defs>
    <filter id="Ellipse_38" x="0" y="0" width="98" height="99" filterUnits="userSpaceOnUse">
      <feOffset dy="3" input="SourceAlpha"/>
      <feGaussianBlur stdDeviation="3" result="blur"/>
      <feFlood flood-opacity="0.161"/>
      <feComposite operator="in" in2="blur"/>
      <feComposite in="SourceGraphic"/>
    </filter>
    <clipPath id="clip-path">
      <rect id="Rectangle_241" data-name="Rectangle 241" width="67" height="67" transform="translate(-0.433 -0.433)" fill="none"/>
    </clipPath>
  </defs>
  <g id="Lawyer" transform="translate(-418 -168)">
    <g transform="matrix(1, 0, 0, 1, 418, 168)" filter="url(#Ellipse_38)">
      <ellipse id="Ellipse_38-2" data-name="Ellipse 38" cx="40" cy="40.5" rx="40" ry="40.5" transform="translate(9 6)" fill="#fefefe"/>
    </g>
    <g id="Group_279" data-name="Group 279" transform="translate(434.433 181.433)">
      <g id="Group_278" data-name="Group 278" clip-path="url(#clip-path)">
        <path id="Path_193" data-name="Path 193" d="M49.951,84q2.879,4.886,5.828,9.739c-4.165.124-8.4,0-12.589.041,2.194-3.421,4.3-6.805,6.383-10.317.145.207.262.371.379.537" transform="translate(-31.989 -61.815)" fill="#88438d"/>
        <path id="Path_194" data-name="Path 194" d="M173.568,91.915c.337.534.667,1.071,1.006,1.605-4.165.13-8.405,0-12.594.041,2.114-3.465,4.183-6.829,6.175-10.392,1.764,2.975,3.571,5.83,5.413,8.745" transform="translate(-119.971 -61.6)" fill="#88438d"/>
        <path id="Path_195" data-name="Path 195" d="M33.067,0A33.067,33.067,0,1,0,66.134,33.067,33.066,33.066,0,0,0,33.067,0m6.66,32.553c-.156-1.214,1.04-2.215,1.509-3.291,1.852-3.058,3.623-6.113,5.534-9.139-2.521.005-5.005,0-7.521,0-1.372.093-3.927-.578-3.506,1.6-.049,8.478.073,16.956-.044,25.434q5.291.043,10.587.083c.731,1.911.664,3.711-.293,4.544a1.96,1.96,0,0,1-.674.379c-5.726.086-22.288.293-24.091-.239a1.512,1.512,0,0,1-.467-.233c-1.04-.809-.63-3.006-.233-4.45l9.591-.083q.008-12.818,0-25.626c.13-2.083-2.713-1.237-4.059-1.408-2.355,0-4.614,0-6.989,0,2.067,3.32,4,6.655,6.032,9.99.809,1.253,1.4,2.119.6,3.576a9.981,9.981,0,0,1-4.743,4.7,4.56,4.56,0,0,0-.757.278,9.044,9.044,0,0,1-11.388-6.3c1.758-3.947,4.671-7.669,6.883-11.494,1.574-1.673-.742-1.743.1-3.864,1.128-1.73,3.211-1.1,4.982-1.209,2.044.01,4.09-.008,6.134.005a10.747,10.747,0,0,0,2.713-.145,4.215,4.215,0,0,1,6.7.124c1.885.031,3.771.01,5.656.021,2.679.223,10.109-1.325,7.744,3.556-.451.371-.267.654.054.952q3.637,5.839,7.272,11.676c-2.116,8.973-14.666,9.57-17.33.563" fill="#88438d"/>
      </g>
    </g>
  </g>
</svg>
