<svg xmlns="http://www.w3.org/2000/svg" xmlns:xlink="http://www.w3.org/1999/xlink" width="98" height="99" viewBox="0 0 98 99">
  <defs>
    <filter id="Ellipse_48" x="0" y="0" width="98" height="99" filterUnits="userSpaceOnUse">
      <feOffset dy="3" input="SourceAlpha"/>
      <feGaussianBlur stdDeviation="3" result="blur"/>
      <feFlood flood-opacity="0.161"/>
      <feComposite operator="in" in2="blur"/>
      <feComposite in="SourceGraphic"/>
    </filter>
    <clipPath id="clip-path">
      <rect id="Rectangle_252" data-name="Rectangle 252" width="67" height="67" fill="none"/>
    </clipPath>
  </defs>
  <g id="Literature" transform="translate(-212 -383)">
    <g transform="matrix(1, 0, 0, 1, 212, 383)" filter="url(#Ellipse_48)">
      <ellipse id="Ellipse_48-2" data-name="Ellipse 48" cx="40" cy="40.5" rx="40" ry="40.5" transform="translate(9 6)" fill="#fefefe"/>
    </g>
    <g id="Group_300" data-name="Group 300" transform="translate(228 396)">
      <g id="Group_299" data-name="Group 299" clip-path="url(#clip-path)">
        <path id="Path_215" data-name="Path 215" d="M58.411,64.129v1.482H56.929a1.481,1.481,0,1,1,1.482-1.482" transform="translate(-40.881 -46.189)" fill="#88438d"/>
        <path id="Path_216" data-name="Path 216" d="M102.942,97.7a4.451,4.451,0,0,0,.255,1.479H78.757A1.483,1.483,0,0,1,77.275,97.7V64.129a4.386,4.386,0,0,0-.255-1.479h23.744a9.383,9.383,0,0,0-2.972,2.007L82.7,79.749V90.921l-3.755,3.755,2.094,2.094,3.755-3.755H95.964l6.979-6.981Z" transform="translate(-56.783 -46.189)" fill="#88438d"/>
        <path id="Path_217" data-name="Path 217" d="M133.21,72.989a6.426,6.426,0,0,1,0,9.075L118.985,96.289H112l3.321-3.321H120.3V90.007h-2.01l3.321-3.321h4.971V83.724h-2.01l5.152-5.152-2.094-2.094L109.91,94.195V87.214l14.225-14.225a6.419,6.419,0,0,1,9.075,0" transform="translate(-81.032 -52.426)" fill="#88438d"/>
        <path id="Path_218" data-name="Path 218" d="M33.5,0A33.5,33.5,0,1,0,67,33.5,33.5,33.5,0,0,0,33.5,0M54.273,31.732l-5.15,5.15V51.509A1.482,1.482,0,0,0,50.6,52.988v2.964H21.973a4.448,4.448,0,0,1-4.443-4.443V22.383H16.048a4.443,4.443,0,0,1,0-8.886H44.68a4.438,4.438,0,0,1,3.873,2.267,9.38,9.38,0,0,1,5.72,15.967" fill="#88438d"/>
      </g>
    </g>
  </g>
</svg>
