<svg xmlns="http://www.w3.org/2000/svg" xmlns:xlink="http://www.w3.org/1999/xlink" width="238.37" height="64.96" viewBox="0 0 238.37 64.96">
  <defs>
    <linearGradient id="linear-gradient" x1="0.5" y1="1" x2="0.5" gradientUnits="objectBoundingBox">
      <stop offset="0.001" stop-color="#674696"/>
      <stop offset="0.999" stop-color="#a1569d"/>
    </linearGradient>
    <linearGradient id="linear-gradient-2" x1="0.5" y1="1" x2="0.5" y2="0" xlink:href="#linear-gradient"/>
    <linearGradient id="linear-gradient-3" x1="0.5" y1="1" x2="0.5" y2="0" xlink:href="#linear-gradient"/>
    <linearGradient id="linear-gradient-4" x1="0.5" y1="1" x2="0.5" y2="0" xlink:href="#linear-gradient"/>
    <linearGradient id="linear-gradient-5" x1="-4.676" y1="1.822" x2="24.673" y2="-5.578" xlink:href="#linear-gradient"/>
    <linearGradient id="linear-gradient-6" x1="-14.686" y1="9.861" x2="65.666" y2="-39.716" xlink:href="#linear-gradient"/>
    <linearGradient id="linear-gradient-7" x1="-15.245" y1="10.207" x2="65.108" y2="-39.37" xlink:href="#linear-gradient"/>
    <linearGradient id="linear-gradient-8" x1="-15.806" y1="10.552" x2="64.546" y2="-39.025" xlink:href="#linear-gradient"/>
    <linearGradient id="linear-gradient-9" x1="-16.367" y1="10.898" x2="63.985" y2="-38.679" xlink:href="#linear-gradient"/>
    <linearGradient id="linear-gradient-10" x1="-8.142" y1="2.325" x2="30.446" y2="-5.743" xlink:href="#linear-gradient"/>
    <linearGradient id="linear-gradient-11" x1="-14.483" y1="2.459" x2="48.418" y2="-5.633" xlink:href="#linear-gradient"/>
    <linearGradient id="linear-gradient-12" x1="-10.722" y1="2.531" x2="32.343" y2="-5.413" xlink:href="#linear-gradient"/>
    <linearGradient id="linear-gradient-13" x1="-6.537" y1="3.821" x2="18.071" y2="-7.515" xlink:href="#linear-gradient"/>
    <linearGradient id="linear-gradient-14" x1="-18.99" y1="2.744" x2="43.911" y2="-4.456" xlink:href="#linear-gradient"/>
    <linearGradient id="linear-gradient-15" x1="-45.02" y1="2.861" x2="93.694" y2="-4.333" xlink:href="#linear-gradient"/>
    <linearGradient id="linear-gradient-16" x1="-13.326" y1="3.314" x2="24.76" y2="-4.479" xlink:href="#linear-gradient"/>
    <linearGradient id="linear-gradient-17" x1="-26.656" y1="2.53" x2="43.438" y2="-2.688" xlink:href="#linear-gradient"/>
    <linearGradient id="linear-gradient-18" x1="-16.698" y1="3.633" x2="26.367" y2="-4.311" xlink:href="#linear-gradient"/>
    <linearGradient id="linear-gradient-19" x1="-9.293" y1="5.346" x2="13.705" y2="-5.821" xlink:href="#linear-gradient"/>
    <linearGradient id="linear-gradient-20" x1="-17.835" y1="3.806" x2="22.463" y2="-3.4" xlink:href="#linear-gradient"/>
    <linearGradient id="linear-gradient-21" x1="-29.007" y1="3.89" x2="33.894" y2="-3.31" xlink:href="#linear-gradient"/>
    <linearGradient id="linear-gradient-22" x1="-10.541" y1="3.818" x2="11.041" y2="-2.571" xlink:href="#linear-gradient"/>
    <linearGradient id="linear-gradient-23" x1="-16.268" y1="4.751" x2="13.99" y2="-2.955" xlink:href="#linear-gradient"/>
    <linearGradient id="linear-gradient-24" x1="-22.806" y1="5.1" x2="17.431" y2="-2.791" xlink:href="#linear-gradient"/>
    <linearGradient id="linear-gradient-25" x1="-9.849" y1="7.862" x2="7.122" y2="-3.962" xlink:href="#linear-gradient"/>
    <linearGradient id="linear-gradient-26" x1="-39.921" y1="5.14" x2="22.98" y2="-2.06" xlink:href="#linear-gradient"/>
    <linearGradient id="linear-gradient-27" x1="-91.172" y1="5.254" x2="47.542" y2="-1.939" xlink:href="#linear-gradient"/>
    <linearGradient id="linear-gradient-28" x1="-21.747" y1="5.407" x2="10.276" y2="-1.645" xlink:href="#linear-gradient"/>
    <linearGradient id="linear-gradient-29" x1="-47.88" y1="5.735" x2="18.674" y2="-1.472" xlink:href="#linear-gradient"/>
    <linearGradient id="linear-gradient-30" x1="-22.407" y1="6.319" x2="8.563" y2="-1.526" xlink:href="#linear-gradient"/>
    <linearGradient id="linear-gradient-31" x1="-32.587" y1="6.564" x2="10.478" y2="-1.38" xlink:href="#linear-gradient"/>
    <linearGradient id="linear-gradient-32" x1="-18.51" y1="6.517" x2="5.471" y2="-1.061" xlink:href="#linear-gradient"/>
    <linearGradient id="linear-gradient-33" x1="-18.526" y1="9.837" x2="4.452" y2="-1.33" xlink:href="#linear-gradient"/>
    <linearGradient id="linear-gradient-34" x1="-53.171" y1="6.657" x2="9.73" y2="-0.544" xlink:href="#linear-gradient"/>
    <linearGradient id="linear-gradient-35" x1="-120.391" y1="6.77" x2="18.322" y2="-0.424" xlink:href="#linear-gradient"/>
    <linearGradient id="linear-gradient-36" x1="-1.844" y1="1.079" x2="12.635" y2="-2.83" xlink:href="#linear-gradient"/>
    <linearGradient id="linear-gradient-37" x1="-3.637" y1="1.64" x2="14.764" y2="-3.489" xlink:href="#linear-gradient"/>
    <linearGradient id="linear-gradient-38" x1="-4.644" y1="1.577" x2="13.186" y2="-2.273" xlink:href="#linear-gradient"/>
    <linearGradient id="linear-gradient-39" x1="-6.15" y1="2.244" x2="13.375" y2="-2.775" xlink:href="#linear-gradient"/>
    <linearGradient id="linear-gradient-40" x1="-20.981" y1="1.992" x2="34.695" y2="-1.877" xlink:href="#linear-gradient"/>
    <linearGradient id="linear-gradient-41" x1="-8.066" y1="2.258" x2="10.9" y2="-1.593" xlink:href="#linear-gradient"/>
    <linearGradient id="linear-gradient-42" x1="-8.779" y1="2.44" x2="9.351" y2="-1.349" xlink:href="#linear-gradient"/>
    <linearGradient id="linear-gradient-43" x1="-10.313" y1="2.714" x2="8.653" y2="-1.137" xlink:href="#linear-gradient"/>
    <linearGradient id="linear-gradient-44" x1="-10.892" y1="2.993" x2="7.2" y2="-0.922" xlink:href="#linear-gradient"/>
  </defs>
  <g id="Group_558" data-name="Group 558" transform="translate(-137 -45.52)">
    <g id="Group_322" data-name="Group 322" transform="translate(49.556 38.561)">
      <path id="Path_235" data-name="Path 235" d="M141.28,30.97a28.079,28.079,0,0,0-27.926-17.686A27.706,27.706,0,0,0,91.594,26.236a26.687,26.687,0,0,0-2,3.846,26.2,26.2,0,0,0-1.37,4.1,26.7,26.7,0,0,0,1.306,16.743,27.7,27.7,0,0,1-.036-16.4,26.568,26.568,0,0,1,16.172-17.133,24.021,24.021,0,0,1,3.864-1.1,24.605,24.605,0,0,1,3.991-.49,26.138,26.138,0,0,1,25.414,16.1,26.483,26.483,0,0,1-6.694,29.7A27.559,27.559,0,0,1,117.4,68.565a26.524,26.524,0,0,0,15.7-5.959,27.833,27.833,0,0,0,5.759-6.431,27.278,27.278,0,0,0,3.483-7.963A28.153,28.153,0,0,0,141.28,30.97Z" transform="translate(0 -0.582)" fill="url(#linear-gradient)"/>
      <path id="Path_236" data-name="Path 236" d="M110.936,62.172c3.964,1.088,9.487,3.719,10.421.68s.544-3.9,2.286-4.453-.073-1.769.045-2.494,1.732-.19,1.76-.98-1.261-1.061-.989-2.032,2.775-.707,3-2.05-3.156-4.036-2.639-6.131,1.36-1.941,1.732-4.608A10.737,10.737,0,0,0,124.5,32.15a15.121,15.121,0,0,0,.408-2.3,13.334,13.334,0,0,0-.181-3.755,9.719,9.719,0,0,0-1.406-3.4,11.184,11.184,0,0,1,.671,3.492,13.37,13.37,0,0,1-.372,3.456,17.9,17.9,0,0,1-2.911,6.213c-2.639,3.809-6.313,6.948-9.36,10.911a22.928,22.928,0,0,0-3.691,6.657l-.29.934c-.082.317-.145.635-.209.952a16.943,16.943,0,0,0-.29,1.923,17.574,17.574,0,0,0,.091,3.846,17.77,17.77,0,0,0,2.512,7.1,15.646,15.646,0,0,0,5.188,5.206,18.8,18.8,0,0,1-5.469-11.12A2.584,2.584,0,0,1,110.936,62.172Z" transform="translate(-1.8 -1.463)" fill="url(#linear-gradient-2)"/>
      <path id="Path_237" data-name="Path 237" d="M104.384,52.57c1.424-3.265,3.828-6.168,6.231-9.133,1.2-1.487,2.413-3.02,3.483-4.653a21.307,21.307,0,0,0,2.585-5.233,60.488,60.488,0,0,1-7.637,8.48,53.074,53.074,0,0,0-3.945,4.326,23.885,23.885,0,0,0-3.184,5.134,13.244,13.244,0,0,0-.544,1.451l-.245.744c-.073.245-.127.5-.181.753l-.163.762-.109.771-.1.771-.036.771a17.8,17.8,0,0,0,.789,6.041,17.366,17.366,0,0,0,2.748,5.342,14.6,14.6,0,0,0,4.408,3.873,19.474,19.474,0,0,1-5.106-9.741A17.548,17.548,0,0,1,104.384,52.57Z" transform="translate(-1.216 -2.473)" fill="url(#linear-gradient-3)"/>
      <path id="Path_238" data-name="Path 238" d="M96.01,57.948a25.429,25.429,0,0,1,4.281-10.576c2.213-3.156,5.07-6,7.673-9.17a31.719,31.719,0,0,0,3.51-5.115,15.923,15.923,0,0,0,1.868-5.877c-1.487,3.828-4.136,6.775-6.939,9.587-2.8,2.83-5.859,5.569-8.308,9.043a23.2,23.2,0,0,0-4.181,11.873,21.4,21.4,0,0,0,2.63,12.018A28.831,28.831,0,0,1,96.01,57.948Z" transform="translate(-0.597 -1.883)" fill="url(#linear-gradient-4)"/>
      <path id="Path_239" data-name="Path 239" d="M149.062,38.442a32.983,32.983,0,0,0-3.456-13.006,34.184,34.184,0,0,0-8.353-10.612,33.7,33.7,0,0,0-11.864-6.449,33.209,33.209,0,0,0-13.405-1.188,33.87,33.87,0,0,0-6.576,1.424,32.475,32.475,0,0,0-6.113,2.748,31.987,31.987,0,0,0-9.8,8.825A35.232,35.232,0,0,1,99.821,12.32a32.839,32.839,0,0,1,47.509,26.248A33.466,33.466,0,0,1,146.068,51.3a35.016,35.016,0,0,1-6.013,11.5,31.951,31.951,0,0,0,7.056-11.156A32.949,32.949,0,0,0,149.062,38.442Z" transform="translate(-0.19)" fill="#493686"/>
    </g>
    <g id="Group_327" data-name="Group 327" transform="translate(192.911 -23.625)">
      <g id="Group_319" data-name="Group 319" transform="translate(18.13 86.38)">
        <path id="Path_240" data-name="Path 240" d="M22.095,94.087v-.573a.122.122,0,0,1,.135-.135h1.234a.122.122,0,0,1,.135.135v4.339a.779.779,0,0,0,.151.557.658.658,0,0,0,.486.151h.51c.358,0,.533.223.533.669a.737.737,0,0,1-.127.525.553.553,0,0,1-.406.127H23.663a1.888,1.888,0,0,1-1.027-.231,1.162,1.162,0,0,1-.486-.8,1.932,1.932,0,0,1-.669.358,2.8,2.8,0,0,1-.82.119,3.326,3.326,0,0,1-.987-.143,2.112,2.112,0,0,1-.8-.454,2.211,2.211,0,0,1-.541-.78,2.9,2.9,0,0,1-.2-1.146,3.271,3.271,0,0,1,.223-1.3,2.113,2.113,0,0,1,.589-.836,2.236,2.236,0,0,1,.836-.446,3.592,3.592,0,0,1,.979-.135Zm-2.556-1.632a.122.122,0,0,1-.135-.135V91.165a.122.122,0,0,1,.135-.135h1.123a.122.122,0,0,1,.135.135V92.32a.122.122,0,0,1-.135.135ZM20.837,98a1.147,1.147,0,0,0,.947-.366,1.632,1.632,0,0,0,.31-1.075V95.425H20.9A1.154,1.154,0,0,0,19.627,96.8a1.155,1.155,0,0,0,.318.908A1.283,1.283,0,0,0,20.837,98Zm.438-5.549a.122.122,0,0,1-.135-.135V91.165a.122.122,0,0,1,.135-.135H22.4a.122.122,0,0,1,.135.135V92.32a.122.122,0,0,1-.135.135Z" transform="translate(-18.13 -87.328)" fill="url(#linear-gradient-5)"/>
        <path id="Path_241" data-name="Path 241" d="M26.52,101.812a.436.436,0,0,1-.366-.135.89.89,0,0,1-.1-.494,1.083,1.083,0,0,1,.1-.549.423.423,0,0,1,.374-.143h1.608a.518.518,0,0,1,.4.143.766.766,0,0,1,.135.51.786.786,0,0,1-.127.541.553.553,0,0,1-.406.127Z" transform="translate(-19.745 -89.257)" fill="url(#linear-gradient-6)"/>
        <path id="Path_242" data-name="Path 242" d="M28.53,101.812a.436.436,0,0,1-.366-.135.89.89,0,0,1-.1-.494,1.083,1.083,0,0,1,.1-.549.423.423,0,0,1,.374-.143h1.608a.518.518,0,0,1,.4.143.766.766,0,0,1,.135.51.786.786,0,0,1-.127.541.553.553,0,0,1-.406.127Z" transform="translate(-20.154 -89.257)" fill="url(#linear-gradient-7)"/>
        <path id="Path_243" data-name="Path 243" d="M30.55,101.812a.436.436,0,0,1-.366-.135.89.89,0,0,1-.1-.494,1.083,1.083,0,0,1,.1-.549.423.423,0,0,1,.374-.143h1.608a.518.518,0,0,1,.4.143.766.766,0,0,1,.135.51.786.786,0,0,1-.127.541.553.553,0,0,1-.406.127Z" transform="translate(-20.566 -89.257)" fill="url(#linear-gradient-8)"/>
        <path id="Path_244" data-name="Path 244" d="M32.57,101.812a.436.436,0,0,1-.366-.135.89.89,0,0,1-.1-.494,1.083,1.083,0,0,1,.1-.549.423.423,0,0,1,.374-.143h1.608a.518.518,0,0,1,.4.143.766.766,0,0,1,.135.51.786.786,0,0,1-.127.541.553.553,0,0,1-.406.127Z" transform="translate(-20.978 -89.257)" fill="url(#linear-gradient-9)"/>
        <path id="Path_245" data-name="Path 245" d="M37.488,100.042a1,1,0,0,1-.565.533,3,3,0,0,1-1.027.143H34.653a.544.544,0,0,1-.4-.127.714.714,0,0,1-.135-.5.843.843,0,0,1,.127-.541.5.5,0,0,1,.406-.151h.868a.744.744,0,0,0,.366-.072.464.464,0,0,0,.191-.231,1.32,1.32,0,0,0,.072-.4c.008-.159.016-.366.016-.605V95.305a.113.113,0,0,1,.072-.111.5.5,0,0,1,.151-.024h1.154a.122.122,0,0,1,.135.135v3.264a.707.707,0,0,0,.3.613,1.365,1.365,0,0,0,.812.215h.231a.518.518,0,0,1,.4.143.732.732,0,0,1,.135.494.8.8,0,0,1-.127.533.525.525,0,0,1-.406.143,2.806,2.806,0,0,1-.908-.127A1,1,0,0,1,37.488,100.042ZM35.4,103.29a.122.122,0,0,1-.135-.135V102a.122.122,0,0,1,.135-.135h1.123a.122.122,0,0,1,.135.135v1.154a.122.122,0,0,1-.135.135Zm1.744,0a.122.122,0,0,1-.135-.135V102a.122.122,0,0,1,.135-.135h1.123A.122.122,0,0,1,38.4,102v1.154a.122.122,0,0,1-.135.135Z" transform="translate(-21.39 -88.172)" fill="url(#linear-gradient-10)"/>
        <path id="Path_246" data-name="Path 246" d="M40.133,100.727a.683.683,0,0,1-.4-.1.443.443,0,0,1-.135-.374,1.316,1.316,0,0,1,.127-.6.429.429,0,0,1,.406-.263h.653a.658.658,0,0,0,.486-.151.779.779,0,0,0,.151-.557V95.305a.122.122,0,0,1,.135-.135H42.8a.122.122,0,0,1,.135.135v3.734a1.887,1.887,0,0,1-.358,1.274,1.543,1.543,0,0,1-1.2.406H40.133Zm1.178,2.54a.122.122,0,0,1-.135-.135v-1.154a.122.122,0,0,1,.135-.135h1.282a.122.122,0,0,1,.135.135v1.154a.122.122,0,0,1-.135.135Z" transform="translate(-22.507 -88.172)" fill="url(#linear-gradient-11)"/>
        <path id="Path_247" data-name="Path 247" d="M46.391,95.305a.122.122,0,0,1,.135-.135h1.242a.122.122,0,0,1,.135.135v3.264a.707.707,0,0,0,.3.613,1.365,1.365,0,0,0,.812.215h.231a.518.518,0,0,1,.4.143.732.732,0,0,1,.135.494.8.8,0,0,1-.127.533.525.525,0,0,1-.406.143,3.18,3.18,0,0,1-.78-.08,1.06,1.06,0,0,1-.557-.358v.255a5.947,5.947,0,0,1-.119,1.266,2.227,2.227,0,0,1-.4.9,1.641,1.641,0,0,1-.732.541,3.066,3.066,0,0,1-1.123.183h-.494a.122.122,0,0,1-.135-.135v-1.067a.122.122,0,0,1,.135-.135h.295a1.174,1.174,0,0,0,.605-.135.75.75,0,0,0,.31-.4,2.265,2.265,0,0,0,.119-.629c.016-.247.024-.525.024-.852V95.305Z" transform="translate(-23.59 -88.172)" fill="url(#linear-gradient-12)"/>
        <path id="Path_248" data-name="Path 248" d="M53.965,94.87a3.548,3.548,0,0,1,2.245.573,1.865,1.865,0,0,1,.709,1.513,2.156,2.156,0,0,1-.127.756,2.945,2.945,0,0,1-.326.653,3.337,3.337,0,0,1-.454.541,3.491,3.491,0,0,1-.494.4,1.081,1.081,0,0,0,.231.024h1.943a.47.47,0,0,1,.414.159.985.985,0,0,1,.111.533.718.718,0,0,1-.127.5.532.532,0,0,1-.4.127H55.7a4.828,4.828,0,0,1-.916-.088,2.426,2.426,0,0,1-.82-.326,3,3,0,0,1-.939.326,5.418,5.418,0,0,1-.884.088H50.215a.539.539,0,0,1-.39-.135.7.7,0,0,1-.135-.494,1.279,1.279,0,0,1,.088-.525c.056-.119.207-.175.438-.175h1.568c.143,0,.3-.008.486-.024a4.652,4.652,0,0,0,.629-.1,3.061,3.061,0,0,0-.287-.764,2.775,2.775,0,0,0-.406-.565,3.664,3.664,0,0,0-.486-.446l-.525-.382a.429.429,0,0,1-.167-.191A.7.7,0,0,1,51,96.653v-.844c0-.1.088-.207.255-.318a2.386,2.386,0,0,1,.669-.31,5.506,5.506,0,0,1,.947-.231A8.082,8.082,0,0,1,53.965,94.87Zm.2,4.036a4.637,4.637,0,0,0,.438-.318,3.115,3.115,0,0,0,.39-.406,2.174,2.174,0,0,0,.271-.478,1.317,1.317,0,0,0,.1-.525.8.8,0,0,0-.4-.764,2.093,2.093,0,0,0-1.011-.215,3.959,3.959,0,0,0-.931.1,2.589,2.589,0,0,0-.541.191,3.731,3.731,0,0,1,1.051,1.011A3.852,3.852,0,0,1,54.164,98.906Z" transform="translate(-24.564 -88.111)" fill="url(#linear-gradient-13)"/>
        <path id="Path_249" data-name="Path 249" d="M59.613,99.82a.544.544,0,0,1-.4-.127.734.734,0,0,1-.135-.517.821.821,0,0,1,.127-.525.5.5,0,0,1,.406-.151h.653a.658.658,0,0,0,.486-.151.779.779,0,0,0,.151-.557V90.855a.122.122,0,0,1,.135-.135H62.28a.122.122,0,0,1,.135.135v7.277a1.887,1.887,0,0,1-.358,1.274,1.543,1.543,0,0,1-1.2.406H59.613Z" transform="translate(-26.479 -87.265)" fill="url(#linear-gradient-14)"/>
        <path id="Path_250" data-name="Path 250" d="M66.983,99.682a.122.122,0,0,1-.135.135H65.605a.122.122,0,0,1-.135-.135V90.845a.122.122,0,0,1,.135-.135h1.242a.122.122,0,0,1,.135.135Z" transform="translate(-27.781 -87.263)" fill="url(#linear-gradient-15)"/>
        <path id="Path_251" data-name="Path 251" d="M75.925,100.107a3.785,3.785,0,0,1-1.123-.159,2.11,2.11,0,0,1-.868-.51,2.383,2.383,0,0,1-.565-.9,3.882,3.882,0,0,1-.2-1.337,4.212,4.212,0,0,1,.207-1.393,2.172,2.172,0,0,1,1.449-1.433,3.7,3.7,0,0,1,1.1-.159,3.778,3.778,0,0,1,1.1.159,2.193,2.193,0,0,1,.876.51,2.285,2.285,0,0,1,.573.924,4.212,4.212,0,0,1,.207,1.393,3.882,3.882,0,0,1-.2,1.337,2.383,2.383,0,0,1-.565.9,2.29,2.29,0,0,1-.876.51A3.594,3.594,0,0,1,75.925,100.107Zm-1.409-6.982a.122.122,0,0,1-.135-.135V91.835a.122.122,0,0,1,.135-.135h1.123a.122.122,0,0,1,.135.135V92.99a.122.122,0,0,1-.135.135Zm1.409,2.436a1.116,1.116,0,0,0-.963.414,1.986,1.986,0,0,0-.31,1.2,1.948,1.948,0,0,0,.31,1.234,1.179,1.179,0,0,0,.955.374,1.131,1.131,0,0,0,.947-.382,1.938,1.938,0,0,0,.31-1.226C77.182,96.1,76.761,95.561,75.925,95.561Zm.334-2.436a.122.122,0,0,1-.135-.135V91.835a.122.122,0,0,1,.135-.135h1.123a.122.122,0,0,1,.135.135V92.99a.122.122,0,0,1-.135.135Z" transform="translate(-29.351 -87.465)" fill="url(#linear-gradient-16)"/>
        <path id="Path_252" data-name="Path 252" d="M81.639,88.482a1.349,1.349,0,0,1-.151-.342,1.421,1.421,0,0,1-.064-.422,1.591,1.591,0,0,1,.072-.462,1.166,1.166,0,0,1,.247-.43,1.3,1.3,0,0,1,.438-.318,1.469,1.469,0,0,1,.653-.127,1.526,1.526,0,0,1,.669.143,1.289,1.289,0,0,1,.47.366q.036.084,0,.119l-.35.334c-.056.048-.1.048-.135.016a1.593,1.593,0,0,0-.295-.223.737.737,0,0,0-.35-.088.63.63,0,0,0-.486.191.688.688,0,0,0-.175.486.758.758,0,0,0,.143.462,1.216,1.216,0,0,0,.287.287h1.353c.056,0,.08.032.08.1v.494c0,.064-.024.1-.08.1H81.13c-.056,0-.08-.032-.08-.1v-.494c0-.064.024-.1.08-.1h.51ZM83.351,98.8a.122.122,0,0,1-.135.135H81.974a.122.122,0,0,1-.135-.135V89.963a.122.122,0,0,1,.135-.135h1.242a.122.122,0,0,1,.135.135Z" transform="translate(-30.958 -86.38)" fill="url(#linear-gradient-17)"/>
        <path id="Path_253" data-name="Path 253" d="M86.531,95.305a.122.122,0,0,1,.135-.135h1.242a.122.122,0,0,1,.135.135v3.264a.707.707,0,0,0,.3.613,1.365,1.365,0,0,0,.812.215h.231a.518.518,0,0,1,.4.143.732.732,0,0,1,.135.494.8.8,0,0,1-.127.533.525.525,0,0,1-.406.143,3.18,3.18,0,0,1-.78-.08,1.06,1.06,0,0,1-.557-.358v.255a5.947,5.947,0,0,1-.119,1.266,2.277,2.277,0,0,1-.4.9,1.686,1.686,0,0,1-.732.541,3.066,3.066,0,0,1-1.123.183h-.494a.122.122,0,0,1-.135-.135v-1.067a.122.122,0,0,1,.135-.135h.295a1.154,1.154,0,0,0,.605-.135.75.75,0,0,0,.31-.4,2.265,2.265,0,0,0,.119-.629c.016-.247.024-.525.024-.852V95.305Z" transform="translate(-31.773 -88.172)" fill="url(#linear-gradient-18)"/>
        <path id="Path_254" data-name="Path 254" d="M91.7,97.72a3.786,3.786,0,0,1,.223-1.322,2.4,2.4,0,0,1,.573-.884,2.211,2.211,0,0,1,.86-.494,3.6,3.6,0,0,1,1.083-.151,3.778,3.778,0,0,1,1.1.159,2.193,2.193,0,0,1,.876.51,2.285,2.285,0,0,1,.573.924,4.212,4.212,0,0,1,.207,1.393v.231a2.1,2.1,0,0,1-.016.223,1.094,1.094,0,0,0,.263.8.8.8,0,0,0,.565.231h.39a.518.518,0,0,1,.4.143.732.732,0,0,1,.135.494.8.8,0,0,1-.127.533.525.525,0,0,1-.406.143c-.151,0-.31-.008-.478-.016a2.072,2.072,0,0,1-.494-.088,1.786,1.786,0,0,1-.47-.215,1.453,1.453,0,0,1-.4-.4,1.962,1.962,0,0,1-.9.613,3.67,3.67,0,0,1-1.226.191,3.738,3.738,0,0,1-1.2-.183,2.082,2.082,0,0,1-.9-.6,1.234,1.234,0,0,1-.318.35,1.678,1.678,0,0,1-.39.207,2.424,2.424,0,0,1-.414.1,3.662,3.662,0,0,1-.4.024h-.47a.494.494,0,0,1-.4-.151.791.791,0,0,1-.135-.517.778.778,0,0,1,.127-.525.554.554,0,0,1,.406-.135h.525a.773.773,0,0,0,.573-.263,1.423,1.423,0,0,0,.271-.955,1.819,1.819,0,0,1-.016-.2A1.073,1.073,0,0,0,91.7,97.72Zm2.747-1.513a1.085,1.085,0,0,0-.947.414,1.986,1.986,0,0,0-.31,1.2,1.948,1.948,0,0,0,.31,1.234,1.4,1.4,0,0,0,1.911-.008,1.938,1.938,0,0,0,.31-1.226C95.725,96.749,95.3,96.207,94.451,96.207Z" transform="translate(-32.744 -88.111)" fill="url(#linear-gradient-19)"/>
        <path id="Path_255" data-name="Path 255" d="M101.116,98.488a.658.658,0,0,0,.486-.151.779.779,0,0,0,.151-.557V90.845a.122.122,0,0,1,.135-.135h1.242a.122.122,0,0,1,.135.135V97.66a.707.707,0,0,0,.3.613,1.365,1.365,0,0,0,.812.215h.223a.518.518,0,0,1,.4.143.732.732,0,0,1,.135.494.8.8,0,0,1-.127.533.525.525,0,0,1-.406.143,2.806,2.806,0,0,1-.908-.127,1.069,1.069,0,0,1-.613-.557,1.053,1.053,0,0,1-.541.525,2.448,2.448,0,0,1-.955.151h-1.123a.544.544,0,0,1-.4-.127.815.815,0,0,1-.135-.557.745.745,0,0,1,.127-.5.525.525,0,0,1,.406-.143h.653Z" transform="translate(-34.807 -87.263)" fill="url(#linear-gradient-20)"/>
        <path id="Path_256" data-name="Path 256" d="M105.673,99.82a.544.544,0,0,1-.4-.127.734.734,0,0,1-.135-.517.821.821,0,0,1,.127-.525.5.5,0,0,1,.406-.151h.653a.658.658,0,0,0,.486-.151.779.779,0,0,0,.151-.557V90.855a.122.122,0,0,1,.135-.135h1.242a.122.122,0,0,1,.135.135v7.277a1.887,1.887,0,0,1-.358,1.274,1.543,1.543,0,0,1-1.2.406h-1.242Z" transform="translate(-35.869 -87.265)" fill="url(#linear-gradient-21)"/>
        <path id="Path_257" data-name="Path 257" d="M116.478,99.12a1.729,1.729,0,0,0,.191.852,1.526,1.526,0,0,0,.486.541,1.782,1.782,0,0,0,.669.279,3.458,3.458,0,0,0,.764.08h2.667a1.994,1.994,0,0,0,1.067-.207.615.615,0,0,0,.287-.517.531.531,0,0,0-.223-.4,4.736,4.736,0,0,0-.565-.422c-.223-.151-.47-.3-.732-.478a5.1,5.1,0,0,1-.732-.581,2.957,2.957,0,0,1-.565-.732,1.906,1.906,0,0,1-.223-.939,2.271,2.271,0,0,1,.183-.9,2.415,2.415,0,0,1,.525-.74,2.562,2.562,0,0,1,.82-.494,3.087,3.087,0,0,1,1.083-.183,3.268,3.268,0,0,1,1.481.287,2.919,2.919,0,0,1,.939.756c.056.064.04.127-.04.191l-.724.709a.124.124,0,0,1-.191-.016,2.09,2.09,0,0,0-.605-.438,1.808,1.808,0,0,0-.788-.151,1.379,1.379,0,0,0-.812.247.831.831,0,0,0-.358.732.879.879,0,0,0,.223.589,4.068,4.068,0,0,0,.565.525c.231.167.47.342.74.517a6.607,6.607,0,0,1,.732.565,3.081,3.081,0,0,1,.565.653,1.488,1.488,0,0,1,.231.812,1.9,1.9,0,0,1-.151.764,1.639,1.639,0,0,1-.47.637,2.325,2.325,0,0,1-.828.43,4.243,4.243,0,0,1-1.218.151h-3.121a3.65,3.65,0,0,1-2.587-.8,2.866,2.866,0,0,1-.852-2.181,4.592,4.592,0,0,1,.231-1.449,4.99,4.99,0,0,1,.565-1.242c.048-.08.111-.088.2-.024l1.083.43q.072.024.072.072a.133.133,0,0,1-.024.1,6.047,6.047,0,0,0-.406.876A4.693,4.693,0,0,0,116.478,99.12Zm1.767,5.414a.122.122,0,0,1-.135-.135v-1.154a.122.122,0,0,1,.135-.135h1.123a.122.122,0,0,1,.135.135V104.4a.122.122,0,0,1-.135.135Zm1.744,0a.122.122,0,0,1-.135-.135v-1.154a.122.122,0,0,1,.135-.135h1.123a.122.122,0,0,1,.135.135V104.4a.122.122,0,0,1-.135.135Z" transform="translate(-37.861 -87.991)" fill="url(#linear-gradient-22)"/>
        <path id="Path_258" data-name="Path 258" d="M129.752,103.363a.122.122,0,0,1-.135-.135V102.16a.122.122,0,0,1,.135-.135h1.568a2.083,2.083,0,0,0,.533-.064.818.818,0,0,0,.374-.207,1.026,1.026,0,0,0,.231-.414,2.34,2.34,0,0,0,.08-.685h-1.353a3.944,3.944,0,0,1-1.115-.143,1.867,1.867,0,0,1-.82-.47,2.112,2.112,0,0,1-.517-.852,4.006,4.006,0,0,1-.183-1.282,3.883,3.883,0,0,1,.231-1.4,2.589,2.589,0,0,1,.605-.947,2.232,2.232,0,0,1,.868-.533,3.217,3.217,0,0,1,1.043-.167,3.754,3.754,0,0,1,1.107.159,2.133,2.133,0,0,1,.86.51,2.355,2.355,0,0,1,.565.908,4.094,4.094,0,0,1,.2,1.377v1.513h.924a.518.518,0,0,1,.4.143.732.732,0,0,1,.135.494.823.823,0,0,1-.127.557.553.553,0,0,1-.406.127h-.924v.295a2.362,2.362,0,0,1-.629,1.831,2.63,2.63,0,0,1-1.831.573h-1.815Zm1.552-7.157a1.106,1.106,0,0,0-.939.454,1.958,1.958,0,0,0-.342,1.218,1.515,1.515,0,0,0,.342,1.154,1.425,1.425,0,0,0,.987.31h1.194V97.814a2,2,0,0,0-.295-1.194A1.1,1.1,0,0,0,131.3,96.205Z" transform="translate(-40.642 -88.109)" fill="url(#linear-gradient-23)"/>
        <path id="Path_259" data-name="Path 259" d="M139.346,97.862a.707.707,0,0,0,.3.613,1.365,1.365,0,0,0,.812.215h.231a.518.518,0,0,1,.4.143.732.732,0,0,1,.135.494.8.8,0,0,1-.127.533.525.525,0,0,1-.406.143,2.806,2.806,0,0,1-.908-.127,1.069,1.069,0,0,1-.613-.557,1.013,1.013,0,0,1-.557.533A2.869,2.869,0,0,1,137.6,100h-1.059a.756.756,0,0,1-.4-.088c-.088-.056-.135-.183-.135-.382a1.316,1.316,0,0,1,.127-.6.436.436,0,0,1,.422-.263h.645a.875.875,0,0,0,.358-.064.422.422,0,0,0,.191-.215,1.219,1.219,0,0,0,.072-.39c.008-.159.016-.358.016-.589V94.574a.122.122,0,0,1,.135-.135h1.242a.122.122,0,0,1,.135.135v3.288Zm-1.393-4.737a.122.122,0,0,1-.135-.135V91.835a.122.122,0,0,1,.135-.135h1.282a.122.122,0,0,1,.135.135V92.99a.122.122,0,0,1-.135.135Z" transform="translate(-42.163 -87.465)" fill="url(#linear-gradient-24)"/>
        <path id="Path_260" data-name="Path 260" d="M144.874,98.567a.8.8,0,0,0,.223.629,1.023,1.023,0,0,0,.7.2,2.267,2.267,0,0,0,.525-.048.464.464,0,0,0,.287-.191.787.787,0,0,0,.111-.4c.016-.167.024-.4.024-.685V96.362a.122.122,0,0,1,.135-.135h1.242a.122.122,0,0,1,.135.135V98.6a.711.711,0,0,0,.255.605,1.076,1.076,0,0,0,.669.191,2.017,2.017,0,0,0,.494-.048.464.464,0,0,0,.287-.191.87.87,0,0,0,.127-.4c.016-.175.024-.4.024-.677V95.3a.122.122,0,0,1,.135-.135h1.242a.122.122,0,0,1,.135.135v3.264a.707.707,0,0,0,.3.613,1.365,1.365,0,0,0,.812.215h.231a.518.518,0,0,1,.4.143.732.732,0,0,1,.135.494.8.8,0,0,1-.135.533.518.518,0,0,1-.4.143,2.723,2.723,0,0,1-.9-.127,1.08,1.08,0,0,1-.605-.557,1.053,1.053,0,0,1-.541.525,2.448,2.448,0,0,1-.955.151H149.4a1.634,1.634,0,0,1-.8-.183,1.211,1.211,0,0,1-.5-.517,1.056,1.056,0,0,1-.541.541,2.448,2.448,0,0,1-.955.151h-.589a1.31,1.31,0,0,1-1.3-.709,1.072,1.072,0,0,1-.541.549,2.434,2.434,0,0,1-.955.159h-1.449c-.1,0-.191-.008-.271-.016a.372.372,0,0,1-.2-.072.337.337,0,0,1-.119-.183,1.194,1.194,0,0,1-.04-.334.924.924,0,0,1,.127-.565.481.481,0,0,1,.406-.159h1.075a.745.745,0,0,0,.366-.072.427.427,0,0,0,.191-.231,1.173,1.173,0,0,0,.064-.406c.008-.167.008-.366.008-.605V96.33a.122.122,0,0,1,.135-.135h1.242a.122.122,0,0,1,.135.135v2.237Z" transform="translate(-43.208 -88.17)" fill="url(#linear-gradient-25)"/>
        <path id="Path_261" data-name="Path 261" d="M155.863,99.82a.544.544,0,0,1-.4-.127.734.734,0,0,1-.135-.517.821.821,0,0,1,.127-.525.5.5,0,0,1,.406-.151h.653a.658.658,0,0,0,.486-.151.779.779,0,0,0,.151-.557V90.855a.122.122,0,0,1,.135-.135h1.242a.122.122,0,0,1,.135.135v7.277a1.887,1.887,0,0,1-.358,1.274,1.543,1.543,0,0,1-1.2.406h-1.242Z" transform="translate(-46.101 -87.265)" fill="url(#linear-gradient-26)"/>
        <path id="Path_262" data-name="Path 262" d="M163.223,99.682a.122.122,0,0,1-.135.135h-1.242a.122.122,0,0,1-.135-.135V90.845a.122.122,0,0,1,.135-.135h1.242a.122.122,0,0,1,.135.135Z" transform="translate(-47.402 -87.263)" fill="url(#linear-gradient-27)"/>
        <path id="Path_263" data-name="Path 263" d="M170.2,97.493c.048-.08.111-.088.2-.024l1.083.43q.072.024.072.072a.133.133,0,0,1-.024.1,6.048,6.048,0,0,0-.406.876,3.075,3.075,0,0,0-.191,1.107,2.046,2.046,0,0,0,.167.876,1.567,1.567,0,0,0,.43.565,1.508,1.508,0,0,0,.581.3,2.494,2.494,0,0,0,.629.088,1.823,1.823,0,0,0,1.242-.406,1.667,1.667,0,0,0,.47-1.322V96.187a.122.122,0,0,1,.135-.135h1.242a.122.122,0,0,1,.135.135V100.2a3.618,3.618,0,0,1-.231,1.337,2.588,2.588,0,0,1-.669.955,2.723,2.723,0,0,1-1.035.565,4.455,4.455,0,0,1-1.337.183,4.539,4.539,0,0,1-1.306-.183,2.9,2.9,0,0,1-1.035-.565,2.641,2.641,0,0,1-.693-.955,3.367,3.367,0,0,1-.247-1.353,4.592,4.592,0,0,1,.231-1.449A5.266,5.266,0,0,1,170.2,97.493Zm2.221-2.118a.122.122,0,0,1-.135-.135V94.085a.122.122,0,0,1,.135-.135H173.7a.122.122,0,0,1,.135.135V95.24a.122.122,0,0,1-.135.135Z" transform="translate(-48.972 -87.923)" fill="url(#linear-gradient-28)"/>
        <path id="Path_264" data-name="Path 264" d="M179.77,90.845a.122.122,0,0,1,.135-.135h1.242a.122.122,0,0,1,.135.135V97.78a.779.779,0,0,0,.151.557.658.658,0,0,0,.486.151h.47a.494.494,0,0,1,.4.151.817.817,0,0,1,.135.525c0,.279-.04.454-.127.525a.589.589,0,0,1-.406.111H181.33a1.531,1.531,0,0,1-1.2-.406,1.9,1.9,0,0,1-.358-1.274Z" transform="translate(-51.084 -87.263)" fill="url(#linear-gradient-29)"/>
        <path id="Path_265" data-name="Path 265" d="M182.923,100.662a.494.494,0,0,1-.4-.151.791.791,0,0,1-.135-.517.778.778,0,0,1,.127-.525.523.523,0,0,1,.406-.135h3.559a2.213,2.213,0,0,0,.565-.056.584.584,0,0,0,.334-.191.678.678,0,0,0,.159-.358,3.426,3.426,0,0,0,.04-.541,3.6,3.6,0,0,0-.08-.8,1.772,1.772,0,0,0-.271-.637,1.288,1.288,0,0,0-.486-.414,1.75,1.75,0,0,0-.756-.151,1.779,1.779,0,0,0-.8.175,2.311,2.311,0,0,0-.645.47.122.122,0,0,1-.183.016l-.693-.724q-.107-.107-.024-.191a3.484,3.484,0,0,1,.987-.772,3.021,3.021,0,0,1,1.409-.31,3.594,3.594,0,0,1,1.5.271,2.461,2.461,0,0,1,.963.74,2.9,2.9,0,0,1,.517,1.067,5.2,5.2,0,0,1,.151,1.29,4.525,4.525,0,0,1-.135,1.194,1.733,1.733,0,0,1-.4.74,1.384,1.384,0,0,1-.653.382,3.493,3.493,0,0,1-.916.1h-4.14Zm2.659,2.54a.122.122,0,0,1-.135-.135v-1.154a.122.122,0,0,1,.135-.135h1.282a.122.122,0,0,1,.135.135v1.154a.122.122,0,0,1-.135.135Z" transform="translate(-51.618 -88.107)" fill="url(#linear-gradient-30)"/>
        <path id="Path_266" data-name="Path 266" d="M193.251,95.305a.122.122,0,0,1,.135-.135h1.242a.122.122,0,0,1,.135.135v3.264a.707.707,0,0,0,.3.613,1.365,1.365,0,0,0,.812.215h.231a.518.518,0,0,1,.4.143.732.732,0,0,1,.135.494.8.8,0,0,1-.127.533.525.525,0,0,1-.406.143,3.18,3.18,0,0,1-.78-.08,1.059,1.059,0,0,1-.557-.358v.255a5.948,5.948,0,0,1-.119,1.266,2.278,2.278,0,0,1-.4.9,1.686,1.686,0,0,1-.732.541,3.066,3.066,0,0,1-1.123.183h-.494a.122.122,0,0,1-.135-.135v-1.067a.122.122,0,0,1,.135-.135h.295a1.154,1.154,0,0,0,.605-.135.75.75,0,0,0,.311-.4,2.265,2.265,0,0,0,.119-.629c.016-.247.024-.525.024-.852V95.305Z" transform="translate(-53.531 -88.172)" fill="url(#linear-gradient-31)"/>
        <path id="Path_267" data-name="Path 267" d="M196.54,100a.778.778,0,0,1,.127-.525.523.523,0,0,1,.406-.135h1.314V97.808a3.536,3.536,0,0,1,.231-1.377,2.505,2.505,0,0,1,.6-.908,2.228,2.228,0,0,1,.86-.5,3.31,3.31,0,0,1,1.011-.151,3.85,3.85,0,0,1,1.115.151,2.336,2.336,0,0,1,.876.478,2.118,2.118,0,0,1,.573.836,3.363,3.363,0,0,1,.207,1.234,3.553,3.553,0,0,1-.143,1,3.1,3.1,0,0,1-.318.764h1.361a.542.542,0,0,1,.406.135.764.764,0,0,1,.127.525.806.806,0,0,1-.135.517.494.494,0,0,1-.4.151h-1.3a1.527,1.527,0,0,1,.279.939,1.622,1.622,0,0,1-.7,1.417,3.3,3.3,0,0,1-1.911.494,5.283,5.283,0,0,1-1.115-.111,2.639,2.639,0,0,1-.86-.358,1.677,1.677,0,0,1-.557-.645,2.175,2.175,0,0,1-.191-.955v-.78h-1.314Q196.54,100.666,196.54,100Zm4.554-3.79a1.142,1.142,0,0,0-.892.374,1.59,1.59,0,0,0-.326,1.1v1.672H201.2a.926.926,0,0,0,.525-.143,1.1,1.1,0,0,0,.358-.358,1.629,1.629,0,0,0,.207-.51,2.452,2.452,0,0,0,.064-.6,1.781,1.781,0,0,0-.326-1.154A1.14,1.14,0,0,0,201.094,96.207Zm0,6.011a1.489,1.489,0,0,0,.892-.2.682.682,0,0,0,.263-.573,1.22,1.22,0,0,0-.048-.358.514.514,0,0,0-.191-.263.93.93,0,0,0-.39-.159,3.371,3.371,0,0,0-.637-.056h-1.115v.709C199.876,101.916,200.282,102.218,201.094,102.218Z" transform="translate(-54.503 -88.111)" fill="url(#linear-gradient-32)"/>
        <path id="Path_268" data-name="Path 268" d="M208.043,97.72a3.786,3.786,0,0,1,.223-1.322,2.4,2.4,0,0,1,.573-.884,2.211,2.211,0,0,1,.86-.494,3.6,3.6,0,0,1,1.083-.151,3.778,3.778,0,0,1,1.1.159,2.193,2.193,0,0,1,.876.51,2.285,2.285,0,0,1,.573.924,4.212,4.212,0,0,1,.207,1.393v.231a2.1,2.1,0,0,1-.016.223,1.094,1.094,0,0,0,.263.8.8.8,0,0,0,.565.231h.39a.518.518,0,0,1,.4.143.732.732,0,0,1,.135.494.8.8,0,0,1-.127.533.525.525,0,0,1-.406.143c-.151,0-.31-.008-.478-.016a2.072,2.072,0,0,1-.494-.088,1.786,1.786,0,0,1-.47-.215,1.453,1.453,0,0,1-.4-.4,1.962,1.962,0,0,1-.9.613,3.67,3.67,0,0,1-1.226.191,3.738,3.738,0,0,1-1.2-.183,2.082,2.082,0,0,1-.9-.6,1.234,1.234,0,0,1-.318.35,1.678,1.678,0,0,1-.39.207,2.423,2.423,0,0,1-.414.1,3.687,3.687,0,0,1-.406.024h-.47a.494.494,0,0,1-.4-.151.791.791,0,0,1-.135-.517.777.777,0,0,1,.127-.525.523.523,0,0,1,.406-.135h.525a.773.773,0,0,0,.573-.263,1.423,1.423,0,0,0,.271-.955,1.819,1.819,0,0,1-.016-.2A.545.545,0,0,0,208.043,97.72Zm2.739-1.513a1.085,1.085,0,0,0-.947.414,1.986,1.986,0,0,0-.311,1.2,1.948,1.948,0,0,0,.311,1.234,1.4,1.4,0,0,0,1.911-.008,1.938,1.938,0,0,0,.31-1.226C212.055,96.749,211.633,96.207,210.781,96.207Z" transform="translate(-56.46 -88.111)" fill="url(#linear-gradient-33)"/>
        <path id="Path_269" data-name="Path 269" d="M216.793,99.82a.545.545,0,0,1-.4-.127.734.734,0,0,1-.135-.517.821.821,0,0,1,.127-.525.5.5,0,0,1,.406-.151h.653a.658.658,0,0,0,.486-.151.779.779,0,0,0,.151-.557V90.855a.122.122,0,0,1,.135-.135h1.242a.122.122,0,0,1,.135.135v7.277a1.887,1.887,0,0,1-.358,1.274,1.543,1.543,0,0,1-1.2.406h-1.242Z" transform="translate(-58.523 -87.265)" fill="url(#linear-gradient-34)"/>
        <path id="Path_270" data-name="Path 270" d="M224.153,99.682a.122.122,0,0,1-.135.135h-1.242a.122.122,0,0,1-.135-.135V90.845a.122.122,0,0,1,.135-.135h1.242a.122.122,0,0,1,.135.135Z" transform="translate(-59.824 -87.263)" fill="url(#linear-gradient-35)"/>
      </g>
      <g id="Group_321" data-name="Group 321" transform="translate(80.921 118.575)">
        <path id="Path_299" data-name="Path 299" d="M97,131.7l.1-1.218.072-1.521.048-1.513v-.517c.263.008.5.008.732.008.167,0,.4,0,.677-.008s.517-.008.724-.008a5.618,5.618,0,0,1,.764.048,1.977,1.977,0,0,1,.613.183,1.6,1.6,0,0,1,.454.334,2.171,2.171,0,0,1,.318.446,2.344,2.344,0,0,1,.183.549,3.158,3.158,0,0,1,.064.621,3.284,3.284,0,0,1-.207,1.146,2.128,2.128,0,0,1-.621.9,1.949,1.949,0,0,1-.916.454,6.1,6.1,0,0,1-1.138.1l-1.186-.008C97.6,131.689,97.366,131.7,97,131.7Zm1.075-.74c.191.008.382.016.565.016a4.537,4.537,0,0,0,.589-.032,3.04,3.04,0,0,0,.47-.1,1.432,1.432,0,0,0,.724-.637,1.725,1.725,0,0,0,.191-.5,2.674,2.674,0,0,0,.064-.565,1.816,1.816,0,0,0-.175-.86,1.11,1.11,0,0,0-.47-.486,2.132,2.132,0,0,0-.9-.151c-.263,0-.565.008-.908.016Z" transform="translate(-97 -126.84)" fill="url(#linear-gradient-36)"/>
        <path id="Path_300" data-name="Path 300" d="M107.335,132.009c-.207-.008-.366-.008-.47-.008-.135,0-.295,0-.47.008l.008-.581a2.346,2.346,0,0,1-.175.239,1.04,1.04,0,0,1-.191.175,1.025,1.025,0,0,1-.263.135,2.592,2.592,0,0,1-.318.088,1.955,1.955,0,0,1-.382.032,1.99,1.99,0,0,1-.685-.111,1.068,1.068,0,0,1-.462-.342,1.109,1.109,0,0,1-.167-.661v-.072l.056-.9.056-1.186v-.358c.223.008.4.008.517.008.135,0,.295,0,.486-.008l-.119,1.592c-.008.127-.016.231-.016.311s-.008.143-.008.183a1.086,1.086,0,0,0,.072.422.485.485,0,0,0,.263.255.968.968,0,0,0,.4.088.89.89,0,0,0,.382-.08.714.714,0,0,0,.279-.2,1.078,1.078,0,0,0,.2-.342,1.615,1.615,0,0,0,.088-.43c.016-.127.032-.35.048-.661.016-.374.032-.764.04-1.154.231.008.406.008.525.008.135,0,.295,0,.47-.008-.032.334-.056.748-.088,1.25s-.048.916-.064,1.242C107.351,131.268,107.335,131.619,107.335,132.009Z" transform="translate(-98.378 -127.152)" fill="url(#linear-gradient-37)"/>
        <path id="Path_301" data-name="Path 301" d="M109.34,131.7c.04-.446.088-1.21.143-2.309s.08-1.919.08-2.468c.207.008.39.008.533.008s.31,0,.486-.008q-.06.49-.1,1.242c.231-.048.414-.072.549-.088a3.438,3.438,0,0,1,.4-.024,2.124,2.124,0,0,1,.924.175,1.354,1.354,0,0,1,.605.573,1.948,1.948,0,0,1,.231.971,2.786,2.786,0,0,1-.111.772,2.215,2.215,0,0,1-.342.669,1.366,1.366,0,0,1-.549.43,1.693,1.693,0,0,1-.7.135,1.491,1.491,0,0,1-.334-.032,1.513,1.513,0,0,1-.287-.1.966.966,0,0,1-.231-.151,1.1,1.1,0,0,1-.167-.167,2.728,2.728,0,0,1-.159-.231l-.016.6c-.191-.008-.342-.008-.454-.008C109.754,131.689,109.587,131.7,109.34,131.7Zm1.083-2.818-.032.6c-.008.127-.008.255-.008.374a2.236,2.236,0,0,0,.088.685.739.739,0,0,0,.3.39.9.9,0,0,0,.478.135.837.837,0,0,0,.5-.159.933.933,0,0,0,.326-.454,1.879,1.879,0,0,0,.111-.637,1.157,1.157,0,0,0-.255-.772.923.923,0,0,0-.748-.287,2.54,2.54,0,0,0-.334.024C110.741,128.8,110.6,128.831,110.423,128.878Z" transform="translate(-99.516 -126.84)" fill="url(#linear-gradient-38)"/>
        <path id="Path_302" data-name="Path 302" d="M115.148,129.208c.032-.167.056-.287.064-.35s.024-.167.048-.31c.318-.072.6-.127.836-.159a5.362,5.362,0,0,1,.7-.048,2.831,2.831,0,0,1,.709.088,1.032,1.032,0,0,1,.5.287.817.817,0,0,1,.183.565c0,.135-.016.47-.056,1.019s-.056,1.107-.064,1.688c-.175-.008-.342-.008-.494-.008s-.31,0-.5.008q.048-.418.072-.979l.048-.868c-.088.056-.159.1-.2.119a.6.6,0,0,1-.159.064,3.11,3.11,0,0,1-.31.088c-.143.04-.263.08-.35.1a1.657,1.657,0,0,0-.239.1.824.824,0,0,0-.183.127.369.369,0,0,0-.1.151.416.416,0,0,0-.032.167.411.411,0,0,0,.088.255.462.462,0,0,0,.215.151.9.9,0,0,0,.3.04c.072,0,.151-.008.239-.016a1.742,1.742,0,0,0,.334-.088c-.048.135-.1.334-.175.6a3.585,3.585,0,0,1-.4.056c-.1.008-.191.008-.271.008a1.887,1.887,0,0,1-.724-.119.846.846,0,0,1-.422-.374,1.147,1.147,0,0,1-.135-.525.773.773,0,0,1,.056-.295,1.125,1.125,0,0,1,.151-.271,1.568,1.568,0,0,1,.263-.239,1.782,1.782,0,0,1,.462-.223,6.524,6.524,0,0,1,.8-.215,2.057,2.057,0,0,0,.279-.072,1.515,1.515,0,0,0,.231-.08.606.606,0,0,0,.151-.1.486.486,0,0,0,.1-.127.418.418,0,0,0,.032-.135.347.347,0,0,0-.088-.231.509.509,0,0,0-.231-.135,1.274,1.274,0,0,0-.31-.04A4.376,4.376,0,0,0,115.148,129.208Z" transform="translate(-100.602 -127.13)" fill="url(#linear-gradient-39)"/>
        <path id="Path_303" data-name="Path 303" d="M120.04,131.685c.032-.35.064-.645.072-.876.024-.374.048-.8.064-1.29s.032-.947.04-1.385c.231.008.4.008.51.008s.271,0,.51-.008c-.032.406-.056.8-.072,1.162s-.032.788-.04,1.266-.016.852-.016,1.13c-.215-.008-.382-.008-.51-.008S120.279,131.685,120.04,131.685Zm.191-4.164c.008-.239.016-.422.016-.549v-.111c.215.008.382.008.517.008.183,0,.35,0,.51-.008-.008.056-.008.127-.016.2l-.016.462c-.175,0-.342-.008-.494-.008S120.422,127.513,120.231,127.521Z" transform="translate(-101.697 -126.828)" fill="url(#linear-gradient-40)"/>
        <path id="Path_304" data-name="Path 304" d="M124.67,131.678c.008-.088.008-.159.008-.215l.024-.51c.295-.263.557-.51.8-.756s.486-.5.74-.78.438-.5.573-.669a1.85,1.85,0,0,0,.207-.31c.032-.072.056-.127.072-.175a.877.877,0,0,0,.016-.143.42.42,0,0,0-.119-.31.828.828,0,0,0-.318-.191,1.388,1.388,0,0,0-.47-.072,4.326,4.326,0,0,0-.533.04,6.079,6.079,0,0,0-.74.159l.064-.35c.016-.088.032-.223.064-.422a8.939,8.939,0,0,1,1.552-.143,3.491,3.491,0,0,1,.653.064,1.68,1.68,0,0,1,.565.223.963.963,0,0,1,.358.358.91.91,0,0,1,.111.43,1.465,1.465,0,0,1-.024.263,1.049,1.049,0,0,1-.072.239,3.438,3.438,0,0,1-.239.438,7.169,7.169,0,0,1-.454.589c-.207.247-.43.494-.677.748s-.517.525-.812.8h1.1c.263,0,.446,0,.573-.008s.263-.016.438-.032c-.008.072-.016.167-.024.279s-.024.271-.04.462c-.533-.008-1.083-.008-1.648-.008C125.721,131.67,125.14,131.678,124.67,131.678Z" transform="translate(-102.641 -126.822)" fill="url(#linear-gradient-41)"/>
        <path id="Path_305" data-name="Path 305" d="M132.134,126.82a1.8,1.8,0,0,1,.947.239,1.6,1.6,0,0,1,.613.756,3.028,3.028,0,0,1,.215,1.218,4.716,4.716,0,0,1-.135,1.1,2.639,2.639,0,0,1-.366.892,1.543,1.543,0,0,1-.645.541,2.039,2.039,0,0,1-.876.191,1.7,1.7,0,0,1-.8-.175,1.537,1.537,0,0,1-.573-.486,1.987,1.987,0,0,1-.31-.7,3.828,3.828,0,0,1-.088-.8,4.812,4.812,0,0,1,.135-1.123,2.805,2.805,0,0,1,.382-.924,1.509,1.509,0,0,1,.653-.549A2.056,2.056,0,0,1,132.134,126.82Zm-.024.724a.624.624,0,0,0-.263.056.707.707,0,0,0-.247.175,1.18,1.18,0,0,0-.2.279,1.828,1.828,0,0,0-.143.39,3.775,3.775,0,0,0-.1.549,5.838,5.838,0,0,0-.04.645,2.577,2.577,0,0,0,.1.772.958.958,0,0,0,.287.462.681.681,0,0,0,.438.167.6.6,0,0,0,.263-.056.749.749,0,0,0,.263-.207,1.477,1.477,0,0,0,.239-.438,2.982,2.982,0,0,0,.159-.637,5.093,5.093,0,0,0,.048-.7,2.849,2.849,0,0,0-.1-.8,1.031,1.031,0,0,0-.279-.486A.6.6,0,0,0,132.11,127.544Z" transform="translate(-103.752 -126.82)" fill="url(#linear-gradient-42)"/>
        <path id="Path_306" data-name="Path 306" d="M135.65,131.678c.008-.088.008-.159.008-.215l.024-.51c.295-.263.557-.51.8-.756s.486-.5.74-.78.438-.5.573-.669a1.849,1.849,0,0,0,.207-.31c.032-.072.056-.127.072-.175a.878.878,0,0,0,.016-.143.42.42,0,0,0-.119-.31.828.828,0,0,0-.318-.191,1.388,1.388,0,0,0-.47-.072,4.326,4.326,0,0,0-.533.04,6.078,6.078,0,0,0-.74.159l.064-.35c.016-.088.032-.223.064-.422a8.939,8.939,0,0,1,1.552-.143,3.491,3.491,0,0,1,.653.064,1.68,1.68,0,0,1,.565.223.963.963,0,0,1,.358.358.91.91,0,0,1,.111.43,1.465,1.465,0,0,1-.024.263,1.048,1.048,0,0,1-.072.239,3.437,3.437,0,0,1-.239.438,7.17,7.17,0,0,1-.454.589c-.207.247-.43.494-.677.748s-.517.525-.812.8h1.1c.263,0,.446,0,.573-.008s.263-.016.438-.032c-.008.072-.016.167-.024.279s-.024.271-.04.462c-.533-.008-1.083-.008-1.648-.008C136.7,131.67,136.12,131.678,135.65,131.678Z" transform="translate(-104.88 -126.822)" fill="url(#linear-gradient-43)"/>
        <path id="Path_307" data-name="Path 307" d="M143,131.7c.048-.47.072-.947.088-1.441h-.709l-1.29.024a3.586,3.586,0,0,0,.024-.39c.008-.231.016-.39.016-.47l.263-.334c.064-.088.167-.223.3-.406l.756-1.035c.072-.1.143-.2.215-.31s.159-.239.271-.406c.279.008.517.008.7.008s.382,0,.613-.008c-.072,1-.111,1.863-.127,2.6h.764c-.008.183-.008.39-.008.629v.119c-.143-.008-.406-.008-.78-.008-.008.1-.016.207-.016.295s-.008.247-.008.47-.008.382-.008.478v.2c-.183-.008-.35-.008-.517-.008C143.4,131.691,143.216,131.7,143,131.7Zm.223-2.142c.008-.135.008-.215.008-.231l.064-1.7c-.358.517-.589.844-.7,1l-.677.931Z" transform="translate(-105.989 -126.842)" fill="url(#linear-gradient-44)"/>
      </g>
      <line id="Line_20" data-name="Line 20" x2="56.286" transform="translate(124.708 121.895)" fill="none" stroke="#707070" stroke-miterlimit="10" stroke-width="0.5"/>
      <g id="Group_324" data-name="Group 324" transform="translate(18.536 106.379)">
        <g id="Group_320" data-name="Group 320">
          <path id="Path_271" data-name="Path 271" d="M20.36,118.169l.1-1.361.1-2.03.064-2H20.3l-.3.008-.287.008-1.075.032c.024-.446.04-.788.04-1.019.892.008,1.831.008,2.81.008l1.672-.008.892-.008c-.032.446-.048.78-.048,1.019-.565-.032-1.1-.04-1.616-.04h-.358l-.056.852-.135,3.28-.008.549c0,.223-.008.462-.008.709l-.709-.008C21.044,118.161,20.79,118.161,20.36,118.169Z" transform="translate(-18.64 -111.561)" fill="#493686"/>
          <path id="Path_272" data-name="Path 272" d="M25.9,118.171l.111-1.513.111-2.165.064-2.683c.271.008.5.008.685.008.239,0,.462,0,.677-.008l-.088,1.107c-.016.271-.048.717-.072,1.322a2.6,2.6,0,0,1,.247-.334,1.854,1.854,0,0,1,.223-.207,1.233,1.233,0,0,1,.255-.159c.088-.04.191-.08.3-.119a1.776,1.776,0,0,1,.39-.08,3.906,3.906,0,0,1,.438-.032,3.2,3.2,0,0,1,.74.088,1.479,1.479,0,0,1,.613.3,1.129,1.129,0,0,1,.358.494,1.827,1.827,0,0,1,.1.589c0,.135-.008.342-.024.629l-.111,2.038c-.008.215-.016.454-.016.732-.255-.008-.47-.008-.669-.008s-.446,0-.717.008c.04-.366.088-.868.127-1.5s.064-1.083.064-1.353a1.138,1.138,0,0,0-.119-.573.785.785,0,0,0-.35-.31,1.313,1.313,0,0,0-.5-.1,1.374,1.374,0,0,0-.621.127,1.074,1.074,0,0,0-.438.366,1.771,1.771,0,0,0-.239.573,6.522,6.522,0,0,0-.151,1.21c-.016.263-.032.788-.056,1.56-.247-.008-.462-.008-.637-.008C26.441,118.163,26.2,118.163,25.9,118.171Z" transform="translate(-20.12 -111.563)" fill="#493686"/>
          <path id="Path_273" data-name="Path 273" d="M37.823,117.5c-.04.183-.1.51-.175.987a8.239,8.239,0,0,1-.852.143,6.734,6.734,0,0,1-.693.04,4.529,4.529,0,0,1-1.091-.119,1.965,1.965,0,0,1-.844-.446,1.9,1.9,0,0,1-.533-.8,2.927,2.927,0,0,1-.175-.987,3.135,3.135,0,0,1,.2-1.115,2.285,2.285,0,0,1,.565-.884,2.061,2.061,0,0,1,.82-.486,3.206,3.206,0,0,1,.963-.143,3.376,3.376,0,0,1,.908.119,1.725,1.725,0,0,1,.724.39,1.869,1.869,0,0,1,.446.653,2.213,2.213,0,0,1,.159.844,2.316,2.316,0,0,1-.048.454l-3.415.008c-.008.111-.008.207-.008.279a1.5,1.5,0,0,0,.1.573,1.251,1.251,0,0,0,.31.446,1.293,1.293,0,0,0,.494.271,1.731,1.731,0,0,0,.557.088,3.8,3.8,0,0,0,.7-.072A7.815,7.815,0,0,0,37.823,117.5Zm-3.017-1.887,2.181.008a2.8,2.8,0,0,0-.016-.326,1.256,1.256,0,0,0-.064-.247.777.777,0,0,0-.135-.239.7.7,0,0,0-.2-.175.788.788,0,0,0-.263-.1,1.341,1.341,0,0,0-.318-.04,1.281,1.281,0,0,0-.382.064,1.034,1.034,0,0,0-.334.175,1.091,1.091,0,0,0-.247.263,1.327,1.327,0,0,0-.143.279C34.869,115.346,34.837,115.465,34.805,115.609Z" transform="translate(-21.661 -111.946)" fill="#493686"/>
          <path id="Path_274" data-name="Path 274" d="M42.39,118.169c.326-.573.7-1.282,1.138-2.126l1.226-2.357c.382-.724.7-1.361.955-1.887.406.008.693.008.86.008.295,0,.581,0,.868-.008l.669,1.911,1.449,3.949.2.51-.7-.008c-.159,0-.43,0-.812.008-.072-.279-.191-.653-.35-1.123s-.295-.852-.406-1.146H45.033c-.366.74-.717,1.5-1.059,2.261l-.764-.008C43.051,118.161,42.788,118.161,42.39,118.169Zm3.041-3.232h1.791l-.732-2.158-.374.788Z" transform="translate(-23.482 -111.561)" fill="#493686"/>
          <path id="Path_275" data-name="Path 275" d="M52.34,118.558c.072-.709.127-1.5.175-2.38s.072-1.672.08-2.365c.287.008.517.008.685.008.2,0,.414,0,.645-.008l-.056.8a3.66,3.66,0,0,1,.255-.326,1.732,1.732,0,0,1,.279-.239,1.216,1.216,0,0,1,.366-.183,3.071,3.071,0,0,1,.43-.111,3.37,3.37,0,0,1,.5-.04,2.911,2.911,0,0,1,.8.1,1.379,1.379,0,0,1,.613.334,1.2,1.2,0,0,1,.31.5,1.952,1.952,0,0,1,.072.573c0,.088-.008.215-.016.4l-.1,2.038c-.016.287-.024.581-.024.908-.247-.008-.454-.008-.629-.008-.239,0-.478,0-.717.008.024-.271.056-.74.1-1.417s.056-1.123.056-1.337a1.227,1.227,0,0,0-.119-.589.829.829,0,0,0-.358-.342,1.183,1.183,0,0,0-.525-.119,1.317,1.317,0,0,0-.525.1,1.164,1.164,0,0,0-.422.31,1.362,1.362,0,0,0-.287.517,4.674,4.674,0,0,0-.159,1.075c-.032.446-.056,1.043-.072,1.783-.239-.008-.454-.008-.653-.008C52.857,118.55,52.619,118.55,52.34,118.558Z" transform="translate(-25.511 -111.951)" fill="#493686"/>
          <path id="Path_276" data-name="Path 276" d="M60.02,118.558c.072-.709.127-1.5.175-2.38s.072-1.672.08-2.365c.287.008.517.008.685.008.2,0,.414,0,.645-.008l-.056.8a3.66,3.66,0,0,1,.255-.326,1.732,1.732,0,0,1,.279-.239,1.216,1.216,0,0,1,.366-.183,3.071,3.071,0,0,1,.43-.111,3.37,3.37,0,0,1,.5-.04,2.911,2.911,0,0,1,.8.1,1.379,1.379,0,0,1,.613.334,1.2,1.2,0,0,1,.31.5,1.952,1.952,0,0,1,.072.573c0,.088-.008.215-.016.4l-.1,2.038c-.016.287-.024.581-.024.908-.247-.008-.454-.008-.629-.008-.239,0-.478,0-.717.008.024-.271.056-.74.1-1.417s.056-1.123.056-1.337a1.227,1.227,0,0,0-.119-.589.829.829,0,0,0-.358-.342,1.182,1.182,0,0,0-.525-.119,1.317,1.317,0,0,0-.525.1,1.164,1.164,0,0,0-.422.31,1.362,1.362,0,0,0-.287.517,4.674,4.674,0,0,0-.159,1.075c-.032.446-.056,1.043-.072,1.783-.239-.008-.454-.008-.653-.008C60.537,118.55,60.3,118.55,60.02,118.558Z" transform="translate(-27.076 -111.951)" fill="#493686"/>
          <path id="Path_277" data-name="Path 277" d="M72.571,118.585c-.271-.008-.486-.008-.629-.008-.183,0-.39,0-.629.008l.008-.772c-.088.127-.167.239-.231.318a1.21,1.21,0,0,1-.255.231,1.764,1.764,0,0,1-.342.183,2.393,2.393,0,0,1-.43.111,2.7,2.7,0,0,1-.51.048,2.408,2.408,0,0,1-.908-.151,1.381,1.381,0,0,1-.613-.462,1.48,1.48,0,0,1-.223-.884v-.1l.072-1.2.072-1.584c0-.127.008-.287.008-.478.295.008.525.008.693.008s.39,0,.645-.008l-.151,2.126c-.008.167-.016.3-.024.414s-.008.2-.008.247a1.291,1.291,0,0,0,.1.557.656.656,0,0,0,.35.334,1.277,1.277,0,0,0,1.043.016,1.136,1.136,0,0,0,.374-.263,1.364,1.364,0,0,0,.263-.454,2.1,2.1,0,0,0,.119-.565c.024-.167.04-.462.064-.884.024-.5.04-1.019.056-1.537.31.008.541.008.709.008.183,0,.39,0,.621-.008-.04.446-.08,1-.119,1.664s-.064,1.218-.08,1.648S72.579,118.067,72.571,118.585Z" transform="translate(-28.664 -111.977)" fill="#493686"/>
          <path id="Path_278" data-name="Path 278" d="M75.525,114.854c.04-.223.072-.382.08-.47s.032-.231.056-.414c.422-.1.8-.167,1.123-.207a7.763,7.763,0,0,1,.939-.064,3.487,3.487,0,0,1,.939.119,1.375,1.375,0,0,1,.669.382,1.07,1.07,0,0,1,.239.748c0,.175-.024.629-.072,1.353s-.08,1.473-.088,2.253c-.239-.008-.454-.008-.653-.008s-.414,0-.669.008c.04-.374.072-.812.1-1.306l.064-1.162a2.889,2.889,0,0,1-.271.167,1.616,1.616,0,0,1-.207.088c-.072.024-.215.064-.414.119s-.35.1-.47.143a2.393,2.393,0,0,0-.318.135.928.928,0,0,0-.239.175.662.662,0,0,0-.143.2.534.534,0,0,0-.048.223.529.529,0,0,0,.111.334.667.667,0,0,0,.287.2,1.221,1.221,0,0,0,.406.056,2.315,2.315,0,0,0,.318-.024,2.533,2.533,0,0,0,.446-.119,7.946,7.946,0,0,0-.231.8,4.933,4.933,0,0,1-.525.072c-.127.008-.255.016-.366.016a2.533,2.533,0,0,1-.963-.159,1.075,1.075,0,0,1-.557-.5,1.5,1.5,0,0,1-.183-.693,1.168,1.168,0,0,1,.072-.4,1.08,1.08,0,0,1,.207-.358,1.967,1.967,0,0,1,.35-.318,2.523,2.523,0,0,1,.621-.295,9.029,9.029,0,0,1,1.075-.287c.119-.024.239-.056.366-.088a1.864,1.864,0,0,0,.3-.1.678.678,0,0,0,.2-.135.777.777,0,0,0,.127-.167.363.363,0,0,0,.04-.183.446.446,0,0,0-.119-.31.6.6,0,0,0-.31-.175,1.688,1.688,0,0,0-.414-.048A5.162,5.162,0,0,0,75.525,114.854Z" transform="translate(-30.106 -111.949)" fill="#493686"/>
          <path id="Path_279" data-name="Path 279" d="M82.05,118.169c.048-.525.1-1.473.167-2.834s.1-2.54.119-3.535c.326.008.557.008.693.008.183,0,.406,0,.669-.008l-.111,1.7-.159,3.8-.016.868c-.255-.008-.47-.008-.653-.008C82.7,118.161,82.472,118.161,82.05,118.169Z" transform="translate(-31.568 -111.561)" fill="#493686"/>
          <path id="Path_280" data-name="Path 280" d="M88.34,118.167c.056-.613.1-1.1.111-1.473.032-.621.072-1.5.111-2.659.032-.852.04-1.457.04-1.807v-.43c.892.008,1.672.008,2.341.008l1.306-.008.78-.008c-.032.462-.056.8-.056,1.011l-.669-.024-.271-.008H90.959l-.963.008-.056,1.672.8.016c.605,0,.987,0,1.162-.008l.637-.008c-.024.358-.032.693-.04.987-.541-.016-.971-.016-1.29-.016-.406,0-.844.008-1.314.016l-.048,2.062-.008.422v.239l-.717-.008C89.08,118.159,88.826,118.159,88.34,118.167Z" transform="translate(-32.85 -111.559)" fill="#493686"/>
          <path id="Path_281" data-name="Path 281" d="M99.293,117.5c-.04.183-.1.51-.175.987a8.239,8.239,0,0,1-.852.143,6.734,6.734,0,0,1-.693.04,4.529,4.529,0,0,1-1.091-.119,1.965,1.965,0,0,1-.844-.446,1.9,1.9,0,0,1-.533-.8,2.928,2.928,0,0,1-.175-.987,3.135,3.135,0,0,1,.2-1.115,2.285,2.285,0,0,1,.565-.884,2.061,2.061,0,0,1,.82-.486,3.206,3.206,0,0,1,.963-.143,3.376,3.376,0,0,1,.908.119,1.725,1.725,0,0,1,.724.39,1.869,1.869,0,0,1,.446.653,2.213,2.213,0,0,1,.159.844,2.316,2.316,0,0,1-.048.454l-3.415.008c-.008.111-.008.207-.008.279a1.5,1.5,0,0,0,.1.573,1.251,1.251,0,0,0,.311.446,1.293,1.293,0,0,0,.494.271,1.731,1.731,0,0,0,.557.088,3.8,3.8,0,0,0,.7-.072A7.381,7.381,0,0,0,99.293,117.5Zm-3.017-1.887,2.181.008a2.8,2.8,0,0,0-.016-.326,1.256,1.256,0,0,0-.064-.247.777.777,0,0,0-.135-.239.7.7,0,0,0-.2-.175.788.788,0,0,0-.263-.1,1.341,1.341,0,0,0-.318-.04,1.281,1.281,0,0,0-.382.064,1.033,1.033,0,0,0-.334.175,1.092,1.092,0,0,0-.247.263,1.327,1.327,0,0,0-.143.279C96.339,115.346,96.307,115.465,96.275,115.609Z" transform="translate(-34.193 -111.946)" fill="#493686"/>
          <path id="Path_282" data-name="Path 282" d="M101.633,118.473l-.1-1.027a5.925,5.925,0,0,0,.772.263,2.227,2.227,0,0,0,.581.072,1.429,1.429,0,0,0,.446-.064.529.529,0,0,0,.271-.183.452.452,0,0,0,.088-.263.489.489,0,0,0-.008-.111.553.553,0,0,0-.04-.1.4.4,0,0,0-.072-.1,1.461,1.461,0,0,0-.111-.111c-.048-.04-.111-.1-.2-.159l-.255-.2c-.239-.191-.43-.342-.557-.446a2.076,2.076,0,0,1-.318-.334,1.324,1.324,0,0,1-.2-.358,1.07,1.07,0,0,1-.064-.382,1.129,1.129,0,0,1,.207-.645,1.226,1.226,0,0,1,.605-.454,2.727,2.727,0,0,1,.931-.143,8.112,8.112,0,0,1,1.409.143l.064.971a2.827,2.827,0,0,0-1.043-.223,1.653,1.653,0,0,0-.47.056.555.555,0,0,0-.295.167.362.362,0,0,0-.088.247.379.379,0,0,0,.032.159.564.564,0,0,0,.1.159,1.5,1.5,0,0,0,.159.159c.056.048.191.151.382.295s.358.279.51.4a2.171,2.171,0,0,1,.358.358,1.3,1.3,0,0,1,.215.382,1.259,1.259,0,0,1,.072.414,1.082,1.082,0,0,1-.215.645,1.392,1.392,0,0,1-.645.47,2.673,2.673,0,0,1-.971.167,6.062,6.062,0,0,1-.685-.048A7.749,7.749,0,0,1,101.633,118.473Z" transform="translate(-35.539 -111.953)" fill="#493686"/>
          <path id="Path_283" data-name="Path 283" d="M109.935,117.326c-.04.167-.1.486-.175.955-.263.056-.47.1-.613.111a3.856,3.856,0,0,1-.422.024,2.921,2.921,0,0,1-.621-.064.948.948,0,0,1-.454-.231.8.8,0,0,1-.239-.39,1.8,1.8,0,0,1-.064-.462,1.421,1.421,0,0,1,.008-.167c.008-.072.016-.287.04-.661l.1-1.943h-.669c.016-.183.032-.486.04-.9h.7c.016-.183.04-.486.056-.916l.549-.1c.119-.024.334-.072.669-.151-.024.422-.032.812-.04,1.178h1.186c-.024.422-.032.717-.032.9h-1.186q-.1,1.9-.1,2.2a1.292,1.292,0,0,0,.064.446.44.44,0,0,0,.2.231.629.629,0,0,0,.3.072c.08,0,.159-.008.247-.016A4.338,4.338,0,0,0,109.935,117.326Z" transform="translate(-36.62 -111.69)" fill="#493686"/>
          <path id="Path_284" data-name="Path 284" d="M111.54,118.149q.072-.7.1-1.17c.032-.494.056-1.075.08-1.72s.04-1.266.048-1.855c.3.008.533.008.685.008.135,0,.366,0,.677-.008-.04.541-.08,1.059-.1,1.552s-.048,1.051-.056,1.688-.016,1.138-.016,1.5c-.287-.008-.51-.008-.685-.008C112.105,118.141,111.866,118.141,111.54,118.149Zm.255-5.557c.016-.318.016-.565.016-.74V111.7c.287.008.51.008.693.008.239,0,.47,0,.677-.008a2.587,2.587,0,0,0-.016.263l-.024.621c-.239-.008-.454-.008-.653-.008S112.057,112.584,111.795,112.592Z" transform="translate(-37.58 -111.541)" fill="#493686"/>
          <path id="Path_285" data-name="Path 285" d="M115.916,118.583q-.311-.979-1.656-4.745c.271.008.51.008.709.008.215,0,.43,0,.653-.008l1.091,3.559.151-.406,1.051-2.667c.048-.127.111-.287.191-.494.255.008.478.008.677.008s.43,0,.693-.008l-.756,1.648-1.1,2.492-.247.605c-.279-.008-.517-.008-.7-.008C116.449,118.575,116.2,118.575,115.916,118.583Z" transform="translate(-38.134 -111.975)" fill="#493686"/>
          <path id="Path_286" data-name="Path 286" d="M121.495,114.854c.04-.223.072-.382.08-.47s.032-.231.056-.414c.422-.1.8-.167,1.123-.207a7.763,7.763,0,0,1,.939-.064,3.487,3.487,0,0,1,.939.119,1.375,1.375,0,0,1,.669.382,1.07,1.07,0,0,1,.239.748c0,.175-.024.629-.072,1.353s-.08,1.473-.088,2.253c-.239-.008-.454-.008-.653-.008s-.414,0-.669.008c.04-.374.072-.812.1-1.306l.064-1.162a2.888,2.888,0,0,1-.271.167,1.616,1.616,0,0,1-.207.088c-.072.024-.215.064-.414.119s-.35.1-.47.143a2.394,2.394,0,0,0-.318.135.928.928,0,0,0-.239.175.662.662,0,0,0-.143.2.534.534,0,0,0-.048.223.529.529,0,0,0,.111.334.667.667,0,0,0,.287.2,1.221,1.221,0,0,0,.406.056,2.315,2.315,0,0,0,.318-.024,2.534,2.534,0,0,0,.446-.119,7.947,7.947,0,0,0-.231.8,4.933,4.933,0,0,1-.525.072c-.127.008-.255.016-.366.016a2.533,2.533,0,0,1-.963-.159,1.075,1.075,0,0,1-.557-.5,1.5,1.5,0,0,1-.183-.693,1.168,1.168,0,0,1,.072-.4,1.08,1.08,0,0,1,.207-.358,1.968,1.968,0,0,1,.35-.318,2.522,2.522,0,0,1,.621-.295,9.028,9.028,0,0,1,1.075-.287c.119-.024.239-.056.366-.088a1.864,1.864,0,0,0,.3-.1.678.678,0,0,0,.2-.135.777.777,0,0,0,.127-.167.363.363,0,0,0,.04-.183.446.446,0,0,0-.119-.31.6.6,0,0,0-.31-.175,1.688,1.688,0,0,0-.414-.048A5.129,5.129,0,0,0,121.495,114.854Z" transform="translate(-39.478 -111.949)" fill="#493686"/>
          <path id="Path_287" data-name="Path 287" d="M128.01,118.169c.048-.525.1-1.473.167-2.834s.1-2.54.119-3.535c.326.008.557.008.693.008.183,0,.406,0,.669-.008l-.111,1.7-.159,3.8-.016.868c-.255-.008-.47-.008-.653-.008C128.671,118.161,128.432,118.161,128.01,118.169Z" transform="translate(-40.938 -111.561)" fill="#493686"/>
          <path id="Path_288" data-name="Path 288" d="M136.7,113.7a3.38,3.38,0,0,1,1.027.159,2.169,2.169,0,0,1,.836.478,2.064,2.064,0,0,1,.517.772,2.575,2.575,0,0,1,.175.955,2.969,2.969,0,0,1-.183,1.027,2.5,2.5,0,0,1-.525.86,2.089,2.089,0,0,1-.86.541,3.314,3.314,0,0,1-1.1.183,3.38,3.38,0,0,1-1.027-.159,2.184,2.184,0,0,1-.836-.486,2.113,2.113,0,0,1-.525-.78,2.623,2.623,0,0,1-.183-.963,2.876,2.876,0,0,1,.167-.979,2.289,2.289,0,0,1,.51-.828,2.35,2.35,0,0,1,.892-.565A3.185,3.185,0,0,1,136.7,113.7Zm0,.963a1.322,1.322,0,0,0-.724.2,1.223,1.223,0,0,0-.478.589,2.315,2.315,0,0,0-.159.852,1.9,1.9,0,0,0,.127.724,1.056,1.056,0,0,0,.422.51,1.242,1.242,0,0,0,.693.2,1.277,1.277,0,0,0,.717-.2,1.217,1.217,0,0,0,.462-.6,2.338,2.338,0,0,0,.159-.868,1.96,1.96,0,0,0-.119-.7,1.025,1.025,0,0,0-.406-.51A1.205,1.205,0,0,0,136.7,114.663Z" transform="translate(-42.163 -111.949)" fill="#493686"/>
          <path id="Path_289" data-name="Path 289" d="M141.722,118.108l.056-.772.143-3.033h-.581c.008-.1.016-.247.032-.454s.016-.366.024-.462h.637V113.2a5.938,5.938,0,0,1,.04-.764.952.952,0,0,1,.159-.43,1.141,1.141,0,0,1,.318-.295,1.243,1.243,0,0,1,.454-.167,2.7,2.7,0,0,1,.51-.048,4.364,4.364,0,0,1,1.123.151c.008.35.024.645.048.892a2.563,2.563,0,0,0-.82-.159.915.915,0,0,0-.263.032.661.661,0,0,0-.2.1.419.419,0,0,0-.127.159.875.875,0,0,0-.072.231,1.781,1.781,0,0,0-.016.3v.175h1.186c-.016.215-.04.517-.056.916h-1.123c-.064,1.234-.1,2.508-.135,3.805-.279-.008-.51-.008-.677-.008S141.993,118.1,141.722,118.108Z" transform="translate(-43.655 -111.5)" fill="#493686"/>
          <path id="Path_290" data-name="Path 290" d="M147.77,118.169c.326-.573.7-1.282,1.138-2.126l1.226-2.357c.382-.724.7-1.361.955-1.887.406.008.693.008.86.008.295,0,.581,0,.868-.008l.669,1.911,1.449,3.949.2.51-.7-.008c-.159,0-.43,0-.812.008-.072-.279-.191-.653-.35-1.123s-.295-.852-.406-1.146h-2.452c-.366.74-.717,1.5-1.059,2.261l-.764-.008C148.431,118.161,148.168,118.161,147.77,118.169Zm3.049-3.232h1.791l-.732-2.158-.374.788Z" transform="translate(-44.966 -111.561)" fill="#493686"/>
          <path id="Path_291" data-name="Path 291" d="M157.75,118.556l.135-2.213.04-1.29c.008-.263.008-.533.008-.8,0-.048,0-.191-.008-.446.287.008.5.008.637.008.159,0,.366,0,.629-.008l-.024.661a3.138,3.138,0,0,1,.3-.374,1.522,1.522,0,0,1,.279-.215,1.234,1.234,0,0,1,.35-.135,1.587,1.587,0,0,1,.39-.048,1.57,1.57,0,0,1,.382.048c0,.287.016.653.04,1.1a2,2,0,0,0-.5-.072,1.252,1.252,0,0,0-.478.08,1.133,1.133,0,0,0-.374.247,1.342,1.342,0,0,0-.271.406,1.823,1.823,0,0,0-.127.51c-.024.159-.048.438-.064.828s-.024.78-.024,1.154c0,.143.008.326.016.549-.239-.008-.454-.008-.653-.008C158.252,118.548,158.021,118.548,157.75,118.556Z" transform="translate(-47.001 -111.949)" fill="#493686"/>
          <path id="Path_292" data-name="Path 292" d="M162.7,114.854c.04-.223.072-.382.08-.47s.032-.231.056-.414c.422-.1.8-.167,1.123-.207a7.763,7.763,0,0,1,.939-.064,3.487,3.487,0,0,1,.939.119,1.376,1.376,0,0,1,.669.382,1.07,1.07,0,0,1,.239.748c0,.175-.024.629-.072,1.353s-.08,1.473-.088,2.253c-.239-.008-.454-.008-.653-.008s-.414,0-.669.008c.04-.374.072-.812.1-1.306l.064-1.162a2.887,2.887,0,0,1-.271.167,1.618,1.618,0,0,1-.207.088c-.072.024-.215.064-.414.119s-.35.1-.47.143a2.393,2.393,0,0,0-.318.135.928.928,0,0,0-.239.175.662.662,0,0,0-.143.2.534.534,0,0,0-.048.223.529.529,0,0,0,.111.334.667.667,0,0,0,.287.2,1.221,1.221,0,0,0,.406.056,2.315,2.315,0,0,0,.318-.024,2.533,2.533,0,0,0,.446-.119,7.946,7.946,0,0,0-.231.8,4.933,4.933,0,0,1-.525.072c-.127.008-.255.016-.366.016a2.533,2.533,0,0,1-.963-.159,1.075,1.075,0,0,1-.557-.5,1.5,1.5,0,0,1-.183-.693,1.169,1.169,0,0,1,.072-.4,1.081,1.081,0,0,1,.207-.358,1.967,1.967,0,0,1,.35-.318,2.522,2.522,0,0,1,.621-.295,9.028,9.028,0,0,1,1.075-.287c.119-.024.239-.056.366-.088a1.864,1.864,0,0,0,.3-.1.678.678,0,0,0,.2-.135.776.776,0,0,0,.127-.167.363.363,0,0,0,.04-.183.446.446,0,0,0-.119-.31.6.6,0,0,0-.31-.175,1.688,1.688,0,0,0-.414-.048A5.162,5.162,0,0,0,162.7,114.854Z" transform="translate(-47.879 -111.949)" fill="#493686"/>
          <path id="Path_293" data-name="Path 293" d="M169.23,118.169c.056-.589.119-1.616.183-3.081s.1-2.556.1-3.288c.279.008.517.008.717.008s.414,0,.645-.008c-.056.438-.1,1-.127,1.664.3-.056.549-.1.724-.119a4,4,0,0,1,.533-.032,2.994,2.994,0,0,1,1.234.231,1.73,1.73,0,0,1,.8.764,2.628,2.628,0,0,1,.3,1.3,3.464,3.464,0,0,1-.151,1.035,2.857,2.857,0,0,1-.454.892,1.759,1.759,0,0,1-.732.573,2.4,2.4,0,0,1-.931.183,1.983,1.983,0,0,1-.828-.175,1.223,1.223,0,0,1-.31-.2,1.553,1.553,0,0,1-.231-.223,2.03,2.03,0,0,1-.215-.31l-.024.8c-.255-.008-.454-.008-.605-.008C169.779,118.161,169.556,118.161,169.23,118.169Zm1.441-3.758-.04.8c-.008.167-.016.334-.016.5a2.834,2.834,0,0,0,.119.916.98.98,0,0,0,.406.517,1.168,1.168,0,0,0,.637.183,1.13,1.13,0,0,0,.669-.207,1.3,1.3,0,0,0,.438-.605,2.33,2.33,0,0,0,.151-.844,1.483,1.483,0,0,0-.342-1.027,1.245,1.245,0,0,0-1-.39,2.868,2.868,0,0,0-.446.032A4.966,4.966,0,0,0,170.671,114.411Z" transform="translate(-49.341 -111.561)" fill="#493686"/>
          <path id="Path_294" data-name="Path 294" d="M181.522,118.169c-.764-2.142-1.552-4.259-2.372-6.369.3.008.541.008.724.008.207,0,.446,0,.724-.008l1.306,3.861.549,1.521c.119-.231.295-.6.533-1.107s.406-.884.51-1.123c-.143-.438-.326-.963-.541-1.576s-.414-1.138-.573-1.568c.263.008.494.008.693.008.223,0,.454,0,.693-.008.143.565.31,1.123.486,1.672q.394-.848.717-1.672c.271.008.486.008.653.008.191,0,.406,0,.653-.008q-.3.6-.74,1.529c-.295.621-.533,1.138-.709,1.544.072.223.2.605.382,1.138s.326.916.414,1.131l1.25-2.667.908-2,.3-.685c.3.008.541.008.717.008.2,0,.438,0,.724-.008l-.876,1.744-1.831,3.758-.414.868c-.334-.008-.621-.008-.852-.008-.247,0-.533,0-.86.008-.183-.629-.39-1.242-.605-1.847-.295.605-.573,1.218-.836,1.847-.334-.008-.621-.008-.86-.008C182.128,118.161,181.841,118.161,181.522,118.169Z" transform="translate(-51.364 -111.561)" fill="#493686"/>
          <path id="Path_295" data-name="Path 295" d="M194.833,113.7a3.38,3.38,0,0,1,1.027.159,2.169,2.169,0,0,1,.836.478,2.064,2.064,0,0,1,.517.772,2.576,2.576,0,0,1,.175.955,2.969,2.969,0,0,1-.183,1.027,2.5,2.5,0,0,1-.525.86,2.089,2.089,0,0,1-.86.541,3.314,3.314,0,0,1-1.1.183,3.38,3.38,0,0,1-1.027-.159,2.184,2.184,0,0,1-.836-.486,2.113,2.113,0,0,1-.525-.78,2.623,2.623,0,0,1-.183-.963,2.876,2.876,0,0,1,.167-.979,2.288,2.288,0,0,1,.51-.828,2.35,2.35,0,0,1,.892-.565A3.185,3.185,0,0,1,194.833,113.7Zm0,.963a1.322,1.322,0,0,0-.724.2,1.223,1.223,0,0,0-.478.589,2.315,2.315,0,0,0-.159.852,1.9,1.9,0,0,0,.127.724,1.056,1.056,0,0,0,.422.51,1.243,1.243,0,0,0,.693.2,1.277,1.277,0,0,0,.717-.2,1.217,1.217,0,0,0,.462-.6,2.338,2.338,0,0,0,.159-.868,1.96,1.96,0,0,0-.119-.7,1.025,1.025,0,0,0-.406-.51A1.205,1.205,0,0,0,194.833,114.663Z" transform="translate(-54.014 -111.949)" fill="#493686"/>
          <path id="Path_296" data-name="Path 296" d="M199.74,118.554c.04-.525.088-1.322.135-2.372s.072-1.839.072-2.372c.263.008.478.008.645.008.191,0,.4,0,.613-.008l-.032.748a4.148,4.148,0,0,1,.271-.358,1.316,1.316,0,0,1,.318-.255,1.747,1.747,0,0,1,.462-.183,2.057,2.057,0,0,1,.541-.064,2.194,2.194,0,0,1,.406.04,1.709,1.709,0,0,1,.358.111,1.175,1.175,0,0,1,.279.167.922.922,0,0,1,.191.207,2.436,2.436,0,0,1,.175.334c.072-.111.135-.2.191-.271a1.241,1.241,0,0,1,.231-.223,1.434,1.434,0,0,1,.318-.2,1.943,1.943,0,0,1,.4-.127,2.162,2.162,0,0,1,.462-.048,2.2,2.2,0,0,1,.764.135,1.172,1.172,0,0,1,.565.422,1.2,1.2,0,0,1,.207.709c0,.151-.008.366-.032.661s-.048.764-.08,1.417-.048,1.162-.048,1.521c-.231-.008-.43-.008-.605-.008-.207,0-.446,0-.724.008.032-.4.056-.82.08-1.258l.056-1.067c.016-.271.024-.5.024-.685a.943.943,0,0,0-.1-.5.646.646,0,0,0-.263-.247.884.884,0,0,0-.366-.072.865.865,0,0,0-.382.08.938.938,0,0,0-.318.255,1.221,1.221,0,0,0-.223.414,3.311,3.311,0,0,0-.119.661c-.024.287-.048.661-.064,1.123l-.032,1.3c-.255-.008-.47-.008-.645-.008s-.4,0-.685.008c.024-.239.056-.732.1-1.473s.064-1.242.064-1.5a1.5,1.5,0,0,0-.032-.35.667.667,0,0,0-.135-.271.645.645,0,0,0-.231-.191.744.744,0,0,0-.31-.064.856.856,0,0,0-.573.215,1.18,1.18,0,0,0-.358.573,6.193,6.193,0,0,0-.167,1.393c-.032.685-.048,1.242-.048,1.648-.287-.008-.5-.008-.645-.008C200.265,118.546,200.035,118.546,199.74,118.554Z" transform="translate(-55.561 -111.946)" fill="#493686"/>
          <path id="Path_297" data-name="Path 297" d="M214.653,117.5c-.04.183-.1.51-.175.987a8.239,8.239,0,0,1-.852.143,6.734,6.734,0,0,1-.693.04,4.529,4.529,0,0,1-1.091-.119A1.965,1.965,0,0,1,211,118.1a1.9,1.9,0,0,1-.533-.8,2.928,2.928,0,0,1-.175-.987,3.135,3.135,0,0,1,.2-1.115,2.285,2.285,0,0,1,.565-.884,2.061,2.061,0,0,1,.82-.486,3.206,3.206,0,0,1,.963-.143,3.376,3.376,0,0,1,.908.119,1.725,1.725,0,0,1,.724.39,1.869,1.869,0,0,1,.446.653,2.213,2.213,0,0,1,.159.844,2.316,2.316,0,0,1-.048.454l-3.415.008c-.008.111-.008.207-.008.279a1.5,1.5,0,0,0,.1.573,1.252,1.252,0,0,0,.311.446,1.293,1.293,0,0,0,.494.271,1.731,1.731,0,0,0,.557.088,3.8,3.8,0,0,0,.7-.072A7.38,7.38,0,0,0,214.653,117.5Zm-3.009-1.887,2.181.008a2.8,2.8,0,0,0-.016-.326,1.256,1.256,0,0,0-.064-.247.777.777,0,0,0-.135-.239.7.7,0,0,0-.2-.175.788.788,0,0,0-.263-.1,1.341,1.341,0,0,0-.318-.04,1.281,1.281,0,0,0-.382.064,1.033,1.033,0,0,0-.334.175,1.092,1.092,0,0,0-.247.263,1.327,1.327,0,0,0-.143.279C211.707,115.346,211.675,115.465,211.643,115.609Z" transform="translate(-57.712 -111.946)" fill="#493686"/>
          <path id="Path_298" data-name="Path 298" d="M217.14,118.558c.072-.709.127-1.5.175-2.38s.072-1.672.08-2.365c.287.008.517.008.685.008.2,0,.414,0,.645-.008l-.056.8a3.657,3.657,0,0,1,.255-.326,1.733,1.733,0,0,1,.279-.239,1.216,1.216,0,0,1,.366-.183,3.072,3.072,0,0,1,.43-.111,3.37,3.37,0,0,1,.5-.04,2.911,2.911,0,0,1,.8.1,1.379,1.379,0,0,1,.613.334,1.2,1.2,0,0,1,.31.5,1.953,1.953,0,0,1,.072.573c0,.088-.008.215-.016.4l-.1,2.038c-.016.287-.024.581-.024.908-.247-.008-.454-.008-.629-.008-.239,0-.478,0-.717.008.024-.271.056-.74.1-1.417s.056-1.123.056-1.337a1.227,1.227,0,0,0-.119-.589.829.829,0,0,0-.358-.342,1.182,1.182,0,0,0-.525-.119,1.317,1.317,0,0,0-.525.1,1.164,1.164,0,0,0-.422.31,1.362,1.362,0,0,0-.287.517,4.673,4.673,0,0,0-.159,1.075c-.032.446-.056,1.043-.072,1.783-.239-.008-.454-.008-.653-.008C217.657,118.55,217.419,118.55,217.14,118.558Z" transform="translate(-59.109 -111.951)" fill="#493686"/>
        </g>
        <line id="Line_21" data-name="Line 21" x2="56.286" transform="translate(1.903 15.517)" fill="none" stroke="#707070" stroke-miterlimit="10" stroke-width="0.5"/>
      </g>
    </g>
  </g>
</svg>
