<svg xmlns="http://www.w3.org/2000/svg" xmlns:xlink="http://www.w3.org/1999/xlink" width="315.108" height="321.637" viewBox="0 0 315.108 321.637">
  <defs>
    <linearGradient id="linear-gradient" x1="0.5" y1="1" x2="0.5" gradientUnits="objectBoundingBox">
      <stop offset="0.001" stop-color="#674696"/>
      <stop offset="0.999" stop-color="#a1569d"/>
    </linearGradient>
    <linearGradient id="linear-gradient-2" x1="0.5" y1="1" x2="0.5" y2="0" xlink:href="#linear-gradient"/>
    <linearGradient id="linear-gradient-3" x1="0.5" y1="1" x2="0.5" y2="0" xlink:href="#linear-gradient"/>
    <linearGradient id="linear-gradient-4" x1="0.5" y1="1" x2="0.5" y2="0" xlink:href="#linear-gradient"/>
    <linearGradient id="linear-gradient-5" x1="-4.676" y1="1.822" x2="24.673" y2="-5.578" xlink:href="#linear-gradient"/>
    <linearGradient id="linear-gradient-6" x1="-14.686" y1="9.861" x2="65.666" y2="-39.716" xlink:href="#linear-gradient"/>
    <linearGradient id="linear-gradient-7" x1="-15.245" y1="10.207" x2="65.108" y2="-39.37" xlink:href="#linear-gradient"/>
    <linearGradient id="linear-gradient-8" x1="-15.806" y1="10.552" x2="64.546" y2="-39.025" xlink:href="#linear-gradient"/>
    <linearGradient id="linear-gradient-9" x1="-16.367" y1="10.898" x2="63.985" y2="-38.679" xlink:href="#linear-gradient"/>
    <linearGradient id="linear-gradient-10" x1="-8.142" y1="2.325" x2="30.446" y2="-5.743" xlink:href="#linear-gradient"/>
    <linearGradient id="linear-gradient-11" x1="-14.483" y1="2.459" x2="48.418" y2="-5.633" xlink:href="#linear-gradient"/>
    <linearGradient id="linear-gradient-12" x1="-10.722" y1="2.531" x2="32.343" y2="-5.413" xlink:href="#linear-gradient"/>
    <linearGradient id="linear-gradient-13" x1="-6.537" y1="3.821" x2="18.071" y2="-7.515" xlink:href="#linear-gradient"/>
    <linearGradient id="linear-gradient-14" x1="-18.99" y1="2.744" x2="43.911" y2="-4.456" xlink:href="#linear-gradient"/>
    <linearGradient id="linear-gradient-15" x1="-45.02" y1="2.861" x2="93.694" y2="-4.333" xlink:href="#linear-gradient"/>
    <linearGradient id="linear-gradient-16" x1="-13.326" y1="3.314" x2="24.76" y2="-4.479" xlink:href="#linear-gradient"/>
    <linearGradient id="linear-gradient-17" x1="-26.656" y1="2.53" x2="43.438" y2="-2.688" xlink:href="#linear-gradient"/>
    <linearGradient id="linear-gradient-18" x1="-16.698" y1="3.633" x2="26.367" y2="-4.311" xlink:href="#linear-gradient"/>
    <linearGradient id="linear-gradient-19" x1="-9.293" y1="5.346" x2="13.705" y2="-5.821" xlink:href="#linear-gradient"/>
    <linearGradient id="linear-gradient-20" x1="-17.835" y1="3.806" x2="22.463" y2="-3.4" xlink:href="#linear-gradient"/>
    <linearGradient id="linear-gradient-21" x1="-29.007" y1="3.89" x2="33.894" y2="-3.31" xlink:href="#linear-gradient"/>
    <linearGradient id="linear-gradient-22" x1="-10.541" y1="3.818" x2="11.041" y2="-2.571" xlink:href="#linear-gradient"/>
    <linearGradient id="linear-gradient-23" x1="-16.268" y1="4.751" x2="13.99" y2="-2.955" xlink:href="#linear-gradient"/>
    <linearGradient id="linear-gradient-24" x1="-22.806" y1="5.1" x2="17.431" y2="-2.791" xlink:href="#linear-gradient"/>
    <linearGradient id="linear-gradient-25" x1="-9.849" y1="7.862" x2="7.122" y2="-3.962" xlink:href="#linear-gradient"/>
    <linearGradient id="linear-gradient-26" x1="-39.921" y1="5.14" x2="22.98" y2="-2.06" xlink:href="#linear-gradient"/>
    <linearGradient id="linear-gradient-27" x1="-91.172" y1="5.254" x2="47.542" y2="-1.939" xlink:href="#linear-gradient"/>
    <linearGradient id="linear-gradient-28" x1="-21.747" y1="5.407" x2="10.276" y2="-1.645" xlink:href="#linear-gradient"/>
    <linearGradient id="linear-gradient-29" x1="-47.88" y1="5.735" x2="18.674" y2="-1.472" xlink:href="#linear-gradient"/>
    <linearGradient id="linear-gradient-30" x1="-22.407" y1="6.319" x2="8.563" y2="-1.526" xlink:href="#linear-gradient"/>
    <linearGradient id="linear-gradient-31" x1="-32.587" y1="6.564" x2="10.478" y2="-1.38" xlink:href="#linear-gradient"/>
    <linearGradient id="linear-gradient-32" x1="-18.51" y1="6.517" x2="5.471" y2="-1.061" xlink:href="#linear-gradient"/>
    <linearGradient id="linear-gradient-33" x1="-18.526" y1="9.837" x2="4.452" y2="-1.33" xlink:href="#linear-gradient"/>
    <linearGradient id="linear-gradient-34" x1="-53.171" y1="6.657" x2="9.73" y2="-0.544" xlink:href="#linear-gradient"/>
    <linearGradient id="linear-gradient-35" x1="-120.391" y1="6.77" x2="18.322" y2="-0.424" xlink:href="#linear-gradient"/>
    <linearGradient id="linear-gradient-36" x1="-1.844" y1="1.079" x2="12.635" y2="-2.83" xlink:href="#linear-gradient"/>
    <linearGradient id="linear-gradient-37" x1="-3.637" y1="1.64" x2="14.764" y2="-3.489" xlink:href="#linear-gradient"/>
    <linearGradient id="linear-gradient-38" x1="-4.644" y1="1.577" x2="13.186" y2="-2.273" xlink:href="#linear-gradient"/>
    <linearGradient id="linear-gradient-39" x1="-6.15" y1="2.244" x2="13.375" y2="-2.775" xlink:href="#linear-gradient"/>
    <linearGradient id="linear-gradient-40" x1="-20.981" y1="1.992" x2="34.695" y2="-1.877" xlink:href="#linear-gradient"/>
    <linearGradient id="linear-gradient-41" x1="-8.066" y1="2.258" x2="10.9" y2="-1.593" xlink:href="#linear-gradient"/>
    <linearGradient id="linear-gradient-42" x1="-8.779" y1="2.44" x2="9.351" y2="-1.349" xlink:href="#linear-gradient"/>
    <linearGradient id="linear-gradient-43" x1="-10.313" y1="2.714" x2="8.653" y2="-1.137" xlink:href="#linear-gradient"/>
    <linearGradient id="linear-gradient-44" x1="-10.892" y1="2.993" x2="7.2" y2="-0.922" xlink:href="#linear-gradient"/>
  </defs>
  <g id="Group_331" data-name="Group 331" transform="translate(-169 -3242.013)">
    <g id="Group_318" data-name="Group 318" transform="translate(214.115 3242.013)">
      <path id="Path_235" data-name="Path 235" d="M284.287,78.117A102.668,102.668,0,0,0,182.177,13.449a101.3,101.3,0,0,0-79.558,47.357A97.583,97.583,0,0,0,95.29,74.867a95.815,95.815,0,0,0-5.008,14.99,97.608,97.608,0,0,0,4.775,61.219,101.276,101.276,0,0,1-.133-59.959,97.144,97.144,0,0,1,59.13-62.645,87.831,87.831,0,0,1,14.127-4.013,89.967,89.967,0,0,1,14.592-1.791A95.572,95.572,0,0,1,275.7,81.533a96.832,96.832,0,0,1-24.474,108.609,100.766,100.766,0,0,1-54.255,25.436,96.98,96.98,0,0,0,57.405-21.788,101.768,101.768,0,0,0,21.059-23.513,99.738,99.738,0,0,0,12.735-29.117A102.939,102.939,0,0,0,284.287,78.117Z" transform="translate(-87.444 7.547)" fill="url(#linear-gradient)"/>
      <path id="Path_236" data-name="Path 236" d="M121.919,167.049c14.492,3.98,34.689,13.6,38.1,2.487s1.99-14.26,8.357-16.283c6.367-2.056-.265-6.467.166-9.12s6.334-.7,6.434-3.582-4.61-3.88-3.615-7.429c.995-3.515,10.148-2.587,10.977-7.495s-11.541-14.758-9.65-22.418c1.857-7.661,4.974-7.1,6.334-16.847.929-6.732.5-18.969-7.528-29.084a55.287,55.287,0,0,0,1.492-8.423,48.754,48.754,0,0,0-.663-13.73,35.538,35.538,0,0,0-5.14-12.436,40.892,40.892,0,0,1,2.454,12.768,48.885,48.885,0,0,1-1.36,12.635A65.446,65.446,0,0,1,157.636,70.81c-9.65,13.929-23.082,25.4-34.224,39.9-5.505,7.263-10.546,15.288-13.5,24.342l-1.061,3.416c-.3,1.161-.531,2.321-.763,3.482a61.958,61.958,0,0,0-1.061,7.031,64.255,64.255,0,0,0,.332,14.061A64.973,64.973,0,0,0,116.547,189a57.208,57.208,0,0,0,18.969,19.036,68.738,68.738,0,0,1-20-40.658A9.448,9.448,0,0,1,121.919,167.049Z" transform="translate(-42.607 29.479)" fill="url(#linear-gradient-2)"/>
      <path id="Path_237" data-name="Path 237" d="M114.644,103.093c5.207-11.939,13.995-22.551,22.783-33.4,4.378-5.439,8.821-11.043,12.735-17.013a77.9,77.9,0,0,0,9.451-19.135c-7.959,11.707-18.008,21.059-27.923,31.008a194.071,194.071,0,0,0-14.426,15.819,87.334,87.334,0,0,0-11.64,18.77,48.419,48.419,0,0,0-1.99,5.306l-.9,2.719c-.265.9-.464,1.824-.663,2.753l-.6,2.786-.4,2.819-.365,2.819-.133,2.819a65.1,65.1,0,0,0,2.885,22.087,63.5,63.5,0,0,0,10.048,19.533,53.375,53.375,0,0,0,16.117,14.161,71.2,71.2,0,0,1-18.671-35.617A64.162,64.162,0,0,1,114.644,103.093Z" transform="translate(-57.153 54.635)" fill="url(#linear-gradient-3)"/>
      <path id="Path_238" data-name="Path 238" d="M101.706,139.6a92.977,92.977,0,0,1,15.653-38.668C125.451,89.391,135.9,79.011,145.415,67.4A115.978,115.978,0,0,0,158.25,48.7c3.515-6.732,6.168-14.028,6.832-21.49-5.439,13.995-15.122,24.773-25.37,35.053-10.247,10.347-21.423,20.362-30.377,33.064a84.83,84.83,0,0,0-15.288,43.411c-.995,15.355,2.122,30.974,9.617,43.941A105.416,105.416,0,0,1,101.706,139.6Z" transform="translate(-72.57 39.949)" fill="url(#linear-gradient-4)"/>
    </g>
    <g id="Group_330" data-name="Group 330">
      <path id="Path_239" data-name="Path 239" d="M307.306,122.072A120.6,120.6,0,0,0,294.67,74.516a124.99,124.99,0,0,0-30.543-38.8A123.217,123.217,0,0,0,220.75,12.136a121.425,121.425,0,0,0-49.015-4.344A123.841,123.841,0,0,0,147.691,13a118.738,118.738,0,0,0-22.352,10.048A116.955,116.955,0,0,0,89.49,55.315a128.819,128.819,0,0,1,37.773-28.752,120.07,120.07,0,0,1,173.709,95.974,122.365,122.365,0,0,1-4.61,46.561,128.033,128.033,0,0,1-21.987,42.051,116.825,116.825,0,0,0,25.8-40.791A120.473,120.473,0,0,0,307.306,122.072Z" transform="translate(131.409 3235.054)" fill="#493686"/>
      <g id="Group_326" data-name="Group 326" transform="translate(169 3492.434)">
        <g id="Group_319" data-name="Group 319" transform="translate(0 0)">
          <path id="Path_240" data-name="Path 240" d="M25.733,96.892v-1.1a.234.234,0,0,1,.26-.26h2.366a.234.234,0,0,1,.26.26v8.32a1.493,1.493,0,0,0,.29,1.069,1.262,1.262,0,0,0,.931.29h.977c.687,0,1.023.427,1.023,1.282a1.412,1.412,0,0,1-.244,1.008,1.06,1.06,0,0,1-.779.244H28.74a3.621,3.621,0,0,1-1.969-.443,2.228,2.228,0,0,1-.931-1.542,3.7,3.7,0,0,1-1.282.687,5.367,5.367,0,0,1-1.572.229,6.377,6.377,0,0,1-1.893-.275,4.049,4.049,0,0,1-1.542-.87,4.239,4.239,0,0,1-1.038-1.5,5.559,5.559,0,0,1-.382-2.2,6.272,6.272,0,0,1,.427-2.488,4.053,4.053,0,0,1,1.13-1.6,4.287,4.287,0,0,1,1.6-.855,6.887,6.887,0,0,1,1.878-.26h2.565Zm-4.9-3.13a.234.234,0,0,1-.26-.26V91.29a.234.234,0,0,1,.26-.26h2.153a.234.234,0,0,1,.26.26V93.5a.234.234,0,0,1-.26.26H20.832ZM23.32,104.4a2.2,2.2,0,0,0,1.817-.7,3.13,3.13,0,0,0,.6-2.061V99.457h-2.29a2.624,2.624,0,0,0-1.771.565A2.642,2.642,0,0,0,21,102.1a2.214,2.214,0,0,0,.611,1.74A2.46,2.46,0,0,0,23.32,104.4Zm.84-10.64a.234.234,0,0,1-.26-.26V91.29a.234.234,0,0,1,.26-.26h2.153a.234.234,0,0,1,.26.26V93.5a.234.234,0,0,1-.26.26H24.16Z" transform="translate(-18.13 -83.931)" fill="url(#linear-gradient-5)"/>
          <path id="Path_241" data-name="Path 241" d="M26.951,103.024a.835.835,0,0,1-.7-.26,1.707,1.707,0,0,1-.2-.946,2.078,2.078,0,0,1,.183-1.053.811.811,0,0,1,.718-.275h3.084a.993.993,0,0,1,.763.275,1.469,1.469,0,0,1,.26.977,1.507,1.507,0,0,1-.244,1.038,1.06,1.06,0,0,1-.779.244Z" transform="translate(-13.959 -78.949)" fill="url(#linear-gradient-6)"/>
          <path id="Path_242" data-name="Path 242" d="M28.961,103.024a.835.835,0,0,1-.7-.26,1.707,1.707,0,0,1-.2-.946,2.078,2.078,0,0,1,.183-1.053.811.811,0,0,1,.718-.275h3.084a.993.993,0,0,1,.763.275,1.469,1.469,0,0,1,.26.977,1.507,1.507,0,0,1-.244,1.038,1.06,1.06,0,0,1-.779.244Z" transform="translate(-12.901 -78.949)" fill="url(#linear-gradient-7)"/>
          <path id="Path_243" data-name="Path 243" d="M30.981,103.024a.835.835,0,0,1-.7-.26,1.707,1.707,0,0,1-.2-.946,2.078,2.078,0,0,1,.183-1.053.811.811,0,0,1,.718-.275h3.084a.993.993,0,0,1,.763.275,1.469,1.469,0,0,1,.26.977,1.507,1.507,0,0,1-.244,1.038,1.06,1.06,0,0,1-.779.244Z" transform="translate(-11.837 -78.949)" fill="url(#linear-gradient-8)"/>
          <path id="Path_244" data-name="Path 244" d="M33,103.024a.835.835,0,0,1-.7-.26,1.707,1.707,0,0,1-.2-.946,2.078,2.078,0,0,1,.183-1.053A.811.811,0,0,1,33,100.49h3.084a.993.993,0,0,1,.763.275,1.469,1.469,0,0,1,.26.977,1.507,1.507,0,0,1-.244,1.038,1.06,1.06,0,0,1-.779.244Z" transform="translate(-10.773 -78.949)" fill="url(#linear-gradient-9)"/>
          <path id="Path_245" data-name="Path 245" d="M40.578,104.513a1.921,1.921,0,0,1-1.084,1.023,5.75,5.75,0,0,1-1.969.275H35.143a1.044,1.044,0,0,1-.763-.244,1.368,1.368,0,0,1-.26-.962,1.617,1.617,0,0,1,.244-1.038.96.96,0,0,1,.779-.29h1.664a1.427,1.427,0,0,0,.7-.137.889.889,0,0,0,.366-.443,2.531,2.531,0,0,0,.137-.763c.015-.305.031-.7.031-1.16V95.43a.216.216,0,0,1,.137-.214.959.959,0,0,1,.29-.046h2.214a.234.234,0,0,1,.26.26v6.259a1.355,1.355,0,0,0,.58,1.175,2.617,2.617,0,0,0,1.557.412h.443a.993.993,0,0,1,.763.275,1.4,1.4,0,0,1,.26.947,1.539,1.539,0,0,1-.244,1.023,1.007,1.007,0,0,1-.779.275,5.381,5.381,0,0,1-1.74-.244A1.911,1.911,0,0,1,40.578,104.513Zm-4,6.229a.234.234,0,0,1-.26-.26v-2.214a.234.234,0,0,1,.26-.26H38.73a.234.234,0,0,1,.26.26v2.214a.234.234,0,0,1-.26.26Zm3.343,0a.234.234,0,0,1-.26-.26v-2.214a.234.234,0,0,1,.26-.26h2.153a.234.234,0,0,1,.26.26v2.214a.234.234,0,0,1-.26.26Z" transform="translate(-9.709 -81.751)" fill="url(#linear-gradient-10)"/>
          <path id="Path_246" data-name="Path 246" d="M40.623,105.826a1.309,1.309,0,0,1-.763-.183.849.849,0,0,1-.26-.718,2.523,2.523,0,0,1,.244-1.145.823.823,0,0,1,.779-.5h1.252a1.262,1.262,0,0,0,.931-.29,1.493,1.493,0,0,0,.29-1.069V95.43a.234.234,0,0,1,.26-.26h2.382a.234.234,0,0,1,.26.26v7.16a3.618,3.618,0,0,1-.687,2.443A2.958,2.958,0,0,1,43,105.81H40.623Zm2.259,4.87a.234.234,0,0,1-.26-.26v-2.214a.234.234,0,0,1,.26-.26H45.34a.234.234,0,0,1,.26.26v2.214a.234.234,0,0,1-.26.26Z" transform="translate(-6.824 -81.751)" fill="url(#linear-gradient-11)"/>
          <path id="Path_247" data-name="Path 247" d="M47.75,95.43a.234.234,0,0,1,.26-.26h2.382a.234.234,0,0,1,.26.26v6.259a1.355,1.355,0,0,0,.58,1.175,2.617,2.617,0,0,0,1.557.412h.443a.993.993,0,0,1,.763.275,1.4,1.4,0,0,1,.26.947,1.539,1.539,0,0,1-.244,1.023,1.007,1.007,0,0,1-.779.275,6.1,6.1,0,0,1-1.5-.153,2.032,2.032,0,0,1-1.069-.687v.489a11.4,11.4,0,0,1-.229,2.427,4.271,4.271,0,0,1-.763,1.725,3.147,3.147,0,0,1-1.4,1.038,5.88,5.88,0,0,1-2.153.351H45.17a.234.234,0,0,1-.26-.26v-2.046a.234.234,0,0,1,.26-.26h.565a2.252,2.252,0,0,0,1.16-.26,1.437,1.437,0,0,0,.6-.763,4.344,4.344,0,0,0,.229-1.206c.031-.473.046-1.008.046-1.633V95.43Z" transform="translate(-4.027 -81.751)" fill="url(#linear-gradient-12)"/>
          <path id="Path_248" data-name="Path 248" d="M57.888,94.87a6.8,6.8,0,0,1,4.305,1.1,3.575,3.575,0,0,1,1.359,2.9,4.134,4.134,0,0,1-.244,1.45,5.647,5.647,0,0,1-.626,1.252,6.4,6.4,0,0,1-.87,1.038,6.693,6.693,0,0,1-.946.763,2.073,2.073,0,0,0,.443.046h3.725a.9.9,0,0,1,.794.305,1.889,1.889,0,0,1,.214,1.023,1.376,1.376,0,0,1-.244.962,1.021,1.021,0,0,1-.763.244H61.216a9.257,9.257,0,0,1-1.756-.168,4.651,4.651,0,0,1-1.572-.626,5.744,5.744,0,0,1-1.8.626,10.389,10.389,0,0,1-1.695.168H50.7a1.034,1.034,0,0,1-.748-.26,1.349,1.349,0,0,1-.26-.946,2.452,2.452,0,0,1,.168-1.008c.107-.229.4-.336.84-.336H53.7c.275,0,.58-.015.931-.046a8.926,8.926,0,0,0,1.206-.2,5.869,5.869,0,0,0-.55-1.466,5.321,5.321,0,0,0-.779-1.084,7.028,7.028,0,0,0-.931-.855l-1.008-.733a.822.822,0,0,1-.321-.366,1.336,1.336,0,0,1-.046-.366V96.671c0-.183.168-.4.489-.611a4.574,4.574,0,0,1,1.282-.6,10.558,10.558,0,0,1,1.817-.443A15.5,15.5,0,0,1,57.888,94.87Zm.382,7.74a8.886,8.886,0,0,0,.84-.611,5.971,5.971,0,0,0,.748-.779,4.169,4.169,0,0,0,.519-.916,2.525,2.525,0,0,0,.2-1.008,1.528,1.528,0,0,0-.763-1.466,4.013,4.013,0,0,0-1.939-.412,7.591,7.591,0,0,0-1.786.2,4.965,4.965,0,0,0-1.038.366,7.155,7.155,0,0,1,2.015,1.939A7.387,7.387,0,0,1,58.27,102.61Z" transform="translate(-1.51 -81.909)" fill="url(#linear-gradient-13)"/>
          <path id="Path_249" data-name="Path 249" d="M60.1,108.169a1.044,1.044,0,0,1-.763-.244,1.407,1.407,0,0,1-.26-.992,1.574,1.574,0,0,1,.244-1.008.96.96,0,0,1,.779-.29h1.252a1.262,1.262,0,0,0,.931-.29,1.493,1.493,0,0,0,.29-1.069V90.98a.234.234,0,0,1,.26-.26h2.382a.234.234,0,0,1,.26.26v13.953a3.618,3.618,0,0,1-.687,2.443,2.958,2.958,0,0,1-2.305.779H60.1Z" transform="translate(3.435 -84.094)" fill="url(#linear-gradient-14)"/>
          <path id="Path_250" data-name="Path 250" d="M68.371,107.915a.234.234,0,0,1-.26.26H65.73a.234.234,0,0,1-.26-.26V90.97a.234.234,0,0,1,.26-.26h2.382a.234.234,0,0,1,.26.26Z" transform="translate(6.8 -84.1)" fill="url(#linear-gradient-15)"/>
          <path id="Path_251" data-name="Path 251" d="M78.452,107.821a7.258,7.258,0,0,1-2.153-.305,4.046,4.046,0,0,1-1.664-.977,4.569,4.569,0,0,1-1.084-1.725,7.444,7.444,0,0,1-.382-2.565,8.077,8.077,0,0,1,.4-2.672,4.165,4.165,0,0,1,2.778-2.748,7.094,7.094,0,0,1,2.107-.305,7.245,7.245,0,0,1,2.107.305,4.2,4.2,0,0,1,1.679.977,4.381,4.381,0,0,1,1.1,1.771,8.077,8.077,0,0,1,.4,2.672,7.444,7.444,0,0,1-.382,2.565,4.57,4.57,0,0,1-1.084,1.725,4.391,4.391,0,0,1-1.679.977A6.892,6.892,0,0,1,78.452,107.821Zm-2.7-13.388a.234.234,0,0,1-.26-.26V91.96a.234.234,0,0,1,.26-.26H77.9a.234.234,0,0,1,.26.26v2.214a.234.234,0,0,1-.26.26Zm2.7,4.671A2.139,2.139,0,0,0,76.6,99.9a3.807,3.807,0,0,0-.6,2.305,3.735,3.735,0,0,0,.6,2.366,2.26,2.26,0,0,0,1.832.718,2.169,2.169,0,0,0,1.817-.733,3.715,3.715,0,0,0,.6-2.351C80.864,100.142,80.055,99.1,78.452,99.1Zm.641-4.671a.234.234,0,0,1-.26-.26V91.96a.234.234,0,0,1,.26-.26h2.153a.234.234,0,0,1,.26.26v2.214a.234.234,0,0,1-.26.26Z" transform="translate(10.855 -83.578)" fill="url(#linear-gradient-16)"/>
          <path id="Path_252" data-name="Path 252" d="M82.18,90.41a2.588,2.588,0,0,1-.29-.656,2.724,2.724,0,0,1-.122-.809,3.05,3.05,0,0,1,.137-.885,2.235,2.235,0,0,1,.473-.824,2.487,2.487,0,0,1,.84-.611,2.817,2.817,0,0,1,1.252-.244,2.926,2.926,0,0,1,1.282.275,2.471,2.471,0,0,1,.9.7q.069.16,0,.229l-.672.641c-.107.092-.183.092-.26.031a3.054,3.054,0,0,0-.565-.427,1.413,1.413,0,0,0-.672-.168,1.207,1.207,0,0,0-.931.366,1.319,1.319,0,0,0-.336.931,1.454,1.454,0,0,0,.275.885,2.332,2.332,0,0,0,.55.55h2.6c.107,0,.153.061.153.183v.946c0,.122-.046.183-.153.183H81.2c-.107,0-.153-.061-.153-.183v-.946c0-.122.046-.183.153-.183h.977ZM85.462,110.2a.234.234,0,0,1-.26.26H82.821a.234.234,0,0,1-.26-.26V93.25a.234.234,0,0,1,.26-.26H85.2a.234.234,0,0,1,.26.26Z" transform="translate(15.005 -86.38)" fill="url(#linear-gradient-17)"/>
          <path id="Path_253" data-name="Path 253" d="M87.89,95.43a.234.234,0,0,1,.26-.26h2.382a.234.234,0,0,1,.26.26v6.259a1.355,1.355,0,0,0,.58,1.175,2.617,2.617,0,0,0,1.557.412h.443a.993.993,0,0,1,.763.275,1.4,1.4,0,0,1,.26.947,1.539,1.539,0,0,1-.244,1.023,1.007,1.007,0,0,1-.779.275,6.1,6.1,0,0,1-1.5-.153,2.032,2.032,0,0,1-1.069-.687v.489a11.4,11.4,0,0,1-.229,2.427,4.367,4.367,0,0,1-.763,1.725,3.233,3.233,0,0,1-1.4,1.038,5.88,5.88,0,0,1-2.153.351H85.31a.234.234,0,0,1-.26-.26v-2.046a.234.234,0,0,1,.26-.26h.565a2.214,2.214,0,0,0,1.16-.26,1.437,1.437,0,0,0,.6-.763,4.344,4.344,0,0,0,.229-1.206c.031-.473.046-1.008.046-1.633V95.43Z" transform="translate(17.111 -81.751)" fill="url(#linear-gradient-18)"/>
          <path id="Path_254" data-name="Path 254" d="M93.443,100.335a7.259,7.259,0,0,1,.427-2.534,4.592,4.592,0,0,1,1.1-1.695,4.239,4.239,0,0,1,1.649-.946,6.9,6.9,0,0,1,2.076-.29,7.245,7.245,0,0,1,2.107.305,4.205,4.205,0,0,1,1.679.977,4.381,4.381,0,0,1,1.1,1.771,8.077,8.077,0,0,1,.4,2.672v.443a4.025,4.025,0,0,1-.031.427,2.1,2.1,0,0,0,.5,1.527,1.524,1.524,0,0,0,1.084.443h.748a.993.993,0,0,1,.763.275,1.4,1.4,0,0,1,.26.947,1.539,1.539,0,0,1-.244,1.023,1.007,1.007,0,0,1-.779.275c-.29,0-.6-.015-.916-.031a3.972,3.972,0,0,1-.947-.168,3.424,3.424,0,0,1-.9-.412,2.787,2.787,0,0,1-.763-.763,3.762,3.762,0,0,1-1.725,1.175,7.037,7.037,0,0,1-2.351.366,7.168,7.168,0,0,1-2.305-.351,3.992,3.992,0,0,1-1.725-1.145,2.366,2.366,0,0,1-.611.672,3.219,3.219,0,0,1-.748.4,4.647,4.647,0,0,1-.794.2,7.019,7.019,0,0,1-.763.046h-.9a.947.947,0,0,1-.763-.29,1.517,1.517,0,0,1-.26-.992,1.491,1.491,0,0,1,.244-1.008,1.063,1.063,0,0,1,.779-.26H91.84a1.482,1.482,0,0,0,1.1-.5,2.729,2.729,0,0,0,.519-1.832,3.487,3.487,0,0,1-.031-.382A2.059,2.059,0,0,0,93.443,100.335Zm5.267-2.9a2.081,2.081,0,0,0-1.817.794,3.807,3.807,0,0,0-.6,2.305,3.736,3.736,0,0,0,.6,2.366,2.677,2.677,0,0,0,3.664-.015,3.715,3.715,0,0,0,.6-2.351C101.153,98.473,100.328,97.435,98.71,97.435Z" transform="translate(19.618 -81.909)" fill="url(#linear-gradient-19)"/>
          <path id="Path_255" data-name="Path 255" d="M102.2,105.625a1.262,1.262,0,0,0,.931-.29,1.493,1.493,0,0,0,.29-1.069V90.97a.234.234,0,0,1,.26-.26h2.382a.234.234,0,0,1,.26.26v13.068a1.355,1.355,0,0,0,.58,1.175,2.617,2.617,0,0,0,1.557.412h.427a.993.993,0,0,1,.763.275,1.4,1.4,0,0,1,.26.947,1.539,1.539,0,0,1-.244,1.023,1.007,1.007,0,0,1-.779.275,5.381,5.381,0,0,1-1.74-.244,2.05,2.05,0,0,1-1.175-1.069,2.02,2.02,0,0,1-1.038,1.008,4.7,4.7,0,0,1-1.832.29h-2.153a1.044,1.044,0,0,1-.763-.244,1.563,1.563,0,0,1-.26-1.069,1.429,1.429,0,0,1,.244-.962,1.007,1.007,0,0,1,.779-.275H102.2Z" transform="translate(24.947 -84.1)" fill="url(#linear-gradient-20)"/>
          <path id="Path_256" data-name="Path 256" d="M106.163,108.169a1.044,1.044,0,0,1-.763-.244,1.407,1.407,0,0,1-.26-.992,1.574,1.574,0,0,1,.244-1.008.96.96,0,0,1,.779-.29h1.252a1.262,1.262,0,0,0,.931-.29,1.493,1.493,0,0,0,.29-1.069V90.98a.234.234,0,0,1,.26-.26h2.382a.234.234,0,0,1,.26.26v13.953a3.618,3.618,0,0,1-.687,2.443,2.958,2.958,0,0,1-2.305.779h-2.382Z" transform="translate(27.691 -84.094)" fill="url(#linear-gradient-21)"/>
          <path id="Path_257" data-name="Path 257" d="M117.917,103.562a3.315,3.315,0,0,0,.366,1.633,2.927,2.927,0,0,0,.931,1.038,3.417,3.417,0,0,0,1.282.534,6.632,6.632,0,0,0,1.466.153h5.114a3.823,3.823,0,0,0,2.046-.4,1.179,1.179,0,0,0,.55-.992,1.017,1.017,0,0,0-.427-.763,9.083,9.083,0,0,0-1.084-.809c-.427-.29-.9-.58-1.4-.916a9.787,9.787,0,0,1-1.4-1.114,5.671,5.671,0,0,1-1.084-1.4,3.655,3.655,0,0,1-.427-1.8A4.356,4.356,0,0,1,124.192,97a4.632,4.632,0,0,1,1.008-1.42,4.912,4.912,0,0,1,1.572-.947,5.92,5.92,0,0,1,2.076-.351,6.266,6.266,0,0,1,2.84.55,5.6,5.6,0,0,1,1.8,1.45c.107.122.076.244-.076.366L132.023,98a.238.238,0,0,1-.366-.031,4.008,4.008,0,0,0-1.16-.84,3.468,3.468,0,0,0-1.511-.29,2.643,2.643,0,0,0-1.557.473,1.594,1.594,0,0,0-.687,1.4,1.686,1.686,0,0,0,.427,1.13,7.8,7.8,0,0,0,1.084,1.008c.443.321.9.656,1.42.992a12.668,12.668,0,0,1,1.4,1.084,5.908,5.908,0,0,1,1.084,1.252,2.854,2.854,0,0,1,.443,1.557,3.641,3.641,0,0,1-.29,1.466,3.143,3.143,0,0,1-.9,1.221,4.458,4.458,0,0,1-1.588.824,8.137,8.137,0,0,1-2.336.29H121.5A7,7,0,0,1,116.543,108a5.5,5.5,0,0,1-1.633-4.183,8.806,8.806,0,0,1,.443-2.778,9.57,9.57,0,0,1,1.084-2.382c.092-.153.214-.168.382-.046l2.076.824q.137.046.137.137a.255.255,0,0,1-.046.2,11.6,11.6,0,0,0-.779,1.679A9,9,0,0,0,117.917,103.562Zm3.389,10.381a.234.234,0,0,1-.26-.26V111.47a.234.234,0,0,1,.26-.26h2.153a.234.234,0,0,1,.26.26v2.214a.234.234,0,0,1-.26.26Zm3.343,0a.234.234,0,0,1-.26-.26V111.47a.234.234,0,0,1,.26-.26H126.8a.234.234,0,0,1,.26.26v2.214a.234.234,0,0,1-.26.26Z" transform="translate(32.836 -82.22)" fill="url(#linear-gradient-22)"/>
          <path id="Path_258" data-name="Path 258" d="M130.855,111.164a.234.234,0,0,1-.26-.26v-2.046a.234.234,0,0,1,.26-.26h3.007a4,4,0,0,0,1.023-.122,1.568,1.568,0,0,0,.717-.4,1.968,1.968,0,0,0,.443-.794,4.487,4.487,0,0,0,.153-1.313h-2.6a7.564,7.564,0,0,1-2.137-.275,3.581,3.581,0,0,1-1.572-.9,4.049,4.049,0,0,1-.992-1.633,7.681,7.681,0,0,1-.351-2.458,7.446,7.446,0,0,1,.443-2.687,4.965,4.965,0,0,1,1.16-1.817,4.281,4.281,0,0,1,1.664-1.023,6.169,6.169,0,0,1,2-.321,7.2,7.2,0,0,1,2.122.305,4.09,4.09,0,0,1,1.649.977,4.516,4.516,0,0,1,1.084,1.74,7.851,7.851,0,0,1,.382,2.641v2.9h1.771a.993.993,0,0,1,.763.275,1.4,1.4,0,0,1,.26.946,1.578,1.578,0,0,1-.244,1.069,1.06,1.06,0,0,1-.779.244h-1.771v.565a4.53,4.53,0,0,1-1.206,3.511,5.042,5.042,0,0,1-3.511,1.1h-3.481Zm2.977-13.724a2.121,2.121,0,0,0-1.8.87,3.754,3.754,0,0,0-.656,2.336,2.9,2.9,0,0,0,.656,2.214,2.733,2.733,0,0,0,1.893.6h2.29v-2.931a3.841,3.841,0,0,0-.565-2.29A2.1,2.1,0,0,0,133.832,97.44Z" transform="translate(40.019 -81.914)" fill="url(#linear-gradient-23)"/>
          <path id="Path_259" data-name="Path 259" d="M142.407,103.516a1.355,1.355,0,0,0,.58,1.175,2.617,2.617,0,0,0,1.557.412h.443a.993.993,0,0,1,.763.275,1.4,1.4,0,0,1,.26.947,1.539,1.539,0,0,1-.244,1.023,1.007,1.007,0,0,1-.779.275,5.38,5.38,0,0,1-1.74-.244,2.05,2.05,0,0,1-1.176-1.069A1.942,1.942,0,0,1,141,107.333a5.5,5.5,0,0,1-1.939.275h-2.03a1.45,1.45,0,0,1-.763-.168c-.168-.107-.26-.351-.26-.733a2.523,2.523,0,0,1,.244-1.145.835.835,0,0,1,.809-.5H138.3a1.677,1.677,0,0,0,.687-.122.808.808,0,0,0,.366-.412,2.336,2.336,0,0,0,.137-.748c.015-.305.031-.687.031-1.13V97.211a.234.234,0,0,1,.26-.26h2.382a.234.234,0,0,1,.26.26v6.3Zm-2.672-9.083a.234.234,0,0,1-.26-.26V91.96a.234.234,0,0,1,.26-.26h2.458a.234.234,0,0,1,.26.26v2.214a.234.234,0,0,1-.26.26Z" transform="translate(43.947 -83.578)" fill="url(#linear-gradient-24)"/>
          <path id="Path_260" data-name="Path 260" d="M148.3,101.694a1.529,1.529,0,0,0,.427,1.206,1.962,1.962,0,0,0,1.343.382,4.348,4.348,0,0,0,1.008-.092.889.889,0,0,0,.55-.366,1.509,1.509,0,0,0,.214-.763c.031-.321.046-.763.046-1.313V97.465a.234.234,0,0,1,.26-.26h2.382a.234.234,0,0,1,.26.26v4.29a1.363,1.363,0,0,0,.489,1.16,2.063,2.063,0,0,0,1.282.366,3.869,3.869,0,0,0,.947-.092.889.889,0,0,0,.55-.366,1.667,1.667,0,0,0,.244-.763c.031-.336.046-.763.046-1.3V95.42a.234.234,0,0,1,.26-.26h2.382a.234.234,0,0,1,.26.26v6.259a1.355,1.355,0,0,0,.58,1.175,2.617,2.617,0,0,0,1.557.412h.443a.993.993,0,0,1,.763.275,1.4,1.4,0,0,1,.26.946,1.529,1.529,0,0,1-.26,1.023.993.993,0,0,1-.763.275,5.221,5.221,0,0,1-1.725-.244,2.07,2.07,0,0,1-1.16-1.069,2.02,2.02,0,0,1-1.038,1.008,4.7,4.7,0,0,1-1.832.29h-1.1a3.134,3.134,0,0,1-1.527-.351,2.321,2.321,0,0,1-.962-.992,2.024,2.024,0,0,1-1.038,1.038,4.7,4.7,0,0,1-1.832.29h-1.13a2.512,2.512,0,0,1-2.488-1.359,2.056,2.056,0,0,1-1.038,1.053,4.667,4.667,0,0,1-1.832.305h-2.778c-.183,0-.366-.015-.519-.031a.713.713,0,0,1-.382-.137.646.646,0,0,1-.229-.351,2.289,2.289,0,0,1-.076-.641,1.773,1.773,0,0,1,.244-1.084.921.921,0,0,1,.779-.305h2.061a1.428,1.428,0,0,0,.7-.137.819.819,0,0,0,.366-.443,2.25,2.25,0,0,0,.122-.779c.015-.321.015-.7.015-1.16V97.4a.234.234,0,0,1,.26-.26h2.382a.234.234,0,0,1,.26.26v4.29Z" transform="translate(46.649 -81.756)" fill="url(#linear-gradient-25)"/>
          <path id="Path_261" data-name="Path 261" d="M156.353,108.169a1.044,1.044,0,0,1-.763-.244,1.407,1.407,0,0,1-.26-.992,1.574,1.574,0,0,1,.244-1.008.96.96,0,0,1,.779-.29H157.6a1.262,1.262,0,0,0,.931-.29,1.493,1.493,0,0,0,.29-1.069V90.98a.234.234,0,0,1,.26-.26h2.382a.234.234,0,0,1,.26.26v13.953a3.618,3.618,0,0,1-.687,2.443,2.958,2.958,0,0,1-2.305.779h-2.382Z" transform="translate(54.122 -84.094)" fill="url(#linear-gradient-26)"/>
          <path id="Path_262" data-name="Path 262" d="M164.611,107.915a.234.234,0,0,1-.26.26H161.97a.234.234,0,0,1-.26-.26V90.97a.234.234,0,0,1,.26-.26h2.382a.234.234,0,0,1,.26.26Z" transform="translate(57.481 -84.1)" fill="url(#linear-gradient-27)"/>
          <path id="Path_263" data-name="Path 263" d="M170.921,100.743c.092-.153.214-.168.382-.046l2.076.824q.137.046.137.137a.255.255,0,0,1-.046.2,11.6,11.6,0,0,0-.779,1.679,5.9,5.9,0,0,0-.366,2.122,3.923,3.923,0,0,0,.321,1.679,3.005,3.005,0,0,0,.824,1.084,2.891,2.891,0,0,0,1.114.58,4.782,4.782,0,0,0,1.206.168,3.5,3.5,0,0,0,2.382-.779,3.2,3.2,0,0,0,.9-2.534V98.24a.234.234,0,0,1,.26-.26h2.382a.234.234,0,0,1,.26.26v7.694a6.938,6.938,0,0,1-.443,2.565,4.961,4.961,0,0,1-1.282,1.832,5.222,5.222,0,0,1-1.985,1.084,8.541,8.541,0,0,1-2.565.351,8.7,8.7,0,0,1-2.5-.351,5.563,5.563,0,0,1-1.985-1.084,5.065,5.065,0,0,1-1.328-1.832,6.457,6.457,0,0,1-.473-2.6,8.806,8.806,0,0,1,.443-2.778A10.1,10.1,0,0,1,170.921,100.743Zm4.259-4.061a.234.234,0,0,1-.26-.26V94.21a.234.234,0,0,1,.26-.26h2.458a.234.234,0,0,1,.26.26v2.214a.234.234,0,0,1-.26.26Z" transform="translate(61.536 -82.394)" fill="url(#linear-gradient-28)"/>
          <path id="Path_264" data-name="Path 264" d="M179.77,90.97a.234.234,0,0,1,.26-.26h2.382a.234.234,0,0,1,.26.26v13.3a1.493,1.493,0,0,0,.29,1.069,1.262,1.262,0,0,0,.931.29h.9a.947.947,0,0,1,.763.29,1.566,1.566,0,0,1,.26,1.008c0,.534-.076.87-.244,1.008a1.13,1.13,0,0,1-.779.214h-2.03a2.936,2.936,0,0,1-2.305-.779,3.646,3.646,0,0,1-.687-2.443Z" transform="translate(66.992 -84.1)" fill="url(#linear-gradient-29)"/>
          <path id="Path_265" data-name="Path 265" d="M183.413,105.994a.947.947,0,0,1-.763-.29,1.517,1.517,0,0,1-.26-.992,1.491,1.491,0,0,1,.244-1.008,1,1,0,0,1,.779-.26h6.824a4.243,4.243,0,0,0,1.084-.107,1.12,1.12,0,0,0,.641-.366,1.3,1.3,0,0,0,.305-.687,6.574,6.574,0,0,0,.076-1.038,6.9,6.9,0,0,0-.153-1.527,3.4,3.4,0,0,0-.519-1.221,2.47,2.47,0,0,0-.931-.794,3.356,3.356,0,0,0-1.45-.29,3.411,3.411,0,0,0-1.542.336,4.432,4.432,0,0,0-1.237.9.235.235,0,0,1-.351.031l-1.328-1.389q-.206-.206-.046-.366a6.679,6.679,0,0,1,1.893-1.481,5.794,5.794,0,0,1,2.7-.6,6.892,6.892,0,0,1,2.87.519,4.719,4.719,0,0,1,1.847,1.42,5.554,5.554,0,0,1,.992,2.046,9.982,9.982,0,0,1,.29,2.473,8.679,8.679,0,0,1-.26,2.29,3.323,3.323,0,0,1-.763,1.42,2.654,2.654,0,0,1-1.252.733,6.7,6.7,0,0,1-1.756.2h-7.938Zm5.1,4.87a.234.234,0,0,1-.26-.26v-2.214a.234.234,0,0,1,.26-.26h2.458a.234.234,0,0,1,.26.26V110.6a.234.234,0,0,1-.26.26Z" transform="translate(68.372 -81.92)" fill="url(#linear-gradient-30)"/>
          <path id="Path_266" data-name="Path 266" d="M194.609,95.43a.234.234,0,0,1,.26-.26h2.382a.234.234,0,0,1,.26.26v6.259a1.355,1.355,0,0,0,.58,1.175,2.617,2.617,0,0,0,1.557.412h.443a.993.993,0,0,1,.763.275,1.4,1.4,0,0,1,.26.947,1.539,1.539,0,0,1-.244,1.023,1.007,1.007,0,0,1-.779.275,6.1,6.1,0,0,1-1.5-.153,2.032,2.032,0,0,1-1.069-.687v.489a11.4,11.4,0,0,1-.229,2.427,4.367,4.367,0,0,1-.763,1.725,3.233,3.233,0,0,1-1.4,1.038,5.88,5.88,0,0,1-2.153.351h-.946a.234.234,0,0,1-.26-.26v-2.046a.234.234,0,0,1,.26-.26h.565a2.214,2.214,0,0,0,1.16-.26,1.438,1.438,0,0,0,.6-.763,4.343,4.343,0,0,0,.229-1.206c.031-.473.046-1.008.046-1.633V95.43Z" transform="translate(73.311 -81.751)" fill="url(#linear-gradient-31)"/>
          <path id="Path_267" data-name="Path 267" d="M196.54,104.7a1.491,1.491,0,0,1,.244-1.008,1,1,0,0,1,.779-.26h2.519V100.5a6.78,6.78,0,0,1,.443-2.641,4.8,4.8,0,0,1,1.145-1.74,4.272,4.272,0,0,1,1.649-.962,6.347,6.347,0,0,1,1.939-.29,7.382,7.382,0,0,1,2.137.29,4.479,4.479,0,0,1,1.679.916,4.061,4.061,0,0,1,1.1,1.6,6.449,6.449,0,0,1,.4,2.366,6.814,6.814,0,0,1-.275,1.924,5.952,5.952,0,0,1-.611,1.466h2.611a1.038,1.038,0,0,1,.779.26,1.464,1.464,0,0,1,.244,1.008,1.546,1.546,0,0,1-.26.992.947.947,0,0,1-.763.29h-2.488a2.929,2.929,0,0,1,.534,1.8A3.11,3.11,0,0,1,209,110.5a6.322,6.322,0,0,1-3.664.946,10.128,10.128,0,0,1-2.137-.214,5.06,5.06,0,0,1-1.649-.687,3.216,3.216,0,0,1-1.069-1.237,4.17,4.17,0,0,1-.366-1.832v-1.5h-2.519Q196.54,105.984,196.54,104.7Zm8.732-7.267a2.19,2.19,0,0,0-1.71.718,3.049,3.049,0,0,0-.626,2.107v3.206h2.534a1.776,1.776,0,0,0,1.008-.275,2.11,2.11,0,0,0,.687-.687,3.125,3.125,0,0,0,.4-.977,4.7,4.7,0,0,0,.122-1.145,3.416,3.416,0,0,0-.626-2.214A2.186,2.186,0,0,0,205.272,97.435Zm0,11.526a2.855,2.855,0,0,0,1.71-.382,1.308,1.308,0,0,0,.5-1.1,2.34,2.34,0,0,0-.092-.687.985.985,0,0,0-.366-.5,1.783,1.783,0,0,0-.748-.305,6.462,6.462,0,0,0-1.221-.107h-2.137v1.359C202.936,108.381,203.715,108.961,205.272,108.961Z" transform="translate(75.823 -81.909)" fill="url(#linear-gradient-32)"/>
          <path id="Path_268" data-name="Path 268" d="M209.789,100.335a7.26,7.26,0,0,1,.427-2.534,4.592,4.592,0,0,1,1.1-1.695,4.239,4.239,0,0,1,1.649-.946,6.9,6.9,0,0,1,2.076-.29,7.245,7.245,0,0,1,2.107.305,4.2,4.2,0,0,1,1.679.977,4.382,4.382,0,0,1,1.1,1.771,8.077,8.077,0,0,1,.4,2.672v.443a4.021,4.021,0,0,1-.031.427,2.1,2.1,0,0,0,.5,1.527,1.524,1.524,0,0,0,1.084.443h.748a.993.993,0,0,1,.763.275,1.4,1.4,0,0,1,.26.947,1.539,1.539,0,0,1-.244,1.023,1.007,1.007,0,0,1-.779.275c-.29,0-.6-.015-.916-.031a3.972,3.972,0,0,1-.946-.168,3.425,3.425,0,0,1-.9-.412,2.786,2.786,0,0,1-.763-.763,3.762,3.762,0,0,1-1.725,1.175,7.037,7.037,0,0,1-2.351.366,7.168,7.168,0,0,1-2.305-.351,3.992,3.992,0,0,1-1.725-1.145,2.367,2.367,0,0,1-.611.672,3.219,3.219,0,0,1-.748.4,4.646,4.646,0,0,1-.794.2,7.068,7.068,0,0,1-.779.046h-.9a.947.947,0,0,1-.763-.29,1.517,1.517,0,0,1-.26-.992,1.491,1.491,0,0,1,.244-1.008,1,1,0,0,1,.779-.26h1.008a1.482,1.482,0,0,0,1.1-.5,2.729,2.729,0,0,0,.519-1.832,3.494,3.494,0,0,1-.031-.382A1.046,1.046,0,0,0,209.789,100.335Zm5.252-2.9a2.081,2.081,0,0,0-1.817.794,3.808,3.808,0,0,0-.6,2.305,3.736,3.736,0,0,0,.6,2.366,2.677,2.677,0,0,0,3.664-.015,3.715,3.715,0,0,0,.6-2.351C217.483,98.473,216.674,97.435,215.04,97.435Z" transform="translate(80.879 -81.909)" fill="url(#linear-gradient-33)"/>
          <path id="Path_269" data-name="Path 269" d="M217.283,108.169a1.044,1.044,0,0,1-.763-.244,1.407,1.407,0,0,1-.26-.992,1.574,1.574,0,0,1,.244-1.008.96.96,0,0,1,.779-.29h1.252a1.262,1.262,0,0,0,.931-.29,1.493,1.493,0,0,0,.29-1.069V90.98a.234.234,0,0,1,.26-.26H222.4a.234.234,0,0,1,.26.26v13.953a3.618,3.618,0,0,1-.687,2.443,2.958,2.958,0,0,1-2.305.779h-2.382Z" transform="translate(86.208 -84.094)" fill="url(#linear-gradient-34)"/>
          <path id="Path_270" data-name="Path 270" d="M225.541,107.915a.234.234,0,0,1-.26.26H222.9a.234.234,0,0,1-.26-.26V90.97a.234.234,0,0,1,.26-.26h2.382a.234.234,0,0,1,.26.26Z" transform="translate(89.568 -84.1)" fill="url(#linear-gradient-35)"/>
        </g>
        <g id="Group_321" data-name="Group 321" transform="translate(120.404 61.736)">
          <path id="Path_299" data-name="Path 299" d="M97,136.08l.183-2.336.137-2.916.092-2.9v-.992c.5.015.962.015,1.4.015.321,0,.763,0,1.3-.015s.992-.015,1.389-.015a10.772,10.772,0,0,1,1.466.092,3.79,3.79,0,0,1,1.175.351,3.064,3.064,0,0,1,.87.641,4.163,4.163,0,0,1,.611.855,4.5,4.5,0,0,1,.351,1.053,6.055,6.055,0,0,1,.122,1.191,6.3,6.3,0,0,1-.4,2.2,4.081,4.081,0,0,1-1.191,1.725,3.738,3.738,0,0,1-1.756.87,11.7,11.7,0,0,1-2.183.2L98.3,136.08C98.145,136.064,97.7,136.08,97,136.08Zm2.061-1.42c.366.015.733.031,1.084.031a8.7,8.7,0,0,0,1.13-.061,5.827,5.827,0,0,0,.9-.183,2.746,2.746,0,0,0,1.389-1.221,3.308,3.308,0,0,0,.366-.962,5.129,5.129,0,0,0,.122-1.084,3.481,3.481,0,0,0-.336-1.649,2.129,2.129,0,0,0-.9-.931,4.088,4.088,0,0,0-1.725-.29c-.5,0-1.084.015-1.74.031Z" transform="translate(-97 -126.767)" fill="url(#linear-gradient-36)"/>
          <path id="Path_300" data-name="Path 300" d="M110.614,135.274c-.4-.015-.7-.015-.9-.015-.26,0-.565,0-.9.015l.015-1.114a4.5,4.5,0,0,1-.336.458,1.994,1.994,0,0,1-.366.336,1.966,1.966,0,0,1-.5.26,4.972,4.972,0,0,1-.611.168,3.747,3.747,0,0,1-.733.061,3.817,3.817,0,0,1-1.313-.214,2.048,2.048,0,0,1-.885-.656,2.127,2.127,0,0,1-.321-1.267v-.137l.107-1.725.107-2.275v-.687c.427.015.763.015.992.015.26,0,.565,0,.931-.015l-.229,3.053c-.015.244-.031.443-.031.6,0,.168-.015.275-.015.351a2.082,2.082,0,0,0,.137.809.93.93,0,0,0,.5.489,1.856,1.856,0,0,0,.763.168,1.705,1.705,0,0,0,.733-.153,1.369,1.369,0,0,0,.534-.382,2.068,2.068,0,0,0,.382-.656,3.1,3.1,0,0,0,.168-.824c.031-.244.061-.672.092-1.267.031-.718.061-1.466.076-2.214.443.015.779.015,1.008.015.26,0,.565,0,.9-.015-.061.641-.107,1.435-.168,2.4s-.092,1.756-.122,2.382C110.645,133.854,110.614,134.526,110.614,135.274Z" transform="translate(-93.44 -125.962)" fill="url(#linear-gradient-37)"/>
          <path id="Path_301" data-name="Path 301" d="M109.34,136.08c.076-.855.168-2.32.275-4.427.092-2.107.153-3.679.153-4.733.4.015.748.015,1.023.015.29,0,.6,0,.931-.015q-.115.939-.183,2.382c.443-.092.794-.137,1.053-.168a6.593,6.593,0,0,1,.763-.046,4.074,4.074,0,0,1,1.771.336,2.6,2.6,0,0,1,1.16,1.1,3.735,3.735,0,0,1,.443,1.862,5.342,5.342,0,0,1-.214,1.481,4.247,4.247,0,0,1-.656,1.282,2.618,2.618,0,0,1-1.053.824,3.246,3.246,0,0,1-1.343.26,2.858,2.858,0,0,1-.641-.061,2.9,2.9,0,0,1-.55-.183,1.851,1.851,0,0,1-.443-.29,2.117,2.117,0,0,1-.321-.321,5.242,5.242,0,0,1-.305-.443l-.031,1.145c-.366-.015-.656-.015-.87-.015C110.134,136.064,109.813,136.08,109.34,136.08Zm2.076-5.4-.061,1.145c-.015.244-.015.489-.015.718a4.286,4.286,0,0,0,.168,1.313,1.418,1.418,0,0,0,.58.748,1.728,1.728,0,0,0,.916.26,1.605,1.605,0,0,0,.962-.305,1.79,1.79,0,0,0,.626-.87,3.6,3.6,0,0,0,.214-1.221,2.219,2.219,0,0,0-.489-1.481,1.77,1.77,0,0,0-1.435-.55,4.866,4.866,0,0,0-.641.046C112.027,130.523,111.752,130.584,111.416,130.675Z" transform="translate(-90.502 -126.767)" fill="url(#linear-gradient-38)"/>
          <path id="Path_302" data-name="Path 302" d="M115.586,130c.061-.321.107-.55.122-.672s.046-.321.092-.6c.611-.137,1.145-.244,1.6-.305a10.281,10.281,0,0,1,1.343-.092,5.427,5.427,0,0,1,1.359.168,1.978,1.978,0,0,1,.962.55,1.568,1.568,0,0,1,.351,1.084c0,.26-.031.9-.107,1.954-.076,1.038-.107,2.122-.122,3.236-.336-.015-.656-.015-.947-.015-.275,0-.6,0-.962.015q.092-.8.137-1.878l.092-1.664c-.168.107-.305.183-.382.229a1.154,1.154,0,0,1-.305.122,5.959,5.959,0,0,1-.6.168c-.275.076-.5.153-.672.2a3.178,3.178,0,0,0-.458.2,1.58,1.58,0,0,0-.351.244.707.707,0,0,0-.2.29.8.8,0,0,0-.061.321.789.789,0,0,0,.168.489.886.886,0,0,0,.412.29,1.724,1.724,0,0,0,.58.076c.137,0,.29-.015.458-.031a3.338,3.338,0,0,0,.641-.168c-.092.26-.2.641-.336,1.145a6.875,6.875,0,0,1-.763.107c-.183.015-.366.015-.519.015a3.618,3.618,0,0,1-1.389-.229,1.623,1.623,0,0,1-.809-.717,2.2,2.2,0,0,1-.26-1.008,1.482,1.482,0,0,1,.107-.565,2.158,2.158,0,0,1,.29-.519,3.008,3.008,0,0,1,.5-.458,3.417,3.417,0,0,1,.885-.427,12.5,12.5,0,0,1,1.542-.412,3.94,3.94,0,0,0,.534-.137,2.9,2.9,0,0,0,.443-.153,1.161,1.161,0,0,0,.29-.183.931.931,0,0,0,.183-.244.8.8,0,0,0,.061-.26.665.665,0,0,0-.168-.443.976.976,0,0,0-.443-.26,2.443,2.443,0,0,0-.6-.076A8.39,8.39,0,0,0,115.586,130Z" transform="translate(-87.695 -126.02)" fill="url(#linear-gradient-39)"/>
          <path id="Path_303" data-name="Path 303" d="M120.04,136.111c.061-.672.122-1.237.137-1.679.046-.718.092-1.542.122-2.473s.061-1.817.076-2.656c.443.015.763.015.977.015.2,0,.519,0,.977-.015-.061.779-.107,1.527-.137,2.229s-.061,1.511-.076,2.427-.031,1.633-.031,2.168c-.412-.015-.733-.015-.977-.015C120.849,136.1,120.5,136.111,120.04,136.111Zm.366-7.984c.015-.458.031-.809.031-1.053v-.214c.412.015.733.015.992.015.351,0,.672,0,.977-.015-.015.107-.015.244-.031.382l-.031.885c-.336,0-.656-.015-.947-.015S120.773,128.112,120.406,128.127Z" transform="translate(-84.867 -126.799)" fill="url(#linear-gradient-40)"/>
          <path id="Path_304" data-name="Path 304" d="M124.67,136.127c.015-.168.015-.305.015-.412l.046-.977c.565-.5,1.069-.977,1.527-1.45s.931-.962,1.42-1.5.84-.962,1.1-1.282a3.546,3.546,0,0,0,.4-.6c.061-.137.107-.244.137-.336a1.683,1.683,0,0,0,.031-.275.805.805,0,0,0-.229-.6,1.589,1.589,0,0,0-.611-.366,2.66,2.66,0,0,0-.9-.137,8.3,8.3,0,0,0-1.023.076,11.648,11.648,0,0,0-1.42.305l.122-.672c.031-.168.061-.427.122-.809a17.142,17.142,0,0,1,2.977-.275,6.694,6.694,0,0,1,1.252.122,3.221,3.221,0,0,1,1.084.427,1.846,1.846,0,0,1,.687.687,1.745,1.745,0,0,1,.214.824,2.811,2.811,0,0,1-.046.5,2.01,2.01,0,0,1-.137.458,6.585,6.585,0,0,1-.458.84,13.746,13.746,0,0,1-.87,1.13c-.4.473-.824.947-1.3,1.435s-.992,1.008-1.557,1.542h2.107c.5,0,.855,0,1.1-.015.229-.015.5-.031.84-.061-.015.137-.031.321-.046.534-.015.229-.046.519-.076.885-1.023-.015-2.076-.015-3.16-.015C126.685,136.112,125.571,136.127,124.67,136.127Z" transform="translate(-82.429 -126.815)" fill="url(#linear-gradient-41)"/>
          <path id="Path_305" data-name="Path 305" d="M133.982,126.82a3.453,3.453,0,0,1,1.817.458,3.064,3.064,0,0,1,1.176,1.45,5.805,5.805,0,0,1,.412,2.336,9.043,9.043,0,0,1-.26,2.107,5.059,5.059,0,0,1-.7,1.71,2.959,2.959,0,0,1-1.237,1.038,3.911,3.911,0,0,1-1.679.366,3.26,3.26,0,0,1-1.527-.336,2.946,2.946,0,0,1-1.1-.931,3.81,3.81,0,0,1-.6-1.343,7.339,7.339,0,0,1-.168-1.542,9.23,9.23,0,0,1,.26-2.153,5.379,5.379,0,0,1,.733-1.771,2.894,2.894,0,0,1,1.252-1.053A3.942,3.942,0,0,1,133.982,126.82Zm-.046,1.389a1.2,1.2,0,0,0-.5.107,1.356,1.356,0,0,0-.473.336,2.261,2.261,0,0,0-.382.534,3.505,3.505,0,0,0-.275.748,7.242,7.242,0,0,0-.2,1.053,11.2,11.2,0,0,0-.076,1.237,4.941,4.941,0,0,0,.183,1.481,1.837,1.837,0,0,0,.55.885,1.306,1.306,0,0,0,.84.321,1.15,1.15,0,0,0,.5-.107,1.437,1.437,0,0,0,.5-.4,2.833,2.833,0,0,0,.458-.84,5.718,5.718,0,0,0,.305-1.221,9.77,9.77,0,0,0,.092-1.343,5.463,5.463,0,0,0-.183-1.542,1.977,1.977,0,0,0-.534-.931A1.156,1.156,0,0,0,133.937,128.209Z" transform="translate(-79.559 -126.82)" fill="url(#linear-gradient-42)"/>
          <path id="Path_306" data-name="Path 306" d="M135.65,136.127c.015-.168.015-.305.015-.412l.046-.977c.565-.5,1.069-.977,1.527-1.45s.931-.962,1.42-1.5.84-.962,1.1-1.282a3.545,3.545,0,0,0,.4-.6c.061-.137.107-.244.137-.336a1.683,1.683,0,0,0,.031-.275.805.805,0,0,0-.229-.6,1.589,1.589,0,0,0-.611-.366,2.661,2.661,0,0,0-.9-.137,8.3,8.3,0,0,0-1.023.076,11.646,11.646,0,0,0-1.42.305l.122-.672c.031-.168.061-.427.122-.809a17.141,17.141,0,0,1,2.977-.275,6.694,6.694,0,0,1,1.252.122,3.221,3.221,0,0,1,1.084.427,1.846,1.846,0,0,1,.687.687,1.746,1.746,0,0,1,.214.824,2.811,2.811,0,0,1-.046.5,2.01,2.01,0,0,1-.137.458,6.585,6.585,0,0,1-.458.84,13.753,13.753,0,0,1-.87,1.13c-.4.473-.824.947-1.3,1.435s-.992,1.008-1.557,1.542h2.107c.5,0,.855,0,1.1-.015.229-.015.5-.031.84-.061-.015.137-.031.321-.046.534-.015.229-.046.519-.076.885-1.023-.015-2.076-.015-3.16-.015C137.665,136.112,136.551,136.127,135.65,136.127Z" transform="translate(-76.646 -126.815)" fill="url(#linear-gradient-43)"/>
          <path id="Path_307" data-name="Path 307" d="M144.754,136.074c.092-.9.137-1.817.168-2.763h-1.359l-2.473.046a6.867,6.867,0,0,0,.046-.748c.015-.443.031-.748.031-.9l.5-.641c.122-.168.321-.427.58-.779l1.45-1.985c.137-.2.275-.382.412-.6.137-.2.305-.458.519-.779.534.015.992.015,1.343.015.336,0,.733,0,1.175-.015-.137,1.908-.214,3.572-.244,4.977h1.466c-.015.351-.015.748-.015,1.206v.229c-.275-.015-.779-.015-1.5-.015-.015.2-.031.4-.031.565s-.015.473-.015.9-.015.733-.015.916v.382c-.351-.015-.672-.015-.992-.015C145.517,136.059,145.166,136.074,144.754,136.074Zm.427-4.107c.015-.26.015-.412.015-.443l.122-3.252c-.687.992-1.13,1.618-1.343,1.908l-1.3,1.786Z" transform="translate(-73.782 -126.762)" fill="url(#linear-gradient-44)"/>
        </g>
        <line id="Line_20" data-name="Line 20" x2="107.932" transform="translate(204.368 68.102)" fill="none" stroke="#707070" stroke-miterlimit="10" stroke-width="0.5"/>
        <g id="Group_324" data-name="Group 324" transform="translate(0.779 38.349)">
          <g id="Group_320" data-name="Group 320">
            <path id="Path_271" data-name="Path 271" d="M21.937,124.013l.2-2.611.2-3.893.122-3.832h-.626l-.58.015-.55.015-2.061.061c.046-.855.076-1.511.076-1.954,1.71.015,3.511.015,5.389.015l3.206-.015,1.71-.015c-.061.855-.092,1.5-.092,1.954-1.084-.061-2.107-.076-3.1-.076h-.687l-.107,1.633-.26,6.29-.015,1.053c0,.427-.015.885-.015,1.359L23.388,124C23.25,124,22.762,124,21.937,124.013Z" transform="translate(-18.64 -111.342)" fill="#493686"/>
            <path id="Path_272" data-name="Path 272" d="M25.9,124.008l.214-2.9.214-4.152.122-5.145c.519.015.962.015,1.313.015.458,0,.885,0,1.3-.015l-.168,2.122c-.031.519-.092,1.374-.137,2.534a4.993,4.993,0,0,1,.473-.641,3.554,3.554,0,0,1,.427-.4,2.365,2.365,0,0,1,.489-.305c.168-.076.366-.153.58-.229a3.405,3.405,0,0,1,.748-.153,7.492,7.492,0,0,1,.84-.061,6.129,6.129,0,0,1,1.42.168,2.836,2.836,0,0,1,1.175.58,2.165,2.165,0,0,1,.687.946,3.5,3.5,0,0,1,.183,1.13c0,.26-.015.656-.046,1.206l-.214,3.908c-.015.412-.031.87-.031,1.4-.489-.015-.9-.015-1.282-.015-.4,0-.855,0-1.374.015.076-.7.168-1.664.244-2.885s.122-2.076.122-2.6a2.183,2.183,0,0,0-.229-1.1,1.505,1.505,0,0,0-.672-.6,2.518,2.518,0,0,0-.962-.2,2.634,2.634,0,0,0-1.191.244,2.06,2.06,0,0,0-.84.7,3.4,3.4,0,0,0-.458,1.1,12.506,12.506,0,0,0-.29,2.32c-.031.5-.061,1.511-.107,2.992-.473-.015-.885-.015-1.221-.015C26.938,123.992,26.48,123.992,25.9,124.008Z" transform="translate(-14.817 -111.337)" fill="#493686"/>
            <path id="Path_273" data-name="Path 273" d="M41.826,120.987c-.076.351-.183.977-.336,1.893a15.8,15.8,0,0,1-1.633.275,12.913,12.913,0,0,1-1.328.076A8.685,8.685,0,0,1,36.437,123a3.768,3.768,0,0,1-1.618-.855,3.65,3.65,0,0,1-1.023-1.527,5.613,5.613,0,0,1-.336-1.893,6.011,6.011,0,0,1,.382-2.137,4.382,4.382,0,0,1,1.084-1.695,3.952,3.952,0,0,1,1.572-.931,6.147,6.147,0,0,1,1.847-.275,6.474,6.474,0,0,1,1.74.229,3.308,3.308,0,0,1,1.389.748,3.584,3.584,0,0,1,.855,1.252,4.244,4.244,0,0,1,.305,1.618,4.442,4.442,0,0,1-.092.87l-6.549.015c-.015.214-.015.4-.015.534a2.873,2.873,0,0,0,.2,1.1,2.4,2.4,0,0,0,.6.855,2.479,2.479,0,0,0,.946.519,3.318,3.318,0,0,0,1.069.168,7.292,7.292,0,0,0,1.343-.137A14.985,14.985,0,0,0,41.826,120.987Zm-5.786-3.618,4.183.015a5.367,5.367,0,0,0-.031-.626,2.409,2.409,0,0,0-.122-.473,1.491,1.491,0,0,0-.26-.458,1.345,1.345,0,0,0-.382-.336,1.512,1.512,0,0,0-.5-.2,2.571,2.571,0,0,0-.611-.076,2.457,2.457,0,0,0-.733.122,1.982,1.982,0,0,0-.641.336,2.093,2.093,0,0,0-.473.5,2.545,2.545,0,0,0-.275.534C36.162,116.865,36.1,117.094,36.04,117.369Z" transform="translate(-10.836 -110.347)" fill="#493686"/>
            <path id="Path_274" data-name="Path 274" d="M42.39,124.013c.626-1.1,1.343-2.458,2.183-4.076l2.351-4.519c.733-1.389,1.343-2.611,1.832-3.618.779.015,1.328.015,1.649.015.565,0,1.114,0,1.664-.015l1.282,3.664,2.778,7.572.382.977L55.168,124c-.305,0-.824,0-1.557.015-.137-.534-.366-1.252-.672-2.153s-.565-1.633-.779-2.2h-4.7c-.7,1.42-1.374,2.87-2.03,4.336l-1.466-.015C43.657,124,43.153,124,42.39,124.013Zm5.832-6.2h3.435l-1.4-4.137-.718,1.511Z" transform="translate(-6.133 -111.342)" fill="#493686"/>
            <path id="Path_275" data-name="Path 275" d="M52.34,123.007c.137-1.359.244-2.87.336-4.565s.137-3.206.153-4.534c.55.015.992.015,1.313.015.382,0,.794,0,1.237-.015l-.107,1.527a7.014,7.014,0,0,1,.489-.626,3.32,3.32,0,0,1,.534-.458A2.331,2.331,0,0,1,57,114a5.892,5.892,0,0,1,.824-.214,6.463,6.463,0,0,1,.962-.076,5.583,5.583,0,0,1,1.527.2,2.644,2.644,0,0,1,1.175.641,2.3,2.3,0,0,1,.6.962,3.744,3.744,0,0,1,.137,1.1c0,.168-.015.412-.031.763L62,121.282c-.031.55-.046,1.114-.046,1.74-.473-.015-.87-.015-1.206-.015-.458,0-.916,0-1.374.015.046-.519.107-1.42.183-2.717s.107-2.153.107-2.565a2.352,2.352,0,0,0-.229-1.13,1.589,1.589,0,0,0-.687-.656,2.268,2.268,0,0,0-1.008-.229,2.525,2.525,0,0,0-1.008.2,2.232,2.232,0,0,0-.809.6,2.612,2.612,0,0,0-.55.992,8.963,8.963,0,0,0-.305,2.061c-.061.855-.107,2-.137,3.42-.458-.015-.87-.015-1.252-.015C53.332,122.992,52.874,122.992,52.34,123.007Z" transform="translate(-0.893 -110.336)" fill="#493686"/>
            <path id="Path_276" data-name="Path 276" d="M60.02,123.007c.137-1.359.244-2.87.336-4.565s.137-3.206.153-4.534c.55.015.992.015,1.313.015.382,0,.794,0,1.237-.015l-.107,1.527a7.014,7.014,0,0,1,.489-.626,3.319,3.319,0,0,1,.534-.458,2.331,2.331,0,0,1,.7-.351,5.891,5.891,0,0,1,.824-.214,6.463,6.463,0,0,1,.962-.076,5.583,5.583,0,0,1,1.527.2,2.644,2.644,0,0,1,1.175.641,2.3,2.3,0,0,1,.6.962,3.744,3.744,0,0,1,.137,1.1c0,.168-.015.412-.031.763l-.183,3.908c-.031.55-.046,1.114-.046,1.74-.473-.015-.87-.015-1.206-.015-.458,0-.916,0-1.374.015.046-.519.107-1.42.183-2.717s.107-2.153.107-2.565a2.352,2.352,0,0,0-.229-1.13,1.589,1.589,0,0,0-.687-.656,2.268,2.268,0,0,0-1.008-.229,2.525,2.525,0,0,0-1.008.2,2.232,2.232,0,0,0-.809.6,2.612,2.612,0,0,0-.55.992,8.963,8.963,0,0,0-.305,2.061c-.061.855-.107,2-.137,3.42-.458-.015-.87-.015-1.252-.015C61.012,122.992,60.554,122.992,60.02,123.007Z" transform="translate(3.151 -110.336)" fill="#493686"/>
            <path id="Path_277" data-name="Path 277" d="M76.939,122.939c-.519-.015-.931-.015-1.206-.015-.351,0-.748,0-1.206.015l.015-1.481c-.168.244-.321.458-.443.611a2.321,2.321,0,0,1-.489.443,3.382,3.382,0,0,1-.656.351,4.589,4.589,0,0,1-.824.214,5.171,5.171,0,0,1-.977.092,4.618,4.618,0,0,1-1.74-.29,2.649,2.649,0,0,1-1.175-.885,2.838,2.838,0,0,1-.427-1.695v-.183l.137-2.305.137-3.038c0-.244.015-.55.015-.916.565.015,1.008.015,1.328.015.336,0,.748,0,1.237-.015l-.29,4.076c-.015.321-.031.58-.046.794s-.015.382-.015.473a2.475,2.475,0,0,0,.2,1.069,1.257,1.257,0,0,0,.672.641,2.449,2.449,0,0,0,2,.031,2.179,2.179,0,0,0,.717-.5,2.615,2.615,0,0,0,.5-.87,4.018,4.018,0,0,0,.229-1.084c.046-.321.076-.885.122-1.695.046-.962.076-1.954.107-2.946.6.015,1.038.015,1.359.015.351,0,.748,0,1.191-.015-.076.855-.153,1.924-.229,3.191-.076,1.282-.122,2.336-.153,3.16S76.954,121.946,76.939,122.939Z" transform="translate(7.254 -110.268)" fill="#493686"/>
            <path id="Path_278" data-name="Path 278" d="M76.117,115.914c.076-.427.137-.733.153-.9s.061-.443.107-.794c.809-.183,1.527-.321,2.153-.4a14.878,14.878,0,0,1,1.8-.122,6.688,6.688,0,0,1,1.8.229,2.638,2.638,0,0,1,1.282.733,2.051,2.051,0,0,1,.458,1.435c0,.336-.046,1.206-.137,2.6s-.153,2.824-.168,4.32C83.108,123,82.7,123,82.315,123c-.366,0-.794,0-1.282.015.076-.718.137-1.557.183-2.5l.122-2.229a5.537,5.537,0,0,1-.519.321,3.1,3.1,0,0,1-.4.168c-.137.046-.412.122-.794.229s-.672.2-.9.275a4.594,4.594,0,0,0-.611.26,1.779,1.779,0,0,0-.458.336,1.27,1.27,0,0,0-.275.382,1.024,1.024,0,0,0-.092.427,1.014,1.014,0,0,0,.214.641,1.279,1.279,0,0,0,.55.382,2.34,2.34,0,0,0,.779.107,4.438,4.438,0,0,0,.611-.046,4.856,4.856,0,0,0,.855-.229,15.231,15.231,0,0,0-.443,1.527,9.455,9.455,0,0,1-1.008.137c-.244.015-.489.031-.7.031a4.858,4.858,0,0,1-1.847-.305,2.062,2.062,0,0,1-1.069-.962,2.881,2.881,0,0,1-.351-1.328,2.241,2.241,0,0,1,.137-.763,2.072,2.072,0,0,1,.4-.687,3.773,3.773,0,0,1,.672-.611,4.837,4.837,0,0,1,1.191-.565,17.312,17.312,0,0,1,2.061-.55c.229-.046.458-.107.7-.168a3.572,3.572,0,0,0,.58-.2,1.3,1.3,0,0,0,.382-.26,1.489,1.489,0,0,0,.244-.321.7.7,0,0,0,.076-.351.856.856,0,0,0-.229-.6,1.153,1.153,0,0,0-.6-.336,3.238,3.238,0,0,0-.794-.092A9.9,9.9,0,0,0,76.117,115.914Z" transform="translate(10.977 -110.341)" fill="#493686"/>
            <path id="Path_279" data-name="Path 279" d="M82.05,124.013c.092-1.008.2-2.824.321-5.435s.2-4.87.229-6.778c.626.015,1.069.015,1.328.015.351,0,.779,0,1.282-.015L85,115.067l-.305,7.282-.031,1.664c-.489-.015-.9-.015-1.252-.015C83.3,124,82.859,124,82.05,124.013Z" transform="translate(14.753 -111.342)" fill="#493686"/>
            <path id="Path_280" data-name="Path 280" d="M88.34,124.018c.107-1.175.183-2.107.214-2.824.061-1.191.137-2.885.214-5.1.061-1.633.076-2.794.076-3.465v-.824c1.71.015,3.206.015,4.488.015l2.5-.015,1.5-.015c-.061.885-.107,1.527-.107,1.939l-1.282-.046-.519-.015H93.363l-1.847.015-.107,3.206,1.527.031c1.16,0,1.893,0,2.229-.015l1.221-.015c-.046.687-.061,1.328-.076,1.893-1.038-.031-1.862-.031-2.473-.031-.779,0-1.618.015-2.519.031l-.092,3.954-.015.809V124l-1.374-.015C89.76,124,89.271,124,88.34,124.018Z" transform="translate(18.065 -111.347)" fill="#493686"/>
            <path id="Path_281" data-name="Path 281" d="M103.3,120.987c-.076.351-.183.977-.336,1.893a15.8,15.8,0,0,1-1.633.275,12.913,12.913,0,0,1-1.328.076A8.685,8.685,0,0,1,97.907,123a3.768,3.768,0,0,1-1.618-.855,3.65,3.65,0,0,1-1.023-1.527,5.613,5.613,0,0,1-.336-1.893,6.011,6.011,0,0,1,.382-2.137A4.382,4.382,0,0,1,96.4,114.9a3.952,3.952,0,0,1,1.572-.931,6.147,6.147,0,0,1,1.847-.275,6.474,6.474,0,0,1,1.74.229,3.308,3.308,0,0,1,1.389.748,3.584,3.584,0,0,1,.855,1.252,4.244,4.244,0,0,1,.305,1.618,4.441,4.441,0,0,1-.092.87l-6.549.015c-.015.214-.015.4-.015.534a2.873,2.873,0,0,0,.2,1.1,2.4,2.4,0,0,0,.6.855,2.479,2.479,0,0,0,.947.519,3.318,3.318,0,0,0,1.069.168,7.292,7.292,0,0,0,1.343-.137A14.153,14.153,0,0,0,103.3,120.987Zm-5.786-3.618,4.183.015a5.37,5.37,0,0,0-.031-.626,2.408,2.408,0,0,0-.122-.473,1.491,1.491,0,0,0-.26-.458,1.345,1.345,0,0,0-.382-.336,1.512,1.512,0,0,0-.5-.2,2.572,2.572,0,0,0-.611-.076,2.457,2.457,0,0,0-.733.122,1.982,1.982,0,0,0-.641.336,2.092,2.092,0,0,0-.473.5,2.545,2.545,0,0,0-.275.534C97.632,116.865,97.571,117.094,97.51,117.369Z" transform="translate(21.535 -110.347)" fill="#493686"/>
            <path id="Path_282" data-name="Path 282" d="M101.728,122.834l-.2-1.969a11.361,11.361,0,0,0,1.481.5,4.271,4.271,0,0,0,1.114.137,2.74,2.74,0,0,0,.855-.122,1.014,1.014,0,0,0,.519-.351.867.867,0,0,0,.168-.5.94.94,0,0,0-.015-.214,1.059,1.059,0,0,0-.076-.2.777.777,0,0,0-.137-.2,2.8,2.8,0,0,0-.214-.214c-.092-.076-.214-.183-.382-.305l-.489-.382c-.458-.366-.824-.656-1.069-.855a3.979,3.979,0,0,1-.611-.641,2.539,2.539,0,0,1-.382-.687,2.052,2.052,0,0,1-.122-.733,2.165,2.165,0,0,1,.4-1.237,2.35,2.35,0,0,1,1.16-.87,5.229,5.229,0,0,1,1.786-.275,15.556,15.556,0,0,1,2.7.275l.122,1.862a5.42,5.42,0,0,0-2-.427,3.169,3.169,0,0,0-.9.107,1.064,1.064,0,0,0-.565.321.694.694,0,0,0-.168.473.728.728,0,0,0,.061.305,1.08,1.08,0,0,0,.183.305,2.882,2.882,0,0,0,.305.305c.107.092.366.29.733.565s.687.534.977.763a4.164,4.164,0,0,1,.687.687,2.5,2.5,0,0,1,.412.733,2.414,2.414,0,0,1,.137.794,2.074,2.074,0,0,1-.412,1.237,2.669,2.669,0,0,1-1.237.9,5.125,5.125,0,0,1-1.862.321,11.625,11.625,0,0,1-1.313-.092A14.859,14.859,0,0,1,101.728,122.834Z" transform="translate(25.011 -110.331)" fill="#493686"/>
            <path id="Path_283" data-name="Path 283" d="M112.784,121.819c-.076.321-.183.931-.336,1.832-.5.107-.9.183-1.175.214a7.4,7.4,0,0,1-.809.046,5.6,5.6,0,0,1-1.191-.122,1.818,1.818,0,0,1-.87-.443,1.54,1.54,0,0,1-.458-.748,3.441,3.441,0,0,1-.122-.885,2.727,2.727,0,0,1,.015-.321c.015-.137.031-.55.076-1.267l.2-3.725H106.83c.031-.351.061-.931.076-1.725h1.343c.031-.351.076-.931.107-1.756l1.053-.2c.229-.046.641-.137,1.282-.29-.046.809-.061,1.557-.076,2.259h2.275c-.046.809-.061,1.374-.061,1.725h-2.275q-.183,3.641-.183,4.213a2.476,2.476,0,0,0,.122.855.844.844,0,0,0,.382.443,1.206,1.206,0,0,0,.58.137c.153,0,.305-.015.473-.031A8.32,8.32,0,0,0,112.784,121.819Z" transform="translate(27.802 -111.01)" fill="#493686"/>
            <path id="Path_284" data-name="Path 284" d="M111.54,124.066q.137-1.351.183-2.244c.061-.947.107-2.061.153-3.3.046-1.252.076-2.427.092-3.557.58.015,1.023.015,1.313.015.26,0,.7,0,1.3-.015-.076,1.038-.153,2.03-.2,2.977s-.092,2.015-.107,3.236-.031,2.183-.031,2.885c-.55-.015-.977-.015-1.313-.015C112.624,124.05,112.166,124.05,111.54,124.066Zm.489-10.656c.031-.611.031-1.084.031-1.42v-.29c.55.015.977.015,1.328.015.458,0,.9,0,1.3-.015a4.965,4.965,0,0,0-.031.5l-.046,1.191c-.458-.015-.87-.015-1.252-.015S112.532,113.395,112.029,113.41Z" transform="translate(30.282 -111.395)" fill="#493686"/>
            <path id="Path_285" data-name="Path 285" d="M117.435,122.944q-.6-1.878-3.175-9.1c.519.015.977.015,1.359.015.412,0,.824,0,1.252-.015l2.091,6.824.29-.779,2.015-5.114c.092-.244.214-.55.366-.947.489.015.916.015,1.3.015s.824,0,1.328-.015l-1.45,3.16-2.107,4.778-.473,1.16c-.534-.015-.992-.015-1.343-.015C118.458,122.929,117.985,122.929,117.435,122.944Z" transform="translate(31.715 -110.273)" fill="#493686"/>
            <path id="Path_286" data-name="Path 286" d="M122.087,115.914c.076-.427.137-.733.153-.9s.061-.443.107-.794c.809-.183,1.527-.321,2.153-.4a14.878,14.878,0,0,1,1.8-.122,6.688,6.688,0,0,1,1.8.229,2.638,2.638,0,0,1,1.282.733,2.051,2.051,0,0,1,.458,1.435c0,.336-.046,1.206-.137,2.6s-.153,2.824-.168,4.32c-.458-.015-.87-.015-1.252-.015-.366,0-.794,0-1.282.015.076-.718.137-1.557.183-2.5l.122-2.229a5.54,5.54,0,0,1-.519.321,3.1,3.1,0,0,1-.4.168c-.137.046-.412.122-.794.229s-.672.2-.9.275a4.594,4.594,0,0,0-.611.26,1.779,1.779,0,0,0-.458.336,1.27,1.27,0,0,0-.275.382,1.024,1.024,0,0,0-.092.427,1.014,1.014,0,0,0,.214.641,1.279,1.279,0,0,0,.55.382,2.34,2.34,0,0,0,.779.107,4.438,4.438,0,0,0,.611-.046,4.856,4.856,0,0,0,.855-.229,15.235,15.235,0,0,0-.443,1.527,9.455,9.455,0,0,1-1.008.137c-.244.015-.489.031-.7.031a4.858,4.858,0,0,1-1.847-.305,2.062,2.062,0,0,1-1.069-.962,2.881,2.881,0,0,1-.351-1.328,2.24,2.24,0,0,1,.137-.763,2.071,2.071,0,0,1,.4-.687,3.773,3.773,0,0,1,.672-.611,4.837,4.837,0,0,1,1.191-.565,17.312,17.312,0,0,1,2.061-.55c.229-.046.458-.107.7-.168a3.573,3.573,0,0,0,.58-.2,1.3,1.3,0,0,0,.382-.26,1.49,1.49,0,0,0,.244-.321.7.7,0,0,0,.076-.351.856.856,0,0,0-.229-.6,1.153,1.153,0,0,0-.6-.336,3.238,3.238,0,0,0-.794-.092A9.835,9.835,0,0,0,122.087,115.914Z" transform="translate(35.185 -110.341)" fill="#493686"/>
            <path id="Path_287" data-name="Path 287" d="M128.01,124.013c.092-1.008.2-2.824.321-5.435s.2-4.87.229-6.778c.626.015,1.069.015,1.328.015.351,0,.779,0,1.282-.015l-.214,3.267-.305,7.282-.031,1.664c-.489-.015-.9-.015-1.252-.015C129.277,124,128.819,124,128.01,124.013Z" transform="translate(38.956 -111.342)" fill="#493686"/>
            <path id="Path_288" data-name="Path 288" d="M139.165,113.7a6.481,6.481,0,0,1,1.969.305,4.16,4.16,0,0,1,1.6.916,3.958,3.958,0,0,1,.992,1.481,4.939,4.939,0,0,1,.336,1.832,5.693,5.693,0,0,1-.351,1.969,4.8,4.8,0,0,1-1.008,1.649,4.006,4.006,0,0,1-1.649,1.038,6.354,6.354,0,0,1-2.107.351,6.481,6.481,0,0,1-1.969-.305,4.188,4.188,0,0,1-1.6-.931,4.051,4.051,0,0,1-1.008-1.5,5.03,5.03,0,0,1-.351-1.847,5.516,5.516,0,0,1,.321-1.878,4.389,4.389,0,0,1,.977-1.588,4.506,4.506,0,0,1,1.71-1.084A6.108,6.108,0,0,1,139.165,113.7Zm0,1.847a2.535,2.535,0,0,0-1.389.382,2.345,2.345,0,0,0-.916,1.13,4.44,4.44,0,0,0-.305,1.633,3.636,3.636,0,0,0,.244,1.389,2.025,2.025,0,0,0,.809.977,2.383,2.383,0,0,0,1.328.382,2.449,2.449,0,0,0,1.374-.382,2.334,2.334,0,0,0,.885-1.145,4.484,4.484,0,0,0,.305-1.664,3.759,3.759,0,0,0-.229-1.343,1.965,1.965,0,0,0-.779-.977A2.311,2.311,0,0,0,139.165,115.547Z" transform="translate(42.121 -110.341)" fill="#493686"/>
            <path id="Path_289" data-name="Path 289" d="M142.073,124.171l.107-1.481.275-5.816H141.34c.015-.183.031-.473.061-.87s.031-.7.046-.885h1.221v-.351a11.389,11.389,0,0,1,.076-1.466,1.826,1.826,0,0,1,.305-.824,2.188,2.188,0,0,1,.611-.565,2.383,2.383,0,0,1,.87-.321,5.17,5.17,0,0,1,.977-.092,8.369,8.369,0,0,1,2.153.29c.015.672.046,1.237.092,1.71a4.914,4.914,0,0,0-1.572-.305,1.754,1.754,0,0,0-.5.061,1.268,1.268,0,0,0-.382.183.8.8,0,0,0-.244.305,1.677,1.677,0,0,0-.137.443,3.416,3.416,0,0,0-.031.58v.336h2.275c-.031.412-.076.992-.107,1.756H144.9c-.122,2.366-.2,4.809-.26,7.3-.534-.015-.977-.015-1.3-.015C143.019,124.156,142.592,124.156,142.073,124.171Z" transform="translate(45.976 -111.5)" fill="#493686"/>
            <path id="Path_290" data-name="Path 290" d="M147.77,124.013c.626-1.1,1.343-2.458,2.183-4.076l2.351-4.519c.733-1.389,1.343-2.611,1.832-3.618.779.015,1.328.015,1.649.015.565,0,1.114,0,1.664-.015l1.282,3.664,2.778,7.572.382.977L160.548,124c-.305,0-.824,0-1.557.015-.137-.534-.366-1.252-.672-2.153s-.565-1.633-.779-2.2h-4.7c-.7,1.42-1.374,2.87-2.03,4.336l-1.466-.015C149.037,124,148.533,124,147.77,124.013Zm5.847-6.2h3.435l-1.4-4.137-.718,1.511Z" transform="translate(49.362 -111.342)" fill="#493686"/>
            <path id="Path_291" data-name="Path 291" d="M157.75,123.012l.26-4.244.076-2.473c.015-.5.015-1.023.015-1.527,0-.092,0-.366-.015-.855.55.015.962.015,1.221.015.305,0,.7,0,1.206-.015l-.046,1.267a6.015,6.015,0,0,1,.58-.718,2.919,2.919,0,0,1,.534-.412,2.366,2.366,0,0,1,.672-.26A3.042,3.042,0,0,1,163,113.7a3.011,3.011,0,0,1,.733.092c0,.55.031,1.252.076,2.107a3.838,3.838,0,0,0-.962-.137,2.4,2.4,0,0,0-.916.153,2.172,2.172,0,0,0-.718.473,2.572,2.572,0,0,0-.519.779,3.494,3.494,0,0,0-.244.977c-.046.305-.092.84-.122,1.588s-.046,1.5-.046,2.214c0,.275.015.626.031,1.053-.458-.015-.87-.015-1.252-.015C158.712,123,158.269,123,157.75,123.012Z" transform="translate(54.617 -110.341)" fill="#493686"/>
            <path id="Path_292" data-name="Path 292" d="M163.3,115.914c.076-.427.137-.733.153-.9s.061-.443.107-.794c.809-.183,1.527-.321,2.153-.4a14.878,14.878,0,0,1,1.8-.122,6.688,6.688,0,0,1,1.8.229,2.638,2.638,0,0,1,1.282.733,2.051,2.051,0,0,1,.458,1.435c0,.336-.046,1.206-.137,2.6s-.153,2.824-.168,4.32c-.458-.015-.87-.015-1.252-.015-.366,0-.794,0-1.282.015.076-.718.137-1.557.183-2.5l.122-2.229a5.54,5.54,0,0,1-.519.321,3.1,3.1,0,0,1-.4.168c-.137.046-.412.122-.794.229s-.672.2-.9.275a4.593,4.593,0,0,0-.611.26,1.779,1.779,0,0,0-.458.336,1.27,1.27,0,0,0-.275.382,1.025,1.025,0,0,0-.092.427,1.014,1.014,0,0,0,.214.641,1.278,1.278,0,0,0,.55.382,2.34,2.34,0,0,0,.779.107,4.437,4.437,0,0,0,.611-.046,4.855,4.855,0,0,0,.855-.229,15.234,15.234,0,0,0-.443,1.527,9.455,9.455,0,0,1-1.008.137c-.244.015-.489.031-.7.031a4.858,4.858,0,0,1-1.847-.305,2.062,2.062,0,0,1-1.069-.962,2.881,2.881,0,0,1-.351-1.328,2.24,2.24,0,0,1,.137-.763,2.072,2.072,0,0,1,.4-.687,3.773,3.773,0,0,1,.672-.611,4.838,4.838,0,0,1,1.191-.565,17.313,17.313,0,0,1,2.061-.55c.229-.046.458-.107.7-.168a3.573,3.573,0,0,0,.58-.2,1.3,1.3,0,0,0,.382-.26,1.49,1.49,0,0,0,.244-.321.7.7,0,0,0,.076-.351.856.856,0,0,0-.229-.6,1.153,1.153,0,0,0-.6-.336,3.238,3.238,0,0,0-.794-.092A9.9,9.9,0,0,0,163.3,115.914Z" transform="translate(56.887 -110.341)" fill="#493686"/>
            <path id="Path_293" data-name="Path 293" d="M169.23,124.013c.107-1.13.229-3.1.351-5.908s.2-4.9.2-6.3c.534.015.992.015,1.374.015s.794,0,1.237-.015c-.107.84-.183,1.908-.244,3.191.58-.107,1.053-.183,1.389-.229a7.666,7.666,0,0,1,1.023-.061,5.742,5.742,0,0,1,2.366.443,3.318,3.318,0,0,1,1.542,1.466,5.04,5.04,0,0,1,.58,2.488,6.644,6.644,0,0,1-.29,1.985,5.48,5.48,0,0,1-.87,1.71,3.374,3.374,0,0,1-1.4,1.1,4.6,4.6,0,0,1-1.786.351,3.8,3.8,0,0,1-1.588-.336,2.344,2.344,0,0,1-.6-.382,2.975,2.975,0,0,1-.443-.427,3.885,3.885,0,0,1-.412-.6l-.046,1.527c-.489-.015-.87-.015-1.16-.015C170.283,124,169.856,124,169.23,124.013Zm2.763-7.206-.076,1.527c-.015.321-.031.641-.031.962a5.432,5.432,0,0,0,.229,1.756,1.879,1.879,0,0,0,.779.992,2.239,2.239,0,0,0,1.221.351,2.167,2.167,0,0,0,1.282-.4,2.5,2.5,0,0,0,.84-1.16,4.467,4.467,0,0,0,.29-1.618,2.844,2.844,0,0,0-.656-1.969,2.387,2.387,0,0,0-1.908-.748,5.5,5.5,0,0,0-.855.061A9.523,9.523,0,0,0,171.993,116.807Z" transform="translate(60.663 -111.342)" fill="#493686"/>
            <path id="Path_294" data-name="Path 294" d="M183.7,124.013c-1.466-4.107-2.977-8.167-4.549-12.213.58.015,1.038.015,1.389.015.4,0,.855,0,1.389-.015l2.5,7.4,1.053,2.916c.229-.443.565-1.145,1.023-2.122s.779-1.695.977-2.153c-.275-.84-.626-1.847-1.038-3.023-.427-1.191-.794-2.183-1.1-3.007.5.015.946.015,1.328.015.427,0,.87,0,1.328-.015.275,1.084.6,2.153.931,3.206q.756-1.626,1.374-3.206c.519.015.931.015,1.252.015.366,0,.779,0,1.252-.015q-.572,1.145-1.42,2.931c-.565,1.191-1.023,2.183-1.359,2.962.137.427.382,1.16.733,2.183.366,1.023.626,1.756.794,2.168l2.4-5.114,1.74-3.832.58-1.313c.58.015,1.038.015,1.374.015.382,0,.84,0,1.389-.015l-1.679,3.343-3.511,7.206-.794,1.664c-.641-.015-1.191-.015-1.633-.015-.473,0-1.023,0-1.649.015-.351-1.206-.748-2.382-1.16-3.542-.565,1.16-1.1,2.336-1.6,3.542-.641-.015-1.191-.015-1.649-.015C184.86,124,184.31,124,183.7,124.013Z" transform="translate(65.887 -111.342)" fill="#493686"/>
            <path id="Path_295" data-name="Path 295" d="M197.295,113.7a6.481,6.481,0,0,1,1.969.305,4.16,4.16,0,0,1,1.6.916,3.958,3.958,0,0,1,.992,1.481,4.939,4.939,0,0,1,.336,1.832,5.692,5.692,0,0,1-.351,1.969,4.8,4.8,0,0,1-1.008,1.649,4.006,4.006,0,0,1-1.649,1.038,6.354,6.354,0,0,1-2.107.351,6.481,6.481,0,0,1-1.969-.305,4.189,4.189,0,0,1-1.6-.931,4.051,4.051,0,0,1-1.008-1.5,5.03,5.03,0,0,1-.351-1.847,5.516,5.516,0,0,1,.321-1.878,4.388,4.388,0,0,1,.977-1.588,4.506,4.506,0,0,1,1.71-1.084A6.108,6.108,0,0,1,197.295,113.7Zm0,1.847a2.535,2.535,0,0,0-1.389.382,2.345,2.345,0,0,0-.916,1.13,4.44,4.44,0,0,0-.305,1.633,3.636,3.636,0,0,0,.244,1.389,2.025,2.025,0,0,0,.809.977,2.383,2.383,0,0,0,1.328.382,2.449,2.449,0,0,0,1.374-.382,2.334,2.334,0,0,0,.885-1.145,4.484,4.484,0,0,0,.305-1.664,3.758,3.758,0,0,0-.229-1.343,1.965,1.965,0,0,0-.779-.977A2.311,2.311,0,0,0,197.295,115.547Z" transform="translate(72.733 -110.341)" fill="#493686"/>
            <path id="Path_296" data-name="Path 296" d="M199.74,123.018c.076-1.008.168-2.534.26-4.549s.137-3.526.137-4.549c.5.015.916.015,1.237.015.366,0,.763,0,1.176-.015l-.061,1.435a7.96,7.96,0,0,1,.519-.687,2.524,2.524,0,0,1,.611-.489,3.35,3.35,0,0,1,.885-.351,3.944,3.944,0,0,1,1.038-.122,4.208,4.208,0,0,1,.779.076,3.279,3.279,0,0,1,.687.214,2.252,2.252,0,0,1,.534.321,1.768,1.768,0,0,1,.366.4,4.666,4.666,0,0,1,.336.641c.137-.214.26-.382.366-.519a2.381,2.381,0,0,1,.443-.427,2.75,2.75,0,0,1,.611-.382,3.728,3.728,0,0,1,.763-.244,4.146,4.146,0,0,1,.885-.092,4.227,4.227,0,0,1,1.466.26,2.247,2.247,0,0,1,1.084.809,2.305,2.305,0,0,1,.4,1.359c0,.29-.015.7-.061,1.267-.046.55-.092,1.466-.153,2.717s-.092,2.229-.092,2.916c-.443-.015-.824-.015-1.16-.015-.4,0-.855,0-1.389.015.061-.763.107-1.572.153-2.412l.107-2.046c.031-.519.046-.962.046-1.313a1.808,1.808,0,0,0-.2-.962,1.24,1.24,0,0,0-.5-.473,1.7,1.7,0,0,0-.7-.137,1.659,1.659,0,0,0-.733.153,1.8,1.8,0,0,0-.611.489,2.341,2.341,0,0,0-.427.794,6.357,6.357,0,0,0-.229,1.267c-.046.55-.092,1.267-.122,2.153l-.061,2.488c-.489-.015-.9-.015-1.237-.015s-.763,0-1.313.015c.046-.458.107-1.4.183-2.824s.122-2.382.122-2.87a2.878,2.878,0,0,0-.061-.672,1.279,1.279,0,0,0-.26-.519,1.237,1.237,0,0,0-.443-.366,1.427,1.427,0,0,0-.6-.122,1.641,1.641,0,0,0-1.1.412,2.263,2.263,0,0,0-.687,1.1,11.876,11.876,0,0,0-.321,2.672c-.061,1.313-.092,2.382-.092,3.16-.55-.015-.962-.015-1.237-.015C200.748,123,200.3,123,199.74,123.018Z" transform="translate(76.73 -110.347)" fill="#493686"/>
            <path id="Path_297" data-name="Path 297" d="M218.656,120.987c-.076.351-.183.977-.336,1.893a15.8,15.8,0,0,1-1.633.275,12.912,12.912,0,0,1-1.328.076,8.685,8.685,0,0,1-2.091-.229,3.768,3.768,0,0,1-1.618-.855,3.65,3.65,0,0,1-1.023-1.527,5.614,5.614,0,0,1-.336-1.893,6.012,6.012,0,0,1,.382-2.137,4.381,4.381,0,0,1,1.084-1.695,3.952,3.952,0,0,1,1.572-.931,6.147,6.147,0,0,1,1.847-.275,6.475,6.475,0,0,1,1.74.229,3.308,3.308,0,0,1,1.389.748,3.584,3.584,0,0,1,.855,1.252,4.244,4.244,0,0,1,.305,1.618,4.442,4.442,0,0,1-.092.87l-6.549.015c-.015.214-.015.4-.015.534a2.872,2.872,0,0,0,.2,1.1,2.4,2.4,0,0,0,.6.855,2.48,2.48,0,0,0,.947.519,3.318,3.318,0,0,0,1.069.168,7.292,7.292,0,0,0,1.343-.137A14.153,14.153,0,0,0,218.656,120.987Zm-5.771-3.618,4.183.015a5.371,5.371,0,0,0-.031-.626,2.408,2.408,0,0,0-.122-.473,1.491,1.491,0,0,0-.26-.458,1.345,1.345,0,0,0-.382-.336,1.512,1.512,0,0,0-.5-.2,2.572,2.572,0,0,0-.611-.076,2.457,2.457,0,0,0-.733.122,1.982,1.982,0,0,0-.641.336,2.093,2.093,0,0,0-.473.5,2.546,2.546,0,0,0-.275.534C213.007,116.865,212.946,117.094,212.885,117.369Z" transform="translate(82.286 -110.347)" fill="#493686"/>
            <path id="Path_298" data-name="Path 298" d="M217.14,123.007c.137-1.359.244-2.87.336-4.565s.137-3.206.153-4.534c.55.015.992.015,1.313.015.382,0,.794,0,1.237-.015l-.107,1.527a7.008,7.008,0,0,1,.489-.626,3.32,3.32,0,0,1,.534-.458,2.331,2.331,0,0,1,.7-.351,5.893,5.893,0,0,1,.824-.214,6.463,6.463,0,0,1,.962-.076,5.583,5.583,0,0,1,1.527.2,2.644,2.644,0,0,1,1.175.641,2.3,2.3,0,0,1,.6.962,3.745,3.745,0,0,1,.137,1.1c0,.168-.015.412-.031.763l-.183,3.908c-.031.55-.046,1.114-.046,1.74-.473-.015-.87-.015-1.206-.015-.458,0-.916,0-1.374.015.046-.519.107-1.42.183-2.717s.107-2.153.107-2.565a2.352,2.352,0,0,0-.229-1.13,1.589,1.589,0,0,0-.687-.656,2.268,2.268,0,0,0-1.008-.229,2.525,2.525,0,0,0-1.008.2,2.232,2.232,0,0,0-.809.6,2.612,2.612,0,0,0-.55.992,8.961,8.961,0,0,0-.305,2.061c-.061.855-.107,2-.137,3.42-.458-.015-.87-.015-1.252-.015C218.132,122.992,217.674,122.992,217.14,123.007Z" transform="translate(85.893 -110.336)" fill="#493686"/>
          </g>
          <line id="Line_21" data-name="Line 21" x2="107.932" transform="translate(3.649 29.754)" fill="none" stroke="#707070" stroke-miterlimit="10" stroke-width="0.5"/>
        </g>
      </g>
    </g>
  </g>
</svg>
