<svg xmlns="http://www.w3.org/2000/svg" xmlns:xlink="http://www.w3.org/1999/xlink" width="460.333" height="337.257" viewBox="0 0 460.333 337.257">
  <defs>
    <linearGradient id="linear-gradient" x1="0.5" y1="1" x2="0.5" gradientUnits="objectBoundingBox">
      <stop offset="0.001" stop-color="#674696"/>
      <stop offset="0.999" stop-color="#a1569d"/>
    </linearGradient>
    <linearGradient id="linear-gradient-2" x1="0.5" y1="1" x2="0.5" y2="0" xlink:href="#linear-gradient"/>
    <linearGradient id="linear-gradient-3" x1="0.5" y1="1" x2="0.5" y2="0" xlink:href="#linear-gradient"/>
    <linearGradient id="linear-gradient-4" x1="0.5" y1="1" x2="0.5" y2="0" xlink:href="#linear-gradient"/>
    <linearGradient id="linear-gradient-5" x1="-4.676" y1="1.822" x2="24.673" y2="-5.578" xlink:href="#linear-gradient"/>
    <linearGradient id="linear-gradient-6" x1="-14.686" y1="9.861" x2="65.666" y2="-39.716" xlink:href="#linear-gradient"/>
    <linearGradient id="linear-gradient-7" x1="-15.245" y1="10.207" x2="65.108" y2="-39.37" xlink:href="#linear-gradient"/>
    <linearGradient id="linear-gradient-8" x1="-15.806" y1="10.552" x2="64.546" y2="-39.025" xlink:href="#linear-gradient"/>
    <linearGradient id="linear-gradient-9" x1="-16.367" y1="10.898" x2="63.985" y2="-38.679" xlink:href="#linear-gradient"/>
    <linearGradient id="linear-gradient-10" x1="-8.142" y1="2.325" x2="30.446" y2="-5.743" xlink:href="#linear-gradient"/>
    <linearGradient id="linear-gradient-11" x1="-14.483" y1="2.459" x2="48.418" y2="-5.633" xlink:href="#linear-gradient"/>
    <linearGradient id="linear-gradient-12" x1="-10.722" y1="2.531" x2="32.343" y2="-5.413" xlink:href="#linear-gradient"/>
    <linearGradient id="linear-gradient-13" x1="-6.537" y1="3.821" x2="18.071" y2="-7.515" xlink:href="#linear-gradient"/>
    <linearGradient id="linear-gradient-14" x1="-18.99" y1="2.744" x2="43.911" y2="-4.456" xlink:href="#linear-gradient"/>
    <linearGradient id="linear-gradient-15" x1="-45.02" y1="2.861" x2="93.694" y2="-4.333" xlink:href="#linear-gradient"/>
    <linearGradient id="linear-gradient-16" x1="-13.326" y1="3.314" x2="24.76" y2="-4.479" xlink:href="#linear-gradient"/>
    <linearGradient id="linear-gradient-17" x1="-26.656" y1="2.53" x2="43.438" y2="-2.688" xlink:href="#linear-gradient"/>
    <linearGradient id="linear-gradient-18" x1="-16.698" y1="3.633" x2="26.367" y2="-4.311" xlink:href="#linear-gradient"/>
    <linearGradient id="linear-gradient-19" x1="-9.293" y1="5.346" x2="13.705" y2="-5.821" xlink:href="#linear-gradient"/>
    <linearGradient id="linear-gradient-20" x1="-17.835" y1="3.806" x2="22.463" y2="-3.4" xlink:href="#linear-gradient"/>
    <linearGradient id="linear-gradient-21" x1="-29.007" y1="3.89" x2="33.894" y2="-3.31" xlink:href="#linear-gradient"/>
    <linearGradient id="linear-gradient-22" x1="-10.541" y1="3.818" x2="11.041" y2="-2.571" xlink:href="#linear-gradient"/>
    <linearGradient id="linear-gradient-23" x1="-16.268" y1="4.751" x2="13.99" y2="-2.955" xlink:href="#linear-gradient"/>
    <linearGradient id="linear-gradient-24" x1="-22.806" y1="5.1" x2="17.431" y2="-2.791" xlink:href="#linear-gradient"/>
    <linearGradient id="linear-gradient-25" x1="-9.849" y1="7.862" x2="7.122" y2="-3.962" xlink:href="#linear-gradient"/>
    <linearGradient id="linear-gradient-26" x1="-39.921" y1="5.14" x2="22.98" y2="-2.06" xlink:href="#linear-gradient"/>
    <linearGradient id="linear-gradient-27" x1="-91.172" y1="5.254" x2="47.542" y2="-1.939" xlink:href="#linear-gradient"/>
    <linearGradient id="linear-gradient-28" x1="-21.747" y1="5.407" x2="10.276" y2="-1.645" xlink:href="#linear-gradient"/>
    <linearGradient id="linear-gradient-29" x1="-47.88" y1="5.735" x2="18.674" y2="-1.472" xlink:href="#linear-gradient"/>
    <linearGradient id="linear-gradient-30" x1="-22.407" y1="6.319" x2="8.563" y2="-1.526" xlink:href="#linear-gradient"/>
    <linearGradient id="linear-gradient-31" x1="-32.587" y1="6.564" x2="10.478" y2="-1.38" xlink:href="#linear-gradient"/>
    <linearGradient id="linear-gradient-32" x1="-18.51" y1="6.517" x2="5.471" y2="-1.061" xlink:href="#linear-gradient"/>
    <linearGradient id="linear-gradient-33" x1="-18.526" y1="9.837" x2="4.452" y2="-1.33" xlink:href="#linear-gradient"/>
    <linearGradient id="linear-gradient-34" x1="-53.171" y1="6.657" x2="9.73" y2="-0.544" xlink:href="#linear-gradient"/>
    <linearGradient id="linear-gradient-35" x1="-120.391" y1="6.77" x2="18.322" y2="-0.424" xlink:href="#linear-gradient"/>
    <linearGradient id="linear-gradient-36" x1="-1.844" y1="1.079" x2="12.635" y2="-2.83" xlink:href="#linear-gradient"/>
    <linearGradient id="linear-gradient-37" x1="-3.637" y1="1.64" x2="14.764" y2="-3.489" xlink:href="#linear-gradient"/>
    <linearGradient id="linear-gradient-38" x1="-4.644" y1="1.577" x2="13.186" y2="-2.273" xlink:href="#linear-gradient"/>
    <linearGradient id="linear-gradient-39" x1="-6.15" y1="2.244" x2="13.375" y2="-2.775" xlink:href="#linear-gradient"/>
    <linearGradient id="linear-gradient-40" x1="-20.981" y1="1.992" x2="34.695" y2="-1.877" xlink:href="#linear-gradient"/>
    <linearGradient id="linear-gradient-41" x1="-8.066" y1="2.258" x2="10.9" y2="-1.593" xlink:href="#linear-gradient"/>
    <linearGradient id="linear-gradient-42" x1="-8.779" y1="2.44" x2="9.351" y2="-1.349" xlink:href="#linear-gradient"/>
    <linearGradient id="linear-gradient-43" x1="-10.313" y1="2.714" x2="8.653" y2="-1.137" xlink:href="#linear-gradient"/>
    <linearGradient id="linear-gradient-44" x1="-10.892" y1="2.993" x2="7.2" y2="-0.922" xlink:href="#linear-gradient"/>
  </defs>
  <g id="المهرجان_السنوي_للمرأة_العربية_copy-01" data-name="المهرجان السنوي للمرأة العربية copy-01" transform="translate(0 56.095)">
    <g id="Group_318" data-name="Group 318" transform="translate(124.345 -56.095)">
      <path id="Path_235" data-name="Path 235" d="M272.764,74.318a96.658,96.658,0,0,0-96.132-60.883,95.373,95.373,0,0,0-74.9,44.585,91.868,91.868,0,0,0-6.9,13.238,90.205,90.205,0,0,0-4.715,14.112,91.894,91.894,0,0,0,4.5,57.636,95.347,95.347,0,0,1-.125-56.449,91.458,91.458,0,0,1,55.669-58.978,82.69,82.69,0,0,1,13.3-3.778,84.7,84.7,0,0,1,13.738-1.686,89.977,89.977,0,0,1,87.484,55.419,91.164,91.164,0,0,1-23.042,102.252,94.868,94.868,0,0,1-51.079,23.947A91.3,91.3,0,0,0,244.6,183.22a95.811,95.811,0,0,0,19.826-22.136,93.9,93.9,0,0,0,11.989-27.413A96.913,96.913,0,0,0,272.764,74.318Z" transform="translate(-87.444 6.332)" fill="url(#linear-gradient)"/>
      <path id="Path_236" data-name="Path 236" d="M121.035,158.6c13.644,3.747,32.658,12.8,35.874,2.342s1.873-13.425,7.868-15.33c5.995-1.936-.25-6.088.156-8.586s5.963-.656,6.057-3.372-4.34-3.653-3.4-6.994c.937-3.31,9.554-2.435,10.334-7.056s-10.865-13.894-9.086-21.106c1.748-7.212,4.683-6.681,5.963-15.861.874-6.338.468-17.859-7.087-27.382a52.04,52.04,0,0,0,1.4-7.93,45.9,45.9,0,0,0-.624-12.926,33.458,33.458,0,0,0-4.839-11.708,38.5,38.5,0,0,1,2.31,12.02,46.025,46.025,0,0,1-1.28,11.9,61.615,61.615,0,0,1-10.022,21.387c-9.086,13.113-21.73,23.916-32.221,37.56-5.183,6.838-9.929,14.393-12.707,22.917l-1,3.216c-.281,1.093-.5,2.186-.718,3.278a58.325,58.325,0,0,0-1,6.619,60.5,60.5,0,0,0,.312,13.238,61.17,61.17,0,0,0,8.648,24.447,53.86,53.86,0,0,0,17.859,17.921,64.714,64.714,0,0,1-18.827-38.278A8.9,8.9,0,0,1,121.035,158.6Z" transform="translate(-46.365 26.426)" fill="url(#linear-gradient-2)"/>
      <path id="Path_237" data-name="Path 237" d="M113.817,99.022c4.9-11.24,13.176-21.231,21.449-31.44,4.121-5.12,8.305-10.4,11.989-16.017a73.347,73.347,0,0,0,8.9-18.015c-7.493,11.021-16.954,19.826-26.289,29.193a182.7,182.7,0,0,0-13.582,14.893,82.222,82.222,0,0,0-10.959,17.672,45.585,45.585,0,0,0-1.873,5l-.843,2.56c-.25.843-.437,1.717-.624,2.591l-.562,2.623-.375,2.654-.343,2.654-.125,2.654a61.288,61.288,0,0,0,2.716,20.794,59.778,59.778,0,0,0,9.46,18.39,50.251,50.251,0,0,0,15.174,13.332,67.035,67.035,0,0,1-17.578-33.532A60.406,60.406,0,0,1,113.817,99.022Z" transform="translate(-59.692 49.473)" fill="url(#linear-gradient-3)"/>
      <path id="Path_238" data-name="Path 238" d="M101.247,133.021a87.535,87.535,0,0,1,14.737-36.4C123.6,85.751,133.437,75.979,142.4,65.051a109.187,109.187,0,0,0,12.083-17.609,54.811,54.811,0,0,0,6.432-20.232c-5.12,13.176-14.237,23.323-23.885,33-9.648,9.741-20.169,19.17-28.6,31.128a79.864,79.864,0,0,0-14.393,40.869c-.937,14.456,2,29.161,9.054,41.369A99.245,99.245,0,0,1,101.247,133.021Z" transform="translate(-73.817 36.018)" fill="url(#linear-gradient-4)"/>
      <path id="Path_239" data-name="Path 239" d="M294.556,115.334a113.539,113.539,0,0,0-11.9-44.772A117.673,117.673,0,0,0,253.9,34.032a116,116,0,0,0-40.838-22.2,114.317,114.317,0,0,0-46.146-4.09,116.592,116.592,0,0,0-22.636,4.9,111.789,111.789,0,0,0-21.044,9.46A110.109,110.109,0,0,0,89.49,52.484a121.279,121.279,0,0,1,35.562-27.069,113.042,113.042,0,0,1,163.54,90.356,115.2,115.2,0,0,1-4.34,43.836,120.538,120.538,0,0,1-20.7,39.589,109.985,109.985,0,0,0,24.291-38.4A113.42,113.42,0,0,0,294.556,115.334Z" transform="translate(-83.103 -6.959)" fill="#493686"/>
    </g>
    <g id="Group_323" data-name="Group 323" transform="translate(0 177.124)">
      <g id="Group_319" data-name="Group 319">
        <path id="Path_240" data-name="Path 240" d="M29.236,99.594V97.988a.341.341,0,0,1,.379-.379h3.457a.341.341,0,0,1,.379.379v12.155a2.181,2.181,0,0,0,.424,1.561,1.844,1.844,0,0,0,1.36.424h1.427c1,0,1.494.624,1.494,1.873a2.063,2.063,0,0,1-.357,1.472,1.548,1.548,0,0,1-1.137.357H33.63a5.29,5.29,0,0,1-2.877-.647,3.254,3.254,0,0,1-1.36-2.252,5.412,5.412,0,0,1-1.873,1,7.84,7.84,0,0,1-2.3.335,9.317,9.317,0,0,1-2.765-.4A5.916,5.916,0,0,1,20.2,112.6a6.193,6.193,0,0,1-1.517-2.186,8.12,8.12,0,0,1-.558-3.211,9.163,9.163,0,0,1,.624-3.635,5.92,5.92,0,0,1,1.65-2.342,6.264,6.264,0,0,1,2.342-1.249,10.061,10.061,0,0,1,2.743-.379h3.747Zm-7.159-4.572a.341.341,0,0,1-.379-.379V91.409a.341.341,0,0,1,.379-.379h3.145a.341.341,0,0,1,.379.379v3.234a.341.341,0,0,1-.379.379H22.077Zm3.635,15.544a3.214,3.214,0,0,0,2.654-1.026,4.573,4.573,0,0,0,.87-3.011v-3.189H25.891a3.834,3.834,0,0,0-2.587.825,3.859,3.859,0,0,0-.981,3.033,3.235,3.235,0,0,0,.892,2.542A3.593,3.593,0,0,0,25.713,110.566Zm1.227-15.544a.341.341,0,0,1-.379-.379V91.409a.341.341,0,0,1,.379-.379h3.145a.341.341,0,0,1,.379.379v3.234a.341.341,0,0,1-.379.379H26.939Z" transform="translate(-18.13 -80.66)" fill="url(#linear-gradient-5)"/>
        <path id="Path_241" data-name="Path 241" d="M27.366,104.192a1.22,1.22,0,0,1-1.026-.379,2.494,2.494,0,0,1-.29-1.383,3.035,3.035,0,0,1,.268-1.539,1.185,1.185,0,0,1,1.048-.4h4.5a1.451,1.451,0,0,1,1.115.4,2.146,2.146,0,0,1,.379,1.427,2.2,2.2,0,0,1-.357,1.517,1.548,1.548,0,0,1-1.137.357Z" transform="translate(-8.387 -69.022)" fill="url(#linear-gradient-6)"/>
        <path id="Path_242" data-name="Path 242" d="M29.376,104.192a1.22,1.22,0,0,1-1.026-.379,2.494,2.494,0,0,1-.29-1.383,3.035,3.035,0,0,1,.268-1.539,1.185,1.185,0,0,1,1.048-.4h4.5a1.451,1.451,0,0,1,1.115.4,2.146,2.146,0,0,1,.379,1.427,2.2,2.2,0,0,1-.357,1.517,1.548,1.548,0,0,1-1.137.357Z" transform="translate(-5.914 -69.022)" fill="url(#linear-gradient-7)"/>
        <path id="Path_243" data-name="Path 243" d="M31.4,104.192a1.22,1.22,0,0,1-1.026-.379,2.494,2.494,0,0,1-.29-1.383,3.035,3.035,0,0,1,.268-1.539,1.185,1.185,0,0,1,1.048-.4h4.5a1.451,1.451,0,0,1,1.115.4,2.146,2.146,0,0,1,.379,1.427,2.2,2.2,0,0,1-.357,1.517,1.548,1.548,0,0,1-1.137.357Z" transform="translate(-3.429 -69.022)" fill="url(#linear-gradient-8)"/>
        <path id="Path_244" data-name="Path 244" d="M33.416,104.192a1.22,1.22,0,0,1-1.026-.379,2.494,2.494,0,0,1-.29-1.383,3.035,3.035,0,0,1,.268-1.539,1.185,1.185,0,0,1,1.048-.4h4.5a1.451,1.451,0,0,1,1.115.4,2.146,2.146,0,0,1,.379,1.427,2.2,2.2,0,0,1-.357,1.517,1.548,1.548,0,0,1-1.137.357Z" transform="translate(-0.944 -69.022)" fill="url(#linear-gradient-9)"/>
        <path id="Path_245" data-name="Path 245" d="M43.554,108.819a2.807,2.807,0,0,1-1.583,1.494,8.4,8.4,0,0,1-2.877.4H35.614a1.525,1.525,0,0,1-1.115-.357,2,2,0,0,1-.379-1.405,2.362,2.362,0,0,1,.357-1.517,1.4,1.4,0,0,1,1.137-.424h2.431a2.085,2.085,0,0,0,1.026-.2,1.3,1.3,0,0,0,.535-.647,3.7,3.7,0,0,0,.2-1.115c.022-.446.045-1.026.045-1.695V95.549a.316.316,0,0,1,.2-.312,1.4,1.4,0,0,1,.424-.067H43.71a.341.341,0,0,1,.379.379v9.144a1.98,1.98,0,0,0,.847,1.717,3.823,3.823,0,0,0,2.275.6h.647a1.451,1.451,0,0,1,1.115.4,2.05,2.05,0,0,1,.379,1.383A2.249,2.249,0,0,1,49,110.291a1.471,1.471,0,0,1-1.137.4,7.86,7.86,0,0,1-2.542-.357A2.792,2.792,0,0,1,43.554,108.819Zm-5.843,9.1a.341.341,0,0,1-.379-.379v-3.234a.341.341,0,0,1,.379-.379h3.145a.341.341,0,0,1,.379.379v3.234a.341.341,0,0,1-.379.379Zm4.884,0a.341.341,0,0,1-.379-.379v-3.234a.341.341,0,0,1,.379-.379h3.145a.341.341,0,0,1,.379.379v3.234a.341.341,0,0,1-.379.379Z" transform="translate(1.541 -75.567)" fill="url(#linear-gradient-10)"/>
        <path id="Path_246" data-name="Path 246" d="M41.094,110.737a1.913,1.913,0,0,1-1.115-.268,1.241,1.241,0,0,1-.379-1.048,3.686,3.686,0,0,1,.357-1.673,1.2,1.2,0,0,1,1.137-.736h1.829a1.844,1.844,0,0,0,1.36-.424,2.181,2.181,0,0,0,.424-1.561V95.549a.341.341,0,0,1,.379-.379h3.479a.341.341,0,0,1,.379.379v10.46a5.286,5.286,0,0,1-1,3.568,4.322,4.322,0,0,1-3.368,1.137H41.094Zm3.3,7.114a.341.341,0,0,1-.379-.379v-3.234a.341.341,0,0,1,.379-.379h3.591a.341.341,0,0,1,.379.379v3.234a.341.341,0,0,1-.379.379Z" transform="translate(8.282 -75.567)" fill="url(#linear-gradient-11)"/>
        <path id="Path_247" data-name="Path 247" d="M49.058,95.549a.341.341,0,0,1,.379-.379h3.479a.341.341,0,0,1,.379.379v9.144a1.98,1.98,0,0,0,.847,1.717,3.823,3.823,0,0,0,2.275.6h.647a1.451,1.451,0,0,1,1.115.4,2.05,2.05,0,0,1,.379,1.383,2.249,2.249,0,0,1-.357,1.494,1.471,1.471,0,0,1-1.137.4,8.908,8.908,0,0,1-2.186-.223,2.968,2.968,0,0,1-1.561-1v.714a16.66,16.66,0,0,1-.335,3.546,6.239,6.239,0,0,1-1.115,2.52,4.6,4.6,0,0,1-2.052,1.517,8.59,8.59,0,0,1-3.145.513H45.289a.341.341,0,0,1-.379-.379v-2.988a.341.341,0,0,1,.379-.379h.825a3.29,3.29,0,0,0,1.695-.379,2.1,2.1,0,0,0,.87-1.115,6.346,6.346,0,0,0,.335-1.762c.045-.691.067-1.472.067-2.386V95.549Z" transform="translate(14.814 -75.567)" fill="url(#linear-gradient-12)"/>
        <path id="Path_248" data-name="Path 248" d="M61.666,94.87q4.315,0,6.289,1.606a5.223,5.223,0,0,1,1.985,4.237,6.04,6.04,0,0,1-.357,2.119,8.248,8.248,0,0,1-.914,1.829,9.347,9.347,0,0,1-1.271,1.517,9.779,9.779,0,0,1-1.383,1.115,3.028,3.028,0,0,0,.647.067H72.1a1.316,1.316,0,0,1,1.16.446,2.76,2.76,0,0,1,.312,1.494,2.011,2.011,0,0,1-.357,1.405,1.491,1.491,0,0,1-1.115.357H66.528a13.525,13.525,0,0,1-2.565-.245,6.8,6.8,0,0,1-2.3-.914,8.392,8.392,0,0,1-2.632.914,15.177,15.177,0,0,1-2.476.245h-5.4a1.51,1.51,0,0,1-1.093-.379,1.971,1.971,0,0,1-.379-1.383,3.582,3.582,0,0,1,.245-1.472c.156-.335.58-.491,1.227-.491h4.393c.4,0,.847-.022,1.36-.067a13.038,13.038,0,0,0,1.762-.29,8.574,8.574,0,0,0-.8-2.141,7.772,7.772,0,0,0-1.137-1.583,10.266,10.266,0,0,0-1.36-1.249l-1.472-1.07a1.2,1.2,0,0,1-.468-.535,1.952,1.952,0,0,1-.067-.535V97.5c0-.268.245-.58.714-.892a6.682,6.682,0,0,1,1.873-.87,15.423,15.423,0,0,1,2.654-.647A22.638,22.638,0,0,1,61.666,94.87Zm.558,11.307a12.983,12.983,0,0,0,1.227-.892,8.725,8.725,0,0,0,1.093-1.137,6.089,6.089,0,0,0,.758-1.338,3.688,3.688,0,0,0,.29-1.472A2.233,2.233,0,0,0,64.476,99.2a5.862,5.862,0,0,0-2.832-.6,11.09,11.09,0,0,0-2.609.29,7.254,7.254,0,0,0-1.517.535,10.453,10.453,0,0,1,2.944,2.832A10.792,10.792,0,0,1,62.224,106.177Z" transform="translate(20.695 -75.936)" fill="url(#linear-gradient-13)"/>
        <path id="Path_249" data-name="Path 249" d="M60.574,116.211a1.525,1.525,0,0,1-1.115-.357,2.056,2.056,0,0,1-.379-1.45,2.3,2.3,0,0,1,.357-1.472,1.4,1.4,0,0,1,1.137-.424H62.4a1.844,1.844,0,0,0,1.36-.424,2.181,2.181,0,0,0,.424-1.561V91.1a.341.341,0,0,1,.379-.379h3.479a.341.341,0,0,1,.379.379v20.384a5.286,5.286,0,0,1-1,3.568,4.322,4.322,0,0,1-3.368,1.137H60.574Z" transform="translate(32.246 -81.041)" fill="url(#linear-gradient-14)"/>
        <path id="Path_250" data-name="Path 250" d="M69.707,115.844a.341.341,0,0,1-.379.379H65.849a.341.341,0,0,1-.379-.379V91.089a.341.341,0,0,1,.379-.379h3.479a.341.341,0,0,1,.379.379Z" transform="translate(40.107 -81.053)" fill="url(#linear-gradient-15)"/>
        <path id="Path_251" data-name="Path 251" d="M80.886,115.251a10.6,10.6,0,0,1-3.145-.446,5.911,5.911,0,0,1-2.431-1.427,6.675,6.675,0,0,1-1.583-2.52,10.875,10.875,0,0,1-.558-3.747,11.8,11.8,0,0,1,.58-3.9,6.084,6.084,0,0,1,4.059-4.014,10.363,10.363,0,0,1,3.078-.446,10.583,10.583,0,0,1,3.078.446,6.143,6.143,0,0,1,2.453,1.427,6.4,6.4,0,0,1,1.606,2.587,11.8,11.8,0,0,1,.58,3.9,10.875,10.875,0,0,1-.558,3.747,6.676,6.676,0,0,1-1.583,2.52,6.415,6.415,0,0,1-2.453,1.427A10.069,10.069,0,0,1,80.886,115.251ZM76.939,95.692a.341.341,0,0,1-.379-.379V92.079a.341.341,0,0,1,.379-.379h3.145a.341.341,0,0,1,.379.379v3.234a.341.341,0,0,1-.379.379Zm3.947,6.824a3.125,3.125,0,0,0-2.7,1.16,5.562,5.562,0,0,0-.87,3.368,5.457,5.457,0,0,0,.87,3.457,3.3,3.3,0,0,0,2.676,1.048,3.169,3.169,0,0,0,2.654-1.07,5.428,5.428,0,0,0,.87-3.434C84.41,104.033,83.228,102.516,80.886,102.516Zm.937-6.824a.341.341,0,0,1-.379-.379V92.079a.341.341,0,0,1,.379-.379h3.145a.341.341,0,0,1,.379.379v3.234a.341.341,0,0,1-.379.379Z" transform="translate(49.58 -79.835)" fill="url(#linear-gradient-16)"/>
        <path id="Path_252" data-name="Path 252" d="M82.7,92.268a3.781,3.781,0,0,1-.424-.959,3.98,3.98,0,0,1-.178-1.182,4.456,4.456,0,0,1,.2-1.294,3.265,3.265,0,0,1,.691-1.2,3.633,3.633,0,0,1,1.227-.892,4.116,4.116,0,0,1,1.829-.357,4.274,4.274,0,0,1,1.873.4,3.61,3.61,0,0,1,1.316,1.026q.1.234,0,.335l-.981.937c-.156.134-.268.134-.379.045a4.463,4.463,0,0,0-.825-.624,2.064,2.064,0,0,0-.981-.245,1.764,1.764,0,0,0-1.36.535,1.927,1.927,0,0,0-.491,1.36,2.125,2.125,0,0,0,.4,1.294,3.406,3.406,0,0,0,.8.8h3.791c.156,0,.223.089.223.268V93.9c0,.178-.067.268-.223.268H81.273c-.156,0-.223-.089-.223-.268V92.513c0-.178.067-.268.223-.268H82.7Zm4.795,28.9a.341.341,0,0,1-.379.379H83.637a.341.341,0,0,1-.379-.379V96.416a.341.341,0,0,1,.379-.379h3.479a.341.341,0,0,1,.379.379Z" transform="translate(59.273 -86.38)" fill="url(#linear-gradient-17)"/>
        <path id="Path_253" data-name="Path 253" d="M89.2,95.549a.341.341,0,0,1,.379-.379h3.479a.341.341,0,0,1,.379.379v9.144a1.98,1.98,0,0,0,.847,1.717,3.823,3.823,0,0,0,2.275.6H97.2a1.451,1.451,0,0,1,1.115.4A2.05,2.05,0,0,1,98.7,108.8a2.249,2.249,0,0,1-.357,1.494,1.471,1.471,0,0,1-1.137.4,8.908,8.908,0,0,1-2.186-.223,2.968,2.968,0,0,1-1.561-1v.714a16.661,16.661,0,0,1-.335,3.546,6.38,6.38,0,0,1-1.115,2.52,4.724,4.724,0,0,1-2.052,1.517,8.59,8.59,0,0,1-3.145.513H85.429a.341.341,0,0,1-.379-.379v-2.988a.341.341,0,0,1,.379-.379h.825a3.234,3.234,0,0,0,1.695-.379,2.1,2.1,0,0,0,.87-1.115,6.346,6.346,0,0,0,.335-1.762c.045-.691.067-1.472.067-2.386V95.549Z" transform="translate(64.194 -75.567)" fill="url(#linear-gradient-18)"/>
        <path id="Path_254" data-name="Path 254" d="M95.118,102.854a10.606,10.606,0,0,1,.624-3.7,6.708,6.708,0,0,1,1.606-2.476,6.193,6.193,0,0,1,2.409-1.383,10.074,10.074,0,0,1,3.033-.424,10.583,10.583,0,0,1,3.078.446,6.143,6.143,0,0,1,2.453,1.427,6.4,6.4,0,0,1,1.606,2.587,11.8,11.8,0,0,1,.58,3.9v.647a5.879,5.879,0,0,1-.045.624,3.065,3.065,0,0,0,.736,2.23,2.226,2.226,0,0,0,1.583.647h1.093a1.451,1.451,0,0,1,1.115.4,2.05,2.05,0,0,1,.379,1.383,2.249,2.249,0,0,1-.357,1.494,1.471,1.471,0,0,1-1.137.4c-.424,0-.87-.022-1.338-.045a5.8,5.8,0,0,1-1.383-.245,5,5,0,0,1-1.316-.6,4.071,4.071,0,0,1-1.115-1.115,5.5,5.5,0,0,1-2.52,1.717,10.28,10.28,0,0,1-3.434.535,10.472,10.472,0,0,1-3.368-.513,5.832,5.832,0,0,1-2.52-1.673,3.457,3.457,0,0,1-.892.981,4.7,4.7,0,0,1-1.093.58,6.788,6.788,0,0,1-1.16.29,10.252,10.252,0,0,1-1.115.067H91.3a1.384,1.384,0,0,1-1.115-.424,2.216,2.216,0,0,1-.379-1.45,2.178,2.178,0,0,1,.357-1.472,1.552,1.552,0,0,1,1.137-.379h1.472a2.164,2.164,0,0,0,1.606-.736,3.986,3.986,0,0,0,.758-2.676,5.1,5.1,0,0,1-.045-.558A3.01,3.01,0,0,0,95.118,102.854Zm7.694-4.237a3.039,3.039,0,0,0-2.654,1.16,5.562,5.562,0,0,0-.87,3.368,5.457,5.457,0,0,0,.87,3.457,3.91,3.91,0,0,0,5.352-.022,5.427,5.427,0,0,0,.87-3.434C106.38,100.133,105.176,98.617,102.812,98.617Z" transform="translate(70.05 -75.936)" fill="url(#linear-gradient-19)"/>
        <path id="Path_255" data-name="Path 255" d="M103.253,112.5a1.844,1.844,0,0,0,1.36-.424,2.181,2.181,0,0,0,.424-1.561V91.089a.341.341,0,0,1,.379-.379H108.9a.341.341,0,0,1,.379.379v19.09a1.98,1.98,0,0,0,.847,1.717,3.823,3.823,0,0,0,2.275.6h.624a1.451,1.451,0,0,1,1.115.4,2.05,2.05,0,0,1,.379,1.383,2.249,2.249,0,0,1-.357,1.494,1.471,1.471,0,0,1-1.137.4,7.86,7.86,0,0,1-2.542-.357,3,3,0,0,1-1.717-1.561,2.951,2.951,0,0,1-1.517,1.472,6.858,6.858,0,0,1-2.676.424h-3.145a1.525,1.525,0,0,1-1.115-.357,2.283,2.283,0,0,1-.379-1.561,2.088,2.088,0,0,1,.357-1.405,1.471,1.471,0,0,1,1.137-.4h1.829Z" transform="translate(82.499 -81.053)" fill="url(#linear-gradient-20)"/>
        <path id="Path_256" data-name="Path 256" d="M106.634,116.211a1.525,1.525,0,0,1-1.115-.357,2.056,2.056,0,0,1-.379-1.45,2.3,2.3,0,0,1,.357-1.472,1.4,1.4,0,0,1,1.137-.424h1.829a1.844,1.844,0,0,0,1.36-.424,2.181,2.181,0,0,0,.424-1.561V91.1a.341.341,0,0,1,.379-.379h3.479a.341.341,0,0,1,.379.379v20.384a5.286,5.286,0,0,1-1,3.568,4.322,4.322,0,0,1-3.368,1.137h-3.479Z" transform="translate(88.909 -81.041)" fill="url(#linear-gradient-21)"/>
        <path id="Path_257" data-name="Path 257" d="M119.3,107.84a4.842,4.842,0,0,0,.535,2.386,4.276,4.276,0,0,0,1.36,1.517,4.991,4.991,0,0,0,1.873.781,9.689,9.689,0,0,0,2.141.223h7.471a5.584,5.584,0,0,0,2.988-.58,1.723,1.723,0,0,0,.8-1.45,1.486,1.486,0,0,0-.624-1.115,13.267,13.267,0,0,0-1.583-1.182c-.624-.424-1.316-.847-2.052-1.338a14.3,14.3,0,0,1-2.052-1.628,8.284,8.284,0,0,1-1.583-2.052,5.339,5.339,0,0,1-.624-2.632,6.363,6.363,0,0,1,.513-2.52,6.766,6.766,0,0,1,1.472-2.074,7.176,7.176,0,0,1,2.3-1.383,8.649,8.649,0,0,1,3.033-.513,9.154,9.154,0,0,1,4.148.8,8.177,8.177,0,0,1,2.632,2.119c.156.178.112.357-.112.535l-2.029,1.985a.348.348,0,0,1-.535-.045,5.857,5.857,0,0,0-1.695-1.227,5.066,5.066,0,0,0-2.208-.424,3.862,3.862,0,0,0-2.275.691,2.329,2.329,0,0,0-1,2.052,2.462,2.462,0,0,0,.624,1.65,11.4,11.4,0,0,0,1.583,1.472c.647.468,1.316.959,2.074,1.45a18.51,18.51,0,0,1,2.052,1.583,8.63,8.63,0,0,1,1.583,1.829,4.169,4.169,0,0,1,.647,2.275,5.318,5.318,0,0,1-.424,2.141,4.592,4.592,0,0,1-1.316,1.784,6.512,6.512,0,0,1-2.319,1.2,11.887,11.887,0,0,1-3.412.424h-8.742c-3.256,0-5.665-.758-7.248-2.252a8.028,8.028,0,0,1-2.386-6.111,12.864,12.864,0,0,1,.647-4.059,13.979,13.979,0,0,1,1.583-3.479c.134-.223.312-.245.558-.067l3.033,1.2q.2.067.2.2a.372.372,0,0,1-.067.29,16.941,16.941,0,0,0-1.137,2.453A13.147,13.147,0,0,0,119.3,107.84ZM124.254,123a.341.341,0,0,1-.379-.379v-3.234a.341.341,0,0,1,.379-.379H127.4a.341.341,0,0,1,.379.379v3.234a.341.341,0,0,1-.379.379Zm4.884,0a.341.341,0,0,1-.379-.379v-3.234a.341.341,0,0,1,.379-.379h3.145a.341.341,0,0,1,.379.379v3.234a.341.341,0,0,1-.379.379Z" transform="translate(100.928 -76.662)" fill="url(#linear-gradient-22)"/>
        <path id="Path_258" data-name="Path 258" d="M131.918,118.678a.341.341,0,0,1-.379-.379v-2.988a.341.341,0,0,1,.379-.379h4.393a5.836,5.836,0,0,0,1.494-.178,2.291,2.291,0,0,0,1.048-.58,2.874,2.874,0,0,0,.647-1.16,6.554,6.554,0,0,0,.223-1.918h-3.791a11.05,11.05,0,0,1-3.122-.4,5.231,5.231,0,0,1-2.3-1.316,5.915,5.915,0,0,1-1.45-2.386,11.221,11.221,0,0,1-.513-3.591,10.878,10.878,0,0,1,.647-3.925,7.253,7.253,0,0,1,1.695-2.654,6.254,6.254,0,0,1,2.431-1.494,9.013,9.013,0,0,1,2.922-.468,10.515,10.515,0,0,1,3.1.446,5.975,5.975,0,0,1,2.409,1.427,6.6,6.6,0,0,1,1.583,2.542,11.467,11.467,0,0,1,.558,3.858v4.237h2.587a1.451,1.451,0,0,1,1.115.4,2.05,2.05,0,0,1,.379,1.383,2.3,2.3,0,0,1-.357,1.561,1.548,1.548,0,0,1-1.137.357h-2.587v.825c0,2.342-.58,4.059-1.762,5.129A7.366,7.366,0,0,1,137,118.634h-5.085Zm4.349-20.049a3.1,3.1,0,0,0-2.632,1.271,5.485,5.485,0,0,0-.959,3.412c0,1.583.312,2.654.959,3.234a3.993,3.993,0,0,0,2.765.87h3.345v-4.282a5.611,5.611,0,0,0-.825-3.345A3.066,3.066,0,0,0,136.266,98.629Z" transform="translate(117.707 -75.948)" fill="url(#linear-gradient-23)"/>
        <path id="Path_259" data-name="Path 259" d="M145.354,108.962a1.98,1.98,0,0,0,.847,1.717,3.823,3.823,0,0,0,2.275.6h.647a1.451,1.451,0,0,1,1.115.4,2.05,2.05,0,0,1,.379,1.383,2.249,2.249,0,0,1-.357,1.494,1.471,1.471,0,0,1-1.137.4,7.86,7.86,0,0,1-2.542-.357,3,3,0,0,1-1.717-1.561,2.837,2.837,0,0,1-1.561,1.494,8.037,8.037,0,0,1-2.832.4H137.5a2.119,2.119,0,0,1-1.115-.245c-.245-.156-.379-.513-.379-1.07a3.686,3.686,0,0,1,.357-1.673,1.22,1.22,0,0,1,1.182-.736h1.806a2.451,2.451,0,0,0,1-.178,1.181,1.181,0,0,0,.535-.6,3.412,3.412,0,0,0,.2-1.093c.022-.446.045-1,.045-1.65V99.751a.341.341,0,0,1,.379-.379H145a.341.341,0,0,1,.379.379v9.211Zm-3.9-13.27a.341.341,0,0,1-.379-.379V92.079a.341.341,0,0,1,.379-.379h3.591a.341.341,0,0,1,.379.379v3.234a.341.341,0,0,1-.379.379Z" transform="translate(126.884 -79.835)" fill="url(#linear-gradient-24)"/>
        <path id="Path_260" data-name="Path 260" d="M151.6,104.705a2.233,2.233,0,0,0,.624,1.762,2.866,2.866,0,0,0,1.963.558,6.35,6.35,0,0,0,1.472-.134,1.3,1.3,0,0,0,.8-.535,2.2,2.2,0,0,0,.312-1.115c.045-.468.067-1.115.067-1.918V98.528a.341.341,0,0,1,.379-.379H160.7a.341.341,0,0,1,.379.379v6.267a1.991,1.991,0,0,0,.714,1.695,3.014,3.014,0,0,0,1.873.535,5.65,5.65,0,0,0,1.383-.134,1.3,1.3,0,0,0,.8-.535,2.436,2.436,0,0,0,.357-1.115c.045-.491.067-1.115.067-1.9V95.539a.341.341,0,0,1,.379-.379h3.479a.341.341,0,0,1,.379.379v9.144a1.98,1.98,0,0,0,.847,1.717,3.823,3.823,0,0,0,2.275.6h.647a1.451,1.451,0,0,1,1.115.4,2.05,2.05,0,0,1,.379,1.383,2.233,2.233,0,0,1-.379,1.494,1.451,1.451,0,0,1-1.115.4,7.627,7.627,0,0,1-2.52-.357,3.024,3.024,0,0,1-1.695-1.561,2.951,2.951,0,0,1-1.517,1.472,6.858,6.858,0,0,1-2.676.424h-1.606a4.578,4.578,0,0,1-2.23-.513,3.391,3.391,0,0,1-1.405-1.45,2.957,2.957,0,0,1-1.517,1.517,6.858,6.858,0,0,1-2.676.424h-1.65a3.67,3.67,0,0,1-3.635-1.985,3,3,0,0,1-1.517,1.539,6.818,6.818,0,0,1-2.676.446H142.9c-.268,0-.535-.022-.758-.045a1.042,1.042,0,0,1-.558-.2.944.944,0,0,1-.335-.513,3.343,3.343,0,0,1-.112-.937,2.59,2.59,0,0,1,.357-1.583,1.346,1.346,0,0,1,1.137-.446h3.011a2.086,2.086,0,0,0,1.026-.2,1.2,1.2,0,0,0,.535-.647,3.288,3.288,0,0,0,.178-1.137c.022-.468.022-1.026.022-1.695V98.438a.341.341,0,0,1,.379-.379h3.479a.341.341,0,0,1,.379.379v6.267Z" transform="translate(133.195 -75.579)" fill="url(#linear-gradient-25)"/>
        <path id="Path_261" data-name="Path 261" d="M156.824,116.211a1.525,1.525,0,0,1-1.115-.357,2.056,2.056,0,0,1-.379-1.45,2.3,2.3,0,0,1,.357-1.472,1.4,1.4,0,0,1,1.137-.424h1.829a1.844,1.844,0,0,0,1.36-.424,2.181,2.181,0,0,0,.424-1.561V91.1a.341.341,0,0,1,.379-.379H164.3a.341.341,0,0,1,.379.379v20.384a5.286,5.286,0,0,1-1,3.568,4.322,4.322,0,0,1-3.368,1.137h-3.479Z" transform="translate(150.652 -81.041)" fill="url(#linear-gradient-26)"/>
        <path id="Path_262" data-name="Path 262" d="M165.947,115.844a.341.341,0,0,1-.379.379h-3.479a.341.341,0,0,1-.379-.379V91.089a.341.341,0,0,1,.379-.379h3.479a.341.341,0,0,1,.379.379Z" transform="translate(158.5 -81.053)" fill="url(#linear-gradient-27)"/>
        <path id="Path_263" data-name="Path 263" d="M171.618,103.874c.134-.223.312-.245.558-.067l3.033,1.2q.2.067.2.2a.372.372,0,0,1-.067.29,16.937,16.937,0,0,0-1.137,2.453,8.614,8.614,0,0,0-.535,3.1,5.73,5.73,0,0,0,.468,2.453,4.39,4.39,0,0,0,1.2,1.583,4.223,4.223,0,0,0,1.628.847,6.986,6.986,0,0,0,1.762.245,5.107,5.107,0,0,0,3.479-1.137,4.669,4.669,0,0,0,1.316-3.7V100.217a.341.341,0,0,1,.379-.379h3.479a.341.341,0,0,1,.379.379v11.24a10.136,10.136,0,0,1-.647,3.747,7.248,7.248,0,0,1-1.873,2.676,7.628,7.628,0,0,1-2.9,1.583,12.478,12.478,0,0,1-3.747.513,12.715,12.715,0,0,1-3.658-.513,8.128,8.128,0,0,1-2.9-1.583,7.4,7.4,0,0,1-1.94-2.676,9.433,9.433,0,0,1-.691-3.791,12.865,12.865,0,0,1,.647-4.059A14.753,14.753,0,0,1,171.618,103.874Zm6.222-5.932a.341.341,0,0,1-.379-.379V94.329a.341.341,0,0,1,.379-.379h3.591a.341.341,0,0,1,.379.379v3.234a.341.341,0,0,1-.379.379Z" transform="translate(167.973 -77.067)" fill="url(#linear-gradient-28)"/>
        <path id="Path_264" data-name="Path 264" d="M179.77,91.089a.341.341,0,0,1,.379-.379h3.479a.341.341,0,0,1,.379.379v19.425a2.181,2.181,0,0,0,.424,1.561,1.844,1.844,0,0,0,1.36.424h1.316a1.384,1.384,0,0,1,1.115.424,2.287,2.287,0,0,1,.379,1.472c0,.781-.112,1.271-.357,1.472a1.651,1.651,0,0,1-1.137.312h-2.966a4.289,4.289,0,0,1-3.368-1.137,5.326,5.326,0,0,1-1-3.568Z" transform="translate(180.718 -81.053)" fill="url(#linear-gradient-29)"/>
        <path id="Path_265" data-name="Path 265" d="M183.884,111.13a1.384,1.384,0,0,1-1.115-.424,2.216,2.216,0,0,1-.379-1.45,2.178,2.178,0,0,1,.357-1.472,1.464,1.464,0,0,1,1.137-.379h9.969a6.2,6.2,0,0,0,1.583-.156,1.636,1.636,0,0,0,.937-.535,1.9,1.9,0,0,0,.446-1,9.6,9.6,0,0,0,.112-1.517,10.081,10.081,0,0,0-.223-2.23,4.965,4.965,0,0,0-.758-1.784,3.607,3.607,0,0,0-1.36-1.16,4.9,4.9,0,0,0-2.119-.424,4.983,4.983,0,0,0-2.252.491,6.474,6.474,0,0,0-1.806,1.316.343.343,0,0,1-.513.045l-1.94-2.029q-.3-.3-.067-.535a9.758,9.758,0,0,1,2.765-2.163,8.464,8.464,0,0,1,3.947-.87,10.069,10.069,0,0,1,4.193.758,6.893,6.893,0,0,1,2.7,2.074,8.114,8.114,0,0,1,1.45,2.988,14.583,14.583,0,0,1,.424,3.613,12.678,12.678,0,0,1-.379,3.345,4.854,4.854,0,0,1-1.115,2.074,3.877,3.877,0,0,1-1.829,1.07,9.785,9.785,0,0,1-2.565.29h-11.6Zm7.449,7.114a.341.341,0,0,1-.379-.379v-3.234a.341.341,0,0,1,.379-.379h3.591a.341.341,0,0,1,.379.379v3.234a.341.341,0,0,1-.379.379Z" transform="translate(183.941 -75.96)" fill="url(#linear-gradient-30)"/>
        <path id="Path_266" data-name="Path 266" d="M195.918,95.549a.341.341,0,0,1,.379-.379h3.479a.341.341,0,0,1,.379.379v9.144A1.98,1.98,0,0,0,201,106.41a3.823,3.823,0,0,0,2.275.6h.647a1.451,1.451,0,0,1,1.115.4,2.05,2.05,0,0,1,.379,1.383,2.249,2.249,0,0,1-.357,1.494,1.471,1.471,0,0,1-1.137.4,8.907,8.907,0,0,1-2.186-.223,2.968,2.968,0,0,1-1.561-1v.714a16.662,16.662,0,0,1-.335,3.546,6.38,6.38,0,0,1-1.115,2.52,4.724,4.724,0,0,1-2.052,1.517,8.59,8.59,0,0,1-3.145.513h-1.383a.341.341,0,0,1-.379-.379v-2.988a.341.341,0,0,1,.379-.379h.825a3.234,3.234,0,0,0,1.695-.379,2.1,2.1,0,0,0,.87-1.115,6.345,6.345,0,0,0,.335-1.762c.045-.691.067-1.472.067-2.386V95.549Z" transform="translate(195.48 -75.567)" fill="url(#linear-gradient-31)"/>
        <path id="Path_267" data-name="Path 267" d="M196.54,109.232a2.178,2.178,0,0,1,.357-1.472,1.464,1.464,0,0,1,1.137-.379h3.68V103.1a9.9,9.9,0,0,1,.647-3.858,7.019,7.019,0,0,1,1.673-2.542,6.241,6.241,0,0,1,2.409-1.405,9.272,9.272,0,0,1,2.832-.424,10.784,10.784,0,0,1,3.122.424,6.543,6.543,0,0,1,2.453,1.338,5.931,5.931,0,0,1,1.606,2.342,9.42,9.42,0,0,1,.58,3.457,9.953,9.953,0,0,1-.4,2.81,8.694,8.694,0,0,1-.892,2.141h3.814a1.517,1.517,0,0,1,1.137.379,2.139,2.139,0,0,1,.357,1.472,2.259,2.259,0,0,1-.379,1.45,1.384,1.384,0,0,1-1.115.424H215.92a4.279,4.279,0,0,1,.781,2.632,4.543,4.543,0,0,1-1.963,3.97,9.235,9.235,0,0,1-5.352,1.383,14.8,14.8,0,0,1-3.122-.312,7.392,7.392,0,0,1-2.409-1,4.7,4.7,0,0,1-1.561-1.806,6.091,6.091,0,0,1-.535-2.676v-2.186h-3.68Q196.54,111.106,196.54,109.232ZM209.3,98.617a3.2,3.2,0,0,0-2.5,1.048,4.454,4.454,0,0,0-.914,3.078v4.683h3.7a2.594,2.594,0,0,0,1.472-.4,3.082,3.082,0,0,0,1-1,4.566,4.566,0,0,0,.58-1.427,6.871,6.871,0,0,0,.178-1.673,4.991,4.991,0,0,0-.914-3.234A3.193,3.193,0,0,0,209.3,98.617Zm0,16.838a4.171,4.171,0,0,0,2.5-.558,1.911,1.911,0,0,0,.736-1.606,3.418,3.418,0,0,0-.134-1,1.439,1.439,0,0,0-.535-.736,2.606,2.606,0,0,0-1.093-.446,9.441,9.441,0,0,0-1.784-.156h-3.122v1.985C205.884,114.607,207.022,115.455,209.3,115.455Z" transform="translate(201.348 -75.936)" fill="url(#linear-gradient-32)"/>
        <path id="Path_268" data-name="Path 268" d="M211.47,102.854a10.605,10.605,0,0,1,.624-3.7,6.708,6.708,0,0,1,1.606-2.476,6.193,6.193,0,0,1,2.409-1.383,10.073,10.073,0,0,1,3.033-.424,10.583,10.583,0,0,1,3.078.446,6.143,6.143,0,0,1,2.453,1.427,6.4,6.4,0,0,1,1.606,2.587,11.8,11.8,0,0,1,.58,3.9v.647a5.867,5.867,0,0,1-.045.624,3.065,3.065,0,0,0,.736,2.23,2.227,2.227,0,0,0,1.583.647h1.093a1.451,1.451,0,0,1,1.115.4,2.05,2.05,0,0,1,.379,1.383,2.249,2.249,0,0,1-.357,1.494,1.471,1.471,0,0,1-1.137.4c-.424,0-.87-.022-1.338-.045a5.8,5.8,0,0,1-1.383-.245,5,5,0,0,1-1.316-.6,4.071,4.071,0,0,1-1.115-1.115,5.5,5.5,0,0,1-2.52,1.717,10.28,10.28,0,0,1-3.434.535,10.472,10.472,0,0,1-3.368-.513,5.833,5.833,0,0,1-2.52-1.673,3.457,3.457,0,0,1-.892.981,4.7,4.7,0,0,1-1.093.58,6.787,6.787,0,0,1-1.16.29,10.323,10.323,0,0,1-1.137.067h-1.316a1.384,1.384,0,0,1-1.115-.424,2.216,2.216,0,0,1-.379-1.45,2.178,2.178,0,0,1,.357-1.472,1.464,1.464,0,0,1,1.137-.379h1.472a2.164,2.164,0,0,0,1.606-.736,3.986,3.986,0,0,0,.758-2.676,5.1,5.1,0,0,1-.045-.558A1.527,1.527,0,0,0,211.47,102.854Zm7.672-4.237a3.039,3.039,0,0,0-2.654,1.16,5.562,5.562,0,0,0-.87,3.368,5.457,5.457,0,0,0,.87,3.457,3.91,3.91,0,0,0,5.352-.022,5.428,5.428,0,0,0,.87-3.434C222.71,100.133,221.528,98.617,219.142,98.617Z" transform="translate(213.158 -75.936)" fill="url(#linear-gradient-33)"/>
        <path id="Path_269" data-name="Path 269" d="M217.754,116.211a1.525,1.525,0,0,1-1.115-.357,2.056,2.056,0,0,1-.379-1.45,2.3,2.3,0,0,1,.357-1.472,1.4,1.4,0,0,1,1.137-.424h1.829a1.844,1.844,0,0,0,1.36-.424,2.181,2.181,0,0,0,.424-1.561V91.1a.341.341,0,0,1,.379-.379h3.479a.341.341,0,0,1,.379.379v20.384a5.286,5.286,0,0,1-1,3.568,4.322,4.322,0,0,1-3.368,1.137h-3.479Z" transform="translate(225.607 -81.041)" fill="url(#linear-gradient-34)"/>
        <path id="Path_270" data-name="Path 270" d="M226.877,115.844a.341.341,0,0,1-.379.379h-3.479a.341.341,0,0,1-.379-.379V91.089a.341.341,0,0,1,.379-.379H226.5a.341.341,0,0,1,.379.379Z" transform="translate(233.456 -81.053)" fill="url(#linear-gradient-35)"/>
      </g>
      <g id="Group_321" data-name="Group 321" transform="translate(175.895 90.189)">
        <path id="Path_299" data-name="Path 299" d="M97,140.3l.268-3.412.2-4.26.134-4.237v-1.45c.736.022,1.405.022,2.052.022.468,0,1.115,0,1.9-.022s1.45-.022,2.029-.022a15.739,15.739,0,0,1,2.141.134,5.537,5.537,0,0,1,1.717.513,4.476,4.476,0,0,1,1.271.937,6.081,6.081,0,0,1,.892,1.249,6.568,6.568,0,0,1,.513,1.539,8.845,8.845,0,0,1,.178,1.74,9.2,9.2,0,0,1-.58,3.211,5.962,5.962,0,0,1-1.74,2.52,5.46,5.46,0,0,1-2.565,1.271,17.088,17.088,0,0,1-3.189.29L98.9,140.3C98.673,140.279,98.026,140.3,97,140.3Zm3.011-2.074c.535.022,1.07.045,1.583.045a12.709,12.709,0,0,0,1.65-.089,8.515,8.515,0,0,0,1.316-.268,4.011,4.011,0,0,0,2.029-1.784,4.834,4.834,0,0,0,.535-1.405,7.492,7.492,0,0,0,.178-1.583,5.086,5.086,0,0,0-.491-2.409,3.111,3.111,0,0,0-1.316-1.36,5.971,5.971,0,0,0-2.52-.424c-.736,0-1.583.022-2.542.045Z" transform="translate(-97 -126.697)" fill="url(#linear-gradient-36)"/>
        <path id="Path_300" data-name="Path 300" d="M113.774,138.419c-.58-.022-1.026-.022-1.316-.022-.379,0-.825,0-1.316.022l.022-1.628a6.569,6.569,0,0,1-.491.669,2.913,2.913,0,0,1-.535.491,2.873,2.873,0,0,1-.736.379,7.266,7.266,0,0,1-.892.245,5.473,5.473,0,0,1-1.07.089,5.576,5.576,0,0,1-1.918-.312,2.992,2.992,0,0,1-1.294-.959,3.107,3.107,0,0,1-.468-1.851v-.2l.156-2.52.156-3.323v-1c.624.022,1.115.022,1.45.022.379,0,.825,0,1.36-.022l-.335,4.46c-.022.357-.045.647-.045.87,0,.245-.022.4-.022.513a3.041,3.041,0,0,0,.2,1.182,1.359,1.359,0,0,0,.736.714,2.712,2.712,0,0,0,1.115.245,2.491,2.491,0,0,0,1.07-.223,2,2,0,0,0,.781-.558,3.021,3.021,0,0,0,.558-.959,4.524,4.524,0,0,0,.245-1.2c.045-.357.089-.981.134-1.851.045-1.048.089-2.141.112-3.234.647.022,1.137.022,1.472.022.379,0,.825,0,1.316-.022-.089.937-.156,2.1-.245,3.5s-.134,2.565-.178,3.479C113.818,136.345,113.774,137.326,113.774,138.419Z" transform="translate(-88.684 -124.815)" fill="url(#linear-gradient-37)"/>
        <path id="Path_301" data-name="Path 301" d="M109.34,140.3c.112-1.249.245-3.39.4-6.468.134-3.078.223-5.375.223-6.914.58.022,1.093.022,1.494.022.424,0,.87,0,1.36-.022q-.167,1.372-.268,3.479c.647-.134,1.16-.2,1.539-.245a9.634,9.634,0,0,1,1.115-.067,5.951,5.951,0,0,1,2.587.491,3.792,3.792,0,0,1,1.695,1.606,5.456,5.456,0,0,1,.647,2.721,7.8,7.8,0,0,1-.312,2.163,6.2,6.2,0,0,1-.959,1.873,3.825,3.825,0,0,1-1.539,1.2,4.742,4.742,0,0,1-1.963.379,4.176,4.176,0,0,1-.937-.089,4.241,4.241,0,0,1-.8-.268,2.7,2.7,0,0,1-.647-.424,3.09,3.09,0,0,1-.468-.468,7.647,7.647,0,0,1-.446-.647l-.045,1.673c-.535-.022-.959-.022-1.271-.022C110.5,140.279,110.031,140.3,109.34,140.3Zm3.033-7.895-.089,1.673c-.022.357-.022.714-.022,1.048a6.262,6.262,0,0,0,.245,1.918,2.071,2.071,0,0,0,.847,1.093,2.525,2.525,0,0,0,1.338.379,2.345,2.345,0,0,0,1.405-.446,2.615,2.615,0,0,0,.914-1.271,5.264,5.264,0,0,0,.312-1.784,3.241,3.241,0,0,0-.714-2.163,2.585,2.585,0,0,0-2.1-.8,7.115,7.115,0,0,0-.937.067C113.265,132.183,112.864,132.272,112.373,132.406Z" transform="translate(-81.819 -126.697)" fill="url(#linear-gradient-38)"/>
        <path id="Path_302" data-name="Path 302" d="M116.008,130.771c.089-.468.156-.8.178-.981s.067-.468.134-.87c.892-.2,1.673-.357,2.342-.446a15.015,15.015,0,0,1,1.963-.134,7.929,7.929,0,0,1,1.985.245,2.89,2.89,0,0,1,1.4.8,2.29,2.29,0,0,1,.513,1.583c0,.379-.045,1.316-.156,2.855-.112,1.517-.156,3.1-.178,4.728-.491-.022-.959-.022-1.383-.022-.4,0-.87,0-1.405.022q.134-1.171.2-2.743l.134-2.431c-.245.156-.446.268-.558.335a1.686,1.686,0,0,1-.446.178,8.708,8.708,0,0,1-.87.245c-.4.112-.736.223-.981.29a4.641,4.641,0,0,0-.669.29,2.308,2.308,0,0,0-.513.357,1.033,1.033,0,0,0-.29.424,1.164,1.164,0,0,0-.089.468,1.153,1.153,0,0,0,.245.714,1.3,1.3,0,0,0,.6.424,2.518,2.518,0,0,0,.847.112c.2,0,.424-.022.669-.045a4.876,4.876,0,0,0,.937-.245c-.134.379-.29.937-.491,1.673a10.032,10.032,0,0,1-1.115.156c-.268.022-.535.022-.758.022a5.285,5.285,0,0,1-2.029-.335,2.371,2.371,0,0,1-1.182-1.048,3.212,3.212,0,0,1-.379-1.472,2.165,2.165,0,0,1,.156-.825,3.152,3.152,0,0,1,.424-.758,4.4,4.4,0,0,1,.736-.669,4.993,4.993,0,0,1,1.294-.624,18.273,18.273,0,0,1,2.253-.6,5.755,5.755,0,0,0,.781-.2,4.24,4.24,0,0,0,.647-.223,1.7,1.7,0,0,0,.424-.268,1.36,1.36,0,0,0,.268-.357,1.173,1.173,0,0,0,.089-.379.972.972,0,0,0-.245-.647,1.426,1.426,0,0,0-.647-.379,3.568,3.568,0,0,0-.87-.112A12.258,12.258,0,0,0,116.008,130.771Z" transform="translate(-75.263 -124.95)" fill="url(#linear-gradient-39)"/>
        <path id="Path_303" data-name="Path 303" d="M120.04,140.375c.089-.981.178-1.806.2-2.453.067-1.048.134-2.252.178-3.613s.089-2.654.112-3.881c.647.022,1.115.022,1.427.022.29,0,.758,0,1.427-.022-.089,1.137-.156,2.23-.2,3.256s-.089,2.208-.112,3.546-.045,2.386-.045,3.167c-.6-.022-1.07-.022-1.427-.022C121.222,140.353,120.709,140.375,120.04,140.375Zm.535-11.664c.022-.669.045-1.182.045-1.539v-.312c.6.022,1.07.022,1.45.022.513,0,.981,0,1.427-.022-.022.156-.022.357-.045.558l-.045,1.294c-.491,0-.959-.022-1.383-.022S121.11,128.689,120.575,128.711Z" transform="translate(-68.656 -126.771)" fill="url(#linear-gradient-40)"/>
        <path id="Path_304" data-name="Path 304" d="M124.67,140.412c.022-.245.022-.446.022-.6l.067-1.427c.825-.736,1.561-1.427,2.23-2.119s1.36-1.405,2.074-2.186,1.227-1.405,1.606-1.873a5.181,5.181,0,0,0,.58-.87c.089-.2.156-.357.2-.491a2.457,2.457,0,0,0,.045-.4,1.177,1.177,0,0,0-.335-.87,2.32,2.32,0,0,0-.892-.535,3.887,3.887,0,0,0-1.316-.2,12.113,12.113,0,0,0-1.494.112,17.021,17.021,0,0,0-2.074.446l.178-.981c.045-.245.089-.624.178-1.182a25.043,25.043,0,0,1,4.349-.4,9.777,9.777,0,0,1,1.829.178,4.705,4.705,0,0,1,1.583.624,2.7,2.7,0,0,1,1,1,2.549,2.549,0,0,1,.312,1.2,4.105,4.105,0,0,1-.067.736,2.937,2.937,0,0,1-.2.669,9.622,9.622,0,0,1-.669,1.227,20.078,20.078,0,0,1-1.271,1.65c-.58.691-1.2,1.383-1.9,2.1s-1.45,1.472-2.275,2.252h3.078c.736,0,1.249,0,1.606-.022.335-.022.736-.045,1.227-.089-.022.2-.045.468-.067.781-.022.335-.067.758-.112,1.294-1.494-.022-3.033-.022-4.616-.022C127.614,140.39,125.986,140.412,124.67,140.412Z" transform="translate(-62.961 -126.808)" fill="url(#linear-gradient-41)"/>
        <path id="Path_305" data-name="Path 305" d="M135.762,126.82a5.044,5.044,0,0,1,2.654.669,4.477,4.477,0,0,1,1.717,2.119,8.481,8.481,0,0,1,.6,3.412,13.209,13.209,0,0,1-.379,3.078,7.39,7.39,0,0,1-1.026,2.5,4.321,4.321,0,0,1-1.806,1.517,5.713,5.713,0,0,1-2.453.535,4.761,4.761,0,0,1-2.23-.491,4.3,4.3,0,0,1-1.606-1.36,5.568,5.568,0,0,1-.87-1.963,10.722,10.722,0,0,1-.245-2.252,13.482,13.482,0,0,1,.379-3.145,7.86,7.86,0,0,1,1.07-2.587,4.228,4.228,0,0,1,1.829-1.539A5.76,5.76,0,0,1,135.762,126.82Zm-.067,2.029a1.749,1.749,0,0,0-.736.156,1.981,1.981,0,0,0-.691.491,3.3,3.3,0,0,0-.558.781,5.122,5.122,0,0,0-.4,1.093,10.582,10.582,0,0,0-.29,1.539,16.366,16.366,0,0,0-.112,1.806,7.22,7.22,0,0,0,.268,2.163,2.683,2.683,0,0,0,.8,1.294,1.908,1.908,0,0,0,1.227.468,1.681,1.681,0,0,0,.736-.156,2.1,2.1,0,0,0,.736-.58,4.138,4.138,0,0,0,.669-1.227,8.353,8.353,0,0,0,.446-1.784,14.266,14.266,0,0,0,.134-1.963,7.981,7.981,0,0,0-.268-2.252,2.889,2.889,0,0,0-.781-1.36A1.688,1.688,0,0,0,135.7,128.849Z" transform="translate(-56.256 -126.82)" fill="url(#linear-gradient-42)"/>
        <path id="Path_306" data-name="Path 306" d="M135.65,140.412c.022-.245.022-.446.022-.6l.067-1.427c.825-.736,1.561-1.427,2.23-2.119s1.36-1.405,2.074-2.186,1.227-1.405,1.606-1.873a5.177,5.177,0,0,0,.58-.87c.089-.2.156-.357.2-.491a2.457,2.457,0,0,0,.045-.4,1.177,1.177,0,0,0-.335-.87,2.321,2.321,0,0,0-.892-.535,3.887,3.887,0,0,0-1.316-.2,12.113,12.113,0,0,0-1.494.112,17.019,17.019,0,0,0-2.074.446l.178-.981c.045-.245.089-.624.178-1.182a25.043,25.043,0,0,1,4.349-.4,9.777,9.777,0,0,1,1.829.178,4.705,4.705,0,0,1,1.583.624,2.7,2.7,0,0,1,1,1,2.549,2.549,0,0,1,.312,1.2,4.105,4.105,0,0,1-.067.736,2.937,2.937,0,0,1-.2.669,9.622,9.622,0,0,1-.669,1.227,20.078,20.078,0,0,1-1.271,1.65c-.58.691-1.2,1.383-1.9,2.1s-1.45,1.472-2.275,2.252H142.5c.736,0,1.249,0,1.606-.022.335-.022.736-.045,1.227-.089-.022.2-.045.468-.067.781-.022.335-.067.758-.112,1.294-1.494-.022-3.033-.022-4.617-.022C138.594,140.39,136.966,140.412,135.65,140.412Z" transform="translate(-49.453 -126.808)" fill="url(#linear-gradient-43)"/>
        <path id="Path_307" data-name="Path 307" d="M146.442,140.289c.134-1.316.2-2.654.245-4.037H144.7l-3.613.067a10.023,10.023,0,0,0,.067-1.093c.022-.647.045-1.093.045-1.316l.736-.937c.178-.245.468-.624.848-1.137l2.119-2.9c.2-.29.4-.558.6-.87.2-.29.446-.669.758-1.137.781.022,1.45.022,1.963.022.491,0,1.07,0,1.717-.022-.2,2.788-.312,5.219-.357,7.27h2.141c-.022.513-.022,1.093-.022,1.762v.335c-.4-.022-1.137-.022-2.186-.022-.022.29-.045.58-.045.825s-.022.691-.022,1.316-.022,1.07-.022,1.338v.558c-.513-.022-.981-.022-1.45-.022C147.558,140.267,147.045,140.289,146.442,140.289Zm.624-6c.022-.379.022-.6.022-.647l.178-4.75c-1,1.45-1.65,2.364-1.963,2.788l-1.9,2.609Z" transform="translate(-42.761 -126.685)" fill="url(#linear-gradient-44)"/>
      </g>
      <line id="Line_20" data-name="Line 20" x2="157.674" transform="translate(298.555 99.489)" fill="none" stroke="#707070" stroke-miterlimit="10" stroke-width="0.5"/>
      <g id="Group_324" data-name="Group 324" transform="translate(1.137 56.022)">
        <g id="Group_320" data-name="Group 320">
          <path id="Path_271" data-name="Path 271" d="M23.457,129.642l.29-3.814.29-5.687.178-5.6H23.3l-.847.022-.8.022-3.011.089c.067-1.249.112-2.208.112-2.855,2.5.022,5.129.022,7.873.022l4.683-.022,2.5-.022c-.089,1.249-.134,2.186-.134,2.855-1.583-.089-3.078-.112-4.527-.112h-1l-.156,2.386-.379,9.188-.022,1.539c0,.624-.022,1.293-.022,1.985l-1.985-.022C25.375,129.619,24.662,129.619,23.457,129.642Z" transform="translate(-18.64 -111.131)" fill="#493686"/>
          <path id="Path_272" data-name="Path 272" d="M25.9,129.629l.312-4.237.312-6.066.178-7.516c.758.022,1.405.022,1.918.022.669,0,1.294,0,1.9-.022l-.245,3.1c-.045.758-.134,2.007-.2,3.7a7.292,7.292,0,0,1,.691-.937,5.191,5.191,0,0,1,.624-.58,3.455,3.455,0,0,1,.714-.446c.245-.112.535-.223.847-.335a4.974,4.974,0,0,1,1.093-.223A10.947,10.947,0,0,1,35.267,116a8.954,8.954,0,0,1,2.074.245,4.143,4.143,0,0,1,1.717.847,3.163,3.163,0,0,1,1,1.383,5.119,5.119,0,0,1,.268,1.65c0,.379-.022.959-.067,1.762L39.95,127.6c-.022.6-.045,1.271-.045,2.052-.714-.022-1.316-.022-1.873-.022-.58,0-1.249,0-2.007.022.112-1.026.245-2.431.357-4.215s.178-3.033.178-3.791a3.189,3.189,0,0,0-.335-1.606,2.2,2.2,0,0,0-.981-.87,3.679,3.679,0,0,0-1.405-.29,3.847,3.847,0,0,0-1.74.357,3.009,3.009,0,0,0-1.227,1.026,4.962,4.962,0,0,0-.669,1.606,18.27,18.27,0,0,0-.424,3.39c-.045.736-.089,2.208-.156,4.371-.691-.022-1.294-.022-1.784-.022C27.417,129.607,26.747,129.607,25.9,129.629Z" transform="translate(-9.709 -111.119)" fill="#493686"/>
          <path id="Path_273" data-name="Path 273" d="M45.681,124.35c-.112.513-.268,1.427-.491,2.765a23.076,23.076,0,0,1-2.386.4,18.856,18.856,0,0,1-1.94.112,12.689,12.689,0,0,1-3.055-.335,5.505,5.505,0,0,1-2.364-1.249,5.332,5.332,0,0,1-1.494-2.23,8.2,8.2,0,0,1-.491-2.765,8.782,8.782,0,0,1,.558-3.122,6.4,6.4,0,0,1,1.583-2.476,5.773,5.773,0,0,1,2.3-1.36,8.98,8.98,0,0,1,2.7-.4,9.458,9.458,0,0,1,2.542.335,4.833,4.833,0,0,1,2.029,1.093,5.236,5.236,0,0,1,1.249,1.829,6.2,6.2,0,0,1,.446,2.364,6.489,6.489,0,0,1-.134,1.271l-9.568.022c-.022.312-.022.58-.022.781a4.2,4.2,0,0,0,.29,1.606,3.506,3.506,0,0,0,.87,1.249,3.622,3.622,0,0,0,1.383.758,4.848,4.848,0,0,0,1.561.245,10.655,10.655,0,0,0,1.963-.2A21.9,21.9,0,0,0,45.681,124.35Zm-8.452-5.286,6.111.022a7.842,7.842,0,0,0-.045-.914,3.518,3.518,0,0,0-.178-.691,2.178,2.178,0,0,0-.379-.669,1.965,1.965,0,0,0-.558-.491,2.208,2.208,0,0,0-.736-.29,3.757,3.757,0,0,0-.892-.112,3.589,3.589,0,0,0-1.07.178,2.9,2.9,0,0,0-.937.491,3.057,3.057,0,0,0-.691.736,3.717,3.717,0,0,0-.4.781C37.407,118.329,37.318,118.663,37.229,119.065Z" transform="translate(-0.409 -108.806)" fill="#493686"/>
          <path id="Path_274" data-name="Path 274" d="M42.39,129.642c.914-1.606,1.963-3.591,3.189-5.955l3.434-6.6c1.07-2.029,1.963-3.814,2.676-5.286,1.137.022,1.94.022,2.409.022.825,0,1.628,0,2.431-.022l1.873,5.352,4.059,11.062.558,1.427-1.963-.022c-.446,0-1.2,0-2.275.022-.2-.781-.535-1.829-.981-3.145s-.825-2.386-1.137-3.211H49.794c-1.026,2.074-2.007,4.193-2.966,6.334l-2.141-.022C44.241,129.619,43.505,129.619,42.39,129.642Zm8.519-9.055h5.018l-2.052-6.044-1.048,2.208Z" transform="translate(10.577 -111.131)" fill="#493686"/>
          <path id="Path_275" data-name="Path 275" d="M52.34,127.292c.2-1.985.357-4.193.491-6.668s.2-4.683.223-6.624c.8.022,1.45.022,1.918.022.558,0,1.16,0,1.806-.022l-.156,2.23a10.251,10.251,0,0,1,.714-.914,4.85,4.85,0,0,1,.781-.669,3.406,3.406,0,0,1,1.026-.513,8.6,8.6,0,0,1,1.2-.312,9.438,9.438,0,0,1,1.405-.112,8.157,8.157,0,0,1,2.23.29,3.863,3.863,0,0,1,1.717.937,3.364,3.364,0,0,1,.87,1.405,5.47,5.47,0,0,1,.2,1.606c0,.245-.022.6-.045,1.115l-.268,5.709c-.045.8-.067,1.628-.067,2.542-.691-.022-1.271-.022-1.762-.022-.669,0-1.338,0-2.007.022.067-.758.156-2.074.268-3.97s.156-3.145.156-3.747a3.436,3.436,0,0,0-.335-1.65,2.321,2.321,0,0,0-1-.959,3.313,3.313,0,0,0-1.472-.335,3.688,3.688,0,0,0-1.472.29,3.261,3.261,0,0,0-1.182.87,3.816,3.816,0,0,0-.8,1.45,13.093,13.093,0,0,0-.446,3.011c-.089,1.249-.156,2.922-.2,5-.669-.022-1.271-.022-1.829-.022C53.79,127.27,53.121,127.27,52.34,127.292Z" transform="translate(22.817 -108.781)" fill="#493686"/>
          <path id="Path_276" data-name="Path 276" d="M60.02,127.292c.2-1.985.357-4.193.491-6.668s.2-4.683.223-6.624c.8.022,1.45.022,1.918.022.558,0,1.16,0,1.806-.022l-.156,2.23a10.249,10.249,0,0,1,.714-.914,4.85,4.85,0,0,1,.781-.669,3.406,3.406,0,0,1,1.026-.513,8.6,8.6,0,0,1,1.2-.312,9.438,9.438,0,0,1,1.405-.112,8.157,8.157,0,0,1,2.23.29,3.863,3.863,0,0,1,1.717.937,3.364,3.364,0,0,1,.87,1.405,5.47,5.47,0,0,1,.2,1.606c0,.245-.022.6-.045,1.115l-.268,5.709c-.045.8-.067,1.628-.067,2.542-.691-.022-1.271-.022-1.762-.022-.669,0-1.338,0-2.007.022.067-.758.156-2.074.268-3.97s.156-3.145.156-3.747a3.436,3.436,0,0,0-.335-1.65,2.321,2.321,0,0,0-1-.959,3.313,3.313,0,0,0-1.472-.335,3.688,3.688,0,0,0-1.472.29,3.261,3.261,0,0,0-1.182.87,3.816,3.816,0,0,0-.8,1.45,13.092,13.092,0,0,0-.446,3.011c-.089,1.249-.156,2.922-.2,5-.669-.022-1.271-.022-1.829-.022C61.47,127.27,60.8,127.27,60.02,127.292Z" transform="translate(32.265 -108.781)" fill="#493686"/>
          <path id="Path_277" data-name="Path 277" d="M81.147,127.132c-.758-.022-1.36-.022-1.762-.022-.513,0-1.093,0-1.762.022l.022-2.163c-.245.357-.468.669-.647.892a3.392,3.392,0,0,1-.714.647,4.941,4.941,0,0,1-.959.513,6.7,6.7,0,0,1-1.2.312,7.553,7.553,0,0,1-1.427.134,6.746,6.746,0,0,1-2.542-.424,3.869,3.869,0,0,1-1.717-1.293,4.146,4.146,0,0,1-.624-2.476v-.268l.2-3.368.2-4.438c0-.357.022-.8.022-1.338.825.022,1.472.022,1.94.022.491,0,1.093,0,1.806-.022l-.424,5.955c-.022.468-.045.847-.067,1.16s-.022.558-.022.691a3.616,3.616,0,0,0,.29,1.561,1.837,1.837,0,0,0,.981.937,3.578,3.578,0,0,0,2.922.045,3.182,3.182,0,0,0,1.048-.736,3.82,3.82,0,0,0,.736-1.271,5.87,5.87,0,0,0,.335-1.583c.067-.468.112-1.294.178-2.476.067-1.4.112-2.855.156-4.3.87.022,1.517.022,1.985.022.513,0,1.093,0,1.74-.022-.112,1.249-.223,2.81-.335,4.661-.112,1.873-.178,3.412-.223,4.616S81.169,125.682,81.147,127.132Z" transform="translate(41.848 -108.621)" fill="#493686"/>
          <path id="Path_278" data-name="Path 278" d="M76.686,116.934c.112-.624.2-1.07.223-1.316s.089-.647.156-1.16c1.182-.268,2.23-.468,3.145-.58a21.736,21.736,0,0,1,2.632-.178,9.77,9.77,0,0,1,2.632.335,3.853,3.853,0,0,1,1.873,1.071,3,3,0,0,1,.669,2.1c0,.491-.067,1.762-.2,3.791s-.223,4.126-.245,6.311c-.669-.022-1.271-.022-1.829-.022-.535,0-1.16,0-1.873.022.112-1.048.2-2.275.268-3.658l.178-3.256a8.094,8.094,0,0,1-.758.468,4.522,4.522,0,0,1-.58.245c-.2.067-.6.178-1.16.335s-.981.29-1.316.4a6.708,6.708,0,0,0-.892.379,2.6,2.6,0,0,0-.669.491,1.855,1.855,0,0,0-.4.558,1.5,1.5,0,0,0-.134.624,1.481,1.481,0,0,0,.312.937,1.868,1.868,0,0,0,.8.558,3.419,3.419,0,0,0,1.137.156,6.484,6.484,0,0,0,.892-.067,7.1,7.1,0,0,0,1.249-.335,22.257,22.257,0,0,0-.647,2.23,13.8,13.8,0,0,1-1.472.2c-.357.022-.714.045-1.026.045a7.1,7.1,0,0,1-2.7-.446,3.012,3.012,0,0,1-1.561-1.4,4.208,4.208,0,0,1-.513-1.94,3.273,3.273,0,0,1,.2-1.115,3.026,3.026,0,0,1,.58-1,5.512,5.512,0,0,1,.981-.892,7.067,7.067,0,0,1,1.74-.825,25.3,25.3,0,0,1,3.011-.8c.335-.067.669-.156,1.026-.245a5.221,5.221,0,0,0,.847-.29,1.9,1.9,0,0,0,.558-.379,2.176,2.176,0,0,0,.357-.468,1.016,1.016,0,0,0,.112-.513,1.25,1.25,0,0,0-.335-.87,1.685,1.685,0,0,0-.87-.491,4.73,4.73,0,0,0-1.16-.134A14.462,14.462,0,0,0,76.686,116.934Z" transform="translate(50.546 -108.794)" fill="#493686"/>
          <path id="Path_279" data-name="Path 279" d="M82.05,129.642c.134-1.472.29-4.126.468-7.939s.29-7.114.335-9.9c.914.022,1.561.022,1.94.022.513,0,1.137,0,1.873-.022l-.312,4.773-.446,10.638-.045,2.431c-.714-.022-1.316-.022-1.829-.022C83.879,129.619,83.232,129.619,82.05,129.642Z" transform="translate(59.366 -111.131)" fill="#493686"/>
          <path id="Path_280" data-name="Path 280" d="M88.34,129.654c.156-1.717.268-3.078.312-4.126.089-1.74.2-4.215.312-7.449.089-2.386.112-4.081.112-5.063v-1.2c2.5.022,4.683.022,6.557.022l3.658-.022,2.186-.022c-.089,1.294-.156,2.23-.156,2.832l-1.873-.067-.758-.022H95.677l-2.7.022-.156,4.683,2.23.045c1.695,0,2.765,0,3.256-.022l1.784-.022c-.067,1-.089,1.94-.112,2.765-1.517-.045-2.721-.045-3.613-.045-1.137,0-2.364.022-3.68.045l-.134,5.776-.022,1.182v.669l-2.007-.022C90.414,129.632,89.7,129.632,88.34,129.654Z" transform="translate(67.104 -111.143)" fill="#493686"/>
          <path id="Path_281" data-name="Path 281" d="M107.151,124.35c-.112.513-.268,1.427-.491,2.765a23.077,23.077,0,0,1-2.386.4,18.856,18.856,0,0,1-1.94.112,12.689,12.689,0,0,1-3.055-.335,5.505,5.505,0,0,1-2.364-1.249,5.332,5.332,0,0,1-1.494-2.23,8.2,8.2,0,0,1-.491-2.765,8.782,8.782,0,0,1,.558-3.122,6.4,6.4,0,0,1,1.583-2.476,5.773,5.773,0,0,1,2.3-1.36,8.98,8.98,0,0,1,2.7-.4,9.458,9.458,0,0,1,2.542.335,4.833,4.833,0,0,1,2.029,1.093,5.235,5.235,0,0,1,1.249,1.829,6.2,6.2,0,0,1,.446,2.364,6.488,6.488,0,0,1-.134,1.271l-9.568.022c-.022.312-.022.58-.022.781a4.2,4.2,0,0,0,.29,1.606,3.506,3.506,0,0,0,.87,1.249,3.622,3.622,0,0,0,1.383.758,4.848,4.848,0,0,0,1.561.245,10.655,10.655,0,0,0,1.963-.2A20.682,20.682,0,0,0,107.151,124.35ZM98.7,119.065l6.111.022a7.846,7.846,0,0,0-.045-.914,3.518,3.518,0,0,0-.178-.691,2.178,2.178,0,0,0-.379-.669,1.965,1.965,0,0,0-.558-.491,2.208,2.208,0,0,0-.736-.29,3.757,3.757,0,0,0-.892-.112,3.589,3.589,0,0,0-1.07.178,2.9,2.9,0,0,0-.937.491,3.057,3.057,0,0,0-.691.736,3.717,3.717,0,0,0-.4.781C98.877,118.329,98.788,118.663,98.7,119.065Z" transform="translate(75.211 -108.806)" fill="#493686"/>
          <path id="Path_282" data-name="Path 282" d="M101.82,127.034l-.29-2.877a16.6,16.6,0,0,0,2.163.736,6.239,6.239,0,0,0,1.628.2,4,4,0,0,0,1.249-.178,1.482,1.482,0,0,0,.758-.513,1.267,1.267,0,0,0,.245-.736,1.371,1.371,0,0,0-.022-.312,1.549,1.549,0,0,0-.112-.29,1.135,1.135,0,0,0-.2-.29,4.1,4.1,0,0,0-.312-.312c-.134-.112-.312-.268-.558-.446l-.714-.558c-.669-.535-1.2-.959-1.561-1.249a5.813,5.813,0,0,1-.892-.937,3.71,3.71,0,0,1-.558-1,3,3,0,0,1-.178-1.07,3.162,3.162,0,0,1,.58-1.806,3.433,3.433,0,0,1,1.695-1.271,7.639,7.639,0,0,1,2.609-.4,22.726,22.726,0,0,1,3.947.4l.178,2.721a7.918,7.918,0,0,0-2.922-.624,4.629,4.629,0,0,0-1.316.156,1.554,1.554,0,0,0-.825.468,1.014,1.014,0,0,0-.245.691,1.063,1.063,0,0,0,.089.446,1.579,1.579,0,0,0,.268.446,4.211,4.211,0,0,0,.446.446c.156.134.535.424,1.07.825s1,.781,1.427,1.115a6.083,6.083,0,0,1,1,1,3.656,3.656,0,0,1,.6,1.07,3.526,3.526,0,0,1,.2,1.16,3.031,3.031,0,0,1-.6,1.806,3.9,3.9,0,0,1-1.806,1.316,7.487,7.487,0,0,1-2.721.468,16.983,16.983,0,0,1-1.918-.134A21.7,21.7,0,0,1,101.82,127.034Z" transform="translate(83.33 -108.769)" fill="#493686"/>
          <path id="Path_283" data-name="Path 283" d="M115.528,126.146c-.112.468-.268,1.36-.491,2.676-.736.156-1.316.268-1.717.312a10.806,10.806,0,0,1-1.182.067,8.181,8.181,0,0,1-1.74-.178,2.656,2.656,0,0,1-1.271-.647,2.249,2.249,0,0,1-.669-1.093,5.028,5.028,0,0,1-.178-1.294,3.981,3.981,0,0,1,.022-.468c.022-.2.045-.8.112-1.851l.29-5.442H106.83c.045-.513.089-1.36.112-2.52H108.9c.045-.513.112-1.36.156-2.565l1.539-.29c.335-.067.937-.2,1.873-.424-.067,1.182-.089,2.275-.112,3.3h3.323c-.067,1.182-.089,2.007-.089,2.52h-3.323Q112,123.57,112,124.406a3.618,3.618,0,0,0,.178,1.249,1.233,1.233,0,0,0,.558.647,1.762,1.762,0,0,0,.847.2c.223,0,.446-.022.691-.045A12.151,12.151,0,0,0,115.528,126.146Z" transform="translate(89.85 -110.356)" fill="#493686"/>
          <path id="Path_284" data-name="Path 284" d="M111.54,129.765q.2-1.974.268-3.278c.089-1.383.156-3.011.223-4.817.067-1.829.112-3.546.134-5.2.847.022,1.494.022,1.918.022.379,0,1.026,0,1.9-.022-.112,1.517-.223,2.966-.29,4.349s-.134,2.944-.156,4.728-.045,3.189-.045,4.215c-.8-.022-1.427-.022-1.918-.022C113.123,129.742,112.454,129.742,111.54,129.765Zm.714-15.567c.045-.892.045-1.583.045-2.074V111.7c.8.022,1.427.022,1.94.022.669,0,1.316,0,1.9-.022a7.249,7.249,0,0,0-.045.736l-.067,1.74c-.669-.022-1.271-.022-1.829-.022S112.99,114.176,112.254,114.2Z" transform="translate(95.644 -111.254)" fill="#493686"/>
          <path id="Path_285" data-name="Path 285" d="M118.9,127.144q-.87-2.743-4.639-13.292c.758.022,1.427.022,1.985.022.6,0,1.2,0,1.829-.022l3.055,9.969.424-1.137,2.944-7.471c.134-.357.312-.8.535-1.383.714.022,1.338.022,1.9.022s1.2,0,1.94-.022l-2.119,4.616-3.078,6.98-.691,1.695c-.781-.022-1.45-.022-1.963-.022C120.393,127.122,119.7,127.122,118.9,127.144Z" transform="translate(98.991 -108.634)" fill="#493686"/>
          <path id="Path_286" data-name="Path 286" d="M122.656,116.934c.112-.624.2-1.07.223-1.316s.089-.647.156-1.16c1.182-.268,2.23-.468,3.145-.58a21.736,21.736,0,0,1,2.632-.178,9.77,9.77,0,0,1,2.632.335,3.853,3.853,0,0,1,1.873,1.071,3,3,0,0,1,.669,2.1c0,.491-.067,1.762-.2,3.791s-.223,4.126-.245,6.311c-.669-.022-1.271-.022-1.829-.022-.535,0-1.16,0-1.873.022.112-1.048.2-2.275.268-3.658l.178-3.256a8.094,8.094,0,0,1-.758.468,4.524,4.524,0,0,1-.58.245c-.2.067-.6.178-1.16.335s-.981.29-1.316.4a6.71,6.71,0,0,0-.892.379,2.6,2.6,0,0,0-.669.491,1.855,1.855,0,0,0-.4.558,1.5,1.5,0,0,0-.134.624,1.481,1.481,0,0,0,.312.937,1.868,1.868,0,0,0,.8.558,3.419,3.419,0,0,0,1.137.156,6.484,6.484,0,0,0,.892-.067,7.1,7.1,0,0,0,1.249-.335,22.261,22.261,0,0,0-.647,2.23,13.8,13.8,0,0,1-1.472.2c-.357.022-.714.045-1.026.045a7.1,7.1,0,0,1-2.7-.446,3.012,3.012,0,0,1-1.561-1.4,4.208,4.208,0,0,1-.513-1.94,3.273,3.273,0,0,1,.2-1.115,3.026,3.026,0,0,1,.58-1,5.51,5.51,0,0,1,.981-.892,7.067,7.067,0,0,1,1.74-.825,25.3,25.3,0,0,1,3.011-.8c.335-.067.669-.156,1.026-.245a5.221,5.221,0,0,0,.847-.29,1.9,1.9,0,0,0,.558-.379,2.177,2.177,0,0,0,.357-.468,1.017,1.017,0,0,0,.112-.513,1.25,1.25,0,0,0-.335-.87,1.685,1.685,0,0,0-.87-.491,4.73,4.73,0,0,0-1.16-.134A14.367,14.367,0,0,0,122.656,116.934Z" transform="translate(107.098 -108.794)" fill="#493686"/>
          <path id="Path_287" data-name="Path 287" d="M128.01,129.642c.134-1.472.29-4.126.468-7.939s.29-7.114.335-9.9c.914.022,1.561.022,1.94.022.513,0,1.137,0,1.873-.022l-.312,4.773-.446,10.638-.045,2.431c-.714-.022-1.316-.022-1.829-.022C129.861,129.619,129.192,129.619,128.01,129.642Z" transform="translate(115.906 -111.131)" fill="#493686"/>
          <path id="Path_288" data-name="Path 288" d="M141.536,113.7a9.467,9.467,0,0,1,2.877.446,6.077,6.077,0,0,1,2.342,1.338,5.783,5.783,0,0,1,1.45,2.163,7.215,7.215,0,0,1,.491,2.676,8.316,8.316,0,0,1-.513,2.877,7.011,7.011,0,0,1-1.472,2.409,5.852,5.852,0,0,1-2.409,1.517,9.283,9.283,0,0,1-3.078.513,9.467,9.467,0,0,1-2.877-.446,6.118,6.118,0,0,1-2.342-1.36,5.918,5.918,0,0,1-1.472-2.186,7.348,7.348,0,0,1-.513-2.7,8.057,8.057,0,0,1,.468-2.743,6.411,6.411,0,0,1,1.427-2.319,6.582,6.582,0,0,1,2.5-1.583A8.924,8.924,0,0,1,141.536,113.7Zm0,2.7a3.7,3.7,0,0,0-2.029.558,3.425,3.425,0,0,0-1.338,1.65,6.486,6.486,0,0,0-.446,2.386,5.311,5.311,0,0,0,.357,2.029,2.958,2.958,0,0,0,1.182,1.427,3.481,3.481,0,0,0,1.94.558,3.577,3.577,0,0,0,2.007-.558,3.409,3.409,0,0,0,1.294-1.673,6.551,6.551,0,0,0,.446-2.431,5.491,5.491,0,0,0-.335-1.963,2.871,2.871,0,0,0-1.137-1.427A3.376,3.376,0,0,0,141.536,116.4Z" transform="translate(123.299 -108.794)" fill="#493686"/>
          <path id="Path_289" data-name="Path 289" d="M142.41,130.011l.156-2.163.4-8.5H141.34c.022-.268.045-.691.089-1.271s.045-1.026.067-1.294h1.784v-.513a16.633,16.633,0,0,1,.112-2.141,2.667,2.667,0,0,1,.446-1.2,3.2,3.2,0,0,1,.892-.825,3.482,3.482,0,0,1,1.271-.468,7.552,7.552,0,0,1,1.427-.134,12.226,12.226,0,0,1,3.145.424c.022.981.067,1.806.134,2.5a7.178,7.178,0,0,0-2.3-.446,2.562,2.562,0,0,0-.736.089,1.852,1.852,0,0,0-.558.268,1.174,1.174,0,0,0-.357.446,2.451,2.451,0,0,0-.2.647,4.99,4.99,0,0,0-.045.847v.491h3.323c-.045.6-.112,1.45-.156,2.565h-3.145c-.178,3.457-.29,7.025-.379,10.66-.781-.022-1.427-.022-1.9-.022C143.793,129.988,143.169,129.988,142.41,130.011Z" transform="translate(132.304 -111.5)" fill="#493686"/>
          <path id="Path_290" data-name="Path 290" d="M147.77,129.642c.914-1.606,1.963-3.591,3.189-5.955l3.434-6.6c1.07-2.029,1.963-3.814,2.676-5.286,1.137.022,1.94.022,2.409.022.825,0,1.628,0,2.431-.022l1.873,5.352,4.059,11.062.558,1.427-1.963-.022c-.446,0-1.2,0-2.275.022-.2-.781-.535-1.829-.981-3.145s-.825-2.386-1.137-3.211h-6.869c-1.026,2.074-2.007,4.193-2.966,6.334l-2.141-.022C149.621,129.619,148.885,129.619,147.77,129.642Zm8.542-9.055h5.018l-2.052-6.044-1.048,2.208Z" transform="translate(140.214 -111.131)" fill="#493686"/>
          <path id="Path_291" data-name="Path 291" d="M157.75,127.3l.379-6.2.112-3.613c.022-.736.022-1.494.022-2.23,0-.134,0-.535-.022-1.249.8.022,1.405.022,1.784.022.446,0,1.026,0,1.762-.022l-.067,1.851a8.794,8.794,0,0,1,.847-1.048,4.267,4.267,0,0,1,.781-.6,3.456,3.456,0,0,1,.981-.379,4.444,4.444,0,0,1,1.093-.134,4.4,4.4,0,0,1,1.07.134c0,.8.045,1.829.112,3.078a5.607,5.607,0,0,0-1.405-.2,3.507,3.507,0,0,0-1.338.223,3.174,3.174,0,0,0-1.048.691,3.757,3.757,0,0,0-.758,1.137,5.106,5.106,0,0,0-.357,1.427c-.067.446-.134,1.227-.178,2.319s-.067,2.186-.067,3.234c0,.4.022.914.045,1.539-.669-.022-1.271-.022-1.829-.022C159.155,127.282,158.508,127.282,157.75,127.3Z" transform="translate(152.491 -108.794)" fill="#493686"/>
          <path id="Path_292" data-name="Path 292" d="M163.866,116.934c.112-.624.2-1.07.223-1.316s.089-.647.156-1.16c1.182-.268,2.23-.468,3.145-.58a21.736,21.736,0,0,1,2.632-.178,9.77,9.77,0,0,1,2.632.335,3.854,3.854,0,0,1,1.873,1.071,3,3,0,0,1,.669,2.1c0,.491-.067,1.762-.2,3.791s-.223,4.126-.245,6.311c-.669-.022-1.271-.022-1.829-.022-.535,0-1.16,0-1.873.022.112-1.048.2-2.275.268-3.658l.178-3.256a8.09,8.09,0,0,1-.758.468,4.526,4.526,0,0,1-.58.245c-.2.067-.6.178-1.16.335s-.981.29-1.316.4a6.708,6.708,0,0,0-.892.379,2.6,2.6,0,0,0-.669.491,1.855,1.855,0,0,0-.4.558,1.5,1.5,0,0,0-.134.624,1.481,1.481,0,0,0,.312.937,1.868,1.868,0,0,0,.8.558,3.419,3.419,0,0,0,1.137.156,6.484,6.484,0,0,0,.892-.067,7.1,7.1,0,0,0,1.249-.335,22.262,22.262,0,0,0-.647,2.23,13.8,13.8,0,0,1-1.472.2c-.357.022-.714.045-1.026.045a7.1,7.1,0,0,1-2.7-.446,3.012,3.012,0,0,1-1.561-1.4,4.208,4.208,0,0,1-.513-1.94,3.274,3.274,0,0,1,.2-1.115,3.027,3.027,0,0,1,.58-1,5.51,5.51,0,0,1,.981-.892,7.067,7.067,0,0,1,1.74-.825,25.3,25.3,0,0,1,3.011-.8c.335-.067.669-.156,1.026-.245a5.222,5.222,0,0,0,.847-.29,1.9,1.9,0,0,0,.558-.379,2.176,2.176,0,0,0,.357-.468,1.016,1.016,0,0,0,.112-.513,1.25,1.25,0,0,0-.335-.87,1.685,1.685,0,0,0-.87-.491,4.73,4.73,0,0,0-1.16-.134A14.462,14.462,0,0,0,163.866,116.934Z" transform="translate(157.794 -108.794)" fill="#493686"/>
          <path id="Path_293" data-name="Path 293" d="M169.23,129.642c.156-1.65.335-4.527.513-8.631s.29-7.159.29-9.211c.781.022,1.45.022,2.007.022s1.16,0,1.806-.022c-.156,1.227-.268,2.788-.357,4.661.847-.156,1.539-.268,2.029-.335a11.2,11.2,0,0,1,1.494-.089,8.388,8.388,0,0,1,3.457.647,4.848,4.848,0,0,1,2.252,2.141,7.362,7.362,0,0,1,.847,3.635,9.7,9.7,0,0,1-.424,2.9,8.006,8.006,0,0,1-1.271,2.5,4.928,4.928,0,0,1-2.052,1.606,6.722,6.722,0,0,1-2.609.513,5.555,5.555,0,0,1-2.319-.491,3.423,3.423,0,0,1-.87-.558,4.344,4.344,0,0,1-.647-.624,5.676,5.676,0,0,1-.6-.87l-.067,2.23c-.714-.022-1.271-.022-1.695-.022C170.769,129.619,170.144,129.619,169.23,129.642Zm4.037-10.526-.112,2.23c-.022.468-.045.937-.045,1.4a7.937,7.937,0,0,0,.335,2.565,2.744,2.744,0,0,0,1.137,1.45,3.271,3.271,0,0,0,1.784.513,3.166,3.166,0,0,0,1.873-.58A3.644,3.644,0,0,0,179.467,125a6.525,6.525,0,0,0,.424-2.364,4.154,4.154,0,0,0-.959-2.877,3.487,3.487,0,0,0-2.788-1.093,8.033,8.033,0,0,0-1.249.089A13.91,13.91,0,0,0,173.267,119.115Z" transform="translate(166.614 -111.131)" fill="#493686"/>
          <path id="Path_294" data-name="Path 294" d="M185.8,129.642c-2.141-6-4.349-11.932-6.646-17.842.847.022,1.517.022,2.029.022.58,0,1.249,0,2.029-.022l3.658,10.816,1.539,4.26c.335-.647.825-1.673,1.494-3.1s1.137-2.476,1.427-3.145c-.4-1.227-.914-2.7-1.517-4.416-.624-1.74-1.16-3.189-1.606-4.393.736.022,1.383.022,1.94.022.624,0,1.271,0,1.94-.022.4,1.583.87,3.145,1.36,4.683q1.1-2.375,2.007-4.683c.758.022,1.36.022,1.829.022.535,0,1.137,0,1.829-.022q-.836,1.673-2.074,4.282c-.825,1.74-1.494,3.189-1.985,4.327.2.624.558,1.695,1.07,3.189.535,1.494.914,2.565,1.16,3.167l3.5-7.471,2.542-5.6.847-1.918c.847.022,1.517.022,2.007.022.558,0,1.227,0,2.029-.022l-2.453,4.884-5.129,10.526-1.16,2.431c-.937-.022-1.74-.022-2.386-.022-.691,0-1.494,0-2.409.022-.513-1.762-1.093-3.479-1.695-5.174-.825,1.695-1.606,3.412-2.342,5.174-.937-.022-1.74-.022-2.409-.022C187.491,129.619,186.688,129.619,185.8,129.642Z" transform="translate(178.817 -111.131)" fill="#493686"/>
          <path id="Path_295" data-name="Path 295" d="M199.666,113.7a9.467,9.467,0,0,1,2.877.446,6.077,6.077,0,0,1,2.342,1.338,5.782,5.782,0,0,1,1.45,2.163,7.215,7.215,0,0,1,.491,2.676,8.316,8.316,0,0,1-.513,2.877,7.011,7.011,0,0,1-1.472,2.409,5.852,5.852,0,0,1-2.409,1.517,9.283,9.283,0,0,1-3.078.513,9.467,9.467,0,0,1-2.877-.446,6.118,6.118,0,0,1-2.342-1.36,5.918,5.918,0,0,1-1.472-2.186,7.347,7.347,0,0,1-.513-2.7,8.057,8.057,0,0,1,.468-2.743,6.411,6.411,0,0,1,1.427-2.319,6.583,6.583,0,0,1,2.5-1.583A8.924,8.924,0,0,1,199.666,113.7Zm0,2.7a3.7,3.7,0,0,0-2.029.558,3.425,3.425,0,0,0-1.338,1.65,6.486,6.486,0,0,0-.446,2.386,5.31,5.31,0,0,0,.357,2.029,2.958,2.958,0,0,0,1.182,1.427,3.481,3.481,0,0,0,1.94.558,3.577,3.577,0,0,0,2.007-.558,3.409,3.409,0,0,0,1.294-1.673,6.55,6.55,0,0,0,.446-2.431,5.491,5.491,0,0,0-.335-1.963,2.871,2.871,0,0,0-1.137-1.427A3.376,3.376,0,0,0,199.666,116.4Z" transform="translate(194.81 -108.794)" fill="#493686"/>
          <path id="Path_296" data-name="Path 296" d="M199.74,127.316c.112-1.472.245-3.7.379-6.646s.2-5.152.2-6.646c.736.022,1.338.022,1.806.022.535,0,1.115,0,1.717-.022l-.089,2.1a11.635,11.635,0,0,1,.758-1,3.688,3.688,0,0,1,.892-.714,4.894,4.894,0,0,1,1.294-.513,5.761,5.761,0,0,1,1.517-.178,6.145,6.145,0,0,1,1.137.112,4.789,4.789,0,0,1,1,.312,3.292,3.292,0,0,1,.781.468,2.584,2.584,0,0,1,.535.58,6.821,6.821,0,0,1,.491.937c.2-.312.379-.558.535-.758a3.478,3.478,0,0,1,.647-.624,4.017,4.017,0,0,1,.892-.558,5.443,5.443,0,0,1,1.115-.357,6.055,6.055,0,0,1,1.294-.134,6.176,6.176,0,0,1,2.141.379,3.282,3.282,0,0,1,1.583,1.182,3.368,3.368,0,0,1,.58,1.985c0,.424-.022,1.026-.089,1.851-.067.8-.134,2.141-.223,3.97s-.134,3.256-.134,4.26c-.647-.022-1.2-.022-1.695-.022-.58,0-1.249,0-2.029.022.089-1.115.156-2.3.223-3.524l.156-2.988c.045-.758.067-1.405.067-1.918a2.641,2.641,0,0,0-.29-1.4,1.811,1.811,0,0,0-.736-.691,2.477,2.477,0,0,0-1.026-.2,2.424,2.424,0,0,0-1.07.223,2.627,2.627,0,0,0-.892.714,3.419,3.419,0,0,0-.624,1.16,9.285,9.285,0,0,0-.335,1.851c-.067.8-.134,1.851-.178,3.145l-.089,3.635c-.714-.022-1.316-.022-1.806-.022s-1.115,0-1.918.022c.067-.669.156-2.052.268-4.126s.178-3.479.178-4.193a4.2,4.2,0,0,0-.089-.981,1.87,1.87,0,0,0-.379-.758,1.807,1.807,0,0,0-.647-.535,2.084,2.084,0,0,0-.87-.178,2.4,2.4,0,0,0-1.606.6,3.306,3.306,0,0,0-1,1.606,17.349,17.349,0,0,0-.468,3.9c-.089,1.918-.134,3.479-.134,4.616-.8-.022-1.405-.022-1.806-.022C201.212,127.294,200.565,127.294,199.74,127.316Z" transform="translate(204.147 -108.806)" fill="#493686"/>
          <path id="Path_297" data-name="Path 297" d="M222.511,124.35c-.112.513-.268,1.427-.491,2.765a23.075,23.075,0,0,1-2.386.4,18.856,18.856,0,0,1-1.94.112,12.689,12.689,0,0,1-3.055-.335,5.505,5.505,0,0,1-2.364-1.249,5.332,5.332,0,0,1-1.494-2.23,8.2,8.2,0,0,1-.491-2.765,8.782,8.782,0,0,1,.558-3.122,6.4,6.4,0,0,1,1.583-2.476,5.773,5.773,0,0,1,2.3-1.36,8.981,8.981,0,0,1,2.7-.4,9.458,9.458,0,0,1,2.542.335A4.833,4.833,0,0,1,222,115.117a5.236,5.236,0,0,1,1.249,1.829,6.2,6.2,0,0,1,.446,2.364,6.489,6.489,0,0,1-.134,1.271l-9.568.022c-.022.312-.022.58-.022.781a4.2,4.2,0,0,0,.29,1.606,3.507,3.507,0,0,0,.87,1.249,3.623,3.623,0,0,0,1.383.758,4.848,4.848,0,0,0,1.561.245,10.655,10.655,0,0,0,1.963-.2A20.682,20.682,0,0,0,222.511,124.35Zm-8.43-5.286,6.111.022a7.834,7.834,0,0,0-.045-.914,3.515,3.515,0,0,0-.178-.691,2.178,2.178,0,0,0-.379-.669,1.965,1.965,0,0,0-.558-.491,2.208,2.208,0,0,0-.736-.29,3.757,3.757,0,0,0-.892-.112,3.589,3.589,0,0,0-1.07.178,2.9,2.9,0,0,0-.937.491,3.057,3.057,0,0,0-.691.736,3.717,3.717,0,0,0-.4.781C214.26,118.329,214.171,118.663,214.081,119.065Z" transform="translate(217.125 -108.806)" fill="#493686"/>
          <path id="Path_298" data-name="Path 298" d="M217.14,127.292c.2-1.985.357-4.193.491-6.668s.2-4.683.223-6.624c.8.022,1.45.022,1.918.022.558,0,1.16,0,1.806-.022l-.156,2.23a10.243,10.243,0,0,1,.714-.914,4.851,4.851,0,0,1,.781-.669,3.406,3.406,0,0,1,1.026-.513,8.6,8.6,0,0,1,1.2-.312,9.437,9.437,0,0,1,1.405-.112,8.157,8.157,0,0,1,2.23.29,3.863,3.863,0,0,1,1.717.937,3.364,3.364,0,0,1,.87,1.405,5.47,5.47,0,0,1,.2,1.606c0,.245-.022.6-.045,1.115l-.268,5.709c-.045.8-.067,1.628-.067,2.542-.691-.022-1.271-.022-1.762-.022-.669,0-1.338,0-2.007.022.067-.758.156-2.074.268-3.97s.156-3.145.156-3.747a3.436,3.436,0,0,0-.335-1.65,2.321,2.321,0,0,0-1-.959,3.313,3.313,0,0,0-1.472-.335,3.688,3.688,0,0,0-1.472.29,3.26,3.26,0,0,0-1.182.87,3.816,3.816,0,0,0-.8,1.45,13.093,13.093,0,0,0-.446,3.011c-.089,1.249-.156,2.922-.2,5-.669-.022-1.271-.022-1.829-.022C218.59,127.27,217.921,127.27,217.14,127.292Z" transform="translate(225.552 -108.781)" fill="#493686"/>
        </g>
        <line id="Line_21" data-name="Line 21" x2="157.674" transform="translate(5.33 43.466)" fill="none" stroke="#707070" stroke-miterlimit="10" stroke-width="0.5"/>
      </g>
    </g>
  </g>
</svg>
