<svg id="Component_16_1" data-name="Component 16 – 1" xmlns="http://www.w3.org/2000/svg" xmlns:xlink="http://www.w3.org/1999/xlink" width="338.569" height="353.509" viewBox="0 0 338.569 353.509">
  <defs>
    <linearGradient id="linear-gradient" x1="0.5" y1="1" x2="0.5" gradientUnits="objectBoundingBox">
      <stop offset="0.001" stop-color="#674696"/>
      <stop offset="0.999" stop-color="#a1569d"/>
    </linearGradient>
    <linearGradient id="linear-gradient-2" x1="0.5" y1="1" x2="0.5" y2="0" xlink:href="#linear-gradient"/>
    <linearGradient id="linear-gradient-3" x1="0.5" y1="1" x2="0.5" y2="0" xlink:href="#linear-gradient"/>
    <linearGradient id="linear-gradient-4" x1="0.5" y1="1" x2="0.5" y2="0" xlink:href="#linear-gradient"/>
    <clipPath id="clip-path">
      <path id="Path_396" data-name="Path 396" d="M134.865,105.288l-.019.023.019-.023a.4.4,0,0,1-.047.023c0,.007.008.014.01.021l0,0,.043.043-.009-.085" transform="translate(-134.818 -105.288)" fill="#fefefe"/>
    </clipPath>
    <clipPath id="clip-path-2">
      <path id="Path_372" data-name="Path 372" d="M253.145,131.487a1.423,1.423,0,0,1,.576,2.106c-.656.97-1.681.833-2.638.781a1.887,1.887,0,0,1-1.864-1.383c-.4-1.284-.07-1.772,1.276-1.828.208-.008.417,0,.745,0a3.716,3.716,0,0,1,1.906.327m-3.582-3.058a.709.709,0,0,1-.428-.645c-.019-.486-.006-.972-.006-1.457a7.222,7.222,0,0,1,.187-2.27,2.424,2.424,0,0,1,4.785.431,7.108,7.108,0,0,1,0,1.455,3.156,3.156,0,0,1-3.154,2.8,3.191,3.191,0,0,1-1.382-.317m17.759.2a2.119,2.119,0,0,1-2.043-1.5,5.113,5.113,0,0,1-.147-2.881,2.3,2.3,0,0,1,2.671-2.065c1.329.1,2.022.821,2.213,2.32.035.276.035.556.041.651.024,2.415-.755,3.489-2.427,3.489-.1,0-.2,0-.308-.011M278.3,114.2c-.01.7,0,1.394,0,2.091,0,3.418.021,6.834-.012,10.252-.016,1.651-.315,1.9-1.974,1.957-.278.01-.559.013-.837,0-1.578-.1-2.079-.589-2.179-2.179-.049-.765.015-1.542-.09-2.3-.455-3.324-2.528-4.878-6.219-4.717-3.089.135-4.909,2.021-5.06,5.244-.182,3.883-.452,4.129-4.3,3.942a.978.978,0,0,1-.791-.355c.024-1.126.562-2.218.527-3.425-.092-3.217-1.833-5.187-4.908-5.4-3.695-.254-5.956,1.437-6.351,4.8-.106.9-.053,1.81-.083,2.716-.051,1.623-.052,1.625-1.631,1.671-.418.013-.838.021-1.256,0-1.952-.113-2.435-.6-2.463-2.558-.025-1.674,0-3.347-.015-5.022,0-.392.119-.932-.4-1.063a3.875,3.875,0,0,0-2.464.04c-.7.306-.379,1.117-.385,1.705-.033,3.137,0,6.276-.033,9.414-.022,2.287-.067,2.376-2.252,2.994-1.046.3-.678,1.059-.732,1.683-.05.578.032,1.07.808,1.2a4.369,4.369,0,0,0,5.13-3.225c.23-.867.322-1.771.486-2.708a22.4,22.4,0,0,0,3.555.363c1.525-.044,1.528.018,1.661,1.629A3.938,3.938,0,0,0,249.745,137a10.354,10.354,0,0,0,3.741.007c2.5-.472,3.7-1.788,3.514-4.32-.091-1.246.345-1.419,1.358-1.391,1.528.041,3.091.169,4.416-.848.414-.318.738-.157,1.131.062a6.968,6.968,0,0,0,7.344-.028c.375-.22.69-.437,1.119-.114,1.651,1.251,3.581.945,5.441.912,2.868-.051,3.72-.883,3.754-3.8.053-4.533,0-9.065.027-13.6.006-1.013-.254-1.545-1.4-1.547h-.075c-1.66,0-1.784.084-1.812,1.858" transform="translate(-234.376 -112.34)" fill="none"/>
    </clipPath>
    <linearGradient id="linear-gradient-5" x1="-5.982" y1="2.891" x2="-5.957" y2="2.891" gradientUnits="objectBoundingBox">
      <stop offset="0" stop-color="#7d4896"/>
      <stop offset="1" stop-color="#7b3374"/>
    </linearGradient>
    <clipPath id="clip-path-3">
      <path id="Path_373" data-name="Path 373" d="M218.173,113.739c.059,2.366.017,4.736.018,7.105,0,2.3-.038,4.6.012,6.9.057,2.642.872,3.464,3.548,3.536,2.3.062,4.6.029,6.894.012,1.53-.011,3.068.011,4.591-.121,1.813-.157,2.548-.87,3.035-2.638a9.618,9.618,0,0,0-.022-4.75,5.209,5.209,0,0,0-4.085-4.28c-2.393-.533-4.733-.363-6.613,1.527-.237.236-.6.515-.346.868a6.853,6.853,0,0,0,1.278,1.352c.544.421.859-.214,1.247-.432,2.86-1.606,5.246-.372,5.447,2.831.142,2.237-.409,2.831-2.734,2.855-2.158.024-4.319.015-6.478,0-2.408-.012-2.5-.095-2.507-2.451-.013-4.11.013-8.22-.018-12.329-.01-1.266-.233-1.351-1.736-1.372h-.081c-.951,0-1.481.255-1.45,1.389" transform="translate(-218.172 -112.35)" fill="none"/>
    </clipPath>
    <linearGradient id="linear-gradient-6" x1="-14.272" y1="3.799" x2="-14.207" y2="3.799" xlink:href="#linear-gradient-5"/>
    <clipPath id="clip-path-4">
      <path id="Path_374" data-name="Path 374" d="M214.564,122.162c-.018,2.37-.008,4.739-.018,7.108a2.86,2.86,0,0,1-1.952,2.914,3.678,3.678,0,0,1-5.152-3.627,6.794,6.794,0,0,1,.794-3c.411-.819.493-1.335-.572-1.734-1.629-.613-1.753-.673-2.34.531a10.07,10.07,0,0,0-1.068,5.056,5.779,5.779,0,0,0,5.646,5.852,11.535,11.535,0,0,0,2.707-.057,5.617,5.617,0,0,0,5.168-5.612c.081-1.319.013-2.647.013-3.97h.027c0-1.394,0-2.787,0-4.182,0-.421-.046-.813-.527-1.02a2.664,2.664,0,0,0-1.048-.239c-.989,0-1.669.731-1.679,1.983" transform="translate(-204.24 -120.179)" fill="none"/>
    </clipPath>
    <linearGradient id="linear-gradient-7" x1="-18.095" y1="4.13" x2="-18.007" y2="4.13" xlink:href="#linear-gradient-5"/>
    <clipPath id="clip-path-5">
      <path id="Path_375" data-name="Path 375" d="M277.641,112.356c-1.479,0-1.557.039-1.576,1.491-.032,2.639-.008,5.28-.008,7.921,0,2.71-.018,5.421.008,8.13.013,1.34.138,1.414,1.646,1.4,1.476-.016,1.611-.093,1.615-1.466q.015-4.012.016-8.026t-.021-8.027c-.007-1.317-.158-1.421-1.579-1.421h-.1" transform="translate(-276.048 -112.356)" fill="none"/>
    </clipPath>
    <linearGradient id="linear-gradient-8" x1="-101.335" y1="3.805" x2="-100.968" y2="3.805" xlink:href="#linear-gradient-5"/>
    <clipPath id="clip-path-6">
      <path id="Path_376" data-name="Path 376" d="M193.787,114.228q-.016,7.081-.006,14.163c0,2.848,0,2.848,2.852,3,.678-.617.415-1.433.419-2.168.022-4.733.011-9.466.011-14.2,0-2.529,0-2.529-2.526-2.755-.961.379-.749,1.221-.749,1.955" transform="translate(-193.767 -112.273)" fill="none"/>
    </clipPath>
    <linearGradient id="linear-gradient-9" x1="-62.962" y1="3.778" x2="-62.637" y2="3.778" xlink:href="#linear-gradient-5"/>
    <clipPath id="clip-path-7">
      <path id="Path_377" data-name="Path 377" d="M227.255,129.98c-.653.3-.307,1.106-.355,1.693-.06.741.248,1.19,1.059,1.149.206-.01.415,0,.623,0a3.438,3.438,0,0,0,1.414-.152,4.5,4.5,0,0,0,.191-2.033c0-.279-.041-.645-.307-.707a6.368,6.368,0,0,0-1.423-.194,2.826,2.826,0,0,0-1.2.24" transform="translate(-226.85 -129.74)" fill="none"/>
    </clipPath>
    <linearGradient id="linear-gradient-10" x1="-74.383" y1="16.332" x2="-74.055" y2="16.332" xlink:href="#linear-gradient-5"/>
    <clipPath id="clip-path-8">
      <path id="Path_378" data-name="Path 378" d="M209.153,118.29c-.017,1.443-.007,1.451,1.493,1.465,1.677.016,1.764-.056,1.75-1.459s-.086-1.474-1.543-1.5c-.153,0-.293,0-.42,0-1.217,0-1.266.166-1.28,1.5" transform="translate(-209.15 -116.794)" fill="none"/>
    </clipPath>
    <linearGradient id="linear-gradient-11" x1="-77.602" y1="22.421" x2="-77.231" y2="22.421" xlink:href="#linear-gradient-5"/>
    <clipPath id="clip-path-9">
      <path id="Path_379" data-name="Path 379" d="M50.106,122.6a7.921,7.921,0,0,1,3.889-.339,1.793,1.793,0,0,1,1.562,2.589,4.272,4.272,0,0,1-2.164,2.559,11.736,11.736,0,0,0-3.287-4.81m14.781-10.248c-.1,0-.209,0-.315,0-.73-.01-1.459-.019-1.443,1.14.013,1.116,0,2.231,0,3.346,0,3.209.018,6.416-.008,9.624-.017,1.847-.192,2.017-2.074,2.023a21.126,21.126,0,0,1-4.285-.164c.567-.765,1-1.285,1.362-1.85,2.034-3.163.6-6.5-3.095-7.057a12.806,12.806,0,0,0-6.4.511c-.82.3-1.8.526-1.915,1.671a2.561,2.561,0,0,0,1.172,2.869,5.934,5.934,0,0,1,2.319,2.628c.381.774.2,1.207-.64,1.3a23.946,23.946,0,0,1-5.422,0c-1.225-.148-1.608-.695-1.649-2.021-.051-1.6-.008-3.208-.019-4.811-.013-1.875-.019-1.827-1.819-1.846-1.038-.011-1.478.27-1.449,1.409.073,3,.033,6,.017,8.995a16.04,16.04,0,0,1-.141,2.292,1.748,1.748,0,0,1-1.473,1.556,1.858,1.858,0,0,1-.447.021c-.408-.011-.822-.022-.924.561a8.4,8.4,0,0,0-.018,1.668c.011.392.215.587.628.678a4.431,4.431,0,0,0,5.31-3.248c.221-.871.325-1.77.477-2.623,3.271.375,6.519.663,9.73-.3a1.685,1.685,0,0,1,1.021.019c3.345,1.032,6.775.574,10.168.5,1.931-.045,2.8-.955,2.83-2.916.083-4.949.022-9.9.055-14.852.007-1.019-.554-1.125-1.212-1.125-.109,0-.222,0-.334,0" transform="translate(-36.18 -112.343)" fill="none"/>
    </clipPath>
    <linearGradient id="linear-gradient-12" x1="-1.448" y1="2.876" x2="-1.408" y2="2.876" xlink:href="#linear-gradient-5"/>
    <clipPath id="clip-path-10">
      <path id="Path_380" data-name="Path 380" d="M5.21,126.337a1.979,1.979,0,0,1-1.844-1.683c-.261-1.4.114-2.728,1.032-3.134a5,5,0,0,1,3.267-.209c.9.234.362,1.187.51,1.736-.043,2.254-.816,3.34-2.359,3.34a3.883,3.883,0,0,1-.607-.05M8.5,117.1c-.5,1.427-1.45,1.348-2.382,1.269-.234-.019-.469-.039-.692-.035-1.858.034-3.489.5-4.482,2.161a6.432,6.432,0,0,0-.277,6.21A4.212,4.212,0,0,0,3.3,128.934a6.3,6.3,0,0,0,4.954-.454c.67,1.694,2.111,1.889,3.632,1.89,5.916.006,11.836.019,17.752-.007a4.643,4.643,0,0,0,3.185-.755c.211-.176.44-.338.726-.109,1.646,1.308,3.588.9,5.43.847,2.353-.064,3.211-.987,3.276-3.395.063-2.3.04-4.6.008-6.9-.017-1.235-.126-1.252-1.764-1.267-.947-.008-1.592.1-1.524,1.328.092,1.737.039,3.482.017,5.224-.024,2.022-.261,2.234-2.331,2.223-.137,0-.278,0-.418,0-2-.1-2.575-.674-2.61-2.685-.028-1.6-.085-3.21.015-4.806.084-1.3-.666-1.294-1.563-1.274-.845.018-1.67-.137-1.587,1.234a56.007,56.007,0,0,1,0,5.64c-.063,1.491-.47,1.876-1.89,1.885q-7.63.036-15.257,0c-1.646-.01-1.9-.3-1.926-1.987-.03-2.439.006-4.878-.026-7.315-.006-.5.259-1.263-.55-1.361a12.93,12.93,0,0,0-1.5-.177c-.409,0-.745.09-.85.391" transform="translate(0 -116.71)" fill="none"/>
    </clipPath>
    <linearGradient id="linear-gradient-13" x1="0.007" y1="4.742" x2="0.035" y2="4.742" xlink:href="#linear-gradient-5"/>
    <clipPath id="clip-path-11">
      <path id="Path_381" data-name="Path 381" d="M77.627,125.533a6.7,6.7,0,0,1-.078-2.263,2.333,2.333,0,0,1,2.619-2.336c1.392.057,2.156.83,2.337,2.4a8.908,8.908,0,0,1,.006,1.035c.027,1.15-.126,2.245-1.3,2.821a2.67,2.67,0,0,1-1.183.282,2.438,2.438,0,0,1-2.4-1.937m1.614-7.455a4.685,4.685,0,0,0-4.692,3.981c-.61,3.624.015,6.35,2.439,7.575a6.573,6.573,0,0,0,2.4.635,10.332,10.332,0,0,0,3.7-.51c3.939-3.243,3.678-8.8-.532-11.412a8.941,8.941,0,0,0-2.407-.3c-.3,0-.6.011-.907.03" transform="translate(-74.331 -118.048)" fill="none"/>
    </clipPath>
    <linearGradient id="linear-gradient-14" x1="-6.869" y1="5.286" x2="-6.776" y2="5.286" xlink:href="#linear-gradient-5"/>
    <clipPath id="clip-path-12">
      <path id="Path_382" data-name="Path 382" d="M65.543,112.346c-1.529.007-1.645.061-1.651,1.449q-.038,8.052,0,16.1c.006,1.348.138,1.419,1.663,1.421,1.5,0,1.6-.045,1.617-1.438.029-2.649.009-5.3.009-7.947,0-2.718.021-5.438-.011-8.157-.015-1.331-.095-1.431-1.413-1.431h-.214" transform="translate(-63.874 -112.346)" fill="none"/>
    </clipPath>
    <linearGradient id="linear-gradient-15" x1="-23.267" y1="3.802" x2="-22.903" y2="3.802" xlink:href="#linear-gradient-5"/>
    <clipPath id="clip-path-13">
      <path id="Path_383" data-name="Path 383" d="M27.528,130.113c-.383.2-.674.4-.748.307a1.857,1.857,0,0,0-1.738-.591c-.111,0-.221.008-.332.007-.392,0-.927-.114-1.059.411a3.26,3.26,0,0,0,.045,2.248c.236.464.7.42,1.161.375a3.03,3.03,0,0,1,.55-.019c.2.021.51.039.6-.077.623-.76,1.134-.256,1.8-.024,1.636.564,2.338.08,2.345-1.37,0-1.512-.038-1.459-1.46-1.591a1.057,1.057,0,0,0-.107,0,2.45,2.45,0,0,0-1.068.329" transform="translate(-23.474 -129.784)" fill="none"/>
    </clipPath>
    <linearGradient id="linear-gradient-16" x1="-4.166" y1="14.208" x2="-3.988" y2="14.208" xlink:href="#linear-gradient-5"/>
    <clipPath id="clip-path-14">
      <path id="Path_384" data-name="Path 384" d="M3.368,112.852c-1.06.017-1.242.519-1.21,1.428.052,1.432.081,1.538,1.266,1.578.413.015.962.124,1.213-.089.634-.534,1.048-.225,1.691,0,1.693.587,2.468.033,2.455-1.631.155-.813-.148-1.335-1.2-1.266-.736.047-1.523-.12-2,.666a3.752,3.752,0,0,0-2.149-.685H3.368" transform="translate(-2.155 -112.852)" fill="none"/>
    </clipPath>
    <linearGradient id="linear-gradient-17" x1="-0.38" y1="19.878" x2="-0.202" y2="19.878" xlink:href="#linear-gradient-5"/>
    <clipPath id="clip-path-15">
      <path id="Path_385" data-name="Path 385" d="M33.34,129.786c-1.625.007-1.651.03-1.647,1.551.006,1.493.022,1.506,1.689,1.494,1.612-.01,1.668-.063,1.666-1.561,0-1.392-.029-1.484-1.482-1.484H33.34" transform="translate(-31.693 -129.786)" fill="none"/>
    </clipPath>
    <linearGradient id="linear-gradient-18" x1="-11.453" y1="16.671" x2="-11.091" y2="16.671" xlink:href="#linear-gradient-5"/>
    <clipPath id="clip-path-16">
      <path id="Path_386" data-name="Path 386" d="M77.718,113.711c-.205.013-.412.025-.615.021a.65.65,0,0,0-.615.452,1.723,1.723,0,0,0,1.754,2.659,2.783,2.783,0,0,0,1.176-.311q.038-1.235.074-2.469a1.907,1.907,0,0,0-1.246-.374c-.175,0-.352.012-.528.023" transform="translate(-76.233 -113.688)" fill="none"/>
    </clipPath>
    <linearGradient id="linear-gradient-19" x1="-24.891" y1="22.109" x2="-24.563" y2="22.109" xlink:href="#linear-gradient-5"/>
    <clipPath id="clip-path-17">
      <path id="Path_387" data-name="Path 387" d="M79.292,114.058q0,1.266,0,2.534a3.573,3.573,0,0,0,2.027.231c.278-.023.556-.044.833-.041a8.326,8.326,0,0,0,.044-3.029,6.584,6.584,0,0,1-.873-.034c-.233-.018-.466-.038-.7-.038a2.2,2.2,0,0,0-1.336.378" transform="translate(-79.292 -113.68)" fill="none"/>
    </clipPath>
    <linearGradient id="linear-gradient-20" x1="-31.01" y1="21.683" x2="-30.619" y2="21.683" xlink:href="#linear-gradient-5"/>
    <clipPath id="clip-path-18">
      <path id="Path_388" data-name="Path 388" d="M153.8,128.291c-1.252-.447-1.708-1.415-1.555-3.25.131-1.568.855-2.569,2.029-2.8a2.188,2.188,0,0,1,2.827,1.75,15.238,15.238,0,0,1,.2,2.2c-.2.792.358,1.852-.445,2.176a3.543,3.543,0,0,1-1.327.242,5.212,5.212,0,0,1-1.733-.317m43.817-15.924c-.57.089-.9.326-.922.911-.018.489-.019.977-.021,1.465,0,3.975.017,7.949-.015,11.922-.012,1.573-.267,1.778-1.842,1.84a9.377,9.377,0,0,1-1.046,0c-1.83-.135-2.263-.588-2.292-2.483-.027-1.674-.047-3.348,0-5.021.036-1.261-.743-1.278-1.645-1.255-.843.021-1.709-.13-1.669,1.2.056,1.88.04,3.766-.016,5.646-.04,1.363-.559,1.885-1.681,1.9A1.742,1.742,0,0,1,184.5,126.6c-.057-1.183-.05-2.371-.013-3.555.034-1.168-.732-1.155-1.535-1.125-.126.006-.255,0-.384,0-.7-.013-1.394-.027-1.38,1.116.018,1.255.032,2.512-.027,3.764a1.585,1.585,0,0,1-2.049,1.677c-1.093-.149-1.568-.7-1.664-2.034a35.722,35.722,0,0,0-.154-4.346c-2.966-.389-2.966-.389-2.967,2.434,0,.141,0,.279,0,.419.1,4.144-.5,3.571-3.782,3.527-1.771-.023-2.282-.669-2.315-2.5-.028-1.534.008-3.068-.01-4.6-.022-1.64-.036-1.64-1.606-1.629-1.485.011-1.494.01-1.517,1.722-.016,1.255,0,2.509,0,3.764-.018,3.243-.333,3.512-3.468,3.291-.789-.056-1.128-.311-1.131-1.109a20.87,20.87,0,0,0-.145-3.336c-.55-3.319-2.193-4.771-5.495-4.773-3.272,0-5.139,1.651-5.672,4.917a9.366,9.366,0,0,0,.128,3.526,4.057,4.057,0,0,0,3.726,3.413c.963.125,1.947.1,2.921.164,1.252.077,1.564.661.95,1.719a1.9,1.9,0,0,1-1.743.95c-.906.022-1.818.08-2.718.012-1.208-.092-1.133.689-1.138,1.476-.007.81-.018,1.545,1.17,1.445a17.341,17.341,0,0,1,1.76-.023c.389.007.779.015,1.166,0,3.129-.08,4.411-1.111,4.976-4.2.183-1.006.491-1.363,1.573-1.388.424-.011.855,0,1.286.021,1.507.052,3.029.106,4.369-.919.267-.205.483.062.727.174a10.717,10.717,0,0,0,8.24-.05.909.909,0,0,1,1.08.061,5.866,5.866,0,0,0,5.769.058,1.153,1.153,0,0,1,1.279-.017,5.876,5.876,0,0,0,5.772-.03c.311-.162.522-.383.9-.118,1.89,1.312,4.019.849,6.073.7a2.349,2.349,0,0,0,2.394-2.2,9.937,9.937,0,0,0,.118-1.874q.015-6.38,0-12.76c0-1.558-.285-2.091-1.37-2.091a6.538,6.538,0,0,0-.979.092" transform="translate(-149.072 -112.275)" fill="none"/>
    </clipPath>
    <linearGradient id="linear-gradient-21" x1="-3.549" y1="2.918" x2="-3.525" y2="2.918" xlink:href="#linear-gradient-5"/>
    <clipPath id="clip-path-19">
      <path id="Path_389" data-name="Path 389" d="M107.6,128.635c-1.426-.079-2.121-.814-2.274-2.421-.027-.275,0-.551,0-.827-.018-2.254.791-3.26,2.543-3.209a2.188,2.188,0,0,1,2.2,1.545,5.2,5.2,0,0,1,.209,2.654,2.311,2.311,0,0,1-2.45,2.264c-.074,0-.151,0-.228-.006m19.485-14.327c-.012,1.952,0,3.9,0,5.855q0,3.241,0,6.483c0,.638.023,1.372-.667,1.626a5.106,5.106,0,0,1-3.669-.07c-1.2-.46-.994-1.541-1-2.5-.007-3.833.007-7.667-.007-11.5-.006-1.789-.08-1.846-1.672-1.83-1.549.013-1.593.045-1.6,1.925-.012,3.764,0,7.529,0,11.293,0,.488-.018.975-.01,1.465a1.265,1.265,0,0,1-1.385,1.449c-.417.013-.837.024-1.253.007-1.678-.066-2.252-.6-2.374-2.244-.052-.694.017-1.4-.04-2.09a4.911,4.911,0,0,0-5.011-4.859c-.417-.019-.836-.019-1.253,0a4.823,4.823,0,0,0-4.87,4.054,17.082,17.082,0,0,0-.214,2.909c-.137,1.768-.808,2.292-2.793,2.234-2.009-.058-2.577-.56-2.61-2.4-.032-1.672,0-3.346-.015-5.019,0-.4.151-.947-.26-1.145a3.9,3.9,0,0,0-2.461-.1c-.768.149-.527.882-.532,1.392-.028,3.277,0,6.554-.044,9.829-.027,2.251-.05,2.291-2.277,2.957-.913.272-.675.933-.69,1.506-.013.52-.165,1.131.618,1.348a4.654,4.654,0,0,0,5.165-2.605,24.34,24.34,0,0,0,.623-3.306c2.251.378,4.472.848,6.475-.657.268-.2.511.006.751.147a6.933,6.933,0,0,0,7.516.009,1,1,0,0,1,1.131-.045,9.3,9.3,0,0,0,8.2.125c.264-.112.475-.289.743-.079,1.525,1.191,3.318.865,5.032.834,2.83-.051,3.562-.771,3.606-3.668.061-4.111.021-8.225.023-12.337,0-.628-.016-1.255-.01-1.883,0-.672-.281-.976-.985-1.048-.349-.035-.642-.058-.889-.058-1.094,0-1.28.431-1.289,2.008" transform="translate(-90.354 -112.3)" fill="none"/>
    </clipPath>
    <linearGradient id="linear-gradient-22" x1="-2.728" y1="2.876" x2="-2.698" y2="2.876" xlink:href="#linear-gradient-5"/>
    <clipPath id="clip-path-20">
      <path id="Path_390" data-name="Path 390" d="M141.961,118.463a4.537,4.537,0,0,0-.854,6.188,8.325,8.325,0,0,0,2.281,2.121c.693.465,1.4.916,2.074,1.406.506.364,1.092.762.907,1.5a1.549,1.549,0,0,1-1.609,1.1c-2.572.038-5.162.149-7.718-.066-2.093-.176-3.084-1.67-3.022-3.8a7.93,7.93,0,0,1,.772-2.8c.506-1.225.491-1.233-.789-1.759-1.536-.63-1.623-.591-2.322.958a11.66,11.66,0,0,0-.921,3.414c-.432,3.529,1.432,6.072,4.925,6.842a13.23,13.23,0,0,0,3.216.2c.572-.012,1.114-.026,1.6.01,1.569,0,2.753.015,3.938-.007a9.4,9.4,0,0,0,1.654-.149c1.745-.345,3.148-1.142,3.629-3.011.465-1.81-.419-3.1-1.715-4.179-.8-.667-1.688-1.228-2.506-1.878a8.332,8.332,0,0,1-1.519-1.414,1.71,1.71,0,0,1,.721-2.751,2.784,2.784,0,0,1,2.424-.056,11.9,11.9,0,0,1,1.27.7c1.137.687,1.417-.493,1.981-.95.668-.54.084-.979-.309-1.353a6.2,6.2,0,0,0-4.239-1.527,6.13,6.13,0,0,0-3.873,1.262" transform="translate(-130.698 -117.201)" fill="none"/>
    </clipPath>
    <linearGradient id="linear-gradient-23" x1="-7.643" y1="3.988" x2="-7.584" y2="3.988" xlink:href="#linear-gradient-5"/>
    <clipPath id="clip-path-21">
      <path id="Path_391" data-name="Path 391" d="M86.272,114.1q-.02,7.816,0,15.633c0,1.511.134,1.6,1.685,1.59,1.519-.011,1.562-.034,1.574-1.691.018-2.571.006-5.142,0-7.712,0-2.71,0-5.421,0-8.129,0-.466.114-.995-.435-1.29a2.143,2.143,0,0,0-1.015-.266,1.792,1.792,0,0,0-1.807,1.866" transform="translate(-86.261 -112.233)" fill="none"/>
    </clipPath>
    <linearGradient id="linear-gradient-24" x1="-30.939" y1="3.785" x2="-30.58" y2="3.785" xlink:href="#linear-gradient-5"/>
    <clipPath id="clip-path-22">
      <path id="Path_392" data-name="Path 392" d="M87.373,106.819a2.682,2.682,0,0,0-1.638,2.472c-.038.7.329,1.38-.572,1.957-.448.287-.16,1.051.64,1.07.765.018,1.532,0,2.3,0v-.012c.836,0,1.672.008,2.508,0,.435-.006.6-.288.6-.685a.588.588,0,0,0-.616-.67c-.557-.017-1.119.013-1.671-.046a1.56,1.56,0,0,1-1.462-1.674c.111-.884.815-1.28,1.883-1.031.264.06.5.257.762.3a.813.813,0,0,0,.828-.52c.2-.394-.089-.655-.385-.85a3.332,3.332,0,0,0-1.849-.6,3.222,3.222,0,0,0-1.323.3" transform="translate(-84.951 -106.52)" fill="none"/>
    </clipPath>
    <linearGradient id="linear-gradient-25" x1="-15.851" y1="13.623" x2="-15.664" y2="13.623" xlink:href="#linear-gradient-5"/>
    <clipPath id="clip-path-23">
      <path id="Path_393" data-name="Path 393" d="M140.459,132.231c-1.358.019-1.479.149-1.466,1.575.012,1.366.124,1.468,1.58,1.461,1.351-.006,1.455-.12,1.437-1.574-.015-1.3-.1-1.465-1.272-1.465l-.279,0" transform="translate(-138.992 -132.229)" fill="none"/>
    </clipPath>
    <linearGradient id="linear-gradient-26" x1="-55.371" y1="15.757" x2="-54.973" y2="15.757" xlink:href="#linear-gradient-5"/>
    <clipPath id="clip-path-24">
      <path id="Path_394" data-name="Path 394" d="M163.754,113.709c-1.436.018-1.534.115-1.536,1.538,0,1.453.153,1.6,1.731,1.57,1.432-.023,1.538-.129,1.538-1.553,0-1.372-.114-1.557-1.459-1.557l-.273,0" transform="translate(-162.218 -113.707)" fill="none"/>
    </clipPath>
    <linearGradient id="linear-gradient-27" x1="-60.213" y1="22.479" x2="-59.842" y2="22.479" xlink:href="#linear-gradient-5"/>
    <clipPath id="clip-path-25">
      <path id="Path_395" data-name="Path 395" d="M136.109,133.681c-.019,1.459.045,1.539,1.241,1.586,1.515.061,1.68-.069,1.72-1.34.047-1.513-.073-1.662-1.37-1.7-.14,0-.268-.006-.385-.006-1.1,0-1.191.2-1.206,1.455" transform="translate(-136.107 -132.226)" fill="none"/>
    </clipPath>
    <linearGradient id="linear-gradient-28" x1="-54.59" y1="15.474" x2="-54.189" y2="15.474" xlink:href="#linear-gradient-5"/>
    <clipPath id="clip-path-26">
      <rect id="Rectangle_410" data-name="Rectangle 410" width="119.119" height="1.055" fill="none"/>
    </clipPath>
    <linearGradient id="linear-gradient-29" x1="-1.828" y1="4.295" x2="-1.818" y2="4.295" gradientUnits="objectBoundingBox">
      <stop offset="0" stop-color="#7d4896"/>
      <stop offset="1" stop-color="#574192"/>
    </linearGradient>
    <linearGradient id="linear-gradient-30" x1="-0.007" y1="4.295" x2="0.003" y2="4.295" xlink:href="#linear-gradient-29"/>
    <clipPath id="clip-path-28">
      <path id="Path_531" data-name="Path 531" d="M119.9,163.455l-1.134,5.41a8.852,8.852,0,0,1-.533,1.858,1.852,1.852,0,0,1-.743.825,2.407,2.407,0,0,1-1.216.277,1.821,1.821,0,0,1-1.246-.381,1.241,1.241,0,0,1-.429-.97,2.157,2.157,0,0,1,.028-.317l.277-1.324,1.12-5.377h-2.032l-1.1,5.214c-.138.675-.217,1.086-.234,1.23a4.177,4.177,0,0,0-.047.6,2.834,2.834,0,0,0,.917,2.179,3.77,3.77,0,0,0,2.649.847,4.585,4.585,0,0,0,2.39-.567,3.669,3.669,0,0,0,1.411-1.472,10.806,10.806,0,0,0,.826-2.614l1.126-5.418Z" transform="translate(-112.617 -163.455)" fill="none"/>
    </clipPath>
    <linearGradient id="linear-gradient-31" x1="-14.677" y1="1" x2="-14.547" y2="1" xlink:href="#linear-gradient-5"/>
    <clipPath id="clip-path-29">
      <path id="Path_532" data-name="Path 532" d="M107.611,165.09h1.182a4.331,4.331,0,0,1,1.25.123,1.643,1.643,0,0,1,.84.706,2.96,2.96,0,0,1,.342,1.584,5.182,5.182,0,0,1-.413,2.147,4.389,4.389,0,0,1-1.013,1.459,2.273,2.273,0,0,1-.922.517,6.854,6.854,0,0,1-1.625.137h-1.034Zm-1.688-1.635-2.074,9.9h3.493a9.357,9.357,0,0,0,1.951-.148,4.643,4.643,0,0,0,1.832-.838,5.635,5.635,0,0,0,1.536-1.969,6.351,6.351,0,0,0,.611-2.84,5.679,5.679,0,0,0-.154-1.368,4.1,4.1,0,0,0-.443-1.105,3.343,3.343,0,0,0-.683-.82,3.03,3.03,0,0,0-.877-.531,4.2,4.2,0,0,0-1.1-.25c-.208-.022-.683-.034-1.425-.034Z" transform="translate(-103.848 -163.455)" fill="none"/>
    </clipPath>
    <linearGradient id="linear-gradient-32" x1="-13.386" y1="1.017" x2="-13.257" y2="1.017" xlink:href="#linear-gradient-5"/>
    <clipPath id="clip-path-30">
      <path id="Path_533" data-name="Path 533" d="M123.166,169.177H125.6a1.832,1.832,0,0,1,1.216.321,1.036,1.036,0,0,1,.364.814,1.321,1.321,0,0,1-.254.77,1.392,1.392,0,0,1-.675.523,5.587,5.587,0,0,1-1.657.158h-1.968Zm.851-4.066h1.58a8.307,8.307,0,0,1,1.074.04,1.083,1.083,0,0,1,.615.325.9.9,0,0,1,.215.621,1.261,1.261,0,0,1-.228.723,1.275,1.275,0,0,1-.689.486,5.387,5.387,0,0,1-1.507.149h-1.552Zm-1.688-1.655-2.074,9.9h4.668a6.846,6.846,0,0,0,2.438-.351,2.846,2.846,0,0,0,1.4-1.151,3.107,3.107,0,0,0,.508-1.692,1.886,1.886,0,0,0-.43-1.212,2.215,2.215,0,0,0-1.193-.747,2.8,2.8,0,0,0,1.42-.915,2.3,2.3,0,0,0,.459-1.43,2.4,2.4,0,0,0-.262-1.121,2.018,2.018,0,0,0-.771-.81,3.254,3.254,0,0,0-1.236-.406,11.746,11.746,0,0,0-1.54-.068Z" transform="translate(-120.255 -163.455)" fill="none"/>
    </clipPath>
    <linearGradient id="linear-gradient-33" x1="-15.761" y1="1.017" x2="-15.63" y2="1.017" xlink:href="#linear-gradient-5"/>
    <clipPath id="clip-path-31">
      <path id="Path_534" data-name="Path 534" d="M158.762,171.655a1.855,1.855,0,0,1-.255-1.121,11.7,11.7,0,0,1,.363-2.547,6.5,6.5,0,0,1,1.014-2.519,1.158,1.158,0,0,1,.911-.493.812.812,0,0,1,.666.328,1.731,1.731,0,0,1,.26,1.07,12.183,12.183,0,0,1-.344,2.473,6.673,6.673,0,0,1-.992,2.634,1.235,1.235,0,0,1-.961.5.807.807,0,0,1-.662-.324m-.061-7.321a6.6,6.6,0,0,0-1.594,2.783,9.572,9.572,0,0,0-.505,3.025,3.66,3.66,0,0,0,.779,2.52,2.546,2.546,0,0,0,1.982.871,3.073,3.073,0,0,0,2.162-.9,6.17,6.17,0,0,0,1.523-2.593,10.154,10.154,0,0,0,.564-3.212,3.708,3.708,0,0,0-.772-2.534,2.526,2.526,0,0,0-1.976-.871,3.088,3.088,0,0,0-2.162.912" transform="translate(-156.603 -163.422)" fill="none"/>
    </clipPath>
    <linearGradient id="linear-gradient-34" x1="-27.136" y1="1" x2="-26.963" y2="1" xlink:href="#linear-gradient-5"/>
    <clipPath id="clip-path-32">
      <path id="Path_535" data-name="Path 535" d="M164.878,164.154a3.439,3.439,0,0,0-1.07,2.112l1.9.283a2.483,2.483,0,0,1,.521-1.259,1.09,1.09,0,0,1,.8-.349.983.983,0,0,1,.747.311,1.133,1.133,0,0,1,.294.81,1.7,1.7,0,0,1-.176.7,3.915,3.915,0,0,1-.647.911q-.264.291-1.263,1.25-1.332,1.263-1.83,1.83a5.814,5.814,0,0,0-.834,1.225,4.221,4.221,0,0,0-.429,1.388h6.018l.363-1.77h-3.43a8.382,8.382,0,0,1,.565-.651q.293-.308,1.2-1.149t1.3-1.3a4.8,4.8,0,0,0,.8-1.24,3.093,3.093,0,0,0,.243-1.179,2.517,2.517,0,0,0-.79-1.9,3.038,3.038,0,0,0-2.175-.749,3.1,3.1,0,0,0-2.1.732" transform="translate(-162.89 -163.422)" fill="none"/>
    </clipPath>
    <linearGradient id="linear-gradient-35" x1="-28.031" y1="1.017" x2="-27.859" y2="1.017" xlink:href="#linear-gradient-5"/>
    <clipPath id="clip-path-33">
      <path id="Path_536" data-name="Path 536" d="M173.727,166.6l-.641,3.087h-1.972Zm.811-3.148-5.355,6.261-.339,1.621h3.9l-.425,2.02h1.823l.425-2.02h1.2l.345-1.647h-1.2l1.3-6.236Z" transform="translate(-168.844 -163.455)" fill="none"/>
    </clipPath>
    <linearGradient id="linear-gradient-36" x1="-27.834" y1="1.017" x2="-27.67" y2="1.017" xlink:href="#linear-gradient-5"/>
    <clipPath id="clip-path-34">
      <path id="Path_403" data-name="Path 403" d="M143.408,167.9l-.392,1.87h3.763l.391-1.87Z" transform="translate(-143.016 -167.899)" fill="none"/>
    </clipPath>
    <linearGradient id="linear-gradient-37" x1="-41.818" y1="2.499" x2="-41.525" y2="2.499" xlink:href="#linear-gradient-5"/>
    <clipPath id="clip-path-35">
      <path id="Path_537" data-name="Path 537" d="M152.214,164.154a3.439,3.439,0,0,0-1.07,2.112l1.9.283a2.453,2.453,0,0,1,.52-1.259,1.088,1.088,0,0,1,.8-.349.982.982,0,0,1,.746.311,1.128,1.128,0,0,1,.294.81,1.678,1.678,0,0,1-.176.7,3.878,3.878,0,0,1-.647.911q-.264.291-1.263,1.25-1.33,1.263-1.83,1.83a5.906,5.906,0,0,0-.834,1.225,4.279,4.279,0,0,0-.429,1.388h6.018l.364-1.77h-3.431q.271-.344.565-.651t1.2-1.149q.905-.842,1.3-1.3a4.734,4.734,0,0,0,.8-1.24,3.071,3.071,0,0,0,.244-1.179,2.513,2.513,0,0,0-.791-1.9,3.035,3.035,0,0,0-2.174-.749,3.094,3.094,0,0,0-2.1.732" transform="translate(-150.225 -163.422)" fill="none"/>
    </clipPath>
    <linearGradient id="linear-gradient-38" x1="-25.847" y1="1.017" x2="-25.675" y2="1.017" xlink:href="#linear-gradient-5"/>
    <clipPath id="clip-path-36">
      <path id="Path_538" data-name="Path 538" d="M138.713,163.455l-2.074,9.9h2.04l2.067-9.9Z" transform="translate(-136.639 -163.455)" fill="none"/>
    </clipPath>
    <linearGradient id="linear-gradient-39" x1="-40.402" y1="1.017" x2="-40.106" y2="1.017" xlink:href="#linear-gradient-5"/>
    <clipPath id="clip-path-37">
      <path id="Path_539" data-name="Path 539" d="M134.278,165.536l.573,3.985h-2.966Zm-.785-2.081-5.6,9.9h2.094l1.188-2.187H135.1l.33,2.187h1.931l-1.607-9.9Z" transform="translate(-127.894 -163.455)" fill="none"/>
    </clipPath>
    <linearGradient id="linear-gradient-40" x1="-16.405" y1="1.017" x2="-16.277" y2="1.017" xlink:href="#linear-gradient-5"/>
  </defs>
  <g id="Group_557" data-name="Group 557" transform="translate(39.361)">
    <path id="Path_235" data-name="Path 235" d="M306.516,85.445a114.262,114.262,0,0,0-113.64-71.971,112.743,112.743,0,0,0-88.543,52.7,108.6,108.6,0,0,0-8.157,15.649A106.633,106.633,0,0,0,90.6,98.511a108.631,108.631,0,0,0,5.315,68.133,112.713,112.713,0,0,1-.148-66.73,108.114,108.114,0,0,1,65.807-69.72A97.75,97.75,0,0,1,177.3,25.728a100.125,100.125,0,0,1,16.24-1.993A106.364,106.364,0,0,1,296.956,89.247a107.768,107.768,0,0,1-27.238,120.874,112.146,112.146,0,0,1-60.382,28.309,107.931,107.931,0,0,0,63.888-24.249,113.258,113.258,0,0,0,23.437-26.168,111,111,0,0,0,14.173-32.405A114.563,114.563,0,0,0,306.516,85.445Z" transform="translate(-87.444 9.893)" fill="url(#linear-gradient)"/>
    <path id="Path_236" data-name="Path 236" d="M123.627,183.351c16.129,4.429,38.606,15.132,42.408,2.768s2.214-15.871,9.3-18.122c7.086-2.288-.3-7.2.185-10.15s7.049-.775,7.16-3.986-5.13-4.318-4.023-8.267c1.107-3.912,11.294-2.879,12.217-8.341s-12.844-16.424-10.74-24.95c2.067-8.526,5.536-7.9,7.049-18.749,1.033-7.492.554-21.112-8.378-32.368a61.534,61.534,0,0,0,1.661-9.375,54.26,54.26,0,0,0-.738-15.28,39.551,39.551,0,0,0-5.721-13.841,45.511,45.511,0,0,1,2.731,14.21,54.408,54.408,0,0,1-1.513,14.062,72.838,72.838,0,0,1-11.848,25.282c-10.74,15.5-25.688,28.272-38.089,44.4-6.127,8.083-11.737,17.015-15.022,27.091l-1.181,3.8c-.332,1.292-.591,2.584-.849,3.875a68.941,68.941,0,0,0-1.181,7.825,71.514,71.514,0,0,0,.369,15.649,72.31,72.31,0,0,0,10.223,28.9,63.669,63.669,0,0,0,21.112,21.185A76.5,76.5,0,0,1,116.5,183.72,10.515,10.515,0,0,1,123.627,183.351Z" transform="translate(-35.358 35.371)" fill="url(#linear-gradient-2)"/>
    <path id="Path_237" data-name="Path 237" d="M116.239,110.947c5.795-13.287,15.575-25.1,25.356-37.167,4.872-6.053,9.818-12.29,14.173-18.934,4.318-6.68,8.194-13.73,10.519-21.3-8.858,13.029-20.041,23.437-31.077,34.509a215.974,215.974,0,0,0-16.055,17.605,97.2,97.2,0,0,0-12.955,20.89,53.888,53.888,0,0,0-2.214,5.905l-1,3.026c-.3,1-.517,2.03-.738,3.063l-.664,3.1-.443,3.137-.406,3.137-.148,3.137a72.45,72.45,0,0,0,3.211,24.581,70.665,70.665,0,0,0,11.183,21.739,59.4,59.4,0,0,0,17.937,15.76A79.244,79.244,0,0,1,112.142,153.5,71.408,71.408,0,0,1,116.239,110.947Z" transform="translate(-52.256 64.593)" fill="url(#linear-gradient-3)"/>
    <path id="Path_238" data-name="Path 238" d="M102.592,152.292a103.477,103.477,0,0,1,17.421-43.035c9.006-12.844,20.632-24.4,31.224-37.314A129.074,129.074,0,0,0,165.52,51.127c3.912-7.492,6.865-15.612,7.6-23.917-6.053,15.575-16.83,27.57-28.235,39.012-11.4,11.515-23.843,22.662-33.808,36.8a94.41,94.41,0,0,0-17.015,48.313c-1.107,17.089,2.362,34.472,10.7,48.9A117.32,117.32,0,0,1,102.592,152.292Z" transform="translate(-70.165 47.533)" fill="url(#linear-gradient-4)"/>
    <path id="Path_239" data-name="Path 239" d="M331.9,135.071a134.217,134.217,0,0,0-14.062-52.926,139.1,139.1,0,0,0-33.992-43.183,137.131,137.131,0,0,0-48.276-26.242,135.137,135.137,0,0,0-54.55-4.835,137.826,137.826,0,0,0-26.759,5.795,132.147,132.147,0,0,0-24.876,11.183,130.162,130.162,0,0,0-39.9,35.912,143.367,143.367,0,0,1,42.038-32A133.629,133.629,0,0,1,324.854,135.588a136.184,136.184,0,0,1-5.13,51.819,142.492,142.492,0,0,1-24.47,46.8,130.017,130.017,0,0,0,28.715-45.4A134.076,134.076,0,0,0,331.9,135.071Z" transform="translate(-81.94 -6.959)" fill="#493686"/>
  </g>
  <g id="Group_556" data-name="Group 556" transform="translate(0 274.287)">
    <g id="Group_520" data-name="Group 520" transform="translate(52.819 27.975)">
      <g id="Group_462" data-name="Group 462" transform="translate(112.443)">
        <g id="Group_413" data-name="Group 413" clip-path="url(#clip-path)">
          <rect id="Rectangle_408" data-name="Rectangle 408" width="0.056" height="0.085" fill="#fefefe"/>
        </g>
      </g>
    </g>
    <g id="Group_532" data-name="Group 532" transform="translate(1.282 41.178)">
      <g id="Group_459" data-name="Group 459" transform="translate(0 0)">
        <path id="Path_343" data-name="Path 343" d="M235.2,142.874c-1.071,2.34-2.141,4.681-3.242,7.007-.258.544-.352,1.227-1.082,1.535-.192-.443-.357-.894-.577-1.318a5.077,5.077,0,0,1,.186-5.3,14.023,14.023,0,0,0,1.613-3.583c-2.289-.434-2.279-.429-3.108,1.3-.192.4-.228.964-.828,1.064-1.33-2.736-1.33-2.736-3.757-2.415.625,1.8,1.2,3.431,1.751,5.068.174.514.513,1.024.251,1.6a19.31,19.31,0,0,1-1.847,3.706,4.588,4.588,0,0,1-.992-2.019c-.837-2.433-1.686-4.862-2.472-7.31-.3-.934-.785-1.42-1.8-1.262-.462.073-.974-.131-1.371.247a1.38,1.38,0,0,0,.182,1.006q1.891,5.085,3.789,10.166c.72,1.926.3,1.72,2.647,1.834a1.861,1.861,0,0,0,2.178-1.417,3.034,3.034,0,0,1,1.137-1.8,7.05,7.05,0,0,1,.866,2.1c.126.385.206.936.656.979a12.226,12.226,0,0,0,2.9.008c.677-.1.769-.919,1.038-1.467q2.447-4.959,4.862-9.933c.231-.476.678-.917.46-1.538-2.5-.358-2.491-.355-3.446,1.732" transform="translate(45.464 -140.317)" fill="#383088"/>
        <path id="Path_344" data-name="Path 344" d="M258.709,143.629a4.106,4.106,0,0,0-3.987,1.351,3.96,3.96,0,0,0-5.342-.725c-.454.266-.6.079-1-.164-1.511-.927-2.479-.383-2.549,1.32-.1,2.3-.149,4.593-.277,6.886-.045.821.043,1.326,1.052,1.332,1.37.01,1.557-.063,1.646-1.21.036-.486.038-.974.039-1.461a13.986,13.986,0,0,1,.392-3.521,1.959,1.959,0,0,1,2.056-1.694c.879.1,1.274.669,1.267,2.047-.01,1.461-.108,2.921-.169,4.381-.056,1.358.028,1.45,1.314,1.442,1.257-.008,1.318-.061,1.38-1.471a19.466,19.466,0,0,1,.4-4.772c.353-1.184,1.128-1.757,2.1-1.627.9.12,1.269.642,1.243,2.051-.03,1.6-.145,3.2-.254,4.8-.049.717.255,1.081.951,1.007.673-.07,1.7.423,1.785-.811.152-2.221.3-4.449.3-6.673a2.4,2.4,0,0,0-2.34-2.483" transform="translate(51.401 -139.755)" fill="#383088"/>
        <path id="Path_345" data-name="Path 345" d="M209.568,144.152c-.138.006-.278.013-.418.017-1.581.044-1.572.044-1.557-1.5,0-.533.316-1.225-.254-1.547a2.673,2.673,0,0,0-2.036-.063c-.607.177-.47.783-.475,1.245-.018,1.811-.007,3.623-.007,5.435H204.7c-.1,1.6-.237,3.2-.306,4.8s1,2.3,2.277,1.338c.719-.543,1-.3,1.55-.033a4.376,4.376,0,0,0,5.193-.775,6.656,6.656,0,0,0,1.024-6.494c-.953-2.156-2.8-2.513-4.867-2.423m2.155,6.667a2.229,2.229,0,0,1-2.457,1.481,2.128,2.128,0,0,1-1.98-2.042,7.967,7.967,0,0,1-.066-1.176c0-.544,0-.613,0-.683.032-2.053.069-2.108,1.524-2.3a2.618,2.618,0,0,1,3.215,1.889,4.23,4.23,0,0,1-.237,2.831" transform="translate(42.57 -140.323)" fill="#383088"/>
        <path id="Path_346" data-name="Path 346" d="M277.106,143.666a5.455,5.455,0,0,0-3.665.447c-.525.3-.788.54-1.5-.106-1.091-1-2.379-.23-2.472,1.236-.074,1.182-.134,2.365-.2,3.548h-.017c-.066,1.253-.142,2.506-.191,3.758-.016.4-.074.833.458,1.026a1.528,1.528,0,0,0,2.269-1.388,41.5,41.5,0,0,1,.466-4.357,2.478,2.478,0,0,1,2.753-2.045c1.279.136,1.77.821,1.754,2.575-.012,1.393-.08,2.786-.141,4.179-.035.777.26,1.181,1.086,1.077.633-.079,1.517.288,1.577-.823.118-2.157.284-4.315.271-6.471a2.563,2.563,0,0,0-2.452-2.655" transform="translate(56.444 -139.753)" fill="#383088"/>
        <path id="Path_347" data-name="Path 347" d="M240.841,143.573c-3.453-.017-5.592,2.034-5.559,5.333.029,3.04,2.009,4.865,5.271,4.862,3.345,0,5.4-1.985,5.439-5.242.038-3.085-1.887-4.936-5.151-4.953m-.254,8.275c-1.511.032-2.583-1.174-2.6-2.925-.021-1.965,1.053-3.288,2.7-3.329,1.6-.04,2.574,1.048,2.579,2.874,0,1.976-1.083,3.347-2.681,3.38" transform="translate(49.198 -139.748)" fill="#383088"/>
        <path id="Path_348" data-name="Path 348" d="M201.374,143.614a12.885,12.885,0,0,0-5.152.548c.006.564-.533,1.176.147,1.68a7.323,7.323,0,0,1,4.038-.634c.491.074.945.259,1.013.86a1.015,1.015,0,0,1-.747,1.11,13.379,13.379,0,0,1-3.21.791c-2.962,1.482-3.367,2.416-2.172,5.011a5.592,5.592,0,0,0,4.21.695c.628-.08.724-.619.687-1.111s-.454-.379-.794-.353a3.7,3.7,0,0,1-.828-.006c-.574-.087-1.1-.3-1.228-.945a1.193,1.193,0,0,1,.747-1.352,7.623,7.623,0,0,1,3.328-.946c0,.856-.011,1.546,0,2.236a5.149,5.149,0,0,0,.151,2.319,7.067,7.067,0,0,0,.781.083c1.572,0,1.562-.006,1.646-1.592.093-1.736.251-3.469.3-5.2.062-2.195-.7-3.017-2.919-3.187" transform="translate(40.484 -139.75)" fill="#383088"/>
        <path id="Path_349" data-name="Path 349" d="M266.3,143.658c-4.184-.741-6.978,1.886-6.505,6.117a4.188,4.188,0,0,0,3.72,3.912,12.706,12.706,0,0,0,3.546,0c1.29-.168,1.326-.25,1.388-1.948-.488-.244-.946,0-1.419.078a9.45,9.45,0,0,1-1.448.17,2.807,2.807,0,0,1-2.97-1.84c-.357-1.013-.117-1.438.945-1.468,1.6-.046,3.209-.056,4.811,0,.939.03,1.2-.379,1.183-1.241a3.763,3.763,0,0,0-3.253-3.771m.561,3.636a12.312,12.312,0,0,1-3.534.128c-.6-.012-.63-.437-.452-.876a2.219,2.219,0,0,1,2.394-1.275,1.64,1.64,0,0,1,1.592,2.023" transform="translate(54.446 -139.756)" fill="#383088"/>
        <path id="Path_350" data-name="Path 350" d="M195.287,143.774a2.372,2.372,0,0,0-2.208.09,1.318,1.318,0,0,1-1.7,0,1.31,1.31,0,0,0-2.168.854c-.143,2.569-.219,5.142-.367,7.711-.052.926.326,1.244,1.211,1.2.78-.038,1.557.09,1.555-1.1,0-1.391.049-2.786.187-4.168.148-1.474.825-2.462,2.084-2.47,1.5-.01,1.47-.838,1.484-1.83a.225.225,0,0,1-.075-.289" transform="translate(39.233 -139.754)" fill="#383088"/>
        <path id="Path_351" data-name="Path 351" d="M42.468,140.937c-1.145.142-2.412-.464-3.188,1.154-1.771,3.692-3.737,7.29-5.629,10.924a1.278,1.278,0,0,0-.233.975c2.769.424,2.769.424,3.885-1.979a3.282,3.282,0,0,0,.271-.564c.4-1.669,1.5-2.043,3.11-1.953,3.3.186,2.653-.509,3.825,2.826.678,1.926.165,1.884,2.776,1.857a6.721,6.721,0,0,0,.879-.165c-1.448-4.017-2.838-7.856-4.213-11.7-.261-.731-.432-1.506-1.483-1.375m-2.8,6.452a13.437,13.437,0,0,1,1.887-4.161l1.372,4.043a7.822,7.822,0,0,1-3.26.118" transform="translate(5.881 -140.317)" fill="#383088"/>
        <path id="Path_352" data-name="Path 352" d="M18.436,144.124a7.345,7.345,0,0,0-4.188.955,5.356,5.356,0,0,1-.107-2.555c.1-1.593.1-1.6-1.547-1.579a9.922,9.922,0,0,0-1.071.13c-.146,2.977-.29,5.893-.431,8.81-.053,1.114-.107,2.228-.142,3.342-.011.335-.028.689.364.883a1.572,1.572,0,0,0,2.328-1.259q.138-1.771.287-3.54a4.238,4.238,0,0,1,.4-1.612,2.525,2.525,0,0,1,2.97-1.369c1,.248,1.346.765,1.332,2.265-.011,1.393-.107,2.786-.166,4.178-.057,1.376-.056,1.382,1.312,1.4a1.975,1.975,0,0,0,1.351-.281c.12-2.121.316-4.341.352-6.565.035-2.068-.951-2.977-3.045-3.206" transform="translate(1.066 -140.313)" fill="#383088"/>
        <path id="Path_353" data-name="Path 353" d="M51.944,143.742a4.834,4.834,0,0,0-1.136.517c-.426.253-.641.491-1.1-.145-.536-.736-1.562-.47-2.311-.22-.627.209-.379.969-.4,1.5a67.29,67.29,0,0,1-.391,6.888c-.108.768-.061,1.349.99,1.38,1.5.045,1.77-.053,1.838-1.233a21.3,21.3,0,0,1,.38-4.365,2.619,2.619,0,0,1,2.806-2.259c1.312.14,1.825.89,1.783,2.787-.029,1.323-.165,2.643-.238,3.965-.022.406-.077.828.451,1.031,1.32.505,2.317-.09,2.365-1.466.032-.9.006-1.812.006-2.718h.073c.03-.487.063-.974.091-1.461.2-3.59-1.745-5.169-5.2-4.2" transform="translate(8.708 -139.772)" fill="#383088"/>
        <path id="Path_354" data-name="Path 354" d="M62.925,143.608a3.8,3.8,0,0,0-1.575.521c-.52.3-.725.537-1.419-.134-1.077-1.043-2.524-.164-2.575,1.371-.036,1.115-.007,2.231-.007,3.346l-.063,0q-.142,1.667-.285,3.333c-.131,1.516-.07,1.53,1.359,1.6,1.085.049,1.516-.332,1.455-1.432a15.485,15.485,0,0,1,.121-2.713,8.527,8.527,0,0,1,.511-2.227,2.441,2.441,0,0,1,2.732-1.461c1.089.209,1.581.867,1.572,2.336-.008,1.392-.091,2.787-.21,4.176-.072.837.055,1.314,1.057,1.323,1.437.011,1.654-.051,1.725-1.125.1-1.532.073-3.073.231-4.6.4-3.846-1.648-4.581-4.627-4.317" transform="translate(10.937 -139.755)" fill="#383088"/>
        <path id="Path_355" data-name="Path 355" d="M74.961,144.964c-.138,1.524-.154,3.067-.409,4.569a2.373,2.373,0,0,1-2.728,2.011c-1.2-.16-1.71-.826-1.67-2.436.035-1.388.2-2.774.3-4.161.053-.687-.007-1.307-.933-1.221-.743.07-1.808-.412-1.862.975-.079,2.085-.2,4.172-.2,6.257a2.526,2.526,0,0,0,2.344,2.723,5.351,5.351,0,0,0,3.658-.441c.5-.289.723-.589,1.431.114,1.021,1.013,2.329.176,2.368-1.32.027-1.111,0-2.223,0-3.334h.2c.061-1.32.131-2.64.176-3.962.011-.332.046-.714-.287-.938a1.64,1.64,0,0,0-2.4,1.162" transform="translate(13.193 -139.745)" fill="#383088"/>
        <path id="Path_356" data-name="Path 356" d="M83.844,143.52a32.314,32.314,0,0,0-4.146.306c-1.128.239-1.487.809-1.08,1.966.38-.1.7-.209,1.03-.281a7.114,7.114,0,0,1,3.288-.236.988.988,0,0,1,.848.8.9.9,0,0,1-.6.989,16.827,16.827,0,0,1-2.172.69,7.506,7.506,0,0,0-2.877,1.143,2.686,2.686,0,0,0-.277,4.176,5.561,5.561,0,0,0,4.185.579,1.14,1.14,0,0,0,.523-1.414c-.486-.25-.963.07-1.439-.012-.627-.109-1.276-.194-1.4-.99a1.3,1.3,0,0,1,.953-1.439,8.268,8.268,0,0,1,3.038-.81,9.133,9.133,0,0,1,.01,2.734c-.032.666-.39,1.374.2,1.981.273-.027.547-.062.821-.079,1.583-.1,1.586-.1,1.651-1.6.067-1.515.1-3.032.191-4.545.16-2.787-.08-3.152-2.745-3.961" transform="translate(15.235 -139.759)" fill="#383088"/>
        <path id="Path_357" data-name="Path 357" d="M11.421,140.941c-3.126,0-6.254.007-9.381-.008-.9,0-.947.556-.981,1.24-.044.826.463.877,1.058.871.347,0,.695-.011,1.042-.011,2.013,0,2.025.006,1.949,2.1-.04,1.111-.154,2.219-.189,3.33a49.826,49.826,0,0,0-.128,5.632c.52.033.93.084,1.34.079,1.506-.018,1.508-.025,1.569-1.466.017-.417,0-.834.017-1.251a68.557,68.557,0,0,1,.488-8.274,14.037,14.037,0,0,1,3.188-.158c.785-.053.815-.581.847-1.165s-.2-.922-.819-.922" transform="translate(-1.056 -140.314)" fill="#383088"/>
        <path id="Path_358" data-name="Path 358" d="M27.495,143.639a9.282,9.282,0,0,0-2.5.027c-2.484.395-4.1,2.736-3.951,5.588a4.368,4.368,0,0,0,4.313,4.476,18.038,18.038,0,0,0,2.92-.038c1.467-.13,1.464-.169,1.515-2.09-1.047-.1-2.006.485-3.055.395-1.513-.13-2.54-.817-2.81-2.039-.18-.813-.043-1.338.986-1.308,1.6.046,3.2.038,4.8,0,1.105-.028,1.317-.316,1.219-1.4a3.77,3.77,0,0,0-3.444-3.6m.672,3.4c-.147.628-.774.407-1.213.421-.757.026-1.513,0-2.27-.022a2.639,2.639,0,0,1-.567-.147c.528-1.776,1.75-2.515,3.126-1.9a1.39,1.39,0,0,1,.924,1.646" transform="translate(3.231 -139.749)" fill="#383088"/>
        <path id="Path_359" data-name="Path 359" d="M186.224,142.441c-.279-.771-.421-1.665-1.606-1.51-1.149.152-2.384-.413-3.149,1.234-1.638,3.523-3.543,6.924-5.328,10.38-.245.475-.68.9-.5,1.521,2.812.26,2.81.26,3.917-2.106.264-.566.561-1.119.805-1.693a1.231,1.231,0,0,1,1.137-.741c3.672-.5,4.16-.215,5.388,3.243a1.09,1.09,0,0,1,.074.2,1.256,1.256,0,0,0,1.567,1.23c.544-.064,1.115.1,1.638-.183.2-.516-.106-.946-.261-1.382-1.215-3.4-2.452-6.793-3.684-10.188m-4.5,4.93a22.906,22.906,0,0,1,1.8-3.753c.635.148.617.633.734,1,.851,2.666,1.907,3.137-2.537,2.755" transform="translate(36.393 -140.318)" fill="#383088"/>
        <path id="Path_360" data-name="Path 360" d="M162.416,143.565c-3.447-.026-5.662,2.071-5.627,5.325.034,3.024,2.055,4.887,5.3,4.887,3.315,0,5.467-2.037,5.53-5.232.058-3.012-1.971-4.955-5.2-4.98m1.7,7.258a2.4,2.4,0,0,1-2.581.925,2.124,2.124,0,0,1-1.8-1.788,6.493,6.493,0,0,1-.05-1.859,2.53,2.53,0,0,1,2.761-2.495c1.508.072,2.32,1.068,2.326,2.97a3.453,3.453,0,0,1-.66,2.247" transform="translate(32.357 -139.749)" fill="#383088"/>
        <path id="Path_361" data-name="Path 361" d="M103.622,140.931c-2.23.032-4.461.045-6.69-.006-1.023-.023-1.34.413-1.319,1.366.039,1.742.011,3.483.011,4.511-.177,2.526-.294,4.332-.435,6.138-.056.707.019,1.189.928,1.249,1.552.1,2-.023,2.085-.972.1-1.179.142-2.367.138-3.551,0-.912.408-1.225,1.274-1.19.974.04,1.952-.011,2.927.015.719.018,1.227-.124,1.217-1-.01-.857-.521-1.04-1.232-1.036-.975,0-1.951-.012-2.927,0-.753.011-1.2-.248-1.121-1.091a6.008,6.008,0,0,0,.021-1.045c-.083-1.008.4-1.353,1.362-1.314,1.252.051,2.509-.016,3.763.03.785.028,1.12-.231,1.134-1.057.015-.861-.368-1.058-1.137-1.047" transform="translate(19.138 -140.316)" fill="#383088"/>
        <path id="Path_362" data-name="Path 362" d="M146.29,143.676a13.174,13.174,0,0,0-4.77.215c-1.007.222-1.154.815-.882,1.867.424-.108.686-.182.952-.242a7.57,7.57,0,0,1,3.3-.278,1.051,1.051,0,0,1,.911.749.962.962,0,0,1-.692,1.14c-.78.285-1.592.481-2.4.7a6.731,6.731,0,0,0-2.656,1.154,2.547,2.547,0,0,0-.906,2.8,2.379,2.379,0,0,0,2,1.883,12.271,12.271,0,0,0,2.287.085c1-.022,1.295-.6,1.108-1.528-.52,0-1.006.038-1.483-.01-.562-.057-1.139-.2-1.3-.851a1.247,1.247,0,0,1,.817-1.512,8.557,8.557,0,0,1,3.2-.885,12.225,12.225,0,0,1-.106,3.455c-.085.746.074,1.174.95,1.216,1.358.063,1.721-.075,1.781-1.07.121-2.014.221-4.031.266-6.047a2.4,2.4,0,0,0-2.383-2.838" transform="translate(28.549 -139.753)" fill="#383088"/>
        <path id="Path_363" data-name="Path 363" d="M112.468,144.487a5.694,5.694,0,0,0-5.583-.46,3.8,3.8,0,0,0-2.819,3.873,27.474,27.474,0,0,0,.118,2.916,3.6,3.6,0,0,0,2.644,2.787,17.8,17.8,0,0,0,4.38.1c1.511-.18,1.51-.189,1.493-2-.489-.238-.935.05-1.4.118a10.275,10.275,0,0,1-1.449.163,2.753,2.753,0,0,1-2.938-1.864c-.35-1.048-.138-1.413.958-1.448,1.393-.045,2.789-.006,4.183-.017,1.793-.015,2.047-.338,1.686-2.074a3.262,3.262,0,0,0-1.272-2.1m-1.348,2.659c-.164.39-.576.319-.9.312a14.645,14.645,0,0,1-3.159-.135,1.926,1.926,0,0,1,1.762-2.016,1.882,1.882,0,0,1,2.064.664,1.183,1.183,0,0,1,.238,1.174" transform="translate(21.045 -139.761)" fill="#383088"/>
        <path id="Path_364" data-name="Path 364" d="M137.145,145.8a23.267,23.267,0,0,1-2.123,4.763c-.653-2.087-1.262-3.906-1.785-5.75-.226-.8-.615-1.2-1.459-1.117-.475.049-.978-.1-1.45.242a1.8,1.8,0,0,0,.007.576c.93,2.69,1.908,5.365,2.8,8.068a1.29,1.29,0,0,0,1.553,1c.777-.072,1.671.288,2.122-.8.877-2.117,1.836-4.2,2.744-6.3a7.542,7.542,0,0,0,1-2.637c-2.523-.244-2.493-.232-3.4,1.957" transform="translate(26.675 -139.723)" fill="#383088"/>
        <path id="Path_365" data-name="Path 365" d="M173.109,140.9a3.385,3.385,0,0,0-5.016,2.19c-.089.588.084,1.17-.815,1.434a.98.98,0,0,0-.3,1.681c1.057.56.724,1.359.731,2.123.019,1.937.006,3.874.006,5.829a3.922,3.922,0,0,0,.624.123c1.855.055,1.849.051,1.93-1.73.078-1.67.193-3.34.248-5.011.026-.746.236-1.211,1.083-1.109.866.1,1.308-.245,1.292-1.155-.013-.823-.576-.806-1.153-.837-.522-.028-1.213.142-1.157-.76a1.137,1.137,0,0,1,1.24-1.134c.277-.013.555.034.834.04.333.007.749.1.813-.384.062-.465.171-.955-.361-1.3" transform="translate(34.467 -140.424)" fill="#383088"/>
        <path id="Path_366" data-name="Path 366" d="M125.8,144.2c-1.549-.318-1.54-.355-1.715-2.3-1.249.17-2.469.015-2.492,1.686-.007.564-.559.477-.9.67-.632.361-.806,1.517-.25,1.679,1.347.39.938,1.308.9,2.146-.043.974-.148,1.946-.174,2.92-.064,2.543.644,3.222,3.215,3.125,1.291-.05,2.09.019,1.921-1.919-2.378-.3-2.378-.3-2.309-2.834.013-.487.026-.975.049-1.462.068-1.494.064-1.527,1.691-1.8.6-.1.845-.339.851-.933a.838.838,0,0,0-.792-.984" transform="translate(24.488 -140.107)" fill="#383088"/>
        <path id="Path_367" data-name="Path 367" d="M118.752,148.769c-.63-.548-1.346-1.006-1.929-1.6-.714-.728-.471-1.37.517-1.679.89-.278,1.754.175,2.625.164.149-1.9.151-1.929-1.408-2.036a14.344,14.344,0,0,0-2.5.024,2.519,2.519,0,0,0-2.336,1.791,2.446,2.446,0,0,0,.817,2.634c.6.581,1.274,1.081,1.915,1.617.493.412,1.036.855.687,1.569a1.466,1.466,0,0,1-1.637.658c-.755-.086-1.5-.273-2.387-.443-.011,2.015-.015,2.048,1.51,2.206a13.569,13.569,0,0,0,2.5.039,2.922,2.922,0,0,0,2.791-1.852c.479-1.326-.228-2.279-1.168-3.1" transform="translate(22.987 -139.746)" fill="#383088"/>
        <path id="Path_368" data-name="Path 368" d="M88.807,140.946c-.713.058-1.607-.25-1.584,1.015.035,1.87.01,3.742.01,5.612h-.254c-.08,1.8-.121,3.607-.255,5.4-.07.93.272,1.27,1.17,1.2.724-.06,1.535.213,1.576-1.037.121-3.675.308-7.348.528-11.017.058-.963-.326-1.246-1.191-1.176" transform="translate(17.323 -140.314)" fill="#383088"/>
        <path id="Path_369" data-name="Path 369" d="M150.817,140.938c-.736.045-1.546-.192-1.584,1.046-.115,3.679-.285,7.357-.491,11.032-.055.963.335,1.23,1.2,1.172.741-.051,1.551.181,1.566-1.059.022-1.873.179-3.746.278-5.617l-.043,0c.091-1.8.145-3.61.291-5.408.081-.986-.378-1.215-1.218-1.162" transform="translate(30.63 -140.315)" fill="#383088"/>
        <path id="Path_370" data-name="Path 370" d="M129.693,144.808c.083-.828-.273-1.185-1.066-1.1-.677.077-1.67-.384-1.738.872-.145,2.644-.239,5.289-.4,7.932-.063,1.053.561,1.1,1.321,1.072s1.613.17,1.586-1.055c-.029-1.324-.006-2.648-.006-3.847.1-1.378.179-2.631.3-3.878" transform="translate(25.855 -139.723)" fill="#383088"/>
        <path id="Path_371" data-name="Path 371" d="M128.272,140.868c-.65-.027-1.426-.182-1.417.919.011,1.155.861.771,1.432.871.67-.049,1.451.185,1.437-.934-.016-1.154-.848-.832-1.451-.856" transform="translate(25.935 -140.333)" fill="#383088"/>
      </g>
    </g>
    <g id="Group_535" data-name="Group 535" transform="translate(0 0)">
      <g id="Group_365" data-name="Group 365" transform="translate(284.662 7.069)" clip-path="url(#clip-path-2)">
        <rect id="Rectangle_384" data-name="Rectangle 384" width="47.534" height="24.955" transform="translate(-0.293 0)" fill="url(#linear-gradient-5)"/>
      </g>
      <g id="Group_367" data-name="Group 367" transform="translate(264.982 7.081)" clip-path="url(#clip-path-3)">
        <rect id="Rectangle_385" data-name="Rectangle 385" width="18.564" height="18.987" transform="translate(-0.029)" fill="url(#linear-gradient-6)"/>
      </g>
      <g id="Group_369" data-name="Group 369" transform="translate(248.061 16.59)" clip-path="url(#clip-path-4)">
        <rect id="Rectangle_386" data-name="Rectangle 386" width="13.704" height="15.165" transform="translate(-0.085 0)" fill="url(#linear-gradient-7)"/>
      </g>
      <g id="Group_371" data-name="Group 371" transform="translate(335.275 7.088)" clip-path="url(#clip-path-5)">
        <rect id="Rectangle_387" data-name="Rectangle 387" width="3.308" height="18.957" transform="translate(-0.015 0)" fill="url(#linear-gradient-8)"/>
      </g>
      <g id="Group_373" data-name="Group 373" transform="translate(235.34 6.987)" clip-path="url(#clip-path-6)">
        <rect id="Rectangle_388" data-name="Rectangle 388" width="3.735" height="19.122" transform="translate(-0.192 0)" fill="url(#linear-gradient-9)"/>
      </g>
      <g id="Group_375" data-name="Group 375" transform="translate(275.521 28.202)" clip-path="url(#clip-path-7)">
        <rect id="Rectangle_389" data-name="Rectangle 389" width="3.701" height="3.124" transform="translate(-0.249 0)" fill="url(#linear-gradient-10)"/>
      </g>
      <g id="Group_378" data-name="Group 378" transform="translate(254.023 12.478)">
        <g id="Group_377" data-name="Group 377" clip-path="url(#clip-path-8)">
          <rect id="Rectangle_390" data-name="Rectangle 390" width="3.273" height="2.977" transform="translate(-0.014 0)" fill="url(#linear-gradient-11)"/>
        </g>
      </g>
      <g id="Group_379" data-name="Group 379" transform="translate(43.943 7.072)" clip-path="url(#clip-path-9)">
        <rect id="Rectangle_391" data-name="Rectangle 391" width="30.323" height="25.089" transform="translate(-0.042 -0.015)" fill="url(#linear-gradient-12)"/>
      </g>
      <g id="Group_381" data-name="Group 381" transform="translate(0 12.376)" clip-path="url(#clip-path-10)">
        <rect id="Rectangle_392" data-name="Rectangle 392" width="42.598" height="14.096" transform="translate(-0.278)" fill="url(#linear-gradient-13)"/>
      </g>
      <g id="Group_383" data-name="Group 383" transform="translate(90.28 14.001)" clip-path="url(#clip-path-11)">
        <rect id="Rectangle_393" data-name="Rectangle 393" width="13.087" height="12.339" transform="translate(-0.392)" fill="url(#linear-gradient-14)"/>
      </g>
      <g id="Group_385" data-name="Group 385" transform="translate(77.579 7.076)" clip-path="url(#clip-path-12)">
        <rect id="Rectangle_394" data-name="Rectangle 394" width="3.334" height="18.976" transform="translate(-0.008 0)" fill="url(#linear-gradient-15)"/>
      </g>
      <g id="Group_387" data-name="Group 387" transform="translate(28.51 28.255)" clip-path="url(#clip-path-13)">
        <rect id="Rectangle_395" data-name="Rectangle 395" width="6.815" height="3.591" transform="translate(-0.121 -0.062)" fill="url(#linear-gradient-16)"/>
      </g>
      <g id="Group_390" data-name="Group 390" transform="translate(2.618 7.691)">
        <g id="Group_389" data-name="Group 389" clip-path="url(#clip-path-14)">
          <rect id="Rectangle_396" data-name="Rectangle 396" width="6.812" height="3.604" transform="translate(-0.029 -0.101)" fill="url(#linear-gradient-17)"/>
        </g>
      </g>
      <g id="Group_391" data-name="Group 391" transform="translate(38.493 28.258)" clip-path="url(#clip-path-15)">
        <rect id="Rectangle_397" data-name="Rectangle 397" width="3.361" height="3.057" transform="translate(-0.003)" fill="url(#linear-gradient-18)"/>
      </g>
      <g id="Group_394" data-name="Group 394" transform="translate(92.589 8.706)">
        <g id="Group_393" data-name="Group 393" clip-path="url(#clip-path-16)">
          <rect id="Rectangle_398" data-name="Rectangle 398" width="3.702" height="3.189" transform="translate(-0.442 0)" fill="url(#linear-gradient-19)"/>
        </g>
      </g>
      <g id="Group_396" data-name="Group 396" transform="translate(96.304 8.696)">
        <g id="Group_395" data-name="Group 395" clip-path="url(#clip-path-17)">
          <rect id="Rectangle_399" data-name="Rectangle 399" width="3.106" height="3.253" fill="url(#linear-gradient-20)"/>
        </g>
      </g>
      <g id="Group_397" data-name="Group 397" transform="translate(181.056 6.99)" clip-path="url(#clip-path-18)">
        <rect id="Rectangle_400" data-name="Rectangle 400" width="50.988" height="24.755" transform="translate(-0.085 0)" fill="url(#linear-gradient-21)"/>
      </g>
      <g id="Group_399" data-name="Group 399" transform="translate(109.74 7.02)" clip-path="url(#clip-path-19)">
        <rect id="Rectangle_401" data-name="Rectangle 401" width="40.148" height="25.105" transform="translate(-0.203 0)" fill="url(#linear-gradient-22)"/>
      </g>
      <g id="Group_401" data-name="Group 401" transform="translate(158.74 12.973)" clip-path="url(#clip-path-20)">
        <rect id="Rectangle_402" data-name="Rectangle 402" width="20.721" height="16.61" transform="translate(-0.371 0)" fill="url(#linear-gradient-23)"/>
      </g>
      <g id="Group_403" data-name="Group 403" transform="translate(104.769 6.939)" clip-path="url(#clip-path-21)">
        <rect id="Rectangle_403" data-name="Rectangle 403" width="3.386" height="19.098" transform="translate(-0.004 0)" fill="url(#linear-gradient-24)"/>
      </g>
      <g id="Group_406" data-name="Group 406" transform="translate(103.177 0)">
        <g id="Group_405" data-name="Group 405" clip-path="url(#clip-path-22)">
          <rect id="Rectangle_404" data-name="Rectangle 404" width="6.494" height="5.815" transform="translate(-0.237)" fill="url(#linear-gradient-25)"/>
        </g>
      </g>
      <g id="Group_407" data-name="Group 407" transform="translate(168.813 31.225)" clip-path="url(#clip-path-23)">
        <rect id="Rectangle_405" data-name="Rectangle 405" width="3.049" height="3.046" transform="translate(-0.012)" fill="url(#linear-gradient-26)"/>
      </g>
      <g id="Group_410" data-name="Group 410" transform="translate(197.022 8.729)">
        <g id="Group_409" data-name="Group 409" clip-path="url(#clip-path-24)">
          <rect id="Rectangle_406" data-name="Rectangle 406" width="3.272" height="3.136" transform="translate(-0.004 0)" fill="url(#linear-gradient-27)"/>
        </g>
      </g>
      <g id="Group_411" data-name="Group 411" transform="translate(165.309 31.221)" clip-path="url(#clip-path-25)">
        <rect id="Rectangle_407" data-name="Rectangle 407" width="3.028" height="3.102" transform="translate(-0.017)" fill="url(#linear-gradient-28)"/>
      </g>
    </g>
    <g id="Group_533" data-name="Group 533" transform="translate(217.755 74.689)">
      <g id="Group_415" data-name="Group 415" transform="translate(0)" clip-path="url(#clip-path-26)">
        <rect id="Rectangle_409" data-name="Rectangle 409" width="119.118" height="1.055" fill="url(#linear-gradient-29)"/>
      </g>
    </g>
    <g id="Group_537" data-name="Group 537" transform="translate(0.87 74.689)">
      <g id="Group_417" data-name="Group 417" transform="translate(0)" clip-path="url(#clip-path-26)">
        <rect id="Rectangle_411" data-name="Rectangle 411" width="119.119" height="1.055" fill="url(#linear-gradient-30)"/>
      </g>
    </g>
    <g id="Group_554" data-name="Group 554" transform="translate(0.87 72.696)">
      <rect id="Rectangle_486" data-name="Rectangle 486" width="119.119" height="1.057" transform="translate(216.885 0)" fill="#383088"/>
      <rect id="Rectangle_487" data-name="Rectangle 487" width="119.119" height="1.057" transform="translate(0 0)" fill="#383088"/>
    </g>
    <g id="Group_538" data-name="Group 538" transform="translate(136.779 69.151)" clip-path="url(#clip-path-28)">
      <rect id="Rectangle_489" data-name="Rectangle 489" width="9.319" height="10.071" transform="translate(0)" fill="url(#linear-gradient-31)"/>
    </g>
    <g id="Group_539" data-name="Group 539" transform="translate(126.129 69.151)" clip-path="url(#clip-path-29)">
      <rect id="Rectangle_490" data-name="Rectangle 490" width="9.423" height="9.902" transform="translate(0)" fill="url(#linear-gradient-32)"/>
    </g>
    <g id="Group_540" data-name="Group 540" transform="translate(146.056 69.151)" clip-path="url(#clip-path-30)">
      <rect id="Rectangle_491" data-name="Rectangle 491" width="9.267" height="9.902" transform="translate(0)" fill="url(#linear-gradient-33)"/>
    </g>
    <g id="Group_541" data-name="Group 541" transform="translate(190.203 69.111)" clip-path="url(#clip-path-31)">
      <rect id="Rectangle_492" data-name="Rectangle 492" width="7.009" height="10.111" transform="translate(0)" fill="url(#linear-gradient-34)"/>
    </g>
    <g id="Group_542" data-name="Group 542" transform="translate(197.839 69.111)" clip-path="url(#clip-path-32)">
      <rect id="Rectangle_493" data-name="Rectangle 493" width="7.058" height="9.942" transform="translate(0)" fill="url(#linear-gradient-35)"/>
    </g>
    <g id="Group_543" data-name="Group 543" transform="translate(205.07 69.151)" clip-path="url(#clip-path-33)">
      <rect id="Rectangle_494" data-name="Rectangle 494" width="7.367" height="9.902" transform="translate(0)" fill="url(#linear-gradient-36)"/>
    </g>
    <g id="Group_544" data-name="Group 544" transform="translate(173.7 74.548)">
      <g id="Group_433" data-name="Group 433" clip-path="url(#clip-path-34)">
        <rect id="Rectangle_422" data-name="Rectangle 422" width="4.154" height="1.87" transform="translate(0)" fill="url(#linear-gradient-37)"/>
      </g>
    </g>
    <g id="Group_545" data-name="Group 545" transform="translate(182.456 69.111)" clip-path="url(#clip-path-35)">
      <rect id="Rectangle_495" data-name="Rectangle 495" width="7.059" height="9.942" transform="translate(0)" fill="url(#linear-gradient-38)"/>
    </g>
    <g id="Group_546" data-name="Group 546" transform="translate(165.955 69.151)" clip-path="url(#clip-path-36)">
      <rect id="Rectangle_496" data-name="Rectangle 496" width="4.108" height="9.902" transform="translate(0 0)" fill="url(#linear-gradient-39)"/>
    </g>
    <g id="Group_547" data-name="Group 547" transform="translate(155.334 69.151)" clip-path="url(#clip-path-37)">
      <rect id="Rectangle_497" data-name="Rectangle 497" width="9.469" height="9.902" transform="translate(0)" fill="url(#linear-gradient-40)"/>
    </g>
  </g>
</svg>
