<svg xmlns="http://www.w3.org/2000/svg" xmlns:xlink="http://www.w3.org/1999/xlink" width="352.253" height="295.752" viewBox="0 0 352.253 295.752">
  <defs>
    <filter id="Rectangle_520" x="226.772" y="0" width="125.48" height="125.48" filterUnits="userSpaceOnUse">
      <feOffset dy="3" input="SourceAlpha"/>
      <feGaussianBlur stdDeviation="3" result="blur"/>
      <feFlood flood-opacity="0.161"/>
      <feComposite operator="in" in2="blur"/>
      <feComposite in="SourceGraphic"/>
    </filter>
    <filter id="Rectangle_522" x="8.032" y="49.292" width="236.74" height="236.74" filterUnits="userSpaceOnUse">
      <feOffset dy="3" input="SourceAlpha"/>
      <feGaussianBlur stdDeviation="3" result="blur-2"/>
      <feFlood flood-opacity="0.161"/>
      <feComposite operator="in" in2="blur-2"/>
      <feComposite in="SourceGraphic"/>
    </filter>
    <filter id="Rectangle_521" x="199.877" y="75.106" width="82.749" height="82.749" filterUnits="userSpaceOnUse">
      <feOffset dy="3" input="SourceAlpha"/>
      <feGaussianBlur stdDeviation="3" result="blur-3"/>
      <feFlood flood-opacity="0.161"/>
      <feComposite operator="in" in2="blur-3"/>
      <feComposite in="SourceGraphic"/>
    </filter>
    <filter id="Rectangle_524" x="175.711" y="49.292" width="66.332" height="66.332" filterUnits="userSpaceOnUse">
      <feOffset dy="3" input="SourceAlpha"/>
      <feGaussianBlur stdDeviation="3" result="blur-4"/>
      <feFlood flood-opacity="0.161"/>
      <feComposite operator="in" in2="blur-4"/>
      <feComposite in="SourceGraphic"/>
    </filter>
    <filter id="Rectangle_523" x="0" y="170.272" width="125.48" height="125.48" filterUnits="userSpaceOnUse">
      <feOffset dy="3" input="SourceAlpha"/>
      <feGaussianBlur stdDeviation="3" result="blur-5"/>
      <feFlood flood-opacity="0.161"/>
      <feComposite operator="in" in2="blur-5"/>
      <feComposite in="SourceGraphic"/>
    </filter>
  </defs>
  <g id="Group_562" data-name="Group 562" transform="translate(-707 -149.782)">
    <g transform="matrix(1, 0, 0, 1, 707, 149.78)" filter="url(#Rectangle_520)">
      <rect id="Rectangle_520-2" data-name="Rectangle 520" width="76" height="76" rx="8" transform="translate(235.77 59.74) rotate(-45)" fill="#4a3685"/>
    </g>
    <g transform="matrix(1, 0, 0, 1, 707, 149.78)" filter="url(#Rectangle_522)">
      <rect id="Rectangle_522-2" data-name="Rectangle 522" width="154.673" height="154.673" rx="4" transform="translate(17.03 164.66) rotate(-45)" fill="#88438d"/>
    </g>
    <g transform="matrix(1, 0, 0, 1, 707, 149.78)" filter="url(#Rectangle_521)">
      <rect id="Rectangle_521-2" data-name="Rectangle 521" width="45.785" height="45.785" rx="4" transform="translate(208.88 113.48) rotate(-45)" fill="#88438d"/>
    </g>
    <g transform="matrix(1, 0, 0, 1, 707, 149.78)" filter="url(#Rectangle_524)">
      <g id="Rectangle_524-2" data-name="Rectangle 524" transform="translate(184.71 79.46) rotate(-45)" fill="none" stroke="#88438d" stroke-width="4">
        <rect width="34.176" height="34.176" rx="6" stroke="none"/>
        <rect x="2" y="2" width="30.176" height="30.176" rx="4" fill="none"/>
      </g>
    </g>
    <g transform="matrix(1, 0, 0, 1, 707, 149.78)" filter="url(#Rectangle_523)">
      <g id="Rectangle_523-2" data-name="Rectangle 523" transform="translate(9 230.01) rotate(-45)" fill="#4a3685" stroke="#fefefe" stroke-width="4">
        <rect width="76" height="76" rx="8" stroke="none"/>
        <rect x="2" y="2" width="72" height="72" rx="6" fill="none"/>
      </g>
    </g>
  </g>
</svg>
