<svg xmlns="http://www.w3.org/2000/svg" xmlns:xlink="http://www.w3.org/1999/xlink" width="98" height="99" viewBox="0 0 98 99">
  <defs>
    <filter id="Ellipse_34" x="0" y="0" width="98" height="99" filterUnits="userSpaceOnUse">
      <feOffset dy="3" input="SourceAlpha"/>
      <feGaussianBlur stdDeviation="3" result="blur"/>
      <feFlood flood-opacity="0.161"/>
      <feComposite operator="in" in2="blur"/>
      <feComposite in="SourceGraphic"/>
    </filter>
    <clipPath id="clip-path">
      <rect id="Rectangle_237" data-name="Rectangle 237" width="67" height="67" transform="translate(-0.296 -0.296)" fill="none"/>
    </clipPath>
  </defs>
  <g id="Media" transform="translate(9 -168)">
    <g transform="matrix(1, 0, 0, 1, -9, 168)" filter="url(#Ellipse_34)">
      <ellipse id="Ellipse_34-2" data-name="Ellipse 34" cx="40" cy="40.5" rx="40" ry="40.5" transform="translate(9 6)" fill="#fefefe"/>
    </g>
    <g id="Group_271" data-name="Group 271" transform="translate(6.821 180.821)">
      <g id="Group_270" data-name="Group 270" transform="translate(0.475 0.475)" clip-path="url(#clip-path)">
        <path id="Path_186" data-name="Path 186" d="M33.689,0A33.689,33.689,0,1,0,43.36,65.967a13.792,13.792,0,0,1-3.8-1.554,12.049,12.049,0,0,1-5.311-5.6,10.608,10.608,0,0,1-.824-4.114l.793-.005a9.869,9.869,0,0,0,.761,3.813,11.341,11.341,0,0,0,4.994,5.232,13.774,13.774,0,0,0,4.9,1.739h0A33.694,33.694,0,0,0,33.689,0M36.1,51.487a2.257,2.257,0,0,1-4.452,0l-.005-.026h4.463Zm1.953-1.456a.566.566,0,0,1-.565.528H29.937a.561.561,0,0,1-.563-.521L27.551,27.274a.567.567,0,0,1,.565-.61H39.005a.567.567,0,0,1,.565.605Zm1.739-24.325H27.321a.477.477,0,0,1,0-.954H39.793a.477.477,0,0,1,0,.954m.447-1.91H26.877a8.6,8.6,0,1,1,13.362,0" transform="translate(-0.485 -0.485)" fill="#88438d"/>
        <path id="Path_187" data-name="Path 187" d="M137.387,50.978a.262.262,0,0,1-.264.259h0a.263.263,0,0,1-.262-.267,7.839,7.839,0,0,0-2.153-5.546,7.4,7.4,0,0,0-3.076-1.844.264.264,0,1,1,.156-.5,7.952,7.952,0,0,1,3.295,1.976,8.385,8.385,0,0,1,2.307,5.927" transform="translate(-97.197 -32.169)" fill="#88438d"/>
      </g>
    </g>
  </g>
</svg>
