<svg xmlns="http://www.w3.org/2000/svg" xmlns:xlink="http://www.w3.org/1999/xlink" width="322.935" height="336.758" viewBox="0 0 322.935 336.758">
  <defs>
    <clipPath id="clip-path">
      <path id="Path_147" data-name="Path 147" d="M40.391,0A37.819,37.819,0,0,0,2.682,37.709V147.76a37.819,37.819,0,0,0,37.709,37.709h8.557c6.989,10.591,21.176,32.115,21.176,32.115l17.842-32.115H204.235a37.819,37.819,0,0,0,37.709-37.709V37.709A37.819,37.819,0,0,0,204.235,0Z" transform="translate(-2.682)" fill="none"/>
    </clipPath>
    <linearGradient id="linear-gradient" x1="0.102" y1="1.254" x2="0.108" y2="1.254" gradientUnits="objectBoundingBox">
      <stop offset="0" stop-color="#e02d36"/>
      <stop offset="0.19" stop-color="#e02d36"/>
      <stop offset="0.511" stop-color="#835072"/>
      <stop offset="0.947" stop-color="#0083c9"/>
      <stop offset="1" stop-color="#0083c9"/>
    </linearGradient>
    <clipPath id="clip-path-2">
      <rect id="Rectangle_213" data-name="Rectangle 213" width="322.935" height="336.758" fill="none"/>
    </clipPath>
    <clipPath id="clip-path-3">
      <path id="Path_171" data-name="Path 171" d="M3.309,186.512A9.622,9.622,0,0,0,0,194.15a10.206,10.206,0,0,0,1.64,5.876,17.381,17.381,0,0,0,5.6,4.765l7.61,4.513a20.964,20.964,0,0,1,5.1,3.9,6.754,6.754,0,0,1,1.7,4.639,5.351,5.351,0,0,1-1.145,3.465,6.92,6.92,0,0,1-3,2.133,10.967,10.967,0,0,1-3.958.712q-5.258,0-8.319-2.721T1.113,212.46H0v6.619A4.569,4.569,0,0,0,1.239,222.2a10.231,10.231,0,0,0,3.308,2.382A20.253,20.253,0,0,0,9.125,226.1a24.205,24.205,0,0,0,4.979.525q5.935,0,9.4-3.123a10.663,10.663,0,0,0,3.464-8.32,8.465,8.465,0,0,0-1.857-5.658,23.043,23.043,0,0,0-5.813-4.547l-7.61-4.515a25.443,25.443,0,0,1-5.133-3.712,5.953,5.953,0,0,1-1.732-4.392,5.441,5.441,0,0,1,1.021-3.308,6.8,6.8,0,0,1,2.691-2.164A8.151,8.151,0,0,1,12,186.111q5.258,0,8.227,2.659t4.02,8.907h1.113v-6.619a4.609,4.609,0,0,0-1.207-3.155,10.065,10.065,0,0,0-3.184-2.32,18.979,18.979,0,0,0-4.332-1.453A22.5,22.5,0,0,0,12,183.637a12.772,12.772,0,0,0-8.691,2.875" transform="translate(0 -183.637)" fill="none"/>
    </clipPath>
    <linearGradient id="linear-gradient-2" x1="0.158" y1="0.97" x2="0.198" y2="0.97" gradientUnits="objectBoundingBox">
      <stop offset="0" stop-color="#e02d36"/>
      <stop offset="0.19" stop-color="#e02d36"/>
      <stop offset="0.972" stop-color="#f38847"/>
      <stop offset="1" stop-color="#f48c48"/>
    </linearGradient>
    <clipPath id="clip-path-4">
      <path id="Path_172" data-name="Path 172" d="M29.938,217.471a11.093,11.093,0,0,1-2.721-4.577,21.959,21.959,0,0,1,0-12.837,11.113,11.113,0,0,1,2.721-4.545,5.715,5.715,0,0,1,8.134,0,11.354,11.354,0,0,1,2.691,4.545,21.994,21.994,0,0,1,0,12.837,11.332,11.332,0,0,1-2.691,4.577,5.715,5.715,0,0,1-8.134,0m-3.309-24.093a13.215,13.215,0,0,0-4.639,5.475,18.855,18.855,0,0,0,0,15.245,13.158,13.158,0,0,0,4.639,5.507,12.875,12.875,0,0,0,7.362,2.039,12.881,12.881,0,0,0,7.36-2.039,13.181,13.181,0,0,0,4.639-5.507,18.872,18.872,0,0,0,0-15.245,13.239,13.239,0,0,0-4.639-5.475,12.881,12.881,0,0,0-7.36-2.04,12.876,12.876,0,0,0-7.362,2.04" transform="translate(-20.38 -191.338)" fill="none"/>
    </clipPath>
    <linearGradient id="linear-gradient-3" x1="-0.794" y1="0.962" x2="-0.749" y2="0.962" xlink:href="#linear-gradient-2"/>
    <clipPath id="clip-path-5">
      <path id="Path_173" data-name="Path 173" d="M47,193.378a12.385,12.385,0,0,0-4.516,5.475,20.32,20.32,0,0,0,0,15.245A12.341,12.341,0,0,0,47,219.606a13.333,13.333,0,0,0,7.608,2.039A15.176,15.176,0,0,0,59.15,221a11.246,11.246,0,0,0,3.8-2.074,13.634,13.634,0,0,0,3.093-3.772l-1.237-.927a12.826,12.826,0,0,1-3.65,3.65,9.79,9.79,0,0,1-5.318,1.3,7.508,7.508,0,0,1-5.073-1.7,10.062,10.062,0,0,1-2.937-4.577,21.925,21.925,0,0,1,0-12.837,10.076,10.076,0,0,1,2.937-4.545,7.508,7.508,0,0,1,5.073-1.7,8.348,8.348,0,0,1,5.534,1.884q2.259,1.889,2.506,5.846h1.237q0-3.464-.186-5.164a4.663,4.663,0,0,0-1.36-2.875,6.8,6.8,0,0,0-3.433-1.673,26.4,26.4,0,0,0-5.536-.493A13.334,13.334,0,0,0,47,193.378" transform="translate(-40.995 -191.338)" fill="none"/>
    </clipPath>
    <linearGradient id="linear-gradient-4" x1="-1.819" y1="0.971" x2="-1.771" y2="0.971" xlink:href="#linear-gradient-2"/>
    <clipPath id="clip-path-6">
      <path id="Path_174" data-name="Path 174" d="M57.913,195.607v1.236H59.15q2.784,0,3.556,1.7a10.955,10.955,0,0,1,.773,4.485v21.649h5.568V203.029a17,17,0,0,0-.495-4.7,3.264,3.264,0,0,0-1.7-2.163,8.22,8.22,0,0,0-3.371-.557ZM63.14,185.9a2.693,2.693,0,0,0-.774,2.04,4.089,4.089,0,0,0,1.023,2.783,3.128,3.128,0,0,0,2.443,1.177,2.872,2.872,0,0,0,2.072-.743,2.7,2.7,0,0,0,.771-2.042,4.107,4.107,0,0,0-1.018-2.781,3.137,3.137,0,0,0-2.446-1.175,2.862,2.862,0,0,0-2.071.741" transform="translate(-57.913 -185.154)" fill="none"/>
    </clipPath>
    <linearGradient id="linear-gradient-5" x1="-3.685" y1="1.05" x2="-3.616" y2="1.05" xlink:href="#linear-gradient-2"/>
    <clipPath id="clip-path-7">
      <path id="Path_175" data-name="Path 175" d="M76.785,217.44a5.335,5.335,0,0,1-1.794-4.454,5.143,5.143,0,0,1,2.627-4.483,13.309,13.309,0,0,1,7.269-1.7h1.856v8.351a12.108,12.108,0,0,1-2.258,2.567,5.362,5.362,0,0,1-3.618,1.145,6.382,6.382,0,0,1-4.082-1.423m-.743-25.609a7.2,7.2,0,0,0-3.834,1.673,4.415,4.415,0,0,0-1.361,2.564,22.719,22.719,0,0,0-.186,3h2.783a6.231,6.231,0,0,1,2.443-4.144,8.016,8.016,0,0,1,4.362-1.113,6.53,6.53,0,0,1,3.309.833,5.77,5.77,0,0,1,2.317,3.095,19.262,19.262,0,0,1,.868,6.585H84.888a37.25,37.25,0,0,0-7.764.773,13.1,13.1,0,0,0-5.814,2.63,6.5,6.5,0,0,0-2.195,5.256,8.81,8.81,0,0,0,.9,4.208,7.431,7.431,0,0,0,2.319,2.659,9.247,9.247,0,0,0,2.939,1.39,10.916,10.916,0,0,0,2.813.4,12.074,12.074,0,0,0,5.63-1.113,9.512,9.512,0,0,0,3.031-2.287h.309l2.164,2.783H92.31v-16.7a21.052,21.052,0,0,0-.9-6.772,9.032,9.032,0,0,0-2.414-3.9,8.281,8.281,0,0,0-3.464-1.826,16.423,16.423,0,0,0-4.052-.493,29.756,29.756,0,0,0-5.442.493" transform="translate(-69.115 -191.338)" fill="none"/>
    </clipPath>
    <linearGradient id="linear-gradient-6" x1="-3.326" y1="0.979" x2="-3.275" y2="0.979" xlink:href="#linear-gradient-2"/>
    <clipPath id="clip-path-8">
      <path id="Path_176" data-name="Path 176" d="M85.761,184.336v1.237H87q2.781,0,3.554,1.7a10.94,10.94,0,0,1,.774,4.486v33.4h5.566v-33.4a16.989,16.989,0,0,0-.493-4.7,3.285,3.285,0,0,0-1.7-2.164,8.249,8.249,0,0,0-3.371-.558Z" transform="translate(-85.761 -184.336)" fill="none"/>
    </clipPath>
    <linearGradient id="linear-gradient-7" x1="-5.474" y1="1.049" x2="-5.407" y2="1.049" xlink:href="#linear-gradient-2"/>
    <clipPath id="clip-path-9">
      <path id="Path_177" data-name="Path 177" d="M144.043,184.336,129.509,216.5l-14.847-32.165h-5.876v40.825h2.475V190.212l16.083,34.949h1.237l15.463-34.33v23.815a24.2,24.2,0,0,0,.989,7.578,7.461,7.461,0,0,0,3.5,4.329,14.438,14.438,0,0,0,6.959,1.392v-1.237q-3.032,0-4.453-3.216a22.331,22.331,0,0,1-1.423-8.845v-30.31Z" transform="translate(-108.786 -184.336)" fill="none"/>
    </clipPath>
    <linearGradient id="linear-gradient-8" x1="-2.867" y1="0.887" x2="-2.84" y2="0.887" xlink:href="#linear-gradient-2"/>
    <clipPath id="clip-path-10">
      <path id="Path_178" data-name="Path 178" d="M146.528,199.224a10.253,10.253,0,0,1,2.319-3.96,4.559,4.559,0,0,1,3.309-1.452,5.25,5.25,0,0,1,4.887,2.875q1.608,2.874,1.608,8.258H145.663a17.427,17.427,0,0,1,.865-5.722m-.991-5.846a13.03,13.03,0,0,0-4.267,5.475,19.05,19.05,0,0,0-1.485,7.637,19.428,19.428,0,0,0,1.454,7.608,12.532,12.532,0,0,0,4.33,5.507,12.147,12.147,0,0,0,7.206,2.039,14.12,14.12,0,0,0,4.361-.647,11.083,11.083,0,0,0,3.713-2.074,13.96,13.96,0,0,0,3.06-3.772l-1.236-.927a13.05,13.05,0,0,1-3.62,3.65,9.133,9.133,0,0,1-5.041,1.3,6.962,6.962,0,0,1-6.154-3.341,15.012,15.012,0,0,1-2.195-8.411H164.4l.124-2.473a18.446,18.446,0,0,0-1.329-7.424,9.594,9.594,0,0,0-4.081-4.607,13.848,13.848,0,0,0-6.961-1.578,10.9,10.9,0,0,0-6.619,2.04" transform="translate(-139.785 -191.338)" fill="none"/>
    </clipPath>
    <linearGradient id="linear-gradient-9" x1="-6.563" y1="0.972" x2="-6.515" y2="0.972" xlink:href="#linear-gradient-2"/>
    <clipPath id="clip-path-11">
      <path id="Path_179" data-name="Path 179" d="M167.78,221.6a10.438,10.438,0,0,1-2.319-4.577,25.573,25.573,0,0,1-.743-6.4,24.592,24.592,0,0,1,.771-6.433,9.989,9.989,0,0,1,2.476-4.545,6.061,6.061,0,0,1,4.483-1.7,8.119,8.119,0,0,1,2.939.587q1.515.589,2.937,1.266v19.794a19.983,19.983,0,0,1-1.452,1.764,6.325,6.325,0,0,1-1.95,1.392,7.264,7.264,0,0,1-3.093.557,5.275,5.275,0,0,1-4.051-1.7m4.978-37.269v1.237H174q2.784,0,3.556,1.7a10.969,10.969,0,0,1,.773,4.486v5.566a25.652,25.652,0,0,0-3.278-1.267,14.867,14.867,0,0,0-4.453-.587,10.394,10.394,0,0,0-6.619,2.04,12.119,12.119,0,0,0-3.868,5.475,21.917,21.917,0,0,0-1.266,7.637,22.476,22.476,0,0,0,1.236,7.608,12.317,12.317,0,0,0,3.712,5.507,9.4,9.4,0,0,0,6.186,2.039,10.838,10.838,0,0,0,5.568-1.113,11.635,11.635,0,0,0,2.781-2.287h.31l2.166,2.783h3.092v-33.4a16.977,16.977,0,0,0-.495-4.7,3.272,3.272,0,0,0-1.7-2.164,8.239,8.239,0,0,0-3.371-.558Z" transform="translate(-158.843 -184.336)" fill="none"/>
    </clipPath>
    <linearGradient id="linear-gradient-10" x1="-6.641" y1="0.983" x2="-6.598" y2="0.983" xlink:href="#linear-gradient-2"/>
    <clipPath id="clip-path-12">
      <path id="Path_180" data-name="Path 180" d="M177.279,195.607v1.236h1.237q2.781,0,3.556,1.7a10.955,10.955,0,0,1,.773,4.485v21.649h5.568V203.029a17,17,0,0,0-.495-4.7,3.271,3.271,0,0,0-1.7-2.163,8.229,8.229,0,0,0-3.373-.557ZM182.5,185.9a2.7,2.7,0,0,0-.773,2.04,4.1,4.1,0,0,0,1.021,2.783A3.128,3.128,0,0,0,185.2,191.9a2.865,2.865,0,0,0,2.071-.743,2.7,2.7,0,0,0,.774-2.042,4.1,4.1,0,0,0-1.021-2.781,3.134,3.134,0,0,0-2.444-1.175,2.868,2.868,0,0,0-2.072.741" transform="translate(-177.279 -185.154)" fill="none"/>
    </clipPath>
    <linearGradient id="linear-gradient-11" x1="-11.818" y1="1.05" x2="-11.75" y2="1.05" xlink:href="#linear-gradient-2"/>
    <clipPath id="clip-path-13">
      <path id="Path_181" data-name="Path 181" d="M196.15,217.44a5.335,5.335,0,0,1-1.794-4.454,5.144,5.144,0,0,1,2.629-4.483,13.3,13.3,0,0,1,7.268-1.7h1.854v8.351a12.092,12.092,0,0,1-2.255,2.567,5.369,5.369,0,0,1-3.62,1.145,6.382,6.382,0,0,1-4.082-1.423m-.743-25.609a7.21,7.21,0,0,0-3.834,1.673,4.424,4.424,0,0,0-1.361,2.564,22.719,22.719,0,0,0-.186,3h2.783a6.233,6.233,0,0,1,2.444-4.144,8.006,8.006,0,0,1,4.361-1.113,6.53,6.53,0,0,1,3.309.833,5.781,5.781,0,0,1,2.32,3.095,19.361,19.361,0,0,1,.864,6.585h-1.854a37.25,37.25,0,0,0-7.764.773,13.087,13.087,0,0,0-5.814,2.63,6.5,6.5,0,0,0-2.195,5.256,8.828,8.828,0,0,0,.9,4.208,7.431,7.431,0,0,0,2.319,2.659,9.263,9.263,0,0,0,2.939,1.39,10.925,10.925,0,0,0,2.813.4,12.074,12.074,0,0,0,5.63-1.113,9.485,9.485,0,0,0,3.03-2.287h.31l2.164,2.783h3.093v-16.7a21,21,0,0,0-.9-6.772,9.03,9.03,0,0,0-2.413-3.9,8.281,8.281,0,0,0-3.464-1.826,16.433,16.433,0,0,0-4.052-.493,29.743,29.743,0,0,0-5.442.493" transform="translate(-188.48 -191.338)" fill="none"/>
    </clipPath>
    <linearGradient id="linear-gradient-12" x1="-9.302" y1="0.979" x2="-9.252" y2="0.979" xlink:href="#linear-gradient-2"/>
    <clipPath id="clip-path-14">
      <path id="Path_182" data-name="Path 182" d="M130.962,123.483l-.25.062a1.956,1.956,0,0,0-1.291,1.857,1.987,1.987,0,0,0,1.983,1.983,1.86,1.86,0,0,0,1.385-.582,1.943,1.943,0,0,0,.566-1.4,1.912,1.912,0,0,0-.724-1.543,15.211,15.211,0,0,1,3.995-.566,12.3,12.3,0,0,1,4.03.662,10.412,10.412,0,0,1,5.665,4.373,8.429,8.429,0,0,1,1.166,4.217,9.7,9.7,0,0,1-.914,3.966A17.116,17.116,0,0,1,139.586,144a17.368,17.368,0,0,1-8.812,2.613h-.5v1.543h20.615v-1.889H140.152q5.916-2.61,8.309-6.231a12.382,12.382,0,0,0,2.39-6.7,10.378,10.378,0,0,0-.472-3.053q-1.792-4.878-5.883-6.293a22.39,22.39,0,0,0-7.177-1.417,24.03,24.03,0,0,0-6.358.913" transform="translate(-129.421 -122.57)" fill="none"/>
    </clipPath>
    <linearGradient id="linear-gradient-13" x1="-6.574" y1="4.474" x2="-6.522" y2="4.474" xlink:href="#linear-gradient-2"/>
    <clipPath id="clip-path-15">
      <path id="Path_183" data-name="Path 183" d="M158.8,147.148A9.235,9.235,0,0,1,151.44,143a8.757,8.757,0,0,1-1.166-4.345,10.787,10.787,0,0,1,.881-4.122,16.928,16.928,0,0,1,6.986-7.805,17.561,17.561,0,0,1,8.874-2.643q.661,0,1.291.062a9.316,9.316,0,0,1,7.4,4.186,8.757,8.757,0,0,1,1.132,4.311,10.867,10.867,0,0,1-.881,4.155,16.917,16.917,0,0,1-6.986,7.8,17.655,17.655,0,0,1-8.844,2.613q-.661,0-1.322-.064m.787-23.446q-6.83,2.426-9.772,6.562t-2.942,7.664a10.7,10.7,0,0,0,.472,3.084q1.856,5.036,6.01,6.39a23.449,23.449,0,0,0,7.018,1.353,24.353,24.353,0,0,0,7.145-1.164q6.827-2.393,9.755-6.547t2.928-7.68a11.452,11.452,0,0,0-.44-3.084q-1.858-5-6.026-6.358a23.707,23.707,0,0,0-7.067-1.352,24.246,24.246,0,0,0-7.08,1.132" transform="translate(-146.876 -122.57)" fill="none"/>
    </clipPath>
    <linearGradient id="linear-gradient-14" x1="-5.53" y1="3.863" x2="-5.492" y2="3.863" xlink:href="#linear-gradient-2"/>
    <clipPath id="clip-path-16">
      <path id="Path_184" data-name="Path 184" d="M173.351,123.483l-.251.062a1.956,1.956,0,0,0-1.29,1.857,1.987,1.987,0,0,0,1.983,1.983,1.857,1.857,0,0,0,1.384-.582,1.943,1.943,0,0,0,.566-1.4,1.91,1.91,0,0,0-.722-1.543,15.193,15.193,0,0,1,3.995-.566,12.3,12.3,0,0,1,4.03.662,10.4,10.4,0,0,1,5.663,4.373,8.412,8.412,0,0,1,1.166,4.217,9.726,9.726,0,0,1-.913,3.966A17.116,17.116,0,0,1,181.975,144a17.373,17.373,0,0,1-8.812,2.613h-.5v1.543h20.614v-1.889H182.54q5.918-2.61,8.311-6.231a12.4,12.4,0,0,0,2.39-6.7,10.375,10.375,0,0,0-.471-3.053q-1.794-4.878-5.886-6.293a22.365,22.365,0,0,0-7.175-1.417,24.021,24.021,0,0,0-6.358.913" transform="translate(-171.81 -122.57)" fill="none"/>
    </clipPath>
    <linearGradient id="linear-gradient-15" x1="-8.777" y1="4.474" x2="-8.725" y2="4.474" xlink:href="#linear-gradient-2"/>
    <clipPath id="clip-path-17">
      <path id="Path_185" data-name="Path 185" d="M209.247,122.55V131.8l-18.094,2.39V122.55h-1.888v15.294l19.982-2.641v12.966h1.889V122.55Z" transform="translate(-189.265 -122.55)" fill="none"/>
    </clipPath>
    <linearGradient id="linear-gradient-16" x1="-9.565" y1="4.45" x2="-9.514" y2="4.45" xlink:href="#linear-gradient-2"/>
  </defs>
  <g id="Group_255" data-name="Group 255" transform="translate(0)">
    <g id="Group_222" data-name="Group 222" transform="translate(4.265)">
      <g id="Group_221" data-name="Group 221" clip-path="url(#clip-path)">
        <rect id="Rectangle_212" data-name="Rectangle 212" width="311.644" height="302.06" transform="matrix(0.893, -0.451, 0.451, 0.893, -87.532, 44.187)" fill="url(#linear-gradient)"/>
      </g>
    </g>
    <g id="Group_224" data-name="Group 224" transform="translate(0)">
      <g id="Group_223" data-name="Group 223" clip-path="url(#clip-path-2)">
        <path id="Path_148" data-name="Path 148" d="M203.558,127.275c-1.67-4.238-6.6-13.44-8.22-18.018-1.873-5.307,1.315-8.918-.048-12.859-.857-2.468-3.464-3.373-6.368-3.456,2.56-1.994,4-4.453,2.486-7.864-2.094-4.685-9.186-8.691-10.843-13.128-2.791-7.471,4.326-13.413,1.461-19-2.987-5.8-19.523-3.274-33.42-7.57C134.055,40.9,135.963,17.2,115.17,2.188a57.694,57.694,0,0,1,5.051,8.37c-.646-.173-.722,1.011-.084,3.313l.13.5a12.352,12.352,0,0,0-2.217-3.408c-.364-.321-.447.137-.628.32-.371.019-.115,1.342.558,2.963.183.448.378.867.574,1.242.677,1.918,1.377,3.871,1.967,5.776a2.973,2.973,0,0,0,.463.981c.138.137.165-.057.049-.45-.375-1.379-.746-2.743-1.12-4.113l-.173-.275a1.8,1.8,0,0,1,.145.167l-.1-.386c.054.089.1.154.159.248.035.108.068.215.1.321.11.148.226.326.347.528.829,2.328,1.606,4.666,2.19,6.929.033.132-.191-.029-.157.226l.059.393c-.122-.413-.248-.838-.382-1.285-.844-1.587-1.163-2.187-1.384-2.6v-.008s0,0-.07-.122c-.1-.191-.191-.358-.321-.6l-.011.008-.086-.151-.266-.751a2.4,2.4,0,0,0-.337-.655c-.008-.119-.018-.242-.027-.372l-1.04-2.885a.192.192,0,0,0-.067.086,11.4,11.4,0,0,1-.483-1.073c-.235-.528-.231-.533-.743-1.88l.134.7-.143-.6-.1.215.064-.332-.237-.181s0,0-.1-1.272l-.431-.771a2.315,2.315,0,0,0-.188-.21c-.052.008-.052.008-.409-.358a.169.169,0,0,0-.1.083c0,.157,0,.157-.129.258a3.362,3.362,0,0,0,.057.42l.331,1.105-.161-.156c-.342-.03-.342-.029-.555,1.228a11.44,11.44,0,0,0,.32,1.56l.822,2.276s.092.274.245.73c.033.38.037.466.045.754v.006a5.28,5.28,0,0,0-.318-.617c-.315-.5-.506-.506-.42-.013-.682-.41-.908.1-.973,1.007-.235-.17-.428-.213-.568-.118A3.5,3.5,0,0,0,112.6,18.1l-.4.049a4.494,4.494,0,0,0,.06,2.393l.048.361-.425-.186c-.208,1.708.242,4.683.113,6.641l.059,1.406a20.575,20.575,0,0,0,.736,4.28c.156.606.336,1.21.466,1.816l.328,1.126c-.938-1.778-1.878-2.618-2.346-2.08-.752.924-.1,5.232.978,9.582a50.962,50.962,0,0,1,1.123,16.86c-.091,1.363-.418,2.656-.633,4-.358,1.357-.627,2.7-1.108,4.13-.178.606-.378,1.223-.584,1.842-.108-.019-.213-.045-.323-.06A113.774,113.774,0,0,0,86.9,68.919c-2.607.1-5.078.307-7.525.528,1.158-3.68,1.985-7.931,2.821-11.942l-.366.254c.212-.819.48-1.275.681-2.18l-.351.716.013-.054a17.509,17.509,0,0,0,.749-3.352,47.464,47.464,0,0,0,1.894-9.82,8.688,8.688,0,0,0,.356-2.039c.064-.351.1-.767.164-1.024a39.777,39.777,0,0,0,1.12-8.354c-.075.62-.149,1.256-.224,1.877a27.978,27.978,0,0,0,.054-2.859l-.172.364a21.574,21.574,0,0,0-1.341-9.664c-1.021-2.09-1.718-1.137-1.714,2.012l-.016.5A9.846,9.846,0,0,0,81.8,20.224c-.27-.375-.466.03-.687.159-.364-.062-.444,1.2-.223,2.818.048.437.116.851.194,1.231.1,1.885.192,3.8.159,5.62a2.463,2.463,0,0,0,.121.976c.087.156.173,0,.192-.375.078-1.333.149-2.634.2-3.934-.024-.086-.048-.17-.072-.258a1.428,1.428,0,0,1,.075.162c0-.122.008-.243.013-.364.029.1.062.183.089.289v.3a4.667,4.667,0,0,1,.167.558,56.654,56.654,0,0,1-.108,6.632c-.014.124-.17-.078-.224.148l-.076.353c.027-.377.057-.776.067-1.205-.291-1.608-.4-2.215-.477-2.634l0-.008s0,0-.025-.124c-.035-.194-.067-.361-.111-.606l-.013,0-.038-.154-.029-.725a1.976,1.976,0,0,0-.118-.663c.03-.107.059-.216.089-.332-.041-1.387-.024-1.387-.137-2.808a.187.187,0,0,0-.087.059,9.269,9.269,0,0,1-.157-1.073c-.084-.528-.048-.53-.2-1.857l-.049.66.014-.573-.149.17.148-.285-.183-.218s0,0,.231-1.172l-.219-.792a1.846,1.846,0,0,0-.127-.232c-.052,0-.052,0-.3-.407a.177.177,0,0,0-.115.056c-.033.145-.033.145-.188.208a2.871,2.871,0,0,0-.052.391c.008.223.01.281.037,1.067l-.116-.173c-.321-.1-.32-.094-.849.98a10.965,10.965,0,0,0-.1,1.449c.062,1.019.062,1.019.134,2.185l.025.695a4.519,4.519,0,0,1-.178.663l0,0a2.983,2.983,0,0,0-.122-.611c-.161-.512-.339-.563-.4-.115-.531-.523-.9-.129-1.217.623-.177-.2-.351-.285-.512-.239a3.122,3.122,0,0,0-1.446-1.4l-.4-.049a3.616,3.616,0,0,0-.635,2.018l-.068.313-.344-.256c-.736,1.372-1.218,3.923-2,5.488-.132.391-.242.776-.39,1.164a14.921,14.921,0,0,0-.72,3.715l-.162,1.636L69.875,40.4c-.329-1.765-.916-2.718-1.539-2.416-1.031.534-1.835,4.249-2.131,8.414A217.038,217.038,0,0,1,61.8,71.816c-2.56.62-5.1,1.2-7.63,1.937-4.337,1.215-7.492,2.966-11.158,4.566-.107.046-.107.1-.038.134a.6.6,0,0,0,.347-.057,109.357,109.357,0,0,1,17.994-4.388c-.091.406-.178.808-.27,1.217-.293.081-.59.154-.883.239a7.212,7.212,0,0,0-1.329.342c-1.95.1-3.9.281-5.849.485l-.488.025a2.892,2.892,0,0,0-1.509.509.442.442,0,0,0-.156.216,96.553,96.553,0,0,0-12.67,3.806c-.2.078-.294.173-.242.245a.582.582,0,0,0-.27.059,12.177,12.177,0,0,1-1.533.689c-.118.059-.175.122-.107.146a.44.44,0,0,0,.324-.029c.566-.223,1.115-.463,1.613-.717.052-.027.084-.059.089-.087a1.083,1.083,0,0,0,.5-.056c4.168-1.174,8.188-2.482,12.49-3.3-2.209.663-4.229,1.269-6.385,1.915-2.665.819-5.07,1.741-7.743,2.549-.14.037-.223.107-.2.149s.156.052.291.006c5.487-1.533,10.187-3.683,16.049-4.567l.689-.094c-1.738.7-3.446,1.331-5.118,2.083a131.507,131.507,0,0,0-15.566,4.245c-.253.062-.431.205-.4.293s.262.1.512.037c2.952-.612,5.913-1.229,8.9-1.73l-.593.259-.606.181c-1.9.4-3.782.9-5.657,1.438-.708.167-1.239.518-1.205.792.059.261.635.339,1.315.188l-.315.129c-.108.04-.173.11-.132.143a.446.446,0,0,0,.307-.01l1.124-.48c1.789-.423,3.589-.806,5.391-1.188q2.693-.618,5.41-1.14c-1.926.5-3.852,1.032-5.784,1.574-1.942.5-3.872,1.061-5.811,1.6.07-.052.065-.11-.041-.119a.616.616,0,0,0-.328.086c-.084.059-.052.111.04.121h.008c-2.1.531-4.144,1.221-6.245,1.77-.122.032-.215.1-.2.153s.143.056.277.014c6.881-1.988,13.78-3.9,20.594-5.708l1.131-.216v0a1.536,1.536,0,0,0,.8.418c-2.433.482-4.831,1.07-7.236,1.643-2.01.428-4.031.819-6.038,1.282-.288.07-.507.213-.485.334s.275.135.577.065c.488-.121.981-.223,1.476-.323-.374.226-.593.479-.569.7s.27.366.644.441c-2.1.7-4.155,1.466-6.121,2.293-.115.052-.164.116-.11.149a.381.381,0,0,0,.3-.029c2.94-.9,5.844-1.838,8.823-2.6,2.414-.288,4.812-.382,7.4-.771,3.084-.4,5.975-1.019,8.85-1.613-.033.149-.067.3-.1.452a121.76,121.76,0,0,0-27.191,7.156c-.6.205-.968.547-.824.759s.751.221,1.339.017l13.36-4.141c3.352-.937,6.321-1.713,9.763-2.42,1.143-.239,2.269-.439,3.387-.619-.068.31-.138.627-.205.935-1.205.124-2.408.262-3.605.437-.135.017-.242.072-.24.122s.11.073.234.054c1.188-.172,2.379-.307,3.57-.429-1.457,6.659-2.837,13.163-4.252,20.171q-.5,3.38-.862,6.756c-.208.111-.428.218-.633.326l-.28.054a50.578,50.578,0,0,0-7.808,1.843l.277.248c-.493.076-.829-.018-1.36.1l.5.083-.032.006a6.793,6.793,0,0,0-1.974.4,23.707,23.707,0,0,0-5.708,1.135,2.954,2.954,0,0,0-1.174.2,4.448,4.448,0,0,1-.59.1,18.623,18.623,0,0,0-4.8.73L30.9,118.6a10.353,10.353,0,0,0-1.543.471l.258.094a8.635,8.635,0,0,0-4.884,2.6c-.875,1.14-.062,1.735,1.764,1.364l.286-.048a4.318,4.318,0,0,0-1.7,1.56c-.149.3.177.431.332.62.094.337.868.3,1.735-.086a4.659,4.659,0,0,0,.635-.34c1.035-.339,2.075-.7,3.095-.965a.848.848,0,0,0,.488-.291c.052-.11-.067-.161-.277-.11-.727.142-1.477.286-2.226.429l-.138.129a.606.606,0,0,1,.076-.116l-.213.041c.04-.035.067-.068.11-.1l.177-.051a2.209,2.209,0,0,1,.229-.226,33.541,33.541,0,0,1,3.686-1.078c.07-.014.021.175.162.177l.216-.006-.67.2c-.767.566-1.056.779-1.256.926h0l-.059.048-.289.213.006.011-.072.057-.394.135a.671.671,0,0,0-.328.215,1.818,1.818,0,0,0-.216-.03l-1.53.538a.25.25,0,0,0,.065.073,3.363,3.363,0,0,1-.557.28,9.96,9.96,0,0,1-1.005.41l.406-.022-.344.045.154.122-.219-.108-.065.191-.77-.1-.407.294a.918.918,0,0,0-.1.148c.016.049.016.051-.151.336a.259.259,0,0,0,.073.1c.1.014.1.014.2.149a1.408,1.408,0,0,0,.262,0l.635-.154-.064.124c.052.309.056.309.871.692a3.569,3.569,0,0,0,.889-.06c.568-.192.568-.192,1.21-.407l.391-.113a3.845,3.845,0,0,1,.441.07h0a1.532,1.532,0,0,0-.3.2c-.237.216-.205.388.075.388-.113.56.245.857.794,1.048a.638.638,0,0,0,.045.509,2.522,2.522,0,0,0-.312,1.527l.111.378a2.013,2.013,0,0,0,1.409.321l.2.011-.024.364c1.045.455,2.705.488,3.879.881l.806.124a5.809,5.809,0,0,0,2.349-.18l.965-.251.585-.219c-.832.762-1.143,1.52-.733,2.026.7.838,3.077.617,5.4-.351,2.435-.9,4.854-1.749,7.28-2.578.033.722.06,1.441.108,2.164.5,7.532,2.274,13.2,4.381,19.469.064.183.124.188.143.081a2.056,2.056,0,0,0-.1-.582,83.535,83.535,0,0,1-2.907-21.687l1.088-.363c-.134,1.883-.229,3.772-.275,5.674l-.03.809a6.852,6.852,0,0,0,.361,2.61.688.688,0,0,0,.207.3c.739,7.379,2.3,14.882,5.208,21.312.143.326.272.48.331.4a1.719,1.719,0,0,0,.14.437c.386.746.832,1.578,1.245,2.467.1.189.189.28.192.172a1.184,1.184,0,0,0-.146-.517c-.423-.852-.846-1.708-1.285-2.6-.045-.086-.089-.138-.119-.146a2.878,2.878,0,0,0-.212-.806,75.944,75.944,0,0,1-4.585-20.876,106.225,106.225,0,0,0,1.986,10.82A84.128,84.128,0,0,0,62.867,163.1c.086.224.189.356.224.315a.735.735,0,0,0-.1-.46c-3.478-8.7-5.954-16.878-6.2-26.684l-.014-1.148c.466,3.012.981,5.938,1.713,8.8a66.811,66.811,0,0,0,7.92,25.135c.2.377.429.644.509.59s-.019-.407-.216-.781a65.764,65.764,0,0,1-4.787-13.953l.391.965.32.976a55.7,55.7,0,0,0,3.289,8.885c.477,1.083,1.069,1.883,1.358,1.808.234-.1.06-.975-.374-2.005l.267.475c.086.161.186.258.205.194a1.092,1.092,0,0,0-.138-.466l-.975-1.691a78.02,78.02,0,0,1-4.561-17.15,79.023,79.023,0,0,0,2.323,9.335,66.192,66.192,0,0,0,3.462,8.992c-.083-.1-.142-.1-.108.065a1.547,1.547,0,0,0,.226.493c.1.124.138.076.11-.064l0-.014a61.459,61.459,0,0,0,5.2,8.944c.11.169.243.288.283.253s-.032-.212-.159-.394a63.379,63.379,0,0,1-7.118-13.481c.169.436.388.768.506.735s.049-.42-.122-.883c-.27-.752-.5-1.522-.751-2.282.342.584.666.927.892.9s.3-.4.278-.97a46.235,46.235,0,0,0,4.631,9.044c.1.162.192.231.2.148a.883.883,0,0,0-.161-.431,61.165,61.165,0,0,1-5.522-13.19,109.071,109.071,0,0,1-1.258-11.592c-.355-5.133-.5-10.044-.4-14.947l.331-.1c.038-.011.075-.021.113-.033-1.126,15.82,2.258,31.162,10.577,42.7.568.77,1.139,1.209,1.274.975s-.21-1.038-.751-1.8a66.975,66.975,0,0,1-8.328-19.362,74.472,74.472,0,0,1-2.15-15.483c-.089-2.463-.01-4.863.14-7.252.331-.1.658-.2.988-.291-.266,2.8-.437,5.588-.448,8.375,0,.212.043.39.094.4s.086-.154.08-.35c.014-2.826.188-5.65.461-8.478,1.7-.493,3.376-.951,5.035-1.422,2.33-.593,4.674-1.01,7.118-1.419l6.862-1.5c2.274-.512,4.539-.811,6.845-1.279.622-.138,1.19-.245,1.768-.359-.006.436-.049.864-.043,1.3A104,104,0,0,0,95.722,137.3c1.452,8.309,3.844,14.424,6.865,21.235.087.2.148.2.153.078a2.112,2.112,0,0,0-.184-.639,97.232,97.232,0,0,1-4.675-17.04,98.276,98.276,0,0,1-1.63-18.273c.051-.749.084-1.5.13-2.249.305-.067.615-.13.918-.205l-.01,1.369c-.051,1.786.183,3.247.272,4.869A21.7,21.7,0,0,0,97.809,129c-.014,3.645.219,7.287.544,10.938l.073.9a9.432,9.432,0,0,0,.674,2.872.812.812,0,0,0,.248.316c1.7,8.139,4.133,16.38,8.195,23.315.2.351.356.514.4.418a2.366,2.366,0,0,0,.216.477c.6.887,1.163,1.732,1.757,2.619.143.2.25.291.229.172a1.525,1.525,0,0,0-.253-.558c-.612-.964-1.295-1.88-1.808-2.764-.059-.092-.113-.146-.145-.153a3.7,3.7,0,0,0-.35-.881,84.764,84.764,0,0,1-7.5-22.894c.968,3.88,1.975,7.832,3.376,11.9a79.744,79.744,0,0,0,6.364,13.8c.134.239.266.375.293.326a.929.929,0,0,0-.189-.5,88.042,88.042,0,0,1-6.352-14.038,73.02,73.02,0,0,1-3.65-15.191c-.054-.429-.122-.857-.156-1.282.822,3.317,1.74,6.531,2.813,9.674a80.35,80.35,0,0,0,4.518,14.324,48.194,48.194,0,0,0,7.737,12.789c.316.372.633.62.7.55s-.143-.434-.455-.8a51.439,51.439,0,0,1-7.579-14.858l.539,1.045.461,1.066c.609,1.681,1.474,3.255,2.207,4.884a48.218,48.218,0,0,0,2.775,4.591c.749,1.112,1.535,1.905,1.8,1.788.213-.138-.154-1.078-.846-2.123l.383.475c.126.162.25.253.253.183a1.318,1.318,0,0,0-.25-.483c-.455-.574-.937-1.116-1.371-1.7a75.048,75.048,0,0,1-7.293-18.659,89.672,89.672,0,0,0,3.655,10.257c.647,1.7,1.557,3.274,2.317,4.919a52.8,52.8,0,0,0,2.828,4.6c-.108-.1-.165-.084-.094.083a1.885,1.885,0,0,0,.343.5c.127.119.157.062.1-.084l-.006-.014a28.488,28.488,0,0,0,8.05,7.947c.178.129.353.2.377.154s-.121-.2-.32-.337a29.066,29.066,0,0,1-6.83-6.31,47.718,47.718,0,0,1-5.014-8.115,90.532,90.532,0,0,1-6.45-18.161l-.382-2.071,0,0a3.131,3.131,0,0,0,.3-1.382,90.224,90.224,0,0,0,3.379,13.058,65.139,65.139,0,0,0,4.1,10.343c.258.464.55.811.662.763s-.03-.461-.294-.946c-.417-.794-.759-1.635-1.142-2.449.441.617.824.968,1.046.914s.24-.471.121-1.093a48.384,48.384,0,0,0,2.96,4.924,32.16,32.16,0,0,0,3.554,4.114c.145.146.251.2.24.111a1.022,1.022,0,0,0-.272-.407,45.506,45.506,0,0,1-8.02-13.581,125.758,125.758,0,0,1-2.874-12.945,194.115,194.115,0,0,1-2.494-19.645q.048-1.741.094-3.465.138-1.6.274-3.193c.084.31.2.5.328.51a.181.181,0,0,0,.1-.037q-.1,1.386-.2,2.78-.012,1.517-.025,3.052a94.964,94.964,0,0,0,4.334,27.436,61.206,61.206,0,0,0,5.283,11.985,28.953,28.953,0,0,0,7.691,8.92c.778.479,1.43.668,1.477.4.059-.288-.518-.811-1.215-1.353a31.02,31.02,0,0,1-6.743-8.27,60.612,60.612,0,0,1-5.078-10.951,92.9,92.9,0,0,1-5.059-28.139,42.631,42.631,0,0,1,.552-8.336c.143-.024.237-.07.219-.142a.531.531,0,0,0,.25.032c.235-.041.514-.041.771-.06-1.177,5.873-.781,13.271-.142,20.128.03.242.094.439.146.445s.065-.186.033-.409c-.344-3.6-.611-7.214-.611-10.8-.032-.9.021-1.784.029-2.676l.027-1.334.108-1.183a32.186,32.186,0,0,1,.6-4.187c.2-.011.371-.041.576-.046.122-.017.191-.049.145-.1a.371.371,0,0,0-.286-.084c-.137,0-.261.024-.4.032l.062-.348c.011-.06.016-.11.022-.164.1,0,.172-.027.167-.068s-.073-.067-.154-.086c0-.056,0-.11-.019-.124s-.062.033-.1.1c-.428-.027-.833-.021-1.255-.038.025-.134.043-.262.07-.4l1.479.08c.884.049,1.754.177,2.626.3-.184,1.937-.288,3.82-.283,5.626.032,24.1,14.292,50.427,48,54.824-8.481-6.339-7.882-20.586,3.136-28.287,11.067-7.74,26.448-6.937,32.636-8.708,7.241-2.077,9.992-7.727,7.886-13.077M81.742,52.089l.3-1.355-.108.245c.261-1.768.545-3.527.755-5.3a53.757,53.757,0,0,0,.9-8.271q.143,1.229.291,2.322c-.4,3.648-1.015,7.09-1.571,10.8l-.169.712-.42,1Zm-1.228-10.6a15.53,15.53,0,0,0,.03-2.048,18.232,18.232,0,0,0,.767-2.522c-.194,1.694-.28,3.624-.5,5.383-.207,1.958-.5,3.86-.779,5.752l.041-.673c.01-.218.056-.647-.1-.428.226-1.778.431-3.589.541-5.464m-51.845,84.62a.9.9,0,0,1,.235.014l-.235-.014m3.645,5.052-.06-.016L32.4,130Zm1.414-5.234-.35-.086.353.084Zm6.754-5.051c-.115.06-.355.13-.18.212-1,.289-2.015.6-3.03.989a8.267,8.267,0,0,0-1.081.487,7.589,7.589,0,0,0-1.625-.113c.965-.219,2.023-.576,3.012-.859,1.093-.326,2.187-.58,3.26-.881Zm1.7-2.969-.794.164.165.022-2.98.864a32.388,32.388,0,0,0-4.585,1.261q.594-.41,1.108-.817c2.026-.518,4.014-.875,6.078-1.508l.425-.068.666.059Zm23.734,43.118a83.162,83.162,0,0,1-4.725-18.209c-.072-.614-.135-1.229-.169-1.85l0,0a2.669,2.669,0,0,0,.464-1.19,78.309,78.309,0,0,0,1.81,11.752,73.1,73.1,0,0,0,2.614,9.5m46.5-46.111a2.925,2.925,0,0,0-.476-.156l.329.019c.1.01.177-.022.17-.065-.01.068-.016.134-.024.2m.024-.213a.43.43,0,0,0-.27-.121l-1.182-.048c-.32-.062-.644-.1-.967-.146.046-.191.1-.383.151-.576l.4.032,1.455.261c-.083.016-.1.07-.013.126a.6.6,0,0,0,.326.064c.1-.019.094-.078.014-.126l-.008,0c.051.01.1.022.151.03-.022.172-.037.339-.059.509m-3.087,1.081c-.345-.062-.69-.118-1.037-.175.03-.111.059-.223.087-.334l.485.049c.172.011.34.052.512.068l0,.008a2.409,2.409,0,0,0-.046.383M83.31,110.2c1.124-.078,2.244-.245,3.4-.245,3.009-.164,5.981-.3,8.939-.386-.021.089-.037.181-.057.27a70.574,70.574,0,0,0-8.653.679,36.325,36.325,0,0,0-3.847.165c.169-.122.264-.254.251-.388a.262.262,0,0,0-.037-.1m29.549,1.5c-.69-.115-1.38-.192-2.072-.259.151-.5.334-1.01.5-1.516q.921.081,1.845.181c-.092.533-.186,1.064-.27,1.593m-4.014,1.764.474.057a.731.731,0,0,0,.471-.072c-.016.068-.027.138-.043.207-.307-.037-.615-.075-.922-.107.008-.029.013-.057.021-.086m.975-.165a.713.713,0,0,0-.439-.183l-.425-.054c.06-.212.121-.423.18-.635.057-.188.132-.374.192-.561q.422.01.844.029c-.122.469-.246.938-.353,1.4m.251-1.94-.558-.033q.248-.759.518-1.514c.237.017.474.041.709.06-.153.506-.3,1.011-.437,1.514-.078,0-.154-.022-.232-.027m3.252-2.344c-.553-.084-1.108-.154-1.662-.218,1.083-3.152,2.378-6.329,3.81-9.548-.821,3.274-1.555,6.554-2.149,9.766m2.354-11.954c-1.708,3.915-3.348,7.82-4.586,11.662-.154-.014-.31-.048-.464-.06l-.2-.008a120.023,120.023,0,0,1,5.248-11.593M94.423,117.048c-.008.084-.022.165-.03.248-.154,0-.3.011-.452.008l-.636.013c.374-.1.746-.178,1.118-.269m2.509-.573c.092-.021.184-.041.277-.06.019.149.048.262.1.293.072.013.157-.108.246-.315l-.081.846c-.226.011-.464,0-.692.013.051-.259.1-.517.151-.776m-.224,1.135c.245-.027.491-.052.738-.078l-.014.149c-.246.006-.493.011-.741.014.006-.029.013-.057.017-.086m11.969-3.429c.033-.159.07-.318.111-.477.1.006.205.013.305.021l.63.049c-.04.183-.075.366-.111.549-.312-.046-.622-.1-.935-.142m1.516-.474c.153-.6.3-1.2.471-1.8.719.04,1.434.07,2.147.127-.1.671-.208,1.342-.3,2-.774-.122-1.547-.235-2.322-.334m8.782-88.733s0,.254-.01.6l0-.006c0-.159.008-.353.013-.6m-1.59-8.136c-.008-.057-.019-.146-.043-.32a2.126,2.126,0,0,1,.043.32m-4.769,4.206,0-.1,1.345.7ZM67.677,110.788c.954-4.682,2.155-9.265,3.448-13.831-1.008,4.578-1.929,9.138-2.6,13.648q-.427.091-.851.183m8.589-26.747c.886,0,1.776-.027,2.657,0-.914.054-1.829.135-2.74.229.027-.078.056-.153.083-.232m3.313-58.654c0,.022,0,.035-.01.059l.01-.059m-1,7.414s-.083.213-.2.507v0l.2-.5m-4.75-5.078,1.059.919-1.093-.833Zm5.646,82.168-1.217.167-9.33,1.128,0,0c1.794-.445,3.623-.759,5.425-1.169s3.629-.821,5.458-1.137c.262-.041.428-.151.39-.242-.057-.091-.3-.134-.568-.092-3.556.553-7.083,1.218-10.588,1.951,1.177-6.725,2.769-13.489,4.445-20.318a25.7,25.7,0,0,0,2.447-5.226c2.435-.183,4.873-.316,7.307-.429,1.38.852,4.245,1.342,6.8,1.4a15.207,15.207,0,0,0,2.692-.1l-1.215-.156a16.583,16.583,0,0,0,3.29-.332l.272.04c2.333.611,5.076.765,7.562,1.242l-.132-.343c.452.148.695.378,1.19.509l-.383-.294.029.008a5.426,5.426,0,0,0,.97.34c-2.594,5.892-5.265,11.934-7.64,18.836-.283.978-.533,1.978-.782,2.98a30.738,30.738,0,0,0-3.085.188c-2.091.2-4.106.326-6.113.425s-3.976.371-6.011.552a9.064,9.064,0,0,0-1.209.073m14.764,9.563c-2.826.406-5.679.647-8.624.951l-2,.219a1.342,1.342,0,0,0-.242,0c-.612.016-1.217.032-1.816.049l.627-.076c.417-.035.759-.2.771-.377-.006-.073-.072-.134-.175-.178,1.525-.316,3.017-.79,4.515-1.086a5.8,5.8,0,0,0,1.217-.219l5.277.127c.146.014.291.014.436.04.022,0,.041,0,.065,0-.011.184-.011.371-.019.555l-.032,0m2.257-.181c.025-.275.048-.553.084-.825.261-.016.525-.03.784-.045l-.054.569,0,.235c-.27.024-.542.043-.813.065m12.7-2.141c0,.016-.011.025-.016.043-.035.154-.056.323-.089.48-.35.021-.706.032-1.031.078a.143.143,0,0,0-.1.056c-.022-.013-.068-.01-.1-.021.037-.218.073-.434.113-.652.41.008.8,0,1.223.016m.412-1.3a2.689,2.689,0,0,0,.13-.4,19.006,19.006,0,0,1,1.894.256,2.756,2.756,0,0,0,.681.06c-.025.221-.052.444-.075.662q-1.3-.334-2.63-.582m16.076-75.74c-.072-.242-.164-.727-.239-.437-.358-2.029-.873-4.043-1.439-6.091-.219-.76-.463-1.5-.724-2.2a20.558,20.558,0,0,0-.231-2.925c.482,1.84,1.067,3.941,1.539,5.892.487,2.183.937,4.335,1.293,6.511Zm-.3-11.894c.239.509.476,1.01.706,1.489.092.625.191,1.248.269,1.883q-.444-1.689-.975-3.371" transform="translate(14.393 1.292)" fill="#fff"/>
        <path id="Path_149" data-name="Path 149" d="M84.465,11.968l.212.336c-.027-.086-.056-.173-.083-.261a2.193,2.193,0,0,0-.157-.183l.029.108" transform="translate(49.843 7.001)" fill="#fff"/>
        <path id="Path_150" data-name="Path 150" d="M83.188,9.951a6.81,6.81,0,0,0-.444-1.295c-.087-.113-.132-.169-.156-.2.049.21.119.495.188.776.135.558.321.794.412.717" transform="translate(48.752 4.993)" fill="#fff"/>
        <path id="Path_151" data-name="Path 151" d="M82.616,8.578c-.046-.194-.078-.324-.078-.324.006.083.013.157.017.232l.032.056.029.037" transform="translate(48.722 4.872)" fill="#fff"/>
        <path id="Path_152" data-name="Path 152" d="M80.755,107.986a1.761,1.761,0,0,0,.345.5c.11.1.159.065.1-.08a1.777,1.777,0,0,0-.342-.5c-.132-.122-.172-.091-.1.078" transform="translate(47.649 63.655)" fill="#fff"/>
        <path id="Path_153" data-name="Path 153" d="M60.46,17.648c.035.127.07.253.107.383v-.258a1.822,1.822,0,0,0-.1-.221c0,.032,0,.064,0,.1" transform="translate(35.69 10.362)" fill="#fff"/>
        <path id="Path_154" data-name="Path 154" d="M59.832,15.556a5.858,5.858,0,0,0-.1-1.271c-.057-.122-.086-.183-.1-.215,0,.2-.01.474-.016.744-.013.534.108.789.215.741" transform="translate(35.192 8.306)" fill="#fff"/>
        <path id="Path_155" data-name="Path 155" d="M59.64,14.187l.008-.312c-.016.076-.029.146-.043.215l.018.059.017.038" transform="translate(35.185 8.19)" fill="#fff"/>
        <path id="Path_156" data-name="Path 156" d="M51.04,104.148a1.434,1.434,0,0,0,.226.493c.084.107.14.076.11-.062a1.4,1.4,0,0,0-.224-.491c-.1-.127-.145-.1-.111.06" transform="translate(30.123 61.396)" fill="#fff"/>
        <path id="Path_157" data-name="Path 157" d="M31.926,54.734a.561.561,0,0,0-.328.086c-.072.051-.054.111.038.119a.567.567,0,0,0,.328-.084c.086-.062.068-.111-.038-.121" transform="translate(18.627 32.309)" fill="#fff"/>
        <path id="Path_158" data-name="Path 158" d="M27.227,78.774l.153-.14-.142.04a.754.754,0,0,0-.073.113c.021,0,.041-.01.062-.013" transform="translate(16.036 46.418)" fill="#fff"/>
        <path id="Path_159" data-name="Path 159" d="M26.251,79.723a2.049,2.049,0,0,0-.716.218l-.091.115L25.889,80c.32-.041.428-.18.363-.274" transform="translate(15.02 47.061)" fill="#fff"/>
        <path id="Path_160" data-name="Path 160" d="M25.514,79.932l-.186.024.142.018.029-.021.016-.021" transform="translate(14.951 47.184)" fill="#fff"/>
        <path id="Path_161" data-name="Path 161" d="M72.719,68.783c.006-.045-.1-.086-.231-.079-4.171.062-8.338.051-12.46.406-.14.011-.25.059-.264.108s.1.084.231.078c4.119-.353,8.3-.35,12.462-.418.138,0,.256-.043.262-.094" transform="translate(35.279 40.555)" fill="#fff"/>
        <path id="Path_162" data-name="Path 162" d="M79.053,72.545c-.1.019-.1.07-.014.126a.54.54,0,0,0,.326.064c.083-.014.091-.078.013-.126a.552.552,0,0,0-.324-.064" transform="translate(46.619 42.821)" fill="#fff"/>
        <path id="Path_163" data-name="Path 163" d="M59.4,197.364q-5.525,0-8.626-1.724a9.258,9.258,0,0,1-4.334-5.369,30.019,30.019,0,0,1-1.226-9.394V151.356L26.041,193.913H24.508L4.572,150.59v43.323H1.5V143.3H8.788l18.4,39.875L45.212,143.3h6.9v37.574q0,6.98,1.767,10.965t5.52,3.987Z" transform="translate(0.888 84.592)" fill="#0083c9"/>
        <path id="Path_164" data-name="Path 164" d="M45.34,193.316v-26.84a13.568,13.568,0,0,0-.959-5.558q-.961-2.109-4.41-2.109H38.438v-1.533h6.9a10.19,10.19,0,0,1,4.178.69,4.051,4.051,0,0,1,2.109,2.683,21.02,21.02,0,0,1,.614,5.827v26.84Zm2.913-40.642a3.883,3.883,0,0,1-3.03-1.457,5.089,5.089,0,0,1-1.266-3.449,3.345,3.345,0,0,1,.959-2.532,3.561,3.561,0,0,1,2.57-.919,3.884,3.884,0,0,1,3.028,1.457,5.087,5.087,0,0,1,1.266,3.449,3.343,3.343,0,0,1-.959,2.532,3.558,3.558,0,0,1-2.568.919" transform="translate(22.69 85.191)" fill="#0083c9"/>
        <path id="Path_165" data-name="Path 165" d="M66.608,189.556a28.917,28.917,0,0,1-7.516-.8,9.759,9.759,0,0,1-4.37-2.261,5.569,5.569,0,0,1-1.687-3.3,39.966,39.966,0,0,1-.229-4.755h1.533a9.275,9.275,0,0,0,3.22,5.9q2.607,2.147,7.514,2.147,4.373,0,6.4-1.535a4.636,4.636,0,0,0,2.032-3.834,5.034,5.034,0,0,0-1.727-3.872,18.433,18.433,0,0,0-5.175-3.028l-4.6-1.918a20.117,20.117,0,0,1-6.786-4.179,8.354,8.354,0,0,1-2.416-6.172,8.531,8.531,0,0,1,3.6-7.4,15.2,15.2,0,0,1,9.049-2.57,26.983,26.983,0,0,1,7.207.806,9.731,9.731,0,0,1,4.294,2.261,5.564,5.564,0,0,1,1.687,3.3,39.9,39.9,0,0,1,.231,4.755H77.344a9.362,9.362,0,0,0-3.184-5.906,10.868,10.868,0,0,0-7.169-2.147,9.105,9.105,0,0,0-5.712,1.535,4.688,4.688,0,0,0-1.956,3.834,5.111,5.111,0,0,0,1.611,3.642,13.622,13.622,0,0,0,4.524,2.875l4.6,1.918a24.212,24.212,0,0,1,7.438,4.37,9.15,9.15,0,0,1-1.3,13.764,16.851,16.851,0,0,1-9.585,2.568" transform="translate(31.172 89.715)" fill="#0083c9"/>
        <path id="Path_166" data-name="Path 166" d="M88.112,189.556a28.9,28.9,0,0,1-7.514-.8,9.75,9.75,0,0,1-4.37-2.261,5.56,5.56,0,0,1-1.687-3.3,39.583,39.583,0,0,1-.231-4.755h1.533a9.277,9.277,0,0,0,3.222,5.9q2.6,2.147,7.514,2.147,4.37,0,6.4-1.535a4.636,4.636,0,0,0,2.032-3.834,5.038,5.038,0,0,0-1.725-3.872,18.421,18.421,0,0,0-5.176-3.028l-4.6-1.918a20.132,20.132,0,0,1-6.786-4.179,8.36,8.36,0,0,1-2.416-6.172,8.529,8.529,0,0,1,3.605-7.4,15.192,15.192,0,0,1,9.047-2.57,27,27,0,0,1,7.209.806,9.731,9.731,0,0,1,4.294,2.261,5.582,5.582,0,0,1,1.687,3.3,39.9,39.9,0,0,1,.231,4.755H98.848a9.361,9.361,0,0,0-3.182-5.906A10.873,10.873,0,0,0,88.5,155.05a9.111,9.111,0,0,0-5.712,1.535,4.688,4.688,0,0,0-1.956,3.834,5.106,5.106,0,0,0,1.613,3.642,13.6,13.6,0,0,0,4.523,2.875l4.6,1.918A24.2,24.2,0,0,1,99,173.224a9.148,9.148,0,0,1-1.3,13.764,16.857,16.857,0,0,1-9.586,2.568" transform="translate(43.865 89.715)" fill="#0083c9"/>
        <path id="Path_167" data-name="Path 167" d="M152.575,194.3a16.718,16.718,0,0,1-4.14-.652,11.967,11.967,0,0,1-4.831-2.762,16.356,16.356,0,0,1-4.063-6.555l-1.918-4.984H116.153l-6.135,14.569h-3.449l21.471-50.61h2.3l16.87,41.025a20.5,20.5,0,0,0,3.527,6.019,7.622,7.622,0,0,0,4.908,2.032v1.533a14.233,14.233,0,0,1-1.419.269,11.705,11.705,0,0,1-1.649.116M117.3,176.276h18.786l-9.2-22.237Z" transform="translate(62.907 84.592)" fill="#0083c9"/>
        <path id="Path_168" data-name="Path 168" d="M142.26,188.79V161.95a13.568,13.568,0,0,0-.959-5.558q-.959-2.109-4.41-2.109h-.765V152.75h6.134a9.188,9.188,0,0,1,4.41.843,4.615,4.615,0,0,1,2.109,2.607,18.983,18.983,0,0,1,3.794-2.759,11.258,11.258,0,0,1,5.79-1.458,12.131,12.131,0,0,1,2.452.27,5.538,5.538,0,0,1,2.148.879,6.7,6.7,0,0,1,1.457,1.458,16.964,16.964,0,0,1,1.226,1.994l-3.066,2.3a5.044,5.044,0,0,0-2.492-1.725,11.05,11.05,0,0,0-3.642-.574,8.754,8.754,0,0,0-4.219,1.034,8.314,8.314,0,0,0-3.066,2.8V188.79Z" transform="translate(80.356 89.715)" fill="#0083c9"/>
        <path id="Path_169" data-name="Path 169" d="M168.265,189.557a13.656,13.656,0,0,1-3.488-.5,11.542,11.542,0,0,1-3.643-1.724,9.288,9.288,0,0,1-2.875-3.3,10.951,10.951,0,0,1-1.112-5.216,8.063,8.063,0,0,1,2.723-6.517,16.209,16.209,0,0,1,7.207-3.259,46.084,46.084,0,0,1,9.623-.959H179a23.908,23.908,0,0,0-1.073-8.166,7.148,7.148,0,0,0-2.875-3.834,8.084,8.084,0,0,0-4.1-1.035,9.931,9.931,0,0,0-5.405,1.38q-2.187,1.379-3.03,5.138h-3.451a28.316,28.316,0,0,1,.231-3.72,5.492,5.492,0,0,1,1.689-3.182,8.96,8.96,0,0,1,4.753-2.071,36.814,36.814,0,0,1,6.748-.614,20.348,20.348,0,0,1,5.022.614,10.28,10.28,0,0,1,4.294,2.261,11.236,11.236,0,0,1,2.993,4.831,26.158,26.158,0,0,1,1.11,8.4v20.7h-3.834l-2.684-3.451H179a11.74,11.74,0,0,1-3.758,2.837,14.979,14.979,0,0,1-6.978,1.38m3.453-3.451a6.653,6.653,0,0,0,4.486-1.419,14.964,14.964,0,0,0,2.8-3.182V171.154h-2.3q-5.751,0-9.009,2.107a6.38,6.38,0,0,0-3.26,5.56q0,3.759,2.225,5.522a7.922,7.922,0,0,0,5.062,1.764" transform="translate(92.764 89.716)" fill="#0083c9"/>
        <path id="Path_170" data-name="Path 170" d="M201.746,194.679A13.831,13.831,0,0,1,195,193.3a12.091,12.091,0,0,1-3.605-2.837h-.383l-2.683,3.449h-3.834V152.506a13.589,13.589,0,0,0-.959-5.558q-.959-2.111-4.41-2.11h-1.533V143.3h6.9a10.225,10.225,0,0,1,4.179.69,4.064,4.064,0,0,1,2.107,2.684,20.962,20.962,0,0,1,.614,5.828v6.9a31.472,31.472,0,0,1,4.065-1.573,18.432,18.432,0,0,1,5.522-.728,12.872,12.872,0,0,1,8.2,2.53,15.021,15.021,0,0,1,4.793,6.786,27.2,27.2,0,0,1,1.573,9.47,27.86,27.86,0,0,1-1.535,9.432,15.284,15.284,0,0,1-4.6,6.826,11.652,11.652,0,0,1-7.668,2.529m-2.3-3.066a6.544,6.544,0,0,0,5.022-2.109,12.924,12.924,0,0,0,2.875-5.674,31.75,31.75,0,0,0,.921-7.937,30.515,30.515,0,0,0-.957-7.975,12.388,12.388,0,0,0-3.069-5.636,7.518,7.518,0,0,0-5.56-2.107,10.029,10.029,0,0,0-3.642.728q-1.88.73-3.642,1.571v24.538a12.662,12.662,0,0,0,3.03,3.181,8.118,8.118,0,0,0,5.022,1.42" transform="translate(104.833 84.592)" fill="#0083c9"/>
      </g>
    </g>
    <g id="Group_226" data-name="Group 226" transform="translate(0 292.039)">
      <g id="Group_225" data-name="Group 225" clip-path="url(#clip-path-3)">
        <rect id="Rectangle_214" data-name="Rectangle 214" width="39.444" height="49.407" transform="matrix(0.946, -0.324, 0.324, 0.946, -13.177, 4.513)" fill="url(#linear-gradient-2)"/>
      </g>
    </g>
    <g id="Group_228" data-name="Group 228" transform="translate(32.411 304.285)">
      <g id="Group_227" data-name="Group 227" clip-path="url(#clip-path-4)">
        <rect id="Rectangle_215" data-name="Rectangle 215" width="35.568" height="37.49" transform="translate(-9.29 3.182) rotate(-18.906)" fill="url(#linear-gradient-3)"/>
      </g>
    </g>
    <g id="Group_230" data-name="Group 230" transform="translate(65.195 304.285)">
      <g id="Group_229" data-name="Group 229" clip-path="url(#clip-path-5)">
        <rect id="Rectangle_216" data-name="Rectangle 216" width="33.519" height="36.788" transform="matrix(0.946, -0.324, 0.324, 0.946, -9.29, 3.182)" fill="url(#linear-gradient-4)"/>
      </g>
    </g>
    <g id="Group_232" data-name="Group 232" transform="translate(92.099 294.451)">
      <g id="Group_231" data-name="Group 231" clip-path="url(#clip-path-6)">
        <rect id="Rectangle_217" data-name="Rectangle 217" width="23.34" height="40.999" transform="matrix(0.946, -0.324, 0.324, 0.946, -12.116, 4.15)" fill="url(#linear-gradient-5)"/>
      </g>
    </g>
    <g id="Group_234" data-name="Group 234" transform="translate(109.914 304.285)">
      <g id="Group_233" data-name="Group 233" clip-path="url(#clip-path-7)">
        <rect id="Rectangle_218" data-name="Rectangle 218" width="31.763" height="36.187" transform="translate(-9.29 3.182) rotate(-18.906)" fill="url(#linear-gradient-6)"/>
      </g>
    </g>
    <g id="Group_236" data-name="Group 236" transform="translate(136.386 293.15)">
      <g id="Group_235" data-name="Group 235" clip-path="url(#clip-path-8)">
        <rect id="Rectangle_219" data-name="Rectangle 219" width="23.761" height="42.23" transform="translate(-12.514 4.286) rotate(-18.906)" fill="url(#linear-gradient-7)"/>
      </g>
    </g>
    <g id="Group_238" data-name="Group 238" transform="translate(173.003 293.15)">
      <g id="Group_237" data-name="Group 237" clip-path="url(#clip-path-9)">
        <rect id="Rectangle_220" data-name="Rectangle 220" width="58.311" height="56.387" transform="translate(-13.368 4.578) rotate(-18.906)" fill="url(#linear-gradient-8)"/>
      </g>
    </g>
    <g id="Group_240" data-name="Group 240" transform="translate(222.301 304.285)">
      <g id="Group_239" data-name="Group 239" clip-path="url(#clip-path-10)">
        <rect id="Rectangle_221" data-name="Rectangle 221" width="33.227" height="36.688" transform="translate(-9.29 3.182) rotate(-18.906)" fill="url(#linear-gradient-9)"/>
      </g>
    </g>
    <g id="Group_242" data-name="Group 242" transform="translate(252.609 293.15)">
      <g id="Group_241" data-name="Group 241" clip-path="url(#clip-path-11)">
        <rect id="Rectangle_222" data-name="Rectangle 222" width="37.127" height="47.323" transform="translate(-12.704 4.351) rotate(-18.906)" fill="url(#linear-gradient-10)"/>
      </g>
    </g>
    <g id="Group_244" data-name="Group 244" transform="translate(281.928 294.451)">
      <g id="Group_243" data-name="Group 243" clip-path="url(#clip-path-12)">
        <rect id="Rectangle_223" data-name="Rectangle 223" width="23.34" height="40.999" transform="translate(-12.116 4.15) rotate(-18.906)" fill="url(#linear-gradient-11)"/>
      </g>
    </g>
    <g id="Group_246" data-name="Group 246" transform="translate(299.741 304.285)">
      <g id="Group_245" data-name="Group 245" clip-path="url(#clip-path-13)">
        <rect id="Rectangle_224" data-name="Rectangle 224" width="31.763" height="36.187" transform="translate(-9.29 3.182) rotate(-18.906)" fill="url(#linear-gradient-12)"/>
      </g>
    </g>
    <g id="Group_248" data-name="Group 248" transform="translate(205.819 194.923)">
      <g id="Group_247" data-name="Group 247" clip-path="url(#clip-path-14)">
        <rect id="Rectangle_225" data-name="Rectangle 225" width="30.611" height="32.467" transform="matrix(0.895, -0.445, 0.445, 0.895, -10.2, 5.072)" fill="url(#linear-gradient-13)"/>
      </g>
    </g>
    <g id="Group_250" data-name="Group 250" transform="translate(233.578 194.923)">
      <g id="Group_249" data-name="Group 249" clip-path="url(#clip-path-15)">
        <rect id="Rectangle_226" data-name="Rectangle 226" width="41.5" height="38.284" transform="translate(-10.439 5.19) rotate(-26.437)" fill="url(#linear-gradient-14)"/>
      </g>
    </g>
    <g id="Group_252" data-name="Group 252" transform="translate(273.23 194.923)">
      <g id="Group_251" data-name="Group 251" clip-path="url(#clip-path-16)">
        <rect id="Rectangle_227" data-name="Rectangle 227" width="30.61" height="32.466" transform="translate(-10.2 5.072) rotate(-26.437)" fill="url(#linear-gradient-15)"/>
      </g>
    </g>
    <g id="Group_254" data-name="Group 254" transform="translate(300.989 194.892)">
      <g id="Group_253" data-name="Group 253" clip-path="url(#clip-path-17)">
        <rect id="Rectangle_228" data-name="Rectangle 228" width="30.99" height="32.677" transform="translate(-10.213 5.078) rotate(-26.437)" fill="url(#linear-gradient-16)"/>
      </g>
    </g>
  </g>
</svg>
