<?xml version="1.0" encoding="UTF-8"?>
<svg id="Layer_1" data-name="Layer 1" xmlns="http://www.w3.org/2000/svg" xmlns:xlink="http://www.w3.org/1999/xlink" viewBox="0 0 203.83 211.76">
  <defs>
    <style>
      .cls-1 {
        fill: url(#linear-gradient-2);
      }

      .cls-2 {
        fill: #fff;
      }

      .cls-3 {
        fill: url(#linear-gradient-15);
      }

      .cls-4 {
        fill: #2c94d2;
      }

      .cls-5 {
        fill: url(#linear-gradient-14);
      }

      .cls-6 {
        fill: url(#linear-gradient-6);
      }

      .cls-7 {
        fill: url(#linear-gradient-11);
      }

      .cls-8 {
        fill: url(#linear-gradient-10);
      }

      .cls-9 {
        fill: url(#linear-gradient-16);
      }

      .cls-10 {
        fill: url(#linear-gradient-5);
      }

      .cls-11 {
        fill: url(#linear-gradient-7);
      }

      .cls-12 {
        fill: url(#linear-gradient-9);
      }

      .cls-13 {
        fill: url(#linear-gradient-3);
      }

      .cls-14 {
        fill: url(#linear-gradient);
      }

      .cls-15 {
        fill: url(#linear-gradient-4);
      }

      .cls-16 {
        fill: url(#linear-gradient-8);
      }

      .cls-17 {
        fill: url(#linear-gradient-12);
      }

      .cls-18 {
        fill: url(#linear-gradient-13);
      }
    </style>
    <linearGradient id="linear-gradient" x1="5.67" y1="94.78" x2="141.2" y2="26.36" gradientUnits="userSpaceOnUse">
      <stop offset=".19" stop-color="#e94647"/>
      <stop offset=".57" stop-color="#8c6c8b"/>
      <stop offset=".95" stop-color="#2c94d2"/>
    </linearGradient>
    <linearGradient id="linear-gradient-2" x1="198.42" y1="132.04" x2="-62.22" y2="221.3" gradientUnits="userSpaceOnUse">
      <stop offset=".19" stop-color="#e94647"/>
      <stop offset="1" stop-color="#f5a05e"/>
    </linearGradient>
    <linearGradient id="linear-gradient-3" x1="201.72" y1="141.69" x2="-58.91" y2="230.96" xlink:href="#linear-gradient-2"/>
    <linearGradient id="linear-gradient-4" x1="203.88" y1="148" x2="-56.75" y2="237.26" xlink:href="#linear-gradient-2"/>
    <linearGradient id="linear-gradient-5" x1="204.34" y1="149.35" x2="-56.29" y2="238.61" xlink:href="#linear-gradient-2"/>
    <linearGradient id="linear-gradient-6" x1="206.91" y1="156.83" x2="-53.73" y2="246.1" xlink:href="#linear-gradient-2"/>
    <linearGradient id="linear-gradient-7" x1="206.92" y1="156.87" x2="-53.71" y2="246.14" xlink:href="#linear-gradient-2"/>
    <linearGradient id="linear-gradient-8" x1="210.78" y1="168.14" x2="-49.85" y2="257.41" xlink:href="#linear-gradient-2"/>
    <linearGradient id="linear-gradient-9" x1="214.21" y1="178.15" x2="-46.42" y2="267.41" xlink:href="#linear-gradient-2"/>
    <linearGradient id="linear-gradient-10" x1="215.51" y1="181.96" x2="-45.12" y2="271.22" xlink:href="#linear-gradient-2"/>
    <linearGradient id="linear-gradient-11" x1="216.88" y1="185.94" x2="-43.76" y2="275.2" xlink:href="#linear-gradient-2"/>
    <linearGradient id="linear-gradient-12" x1="219.44" y1="193.42" x2="-41.19" y2="282.69" xlink:href="#linear-gradient-2"/>
    <linearGradient id="linear-gradient-13" x1="212.89" y1="92.98" x2="119.45" y2="139.44" xlink:href="#linear-gradient-2"/>
    <linearGradient id="linear-gradient-14" x1="216.96" y1="101.17" x2="123.52" y2="147.62" xlink:href="#linear-gradient-2"/>
    <linearGradient id="linear-gradient-15" x1="221.29" y1="109.88" x2="127.85" y2="156.33" xlink:href="#linear-gradient-2"/>
    <linearGradient id="linear-gradient-16" x1="224.57" y1="116.47" x2="131.13" y2="162.93" xlink:href="#linear-gradient-2"/>
  </defs>
  <path class="cls-14" d="m129.42,0H26.39C13.35,0,2.68,10.67,2.68,23.71v69.2c0,13.04,10.67,23.71,23.71,23.71h5.38c4.4,6.66,13.32,20.19,13.32,20.19l11.22-20.19h73.11c13.04,0,23.71-10.67,23.71-23.71V23.71c0-13.04-10.67-23.71-23.71-23.71Z"/>
  <g>
    <path class="cls-2" d="m137.05,80.84c-1.05-2.66-4.15-8.45-5.17-11.33-1.18-3.34.83-5.61-.03-8.09-.54-1.55-2.18-2.12-4-2.17,1.61-1.25,2.51-2.8,1.56-4.95-1.32-2.95-5.78-5.46-6.82-8.25-1.75-4.7,2.72-8.43.92-11.95-1.88-3.65-12.28-2.06-21.02-4.76-9.15-2.82-7.95-17.72-21.02-27.16,1.21,1.66,2.26,3.42,3.18,5.26-.41-.11-.45.64-.05,2.08l.08.31c-.48-.96-.97-1.77-1.39-2.14-.23-.2-.28.09-.39.2-.23.01-.07.84.35,1.86.12.28.24.54.36.78.43,1.21.87,2.43,1.24,3.63.07.24.2.51.29.62.09.09.1-.04.03-.28-.24-.87-.47-1.73-.7-2.59l-.11-.17s.06.07.09.1c-.02-.08-.04-.16-.07-.24.03.06.07.1.1.16.02.07.04.13.06.2.07.09.14.2.22.33.52,1.46,1.01,2.93,1.38,4.36.02.08-.12-.02-.1.14l.04.25c-.08-.26-.16-.53-.24-.81-.53-1-.73-1.38-.87-1.64h0s0,0-.04-.08c-.06-.12-.12-.22-.2-.38h0s-.05-.09-.05-.09l-.17-.47c-.06-.18-.15-.34-.21-.41,0-.07-.01-.15-.02-.23q-.32-.9-.65-1.81s-.02.01-.04.05c-.02-.03-.17-.32-.3-.67-.15-.33-.14-.34-.47-1.18l.08.44-.09-.38-.06.14.04-.21-.15-.11s0,0-.06-.8c-.03-.05-.1-.17-.27-.48,0,0-.06-.08-.12-.13t-.26-.22s-.04,0-.06.05q0,.1-.08.16s0,.11.04.26c.04.14.05.18.21.7l-.1-.1q-.21-.02-.35.77s.04.39.2.98q.24.67.52,1.43s.06.17.15.46c.02.24.02.29.03.47h0c-.06-.14-.13-.27-.2-.38-.2-.31-.32-.32-.26,0-.43-.26-.57.06-.61.63-.15-.11-.27-.13-.36-.07-.46-.45-.85-.69-1.17-.72l-.25.03c-.13.24-.1.77.04,1.5l.03.23-.27-.12c-.13,1.07.15,2.94.07,4.18l.04.88c0,.65.19,1.61.46,2.69.1.38.21.76.29,1.14l.21.71c-.59-1.12-1.18-1.65-1.48-1.31-.47.58-.07,3.29.62,6.03.81,3.69,1.1,7.23.71,10.6-.06.86-.26,1.67-.4,2.52-.22.85-.39,1.7-.7,2.6-.11.38-.24.77-.37,1.16-.07-.01-.13-.03-.2-.04-5.08-.82-9.91-1.08-14.96-.85-1.64.07-3.19.19-4.73.33.73-2.31,1.25-4.99,1.77-7.51l-.23.16c.13-.51.3-.8.43-1.37l-.22.45v-.03c.22-.6.38-1.33.48-2.11.56-1.71.97-3.87,1.19-6.17.1-.29.18-.75.22-1.28.04-.22.06-.48.1-.64.37-1.44.63-3.24.7-5.25-.05.39-.09.79-.14,1.18.04-.58.06-1.15.03-1.8l-.11.23c.21-2-.21-4.77-.84-6.08-.64-1.31-1.08-.71-1.08,1.26v.32c-.2-.99-.46-1.86-.79-2.3-.17-.24-.29.02-.43.1-.23-.04-.28.76-.14,1.77.03.27.07.54.12.77.07,1.19.12,2.39.1,3.53-.01.23.02.5.08.61.05.1.11,0,.12-.24.05-.84.09-1.66.12-2.47-.01-.05-.03-.11-.05-.16.02.02.03.07.05.1,0-.08,0-.15,0-.23.02.06.04.12.06.18,0,.06,0,.12,0,.19.04.1.07.22.1.35.05,1.43.04,2.85-.07,4.17,0,.08-.11-.05-.14.09l-.05.22c.02-.24.04-.49.04-.76-.18-1.01-.25-1.39-.3-1.66h0s0,0-.02-.08c-.02-.12-.04-.23-.07-.38h0s-.02-.09-.02-.09l-.02-.46c0-.17-.04-.34-.07-.42.02-.07.04-.14.06-.21-.03-.87-.02-.87-.09-1.77,0,0-.02,0-.06.04,0-.03-.07-.33-.1-.68-.05-.33-.03-.33-.12-1.17l-.03.41v-.36s0,0-.08.11l.09-.18-.11-.14s0,0,.14-.74c-.01-.05-.05-.18-.14-.5,0,0-.04-.09-.08-.15-.03,0-.03,0-.19-.26,0,0-.04,0-.07.04q-.02.09-.12.13s-.02.1-.03.25c0,.14,0,.18.02.67l-.07-.11c-.2-.06-.2-.06-.53.62,0,0-.06.36-.06.91q.04.64.08,1.37s0,.16.02.44c-.04.21-.06.26-.11.42h0c-.01-.14-.04-.27-.08-.38-.1-.32-.21-.35-.25-.07-.33-.33-.57-.08-.77.39-.11-.13-.22-.18-.32-.15-.31-.5-.61-.78-.91-.88l-.25-.03c-.19.17-.33.62-.4,1.27l-.04.2-.22-.16c-.46.86-.77,2.47-1.26,3.45-.08.25-.15.49-.24.73-.22.53-.35,1.36-.45,2.34l-.1,1.03-.03.65c-.21-1.11-.58-1.71-.97-1.52-.65.34-1.15,2.67-1.34,5.29-.52,5.29-1.57,10.5-2.77,15.98-1.61.39-3.21.75-4.8,1.22-2.73.76-4.71,1.87-7.02,2.87-.07.03-.07.07-.02.08.06.01.16,0,.22-.04,3.6-1.17,7.32-2.17,11.31-2.76-.06.26-.11.51-.17.77-.18.05-.37.1-.56.15-.31.05-.6.13-.84.22-1.23.06-2.45.18-3.68.31l-.31.02c-.4.04-.78.17-.95.32-.06.05-.09.09-.1.14-2.73.67-5.49,1.4-7.97,2.39-.13.05-.18.11-.15.15-.05,0-.12.01-.17.04-.29.16-.61.3-.96.43-.07.04-.11.08-.07.09.05.02.14.01.2-.02.36-.14.7-.29,1.01-.45.03-.02.05-.04.06-.06.08.02.2,0,.31-.04,2.62-.74,5.15-1.56,7.85-2.07-1.39.42-2.66.8-4.01,1.2-1.68.52-3.19,1.09-4.87,1.6-.09.02-.14.07-.12.09.02.03.1.03.18,0,3.45-.96,6.41-2.32,10.09-2.87l.43-.06c-1.09.44-2.17.84-3.22,1.31-3.33.69-6.62,1.59-9.79,2.67-.16.04-.27.13-.25.18.02.06.16.06.32.02,1.86-.39,3.72-.77,5.6-1.09l-.37.16-.38.11c-1.2.25-2.38.57-3.56.9-.45.11-.78.33-.76.5.04.16.4.21.83.12l-.2.08c-.07.02-.11.07-.08.09.03.02.13.02.19,0l.71-.3c1.13-.27,2.26-.51,3.39-.75,1.13-.26,2.26-.5,3.4-.72-1.21.31-2.42.65-3.64.99-1.22.32-2.44.67-3.65,1.01.04-.03.04-.07-.03-.07-.06,0-.16.02-.21.05-.05.04-.03.07.02.08h0c-1.32.33-2.61.77-3.93,1.11-.08.02-.13.06-.12.1.01.03.09.04.17,0,4.33-1.25,8.66-2.45,12.95-3.59l.71-.14h0c.1.12.27.21.5.27-1.53.3-3.04.67-4.55,1.03-1.26.27-2.54.52-3.8.81-.18.04-.32.13-.31.21.01.07.17.08.36.04.31-.08.62-.14.93-.2-.24.14-.37.3-.36.44.01.14.17.23.41.28-1.32.44-2.61.92-3.85,1.44-.07.03-.1.07-.07.09.03.02.12.01.19-.02,1.85-.56,3.67-1.16,5.55-1.64,1.52-.18,3.03-.24,4.65-.48,1.94-.25,3.76-.64,5.56-1.01-.02.09-.04.19-.06.28-6.07.83-11.73,2.44-17.1,4.5-.38.13-.61.34-.52.48.09.13.47.14.84.01,2.73-.85,5.4-1.68,8.4-2.6,2.11-.59,3.98-1.08,6.14-1.52.72-.15,1.43-.28,2.13-.39-.04.19-.09.39-.13.59-.76.08-1.51.17-2.27.28-.08.01-.15.05-.15.08,0,.03.07.05.15.03.75-.11,1.5-.19,2.25-.27-.92,4.19-1.78,8.28-2.67,12.68-.21,1.42-.39,2.83-.54,4.25-.13.07-.27.14-.4.21l-.18.03c-1.57.14-3.29.73-4.91,1.16l.17.16c-.31.05-.52-.01-.86.06l.31.05s-.01,0-.02,0c-.38.01-.81.1-1.24.25-1.07.05-2.32.32-3.59.71-.19-.02-.45.02-.74.13-.13.02-.27.06-.37.06-.89,0-1.92.16-3.02.46l.68-.09c-.32.08-.64.16-.97.3l.16.06c-1.15.17-2.51.91-3.07,1.63-.55.72-.04,1.09,1.11.86l.18-.03c-.5.3-.91.64-1.07.98-.09.19.11.27.21.39.06.21.55.19,1.09-.05.15-.06.28-.14.4-.21.65-.21,1.31-.44,1.95-.61.13-.03.26-.11.31-.18.03-.07-.04-.1-.17-.07-.46.09-.93.18-1.4.27l-.09.08s.03-.05.05-.07c-.05,0-.09.02-.13.03.03-.02.04-.04.07-.07l.11-.03s.09-.09.14-.14c.78-.27,1.56-.52,2.32-.68.04,0,.01.11.1.11h.14c-.14.04-.28.08-.42.12-.48.36-.66.49-.79.58h0s0,0-.04.03c-.06.04-.11.08-.18.13h0s-.05.04-.05.04l-.25.09c-.09.03-.17.09-.21.13-.04,0-.08-.01-.14-.02q-.48.17-.96.34s.01.02.04.05c-.02.01-.16.11-.35.18-.17.08-.17.08-.63.26h.25s0-.01-.22.01l.1.08-.14-.07-.04.12s0,0-.48-.06c-.03.02-.09.07-.26.18,0,0-.04.05-.06.09.01.03,0,.03-.1.21,0,0,.01.03.05.06q.06,0,.12.09s.07,0,.16,0c.09-.02.11-.03.4-.1l-.04.08c.03.19.03.19.55.43,0,0,.23.02.56-.04q.36-.12.76-.26s.1-.03.25-.07c.14.02.17.02.28.04h0c-.07.04-.14.08-.19.13-.15.14-.13.24.05.24-.07.35.15.54.5.66-.03.12-.03.23.03.32-.18.35-.24.67-.2.96l.07.24c.17.15.48.22.89.2h.13s-.01.24-.01.24c.66.29,1.7.31,2.44.55l.51.08c.37.07.9.03,1.48-.11l.61-.16.37-.14c-.52.48-.72.96-.46,1.27.44.53,1.93.39,3.39-.22,1.53-.57,3.05-1.1,4.58-1.62.02.45.04.91.07,1.36.32,4.74,1.43,8.3,2.75,12.24.04.11.08.12.09.05,0-.1-.03-.26-.06-.37-1.2-4.37-1.8-8.95-1.83-13.64.23-.08.46-.15.68-.23-.08,1.18-.14,2.37-.17,3.57l-.02.51c0,.68.07,1.32.23,1.64.04.1.09.16.13.19.46,4.64,1.45,9.36,3.27,13.4.09.21.17.3.21.25.01.08.05.19.09.28.24.47.52.99.78,1.55.07.12.12.18.12.11,0-.07-.04-.22-.09-.33-.27-.54-.53-1.07-.81-1.63-.03-.05-.06-.09-.07-.09,0-.13-.06-.32-.13-.51-1.55-4.25-2.57-8.57-2.88-13.13.29,2.22.69,4.47,1.25,6.8.69,2.81,1.61,5.32,2.72,8,.05.14.12.22.14.2.02-.03,0-.15-.06-.29-2.19-5.47-3.74-10.61-3.9-16.78v-.72c.28,1.89.61,3.73,1.07,5.54.67,5.55,2.25,11.03,4.98,15.8.13.24.27.41.32.37.05-.03-.01-.26-.14-.49-1.34-2.79-2.33-5.75-3.01-8.77l.25.61.2.61c.53,1.91,1.22,3.79,2.07,5.59.3.68.67,1.18.85,1.14.15-.06.04-.61-.24-1.26l.17.3c.05.1.12.16.13.12,0-.05-.03-.2-.09-.29l-.61-1.06c-1.35-3.47-2.34-7.08-2.87-10.78.37,1.98.85,3.94,1.46,5.87.59,1.93,1.31,3.83,2.18,5.65-.05-.07-.09-.06-.07.04.02.09.09.24.14.31.06.08.09.05.07-.04h0c.94,1.94,2.01,3.84,3.27,5.62.07.11.15.18.18.16.03-.02-.02-.13-.1-.25-1.85-2.63-3.31-5.49-4.48-8.48.11.27.24.48.32.46.07-.02.03-.26-.08-.56-.17-.47-.31-.96-.47-1.43.21.37.42.58.56.56.14-.02.19-.25.17-.61.8,2.03,1.75,3.97,2.91,5.69.07.1.12.15.13.09,0-.05-.04-.17-.1-.27-1.47-2.6-2.63-5.38-3.47-8.29-.41-2.37-.62-4.7-.79-7.29-.22-3.23-.32-6.32-.25-9.4.07-.02.14-.04.21-.06.02,0,.05-.01.07-.02-.71,9.95,1.42,19.59,6.65,26.85.36.48.72.76.8.61.09-.15-.13-.65-.47-1.13-2.35-3.73-4.05-7.6-5.24-12.18-.8-3.27-1.22-6.27-1.35-9.74-.06-1.55,0-3.06.09-4.56.21-.06.41-.12.62-.18-.17,1.76-.27,3.51-.28,5.27,0,.13.03.24.06.25.03,0,.05-.1.05-.22,0-1.78.12-3.55.29-5.33,1.07-.31,2.12-.6,3.17-.89,1.47-.37,2.94-.63,4.48-.89,1.42-.31,2.85-.63,4.31-.95,1.43-.32,2.85-.51,4.3-.8.39-.09.75-.15,1.11-.23,0,.27-.03.54-.03.82.08,3.31.45,6.38.97,9.51.91,5.22,2.42,9.07,4.32,13.35.06.12.09.13.1.05,0-.11-.06-.29-.12-.4-1.31-3.46-2.27-7.03-2.94-10.72-.66-3.7-1.06-7.48-1.02-11.49.03-.47.05-.95.08-1.41.19-.04.39-.08.58-.13v.86c-.04,1.12.11,2.04.16,3.06.02.59.09,1.13.16,1.6,0,2.29.14,4.58.34,6.88l.05.57c.08.75.24,1.47.42,1.81.06.11.11.17.16.2,1.07,5.12,2.6,10.3,5.15,14.66.13.22.22.32.25.26.03.09.08.2.14.3.37.56.73,1.09,1.1,1.65.09.13.16.18.14.11,0-.08-.08-.24-.16-.35-.39-.61-.81-1.18-1.14-1.74-.04-.06-.07-.09-.09-.1-.03-.14-.11-.36-.22-.55-2.3-4.61-3.79-9.36-4.71-14.4.61,2.44,1.24,4.92,2.12,7.48,1.08,3.08,2.36,5.82,4,8.68.08.15.17.24.18.21.02-.03-.03-.17-.12-.31-1.66-2.93-2.93-5.83-3.99-8.83-1.06-3-1.85-6.12-2.3-9.55-.03-.27-.08-.54-.1-.81.52,2.09,1.09,4.11,1.77,6.08.67,3.08,1.61,6.11,2.84,9.01,1.24,2.89,2.8,5.67,4.86,8.04.2.23.4.39.44.35.04-.04-.09-.27-.29-.5-2.15-2.8-3.63-6.04-4.77-9.34l.34.66.29.67c.38,1.06.93,2.05,1.39,3.07.58.96,1.06,1.99,1.75,2.89.47.7.96,1.2,1.13,1.12.13-.09-.1-.68-.53-1.33l.24.3c.08.1.16.16.16.11,0-.06-.08-.21-.16-.3-.29-.36-.59-.7-.86-1.07-2.08-3.63-3.53-7.64-4.59-11.73.68,2.18,1.36,4.37,2.3,6.45.41,1.07.98,2.06,1.46,3.09.59.96,1.09,2,1.78,2.89-.07-.06-.1-.05-.06.05.04.09.15.25.22.31.08.08.1.04.06-.05h0c1.41,1.94,3.04,3.77,5.06,4.99.11.08.22.13.24.1.01-.03-.08-.12-.2-.21-1.64-1.04-3.05-2.43-4.3-3.97-1.2-1.59-2.28-3.28-3.15-5.1-1.79-3.62-3.07-7.5-4.06-11.42l-.24-1.3h0c.1-.16.17-.47.19-.87.5,2.8,1.23,5.54,2.13,8.21.65,2.26,1.56,4.41,2.58,6.5.16.29.35.51.42.48.07-.02-.02-.29-.18-.6-.26-.5-.48-1.03-.72-1.54.28.39.52.61.66.57.14-.03.15-.3.08-.69.54,1.11,1.22,2.1,1.86,3.1.72.92,1.42,1.85,2.23,2.59.09.09.16.12.15.07,0-.05-.08-.17-.17-.26-2.13-2.37-3.78-5.36-5.04-8.54-.76-2.61-1.28-5.23-1.81-8.14-.72-4.25-1.3-8.29-1.57-12.35.02-.73.04-1.46.06-2.18.06-.67.12-1.34.17-2.01.05.19.12.31.21.32.02,0,.04,0,.06-.02-.04.58-.09,1.16-.13,1.75,0,.64-.01,1.27-.02,1.92.07,5.99,1.01,11.86,2.73,17.25.88,2.68,1.97,5.25,3.32,7.54,1.35,2.28,2.98,4.29,4.84,5.61.49.3.9.42.93.25.04-.18-.33-.51-.76-.85-1.62-1.32-3.02-3.15-4.24-5.2-1.21-2.06-2.31-4.34-3.19-6.89-1.28-3.62-2.05-7.02-2.63-10.93-.34-2.3-.49-4.54-.55-6.76-.05-1.93.06-3.53.35-5.24.09-.01.15-.04.14-.09.04.02.1.03.16.02.15-.03.32-.03.49-.04-.74,3.69-.49,8.34-.09,12.66.02.15.06.28.09.28.03,0,.04-.12.02-.26-.22-2.27-.38-4.54-.38-6.79-.02-.57.01-1.12.02-1.68l.02-.84.07-.74c.04-.86.21-1.75.38-2.63.12,0,.23-.03.36-.03.08-.01.12-.03.09-.06-.03-.04-.11-.06-.18-.05-.09,0-.16.02-.25.02.01-.07.03-.15.04-.22,0-.04,0-.07.01-.1.06,0,.11-.02.1-.04,0-.02-.05-.04-.1-.05,0-.04,0-.07-.01-.08-.02,0-.04.02-.06.07-.27-.02-.52-.01-.79-.02.02-.08.03-.17.04-.25.31.02.62.03.93.05.56.03,1.1.11,1.65.19-.12,1.22-.18,2.4-.18,3.54.02,15.15,8.99,31.71,30.18,34.47-5.33-3.99-4.96-12.94,1.97-17.79,6.96-4.87,16.63-4.36,20.52-5.48,4.55-1.31,6.28-4.86,4.96-8.22ZM60.45,33.57l.19-.85-.07.15c.16-1.11.34-2.22.47-3.33.31-1.61.5-3.39.56-5.2.06.51.12,1,.18,1.46-.25,2.29-.64,4.46-.99,6.79l-.11.45-.26.63.02-.09Zm-.77-6.67c.03-.44.04-.87.02-1.29.17-.46.34-.95.48-1.59-.12,1.06-.18,2.28-.32,3.38-.13,1.23-.31,2.43-.49,3.62l.03-.42c0-.14.04-.41-.06-.27.14-1.12.27-2.26.34-3.44Zm-32.6,53.21s.08,0,.15,0t-.15,0Zm2.29,3.18h-.04s.09-.73.09-.73l-.05.73Zm.89-3.29c-.06-.01-.13-.03-.22-.05,0,0,.09.02.22.05h0Zm4.25-3.18c-.07.04-.22.08-.11.13-.63.18-1.27.38-1.91.62-.24.09-.47.19-.68.31-.31-.05-.63-.09-1.02-.07.61-.14,1.27-.36,1.89-.54.69-.21,1.38-.36,2.05-.55l-.22.1Zm1.07-1.87c-.17.03-.33.07-.5.1h.1c-.62.19-1.24.37-1.87.56-.93.18-1.92.45-2.88.79.25-.17.48-.34.7-.51,1.27-.33,2.52-.55,3.82-.95.09-.01.18-.03.27-.04l.42.04-.05.02Zm14.92,27.11c-1.44-3.69-2.41-7.56-2.97-11.45-.04-.39-.08-.77-.11-1.16h0c.12-.13.22-.4.29-.75.2,2.5.57,4.97,1.14,7.39.41,2.03.96,4.02,1.64,5.97Zm29.24-28.99c-.09-.04-.19-.07-.3-.1h.21c.06.02.11,0,.11-.03,0,.04,0,.08-.01.13Zm.02-.13s-.1-.07-.17-.08l-.74-.03c-.2-.04-.41-.06-.61-.09.03-.12.06-.24.09-.36l.25.02.92.16c-.05.01-.06.04,0,.08.05.03.15.05.2.04.06-.01.06-.05,0-.08h0s.06.01.09.02c-.01.11-.02.21-.04.32Zm-1.94.68c-.22-.04-.43-.07-.65-.11.02-.07.04-.14.06-.21l.3.03c.11,0,.21.03.32.04,0,0,0,0,0,0-.02.09-.03.17-.03.24Zm-16.37-3.51c.71-.05,1.41-.15,2.14-.15,1.89-.1,3.76-.19,5.62-.24-.01.06-.02.11-.04.17-1.87-.02-3.66.23-5.44.43-.82-.03-1.62.05-2.42.1.11-.08.17-.16.16-.24,0-.02-.01-.04-.02-.06Zm18.58.94c-.43-.07-.87-.12-1.3-.16.09-.32.21-.64.31-.95.39.03.77.07,1.16.11-.06.34-.12.67-.17,1Zm-2.52,1.11l.3.04c.13.02.23,0,.3-.05,0,.04-.02.09-.03.13-.19-.02-.39-.05-.58-.07,0-.02,0-.04.01-.05Zm.61-.1s-.13-.1-.28-.11l-.27-.03c.04-.13.08-.27.11-.4.04-.12.08-.23.12-.35.18,0,.35.01.53.02-.08.29-.16.59-.22.88Zm.16-1.22c-.12,0-.23-.01-.35-.02.1-.32.21-.64.33-.95.15.01.3.03.45.04-.1.32-.19.64-.27.95-.05,0-.1-.01-.15-.02Zm2.04-1.47c-.35-.05-.7-.1-1.04-.14.68-1.98,1.49-3.98,2.4-6-.52,2.06-.98,4.12-1.35,6.14Zm1.48-7.52c-1.07,2.46-2.11,4.92-2.88,7.33-.1,0-.19-.03-.29-.04-.04,0-.08,0-.12,0,.93-2.46,2.08-4.87,3.3-7.29Zm-13.37,12.57c0,.05-.01.1-.02.16-.1,0-.19,0-.28,0h-.4c.24-.06.47-.1.7-.16Zm1.58-.36c.06-.01.12-.03.17-.04.01.09.03.17.06.18.05,0,.1-.07.16-.2l-.05.53c-.14,0-.29,0-.44,0,.03-.16.06-.33.09-.49Zm-.14.71c.15-.02.31-.03.46-.05v.09c-.16,0-.32,0-.47,0,0-.02,0-.04.01-.05Zm7.53-2.16c.02-.1.04-.2.07-.3.06,0,.13,0,.19.01l.4.03c-.02.12-.05.23-.07.35-.2-.03-.39-.06-.59-.09Zm.95-.3c.1-.38.19-.75.3-1.13.45.03.9.04,1.35.08-.07.42-.13.84-.19,1.26-.49-.08-.97-.15-1.46-.21Zm5.52-55.8s0,.16,0,.38h0c0-.1,0-.23,0-.38Zm-1-5.12s-.01-.09-.03-.2c.02.06.02.13.03.2Zm-3,2.65v-.07s.85.44.85.44l-.85-.38Zm-28.26,56.43c.6-2.94,1.36-5.83,2.17-8.7-.63,2.88-1.21,5.75-1.63,8.58-.18.04-.36.08-.53.12Zm5.4-16.82c.56,0,1.12-.02,1.67,0-.57.03-1.15.09-1.72.14.02-.05.03-.1.05-.15Zm2.08-36.88s0,.02,0,.04c0,0,0,0,0-.04Zm-.63,4.66s-.05.13-.12.32h0c.03-.09.07-.19.12-.32Zm-2.99-3.19l.67.58-.69-.52.02-.05Zm3.55,51.67l-.76.11c-1.95.24-3.9.47-5.87.71,0,0,0,0,0,0,1.13-.28,2.28-.48,3.41-.73,1.14-.25,2.28-.52,3.43-.72.17-.03.27-.09.25-.15-.04-.06-.19-.08-.36-.06-2.24.35-4.45.77-6.66,1.23.74-4.23,1.74-8.48,2.8-12.78.48-.7,1.03-1.9,1.54-3.29,1.53-.12,3.06-.2,4.6-.27.87.54,2.67.84,4.27.88.59.04,1.14,0,1.69-.06-.26-.03-.51-.07-.76-.1.76.01,1.42-.09,2.07-.21l.17.03c1.47.38,3.19.48,4.76.78l-.08-.22c.28.09.44.24.75.32l-.24-.18h.02c.18.09.39.16.61.22-1.63,3.71-3.31,7.5-4.8,11.84-.18.61-.34,1.24-.49,1.87-.64.01-1.28.04-1.94.12-1.32.13-2.58.21-3.84.27-1.26.06-2.5.23-3.78.35-.25,0-.51.01-.76.05Zm9.28,6.01c-1.78.26-3.57.41-5.42.6-.43.05-.84.09-1.26.14-.05,0-.1,0-.15,0-.38.01-.76.02-1.14.03l.39-.05c.26-.02.48-.13.49-.24,0-.05-.05-.08-.11-.11.96-.2,1.9-.5,2.84-.68.28-.02.54-.07.76-.14,1.12.03,2.21.05,3.32.08.09,0,.18,0,.27.03.01,0,.03,0,.04,0,0,.12,0,.23-.01.35,0,0-.01,0-.02,0Zm1.42-.11c.02-.17.03-.35.05-.52.16,0,.33-.02.49-.03l-.03.36v.15c-.17.02-.34.03-.51.04Zm7.99-1.35s0,.02-.01.03c-.02.1-.03.2-.06.3-.22.01-.44.02-.65.05-.03,0-.06.02-.07.03-.01,0-.04,0-.06-.01.02-.14.05-.27.07-.41.26,0,.51,0,.77,0Zm.26-.82c.03-.07.06-.16.08-.25.4.04.8.08,1.19.16.16.03.3.04.43.04-.02.14-.03.28-.05.42-.55-.14-1.1-.26-1.65-.37Zm10.11-47.63c-.04-.15-.1-.46-.15-.27-.23-1.28-.55-2.54-.91-3.83-.14-.48-.29-.94-.45-1.38,0-.55-.04-1.12-.15-1.84.3,1.16.67,2.48.97,3.71.31,1.37.59,2.73.81,4.09l-.13-.47Zm-.19-7.48c.15.32.3.64.44.94.06.39.12.79.17,1.18-.19-.71-.39-1.42-.61-2.12Z"/>
    <path class="cls-2" d="m84.45,11.93l.13.21c-.02-.05-.04-.11-.05-.16-.03-.05-.07-.08-.1-.12,0,.02.01.05.02.07Z"/>
    <path class="cls-2" d="m82.96,9.4c-.07-.25-.13-.49-.28-.81-.06-.07-.08-.11-.1-.12.03.13.08.31.12.49.09.35.2.5.26.45Z"/>
    <path class="cls-2" d="m82.59,8.46c-.03-.12-.05-.2-.05-.2,0,.05,0,.1.01.15.02.03.02.04.02.04,0,0,0,0,.02.02Z"/>
    <path class="cls-2" d="m80.74,107.93c.04.09.14.24.22.31.07.07.1.04.06-.05-.04-.11-.15-.25-.22-.31-.08-.08-.11-.06-.06.05Z"/>
    <path class="cls-2" d="m60.46,17.61c.02.08.04.16.07.24,0-.05,0-.11,0-.16-.02-.05-.04-.1-.06-.14,0,.02,0,.04,0,.06Z"/>
    <path class="cls-2" d="m59.75,15.01c0-.24,0-.47-.06-.8-.04-.08-.05-.11-.06-.14,0,.13,0,.3-.01.47,0,.34.07.5.14.47Z"/>
    <path class="cls-2" d="m59.63,14.07c0-.12,0-.2,0-.2,0,.05-.02.09-.03.14,0,.03.01.04.01.04,0,0,0,0,.01.02Z"/>
    <path class="cls-2" d="m51.04,104.1c.02.09.08.23.14.31.05.07.09.05.07-.04-.02-.1-.09-.24-.14-.31-.06-.08-.09-.06-.07.04Z"/>
    <path class="cls-2" d="m31.79,54.73c-.06,0-.15.02-.21.05-.05.03-.03.07.02.08.07,0,.16-.02.21-.05.05-.04.04-.07-.02-.08Z"/>
    <path class="cls-2" d="m27.2,78.72l.1-.09-.09.03s-.03.05-.05.07c.01,0,.03,0,.04,0Z"/>
    <path class="cls-2" d="m25.95,79.72c-.14.02-.28.04-.45.14-.03.04-.05.06-.06.07.08,0,.18-.02.28-.04.2-.03.27-.11.23-.17Z"/>
    <path class="cls-2" d="m25.44,79.93c-.07,0-.12.02-.12.02h.09s.02,0,.02,0c0,0,0,0,.01-.01Z"/>
    <path class="cls-2" d="m67.91,68.75s-.06-.05-.15-.05c-2.62.04-5.24.03-7.83.25-.09,0-.16.04-.17.07,0,.03.06.05.14.05,2.59-.22,5.22-.22,7.84-.26.09,0,.16-.03.17-.06Z"/>
    <path class="cls-2" d="m79.02,72.54c-.06.01-.07.04,0,.08.05.03.14.05.2.04.05,0,.06-.05,0-.08-.06-.03-.15-.05-.2-.04Z"/>
  </g>
  <g>
    <path class="cls-4" d="m37.91,177.3c-2.31,0-4.12-.36-5.42-1.08s-2.21-1.85-2.72-3.38c-.51-1.53-.77-3.5-.77-5.91v-18.56l-12.05,26.76h-.96l-12.54-27.24v27.24h-1.93v-31.82h4.58l11.57,25.07,11.33-25.07h4.34v23.63c0,2.93.37,5.22,1.11,6.9.74,1.67,1.9,2.51,3.47,2.51v.96Z"/>
    <path class="cls-4" d="m42.78,175.13v-16.88c0-1.45-.2-2.61-.6-3.5-.4-.88-1.33-1.33-2.77-1.33h-.96v-.96h4.34c1.12,0,2,.14,2.63.43.63.29,1.07.85,1.33,1.69.26.84.39,2.06.39,3.66v16.88h-4.34Zm1.83-25.56c-.74,0-1.37-.3-1.9-.92-.53-.61-.8-1.33-.8-2.17,0-.68.2-1.21.6-1.59.4-.39.94-.58,1.62-.58.74,0,1.37.31,1.9.92.53.61.8,1.33.8,2.17,0,.68-.2,1.21-.6,1.59-.4.39-.94.58-1.62.58Z"/>
    <path class="cls-4" d="m61.49,175.61c-1.93,0-3.5-.17-4.73-.51-1.22-.34-2.14-.81-2.75-1.42-.61-.61-.96-1.3-1.06-2.07-.1-.77-.14-1.77-.14-2.99h.96c.26,1.58.93,2.81,2.03,3.71,1.09.9,2.67,1.35,4.73,1.35,1.83,0,3.17-.32,4.03-.96.85-.64,1.28-1.45,1.28-2.41s-.36-1.78-1.09-2.44c-.72-.66-1.81-1.29-3.25-1.9l-2.89-1.21c-1.83-.74-3.25-1.61-4.27-2.63-1.01-1.01-1.52-2.31-1.52-3.88,0-2.02.75-3.57,2.27-4.65,1.51-1.08,3.41-1.62,5.69-1.62,1.83,0,3.34.17,4.53.51,1.19.34,2.09.81,2.7,1.42.61.61.96,1.3,1.06,2.07s.14,1.77.14,2.99h-.96c-.26-1.58-.92-2.81-2-3.71-1.08-.9-2.58-1.35-4.51-1.35-1.58,0-2.77.32-3.59.96s-1.23,1.45-1.23,2.41c0,.84.34,1.6,1.01,2.29s1.62,1.29,2.85,1.81l2.89,1.21c2.06.84,3.62,1.75,4.68,2.75,1.06,1,1.59,2.33,1.59,4,0,2.03-.8,3.58-2.41,4.65-1.61,1.08-3.62,1.61-6.03,1.61Z"/>
    <path class="cls-4" d="m82.99,175.61c-1.93,0-3.5-.17-4.72-.51-1.22-.34-2.14-.81-2.75-1.42-.61-.61-.96-1.3-1.06-2.07-.1-.77-.15-1.77-.15-2.99h.96c.26,1.58.93,2.81,2.03,3.71,1.09.9,2.67,1.35,4.73,1.35,1.83,0,3.17-.32,4.03-.96.85-.64,1.28-1.45,1.28-2.41s-.36-1.78-1.09-2.44c-.72-.66-1.81-1.29-3.25-1.9l-2.89-1.21c-1.83-.74-3.25-1.61-4.27-2.63-1.01-1.01-1.52-2.31-1.52-3.88,0-2.02.75-3.57,2.27-4.65,1.51-1.08,3.41-1.62,5.69-1.62,1.83,0,3.34.17,4.53.51,1.19.34,2.09.81,2.7,1.42.61.61.96,1.3,1.06,2.07s.15,1.77.15,2.99h-.96c-.26-1.58-.92-2.81-2-3.71-1.08-.9-2.58-1.35-4.51-1.35-1.58,0-2.77.32-3.59.96-.82.64-1.23,1.45-1.23,2.41,0,.84.34,1.6,1.01,2.29.67.69,1.62,1.29,2.84,1.81l2.89,1.21c2.06.84,3.62,1.75,4.68,2.75s1.59,2.33,1.59,4c0,2.03-.8,3.58-2.41,4.65-1.61,1.08-3.62,1.61-6.03,1.61Z"/>
    <path class="cls-4" d="m135.5,175.37c-.71,0-1.58-.14-2.6-.41-1.03-.27-2.04-.85-3.04-1.74-1-.88-1.85-2.26-2.56-4.12l-1.21-3.13h-13.5l-3.86,9.16h-2.17l13.5-31.82h1.45l10.61,25.8c.77,1.8,1.51,3.06,2.22,3.78.71.72,1.74,1.15,3.09,1.28v.96c-.26.06-.55.12-.89.17-.34.05-.68.07-1.04.07Zm-22.18-11.33h11.81l-5.79-13.98-6.03,13.98Z"/>
    <path class="cls-4" d="m139.98,175.13v-16.88c0-1.45-.2-2.61-.6-3.5-.4-.88-1.33-1.33-2.77-1.33h-.48v-.96h3.86c1.22,0,2.15.18,2.77.53s1.07.9,1.33,1.64c.55-.55,1.34-1.12,2.39-1.74,1.04-.61,2.26-.92,3.64-.92.48,0,1,.06,1.54.17.55.11,1,.3,1.35.55.35.26.66.56.92.92.26.35.51.77.77,1.25l-1.93,1.45c-.35-.48-.88-.84-1.57-1.09-.69-.24-1.45-.36-2.29-.36-.96,0-1.85.22-2.65.65-.8.43-1.45,1.02-1.93,1.76v17.84h-4.34Z"/>
    <path class="cls-4" d="m164.14,175.61c-.67,0-1.41-.1-2.19-.31s-1.55-.57-2.29-1.08c-.74-.51-1.34-1.21-1.81-2.07-.47-.87-.7-1.96-.7-3.28,0-1.77.57-3.13,1.71-4.1,1.14-.96,2.65-1.65,4.53-2.05,1.88-.4,3.9-.6,6.05-.6h1.45c0-2.25-.23-3.96-.68-5.14-.45-1.17-1.05-1.98-1.81-2.41s-1.61-.65-2.58-.65c-1.35,0-2.48.29-3.4.87-.92.58-1.55,1.66-1.9,3.23h-2.17c0-.84.05-1.62.15-2.34s.45-1.39,1.06-2,1.61-1.04,2.99-1.3,2.8-.39,4.24-.39c1.09,0,2.15.13,3.16.39,1.01.26,1.91.73,2.7,1.42.79.69,1.41,1.7,1.88,3.04.46,1.33.7,3.09.7,5.28v13.02h-2.41l-1.69-2.17h-.24c-.48.61-1.27,1.21-2.36,1.78-1.09.58-2.56.87-4.39.87Zm2.17-2.17c1.19,0,2.13-.3,2.82-.89s1.28-1.26,1.76-2v-6.51h-1.45c-2.41,0-4.3.44-5.66,1.33-1.37.89-2.05,2.05-2.05,3.5,0,1.58.47,2.73,1.4,3.47.93.74,1.99,1.11,3.18,1.11Z"/>
    <path class="cls-4" d="m192.78,175.61c-1.8,0-3.21-.29-4.24-.87-1.03-.58-1.78-1.17-2.27-1.78h-.24l-1.69,2.17h-2.41v-26.04c0-1.45-.2-2.61-.6-3.5-.4-.88-1.33-1.33-2.77-1.33h-.96v-.96h4.34c1.12,0,2,.15,2.63.43s1.07.85,1.33,1.69c.26.84.39,2.06.39,3.66v4.34c.74-.35,1.59-.68,2.56-.99.96-.3,2.12-.46,3.47-.46,2.09,0,3.81.53,5.16,1.59s2.35,2.48,3.01,4.27.99,3.77.99,5.95-.32,4.13-.96,5.93c-.64,1.8-1.61,3.23-2.89,4.29-1.29,1.06-2.89,1.59-4.82,1.59Zm-1.45-1.93c1.29,0,2.34-.44,3.16-1.33.82-.88,1.42-2.07,1.81-3.57.39-1.5.58-3.16.58-4.99s-.2-3.54-.6-5.01c-.4-1.48-1.05-2.66-1.93-3.54-.88-.88-2.05-1.33-3.5-1.33-.74,0-1.5.15-2.29.46s-1.55.63-2.29.99v15.43c.48.74,1.12,1.41,1.9,2,.79.6,1.84.89,3.16.89Z"/>
  </g>
  <g>
    <path class="cls-1" d="m8.87,210.67c-1.04,0-2.08-.11-3.13-.33-1.05-.22-2.01-.54-2.88-.95-.87-.42-1.56-.91-2.08-1.5-.52-.58-.78-1.24-.78-1.96v-4.16h.7c.44,2.62,1.3,4.5,2.59,5.64,1.28,1.14,3.03,1.71,5.23,1.71.88,0,1.71-.15,2.49-.45s1.41-.75,1.89-1.34c.48-.6.72-1.32.72-2.18,0-1.14-.36-2.11-1.07-2.92-.71-.8-1.78-1.62-3.21-2.45l-4.78-2.84c-1.66-.99-2.83-1.98-3.52-3s-1.03-2.24-1.03-3.7c0-2,.69-3.6,2.08-4.8,1.39-1.21,3.21-1.81,5.46-1.81.96,0,1.93.1,2.92.31.98.21,1.89.51,2.72.91.83.4,1.5.89,2,1.46.51.57.76,1.23.76,1.98v4.16h-.7c-.44-2.62-1.28-4.49-2.53-5.6-1.24-1.11-2.97-1.67-5.17-1.67-.75,0-1.48.16-2.18.49s-1.26.78-1.69,1.36c-.43.58-.64,1.28-.64,2.08,0,1.12.36,2.04,1.09,2.76.73.73,1.8,1.5,3.23,2.33l4.78,2.84c1.66.99,2.88,1.94,3.66,2.86.78.92,1.17,2.11,1.17,3.56,0,2.18-.73,3.92-2.18,5.23-1.45,1.31-3.42,1.96-5.91,1.96Z"/>
    <path class="cls-13" d="m28.94,210.4c-1.82,0-3.36-.43-4.63-1.28-1.27-.86-2.24-2.01-2.92-3.46-.67-1.45-1.01-3.05-1.01-4.78s.34-3.36,1.01-4.8c.67-1.44,1.65-2.59,2.92-3.44,1.27-.86,2.81-1.28,4.63-1.28s3.36.43,4.63,1.28c1.27.86,2.24,2,2.92,3.44.67,1.44,1.01,3.04,1.01,4.8s-.34,3.33-1.01,4.78c-.67,1.45-1.65,2.61-2.92,3.46-1.27.86-2.81,1.28-4.63,1.28Zm0-1.56c.98,0,1.84-.36,2.57-1.07.73-.71,1.29-1.67,1.69-2.88.4-1.21.6-2.55.6-4.03s-.2-2.85-.6-4.04c-.4-1.19-.97-2.14-1.69-2.86-.73-.71-1.58-1.07-2.57-1.07s-1.81.36-2.55,1.07c-.74.71-1.31,1.67-1.71,2.86-.4,1.19-.6,2.54-.6,4.04s.2,2.82.6,4.03c.4,1.21.97,2.17,1.71,2.88.74.71,1.59,1.07,2.55,1.07Z"/>
    <path class="cls-15" d="m49.55,210.4c-1.92,0-3.51-.43-4.78-1.28-1.27-.86-2.22-2.01-2.84-3.46-.62-1.45-.93-3.05-.93-4.78s.31-3.36.93-4.8c.62-1.44,1.57-2.59,2.84-3.44,1.27-.86,2.86-1.28,4.78-1.28,1.37,0,2.53.1,3.48.31.95.21,1.67.56,2.16,1.05.49.49.78,1.1.86,1.81.08.71.12,1.79.12,3.25h-.78c-.1-1.66-.63-2.88-1.58-3.68-.95-.79-2.11-1.19-3.48-1.19-1.3,0-2.36.36-3.19,1.07-.83.71-1.45,1.67-1.85,2.86-.4,1.19-.6,2.54-.6,4.04s.2,2.82.6,4.03c.4,1.21,1.02,2.17,1.85,2.88.83.71,1.89,1.07,3.19,1.07,1.37,0,2.49-.27,3.34-.82.86-.54,1.62-1.31,2.29-2.29l.78.58c-.57.99-1.22,1.78-1.94,2.37s-1.52,1.03-2.39,1.3c-.87.27-1.82.41-2.86.41Z"/>
    <path class="cls-10" d="m61.41,210.01v-13.61c0-1.17-.16-2.11-.49-2.82s-1.07-1.07-2.24-1.07h-.78v-.78h3.5c.91,0,1.61.12,2.12.35.51.23.86.69,1.07,1.36.21.67.31,1.66.31,2.96v13.61h-3.5Zm1.48-20.61c-.6,0-1.11-.25-1.54-.74-.43-.49-.64-1.08-.64-1.75,0-.54.16-.97.49-1.28.32-.31.76-.47,1.3-.47.6,0,1.11.25,1.54.74s.64,1.08.64,1.75c0,.54-.16.97-.49,1.28-.32.31-.76.47-1.3.47Z"/>
    <path class="cls-6" d="m74.75,210.4c-.54,0-1.13-.08-1.77-.25-.64-.17-1.25-.46-1.85-.88-.6-.41-1.08-.97-1.46-1.67-.38-.7-.56-1.58-.56-2.65,0-1.43.46-2.53,1.38-3.31s2.14-1.33,3.66-1.65c1.52-.32,3.14-.49,4.88-.49h1.17c0-1.81-.18-3.2-.54-4.14-.36-.95-.85-1.59-1.46-1.95-.61-.35-1.3-.52-2.08-.52-1.09,0-2,.23-2.74.7-.74.47-1.25,1.33-1.54,2.61h-1.75c0-.67.04-1.3.12-1.89.08-.58.36-1.12.86-1.61.49-.49,1.3-.84,2.41-1.05,1.11-.21,2.26-.31,3.42-.31.88,0,1.73.1,2.55.31.82.21,1.54.59,2.18,1.15.64.56,1.14,1.38,1.52,2.45.38,1.08.56,2.5.56,4.26v10.5h-1.94l-1.36-1.75h-.19c-.39.49-1.02.97-1.91,1.44-.88.47-2.06.7-3.54.7Zm1.75-1.75c.96,0,1.72-.24,2.28-.72.56-.48,1.03-1.02,1.42-1.61v-5.25h-1.17c-1.94,0-3.47.36-4.57,1.07s-1.65,1.65-1.65,2.82c0,1.27.38,2.2,1.13,2.8.75.6,1.61.89,2.57.89Z"/>
    <path class="cls-11" d="m89.26,210.01v-21c0-1.17-.16-2.11-.49-2.82-.32-.71-1.07-1.07-2.24-1.07h-.78v-.78h3.5c.91,0,1.61.12,2.12.35.5.23.86.69,1.07,1.36.21.67.31,1.66.31,2.96v21h-3.5Z"/>
    <path class="cls-16" d="m138.15,211.76c-1.87,0-3.33-.29-4.38-.88-1.05-.58-1.78-1.49-2.2-2.72-.42-1.23-.62-2.82-.62-4.76v-14.97l-9.72,21.59h-.78l-10.11-21.98v21.98h-1.56v-25.67h3.7l9.33,20.23,9.14-20.23h3.5v19.06c0,2.36.3,4.21.89,5.56.6,1.35,1.53,2.02,2.8,2.02v.78Z"/>
    <path class="cls-12" d="m147.95,210.4c-1.82,0-3.33-.43-4.53-1.28-1.21-.86-2.11-2.01-2.72-3.46-.61-1.45-.91-3.05-.91-4.78s.31-3.36.93-4.8c.62-1.44,1.52-2.59,2.68-3.44s2.55-1.28,4.16-1.28c1.76,0,3.22.33,4.38.99,1.15.66,2.01,1.63,2.57,2.9.56,1.27.84,2.83.84,4.67l-.08,1.56h-11.79c0,2.13.46,3.89,1.38,5.29.92,1.4,2.21,2.1,3.87,2.1,1.27,0,2.33-.27,3.17-.82.84-.54,1.6-1.31,2.28-2.29l.78.58c-.57.99-1.21,1.78-1.92,2.37-.71.6-1.49,1.03-2.33,1.3s-1.76.41-2.74.41Zm-4.47-10.5h8.17c0-2.26-.34-3.99-1.01-5.19-.67-1.21-1.7-1.81-3.07-1.81-.78,0-1.47.3-2.08.91s-1.1,1.44-1.46,2.49c-.36,1.05-.54,2.25-.54,3.6Z"/>
    <path class="cls-8" d="m165.84,210.4c-1.56,0-2.85-.43-3.89-1.28s-1.82-2.01-2.33-3.46c-.52-1.45-.78-3.05-.78-4.78s.27-3.36.8-4.8c.53-1.44,1.34-2.59,2.43-3.44,1.09-.86,2.48-1.28,4.16-1.28,1.09,0,2.02.12,2.8.37.78.25,1.46.51,2.06.8v-3.5c0-1.17-.16-2.11-.49-2.82-.32-.71-1.07-1.07-2.24-1.07h-.78v-.78h3.5c.91,0,1.61.12,2.12.35.51.23.86.69,1.07,1.36.21.67.31,1.66.31,2.96v21h-1.94l-1.36-1.75h-.19c-.42.49-1,.97-1.75,1.44-.75.47-1.92.7-3.5.7Zm1.17-1.56c.8,0,1.45-.12,1.94-.35s.9-.53,1.23-.88c.32-.35.63-.72.91-1.11v-12.45c-.6-.28-1.21-.55-1.85-.8-.64-.25-1.25-.37-1.85-.37-1.17,0-2.11.36-2.82,1.07s-1.23,1.67-1.56,2.86c-.32,1.19-.49,2.54-.49,4.04s.16,2.82.47,4.03c.31,1.21.8,2.17,1.46,2.88s1.51,1.07,2.55,1.07Z"/>
    <path class="cls-7" d="m180.78,210.01v-13.61c0-1.17-.16-2.11-.49-2.82s-1.07-1.07-2.24-1.07h-.78v-.78h3.5c.91,0,1.61.12,2.12.35.5.23.86.69,1.07,1.36.21.67.31,1.66.31,2.96v13.61h-3.5Zm1.48-20.61c-.6,0-1.11-.25-1.54-.74-.43-.49-.64-1.08-.64-1.75,0-.54.16-.97.49-1.28.32-.31.76-.47,1.3-.47.6,0,1.11.25,1.54.74.43.49.64,1.08.64,1.75,0,.54-.16.97-.49,1.28-.33.31-.76.47-1.3.47Z"/>
    <path class="cls-17" d="m194.12,210.4c-.54,0-1.13-.08-1.77-.25-.64-.17-1.25-.46-1.85-.88-.6-.41-1.08-.97-1.46-1.67-.38-.7-.56-1.58-.56-2.65,0-1.43.46-2.53,1.38-3.31.92-.78,2.14-1.33,3.66-1.65,1.52-.32,3.14-.49,4.88-.49h1.17c0-1.81-.18-3.2-.54-4.14-.36-.95-.85-1.59-1.46-1.95-.61-.35-1.3-.52-2.08-.52-1.09,0-2,.23-2.74.7-.74.47-1.25,1.33-1.54,2.61h-1.75c0-.67.04-1.3.12-1.89.08-.58.36-1.12.86-1.61.49-.49,1.3-.84,2.41-1.05,1.11-.21,2.26-.31,3.42-.31.88,0,1.73.1,2.55.31.82.21,1.54.59,2.18,1.15.63.56,1.14,1.38,1.52,2.45.38,1.08.56,2.5.56,4.26v10.5h-1.95l-1.36-1.75h-.19c-.39.49-1.02.97-1.91,1.44-.88.47-2.06.7-3.54.7Zm1.75-1.75c.96,0,1.72-.24,2.28-.72.56-.48,1.03-1.02,1.42-1.61v-5.25h-1.17c-1.94,0-3.47.36-4.57,1.07-1.1.71-1.65,1.65-1.65,2.82,0,1.27.38,2.2,1.13,2.8s1.61.89,2.57.89Z"/>
  </g>
  <g>
    <path class="cls-18" d="m130.67,125.6c-.34,0-.64-.12-.88-.37s-.37-.54-.37-.88c0-.53.27-.92.81-1.17l.16-.04c1.4-.38,2.73-.57,4-.57s2.8.3,4.51.89,2.95,1.91,3.7,3.96c.2.65.3,1.29.3,1.92,0,1.29-.5,2.7-1.5,4.22-1,1.52-2.74,2.82-5.22,3.92h6.75v1.19h-12.96v-.97h.32c1.82,0,3.67-.55,5.54-1.64,2.14-1.33,3.6-2.9,4.39-4.71.38-.86.57-1.69.57-2.49,0-.91-.24-1.79-.73-2.65-.81-1.29-1.99-2.21-3.56-2.75-.81-.28-1.65-.42-2.53-.42-.8,0-1.64.12-2.51.36.3.25.46.57.46.97,0,.34-.12.64-.36.88-.24.24-.53.37-.87.37Z"/>
    <path class="cls-5" d="m167.56,127.42c.18.66.28,1.31.28,1.94,0,1.48-.61,3.09-1.84,4.83-1.23,1.74-3.27,3.11-6.13,4.12-1.58.49-3.08.73-4.49.73-1.2,0-2.67-.28-4.41-.85s-3-1.91-3.78-4.02c-.2-.66-.3-1.31-.3-1.94,0-1.48.62-3.08,1.85-4.82,1.23-1.73,3.28-3.11,6.14-4.13,1.56-.47,3.04-.71,4.45-.71,1.21,0,2.69.28,4.44.85,1.75.57,3.01,1.9,3.79,4Zm-6.79,9c2.14-1.35,3.6-2.98,4.39-4.91.37-.9.55-1.77.55-2.61,0-.95-.24-1.85-.71-2.71-1.03-1.57-2.58-2.45-4.65-2.63-.26-.03-.53-.04-.81-.04-1.82,0-3.68.55-5.58,1.66-2.14,1.35-3.6,2.98-4.39,4.91-.37.9-.55,1.76-.55,2.59,0,.95.24,1.86.73,2.73,1.02,1.56,2.56,2.43,4.63,2.61.28.03.55.04.83.04,1.81,0,3.66-.55,5.56-1.64Z"/>
    <path class="cls-3" d="m173.06,125.6c-.34,0-.64-.12-.88-.37s-.37-.54-.37-.88c0-.53.27-.92.81-1.17l.16-.04c1.4-.38,2.73-.57,4-.57s2.8.3,4.51.89,2.95,1.91,3.7,3.96c.2.65.3,1.29.3,1.92,0,1.29-.5,2.7-1.5,4.22-1,1.52-2.74,2.82-5.22,3.92h6.75v1.19h-12.96v-.97h.32c1.82,0,3.67-.55,5.54-1.64,2.14-1.33,3.6-2.9,4.39-4.71.38-.86.57-1.69.57-2.49,0-.91-.24-1.79-.73-2.65-.81-1.29-1.99-2.21-3.56-2.75-.81-.28-1.65-.42-2.53-.42-.8,0-1.64.12-2.51.36.3.25.46.57.46.97,0,.34-.12.64-.36.88-.24.24-.53.37-.87.37Z"/>
    <path class="cls-9" d="m201.83,138.66v-8.15l-12.57,1.66v-9.62h1.19v7.32l11.38-1.5v-5.82h1.19v16.11h-1.19Z"/>
  </g>
</svg>