<svg id="Group_529" data-name="Group 529" xmlns="http://www.w3.org/2000/svg" xmlns:xlink="http://www.w3.org/1999/xlink" width="330.729" height="344.434" viewBox="0 0 330.729 344.434">
  <defs>
    <clipPath id="clip-path">
      <rect id="Rectangle_479" data-name="Rectangle 479" width="330.729" height="344.434" fill="none"/>
    </clipPath>
  </defs>
  <g id="Group_528" data-name="Group 528" clip-path="url(#clip-path)">
    <path id="Path_487" data-name="Path 487" d="M2.224,69.938a231.942,231.942,0,0,0,.262-32.481C1.547,20.588,17.261,1.906,34.083.431,33.88,3.607,35.69,6.089,37,8.724Q51.42,37.654,65.91,66.546c1.466,2.916,2.871,5.774,2.376,9.164-7.343,3.164-14.823,6.1-20.715,11.4,1.07,2.957,5.29,2,4.668,3.835-1.006,2.961-.585,3.147,1.995,2.42,3.323-.938,6.63-1.938,9.967-2.822,2.557-.679,5.155-1.909,8.007.114-.838,4.288-1.709,8.632-2.538,12.983-2.728,14.306-2.722,14.308-17.088,16.892-.976.174-1.978.226-2.932.476a66.746,66.746,0,0,0-8.5,2.422c-2.867,1.173-3.888,4.809-1.723,6.579,6.34,5.184,12.809,10.318,22.02,7.424,4.731-1.488,4.983-1.327,5.631,3.367,1.169,8.445,4.6,16.119,7.732,23.906,1.129,2.807,3.309,4.885,5.07,7.251a1.353,1.353,0,0,0,1.949.38,1.654,1.654,0,0,0,.851-1.848c-1.024-3.383-1.446-6.717.6-9.906-.367,1.774-.742,3.549,1.481,4.465-.271,1.368-.19,2.565,1.468,2.985.139.5-.174,1.833.939.639.248-.266-.431-.766-1.024-.552.154-1.319.219-2.6-1.5-2.979.188-1.714.557-3.491-1.479-4.471.291-2.264-.4-4.36-.959-6.518a49.093,49.093,0,0,1-1.692-17.537c.675-6.413,1.6-7.267,8.883-6.32a9.221,9.221,0,0,0,.342,2.889c6.552,13.732,12.675,27.665,19.756,41.154,2.442,4.652,6.172,8.876,6.431,14.539-6.425.087-12.863.449-19.272.167-4.512-.2-7.3,1.262-9.388,5.336-4.063,7.908-8.534,15.607-12.912,23.35-.688,1.218-1.1,2.78-3.453,3.567-4.071-6.123-8.23-12.443-12.456-18.718-2.9-4.3-5.055-9.779-9.062-12.456-4.078-2.724-10.094-.677-15.252-.939-6.418-1.551-12.148-4.623-17.734-8.013-1.341-1.671-2.583-3.453-4.775-4.138q-.616-.836-1.236-1.671c-.376-.9-.518-2.049-1.167-2.65-6.731-6.219-6.557-14.409-6.565-22.541q-.038-36.793-.045-73.581c0-2.219-.253-4.436-.389-6.655M88.032,171.708l.451.326.056-.556Z" transform="translate(1.801 0.349)" fill="#d26764"/>
    <path id="Path_488" data-name="Path 488" d="M94.721.394C107.995.3,121.269.233,134.541.088A36.235,36.235,0,0,1,161.129,10.81c1.046,1.015,2.244,1.871,3.372,2.8,6.624,9.182,8.813,19.428,8.686,30.7-.369,32.622-.2,65.252-.268,97.878-.007,2.708-.281,5.414-.425,8.119-4.016.688-4.9-2.51-6.2-5.086q-11.4-22.718-22.726-45.473c-1.884-3.772-3.839-7.471-8.271-8.865a9.677,9.677,0,0,0-3.415-6.391c-7.9-6.143-11.079-13.267-6.626-23.24,1.989-4.456-.094-6.994-5-9.028-1.138-.472-2.326-.824-3.491-1.233a8.569,8.569,0,0,0-.843-4.983C109.973,34.772,105.088,22.982,98.416,12.1a21.776,21.776,0,0,1-3.7-11.71" transform="translate(76.717 0.069)" fill="#0099db"/>
    <path id="Path_489" data-name="Path 489" d="M121.443,50.253c4.431,1.394,6.387,5.095,8.27,8.867q11.354,22.74,22.726,45.473c1.292,2.576,2.181,5.774,6.2,5.086,1.242,12.767-4.362,22.751-13.506,30.755-4.293,3.757-9.435,6.9-15.509,7.54a7.327,7.327,0,0,0-.8-4.239c-3.586-6.934-7.348-13.788-10.61-20.872-2.382-5.171-7.164-9.459-6.273-15.927,3.558-1.157,7.276-1.254,10.939-1.761,7.895-1.091,14.047-9.39,9.03-16.831-1.915-2.84-3.1-6.172-4.6-9.287-2.387-4.943-4.516-9.893-2.626-15.611.769-2.326-.074-4.985-1.995-5.922-4.25-2.078-2.2-4.637-1.243-7.271" transform="translate(90.576 40.702)" fill="#668ab1"/>
    <path id="Path_490" data-name="Path 490" d="M76.919,134.79c-.257-5.663-3.987-9.886-6.429-14.537-7.081-13.491-13.2-27.422-19.756-41.158a9.258,9.258,0,0,1-.344-2.885c5.2-3.895,11.627-3.354,17.5-4.8,1.149-.286,1.835.733,2.069,1.683a23.042,23.042,0,0,1,.845,5.091c.221,14.286,5.814,26.85,12.492,39.048a15.74,15.74,0,0,0,8.485,7.495c.279-3.307-2.681-6.443-.918-8.23,3.088-3.128.939-5.252-.177-7.815C85.654,97.131,84.586,84.9,84.639,72.5c.009-2.342-.168-5.081,3.978-5.29C88.3,75.1,88.731,82.74,91,90.086c5.937,19.231,19.133,31.182,37.985,37.33q-.041,3.676-.085,7.352c-.883.2-1.768.393-2.653.585-12.756-.842-25.527-.071-38.289-.3-3.68-.065-7.357-.17-11.037-.259M99.2,122.96a1.9,1.9,0,0,0-1.5-1.5c-.288-.255-.129-1.595-1-.414l1.113.315q-.084,1.577,1.493,1.493c.005.529-.284,1.352.8.8q-.448-.342-.9-.693" transform="translate(40.814 54.439)" fill="#b87276"/>
    <path id="Path_491" data-name="Path 491" d="M93.767,123.142q.043-3.676.085-7.354a9.432,9.432,0,0,1,4.827.845,3.122,3.122,0,0,0,1.214.563c1.345-.306,2.51-.809,1.14-2.328-8.7-9.661-1.89-23.1,6.61-27.6,5.922-3.14,12.054-5.665,18.927-5.694-.892,6.467,3.89,10.756,6.271,15.926,3.263,7.084,7.024,13.94,10.61,20.874a7.327,7.327,0,0,1,.8,4.239q-1.49.472-2.972.947-23.753-.209-47.509-.414" transform="translate(75.946 66.068)" fill="#9a7d8f"/>
    <path id="Path_492" data-name="Path 492" d="M32.779,157.782q5.191-11.077,10.382-22.15c.737-1.567,1.455-3.147,2.273-4.671,1.184-2.2,3.294-1.814,5.245-1.694,2.471.152,2.44,2.054,2.449,3.794.034,7.424-.042,14.849.051,22.271.065,5.191.322,10.38.523,15.569.2,5.1,1.4,9.741,6.63,12.659-7.547,1.254-11.538-.927-13.214-7.1A41.826,41.826,0,0,1,45.751,164.7c.123-7.057.034-14.118.034-21.178l-1.535-.373c-2.918,6.1-5.893,12.163-8.735,18.293-2.492,5.383-4.814,10.843-7.254,16.248-.594,1.316-1.023,2.939-2.824,3.1-2.389.212-2.845-2.056-3.26-3.414C18.738,166.1,11.219,156.6,8.247,145.134a9.815,9.815,0,0,0-1.528-2.46c-.168-1.325-.156-3.207-1.937-2.863-.914.177-.416,1.94.25,2.912-1.611,10.045-.262,20.161-.733,30.233-.119,2.545.671,5.3-1.113,7.569-2.456-.57-1.922-2.3-1.928-3.591q-.076-21.089.005-42.177c.011-2.036-.894-4.825,2.291-5.423,3.044-.57,5.618-.261,7.167,3.359,4.442,10.387,8.937,20.765,14.635,30.552.469,1.754.239,3.976,2.918,4.362a32.974,32.974,0,0,0,4.5-9.826" transform="translate(0.935 104.571)" fill="#0099db"/>
    <path id="Path_493" data-name="Path 493" d="M129.418,184.19c-4.44,7.522-6.574,16.259-12.042,23.832a176.714,176.714,0,0,1-11.835-23.949,14.809,14.809,0,0,0-4.324-8.338,16.987,16.987,0,0,0-.49,2.633c.007,1.928.118,3.855.186,5.783-.632,7.584.48,15.242-.648,22.776-2.811.27-2.3-1.69-2.3-2.947q-.106-16.68-.042-33.357c0-1.922-.31-4.156,2.538-4.51,2.418-.3,3.969.262,5.119,2.923,3.415,7.911,7.26,15.638,11,23.408.72,1.5.909,3.419,2.9,4.2a14.757,14.757,0,0,0,3.569-7.064c1.618-7.262,6.271-13.232,8.389-20.26.9-2.99,3.113-3.5,5.776-3.234,3.381.337,2.693,2.992,2.719,5.066.1,8.887-.038,17.772.612,26.655.328,4.492.324,8.927,4.994,12.161-9.455-.022-10.507-1.361-11.267-9.573-.5-5.437.049-10.856-.545-16.257a21.7,21.7,0,0,0-.6-8.811c-1.544,3.7-2.623,6.281-3.7,8.865" transform="translate(79.296 134.468)" fill="#e78b72"/>
    <path id="Path_494" data-name="Path 494" d="M160.238,129.207c.248,0,.494.016.74.011,11.669-.219,11.723-.226,13.061,11.585.266,2.351.847,3.806,3.549,3.307a16.991,16.991,0,0,1,2.2-.257c13.739-.717,21.077,7.424,19.082,21.191a33.386,33.386,0,0,1-.9,4.342c-3.218,11.3-8.885,14.927-21.042,10.55-1.911-.688-3.048-1.39-5.243-.163-4.1,2.286-5.035,1.575-5.077-3.265-.112-12.833.022-25.667-.081-38.5-.045-5.672-.2-5.671-5.949-7.309-.112-.5-.226-1-.338-1.493m13.8,32.164h.047c0,3.452-.076,6.907.022,10.357s2.342,5.385,5.356,6.286c2.983.892,5.917.617,8.069-2.067,5.111-6.376,5.2-20.114.071-26.461-2.235-2.766-6.376-3.352-10.183-2.031-3.332,1.157-3.5,3.671-3.4,6.519.087,2.463.018,4.93.018,7.4" transform="translate(129.784 104.619)" fill="#0099db"/>
    <path id="Path_495" data-name="Path 495" d="M146.767,180.706c-12.574.357-14.223-.637-17.276-10.528-.994-3.224-2.726-4.4-5.868-4.221-1.723.1-3.457-.018-5.185.022-13.07.306-12.13-2.375-17.026,11.05-.59,1.614-1.166,3.377-3.269,3.569a3.1,3.1,0,0,1-2.034-.51c-.6-.469-.3-1.144.1-1.862,7.366-13.146,12-27.511,18.3-41.133,1.292-2.793,1.428-7.48,4.76-7.607,3.681-.139,3.6,4.662,4.764,7.43,4.116,9.759,8.13,19.569,11.859,29.48,2.011,5.343,4.414,10.242,10.874,14.311M116.78,140.851c-1.633,3.752-3.12,6.59-4.11,9.593-1.269,3.843-6,8.08-3.292,11.281,2.6,3.068,8.362.8,12.72,1.086a3.765,3.765,0,0,0,.737-.065c1.792-.246,2.789-1.289,2.121-3.019-2.351-6.109-4.4-12.364-8.176-18.876" transform="translate(77.568 104.872)" fill="#0099db"/>
    <path id="Path_496" data-name="Path 496" d="M151.091,141.924a4.265,4.265,0,0,0-3,2.8c-1,2.268-2.747,2.3-4.742,1.862-.085-2.527.887-4.782,1.828-7.042,5-2.733,10.387-2.952,15.859-2.326,5.343.612,8.691,3.828,9.553,8.943,1.441,8.568.919,17.269.662,25.908-.109,3.658-1.814,4.414-5.307,2.5-1.969-1.079-3.477-1.334-5.453-.306-2.5,1.3-5.307,1.068-8.013.972-5.656-.2-9.272-2.871-10.537-7.593-1.325-4.939.306-8.565,5.269-11.7.624-.393,1.272-.751,1.909-1.128q1.379-.415,2.76-.824,5.183-.538,10.367-1.077c1.072-.067,1.443-.7,1.379-1.692a5.627,5.627,0,0,0-.709-4.7c-3.147-6.6-4.532-7.137-11.821-4.6m12.818,20.622c-.06-5.544-1.195-6.53-6.594-5.356a14.9,14.9,0,0,0-4.767,1.9,6.664,6.664,0,0,0-3.285,6.248c.221,2.992,2.085,4.976,4.778,6.076,5.309,2.167,9.94-2.031,9.868-8.872" transform="translate(114.603 110.906)" fill="#0099db"/>
    <path id="Path_497" data-name="Path 497" d="M92.579,147.491c-2.677-5.727-7.166-7.538-12.885-6.883-2.652.3-4.851,1.462-5.5,4.192-.686,2.869,1.166,4.769,3.412,5.96,3.484,1.846,7.223,3.214,10.72,5.043,5.627,2.941,7.573,6.775,6.405,11.978-.878,3.915-4.708,6.9-10.031,7.386a35.06,35.06,0,0,1-11.07-.34c-5.158-1.189-6.538-3.5-5.984-9.493,6.176,6.282,7.631,7.03,12.825,6.825,3.146-.125,6.123-.789,7.024-4.217.941-3.575-1.613-5.444-4.375-6.831-3.307-1.66-6.782-3-10.042-4.744-4.686-2.509-6.867-6.55-6.157-10.767.719-4.261,4.1-7.3,9.29-8.264a24.513,24.513,0,0,1,10.291.237c5.69,1.368,6.675,2.771,6.078,9.919" transform="translate(54.095 110.883)" fill="#0099db"/>
    <path id="Path_498" data-name="Path 498" d="M73.383,147.785c-2.976-5.551-7.269-8.045-13.368-7.176-2.431.346-4.306,1.332-5.024,3.712-.728,2.422.366,4.395,2.3,5.788a30.984,30.984,0,0,0,4.5,2.53c1.991.983,4.076,1.781,6.056,2.787,6.4,3.247,8.68,6.912,7.585,12.007-.977,4.538-4.86,7.41-11.146,8.161a27.132,27.132,0,0,1-10.3-.769c-5.057-1.357-6.007-3.035-5.4-10.478,3,6.706,7.7,8.5,13.683,7.792,2.983-.355,5.352-1.481,6.141-4.445.776-2.918-1.319-4.671-3.519-5.868-3.683-2.005-7.56-3.649-11.294-5.566-2.682-1.376-5.026-3.122-5.7-6.384-1.2-5.844,1.271-10.333,7.012-12.092a23.343,23.343,0,0,1,12.458-.132c5.585,1.352,6.565,2.838,6.016,10.132" transform="translate(38.553 110.859)" fill="#0099db"/>
    <path id="Path_499" data-name="Path 499" d="M168.266,207.716a31.824,31.824,0,0,0-11.39.029c-8.375,1.468-11.086-.744-13.1-8.965a34.462,34.462,0,0,1-.275-12.537c.7-5.616,5.041-9.026,11.43-9.234a45.621,45.621,0,0,1,6.576.7c2.036-6.621,2.007-6.8-1.792-10.805,7.47-1.7,8.986-.628,9.122,6.941.2,10.871.233,21.743.337,32.613l-.9,1.254m-5.52-15.882c0-2.474-.071-4.952.018-7.423.1-2.865-1.852-3.949-4.051-4.53-2.983-.785-5.271.588-7.012,2.99-3.309,4.57-3.233,15.16,0,19.866,1.687,2.458,4.029,2.679,6.556,2.3A4.785,4.785,0,0,0,162.722,200c.062-2.722.014-5.444.024-8.166" transform="translate(115.87 134.618)" fill="#d26764"/>
    <path id="Path_500" data-name="Path 500" d="M25.182,178.357c-1.77-2.883-2.782-4.849-4.09-6.59-2.09-2.786-5.05-3.794-8.487-3.647-3.225.138-5.895,1.294-7.137,4.382-1.357,3.372.59,5.832,3.129,7.553,4.29,2.91,8.78,5.533,13.229,8.2,7.267,4.36,6.335,12.058,3.091,16.686-4.208,6-18.633,6.684-23.317,1.187C-.823,203.286.334,200.059.529,196.68c2.445,5.137,5.272,9.622,11.643,10.061,2.923.2,5.162-.326,7.082-2.813,2.852-3.694,2.885-6.5-.427-9.625-3.133-2.957-7.3-3.949-11.01-5.8-4.478-2.239-7.54-5.28-7.788-10.728-.349-7.806,2.3-11.323,10.1-12.3a17.559,17.559,0,0,1,8.023.755c6.988,2.389,7.833,3.535,7.024,12.127" transform="translate(-0.001 133.897)" fill="#e78b72"/>
    <path id="Path_501" data-name="Path 501" d="M150.163,143.889q-2.088-.521-4.177-1.041c-7.408-1.046-8.174-.632-9.88,5.328-.083,7.388-.233,14.776-.214,22.165.007,2.894-.6,4.72-4.063,4.592-3.137-.116-3.542-1.96-3.535-4.414.024-6.9.1-13.806-.04-20.706-.063-3.088.661-6.49-2.246-8.91l-.275-.639-.633.014c-.373-.744-2.959-1.321-.9-2.107a9.592,9.592,0,0,1,7.09.09c3.938,2.087,6.887.633,10.033-1.262q2.91-.073,5.823-.138l4.36,2.552a4.263,4.263,0,0,1-1.339,4.474" transform="translate(99.955 110.851)" fill="#0099db"/>
    <path id="Path_502" data-name="Path 502" d="M31.451,203.25c-9.924.758-12.617-5.341-13.142-15.542-.471-9.169,5.779-15.683,14.081-15.645,8.147.036,14.078,6.747,14.027,15.873-.051,9.466-5.89,15.441-14.966,15.314m8.88-15.22c-.159-3.754-.9-7.361-3.363-10.328-3.023-3.645-6.127-3.605-9.3-.058-4.152,4.637-4.413,15.194-.5,20.125,2.747,3.459,7.564,3.56,10.052-.043a15.531,15.531,0,0,0,3.111-9.7" transform="translate(14.809 139.361)" fill="#e78b72"/>
    <path id="Path_503" data-name="Path 503" d="M86.34,192.039c0,1.482.051,2.966-.018,4.443-.09,1.94.657,4.21-.814,5.709-1.629,1.658-3.728-.114-5.528,0-3.365.214-6.615,1.466-10.112,1.148-4.769-.433-6.543-1.857-7.328-6.429-.787-4.588.4-7.519,4.308-9.14A45.873,45.873,0,0,1,74.7,185.8c4.543-.99,5.379-1.973,4.572-5.582-.852-3.8-4.219-5.978-7.714-4.914a8.794,8.794,0,0,0-4.13,3.012c-.661.795-1.658,1.419-2.492.691-1.032-.9-.795-2.219-.192-3.394a3.389,3.389,0,0,1,.389-.63c4.722-5.529,17.551-3.05,20.052,3.855,1.558,4.3,1.071,8.773,1.151,13.2m-5.815.637c-.056-3.681-.811-4.46-4.165-4.293-4.793.237-7.926,3.075-7.716,6.966.177,3.263,2.018,4.831,5.153,4.981,4.185.2,6.8-2.809,6.728-7.654" transform="translate(50.467 139.273)" fill="#e78b72"/>
    <path id="Path_504" data-name="Path 504" d="M187.33,182c-2.519-8.99-5.89-9.511-14.423-2.235-1.262-5.509-1.278-5.569,2.894-6.632a24.478,24.478,0,0,1,5.824-.957c7.89-.029,11.28,3.247,11.473,11.176.139,5.678-.007,11.363-.1,17.042a8.434,8.434,0,0,1-.842,2.295,16.612,16.612,0,0,0-9.946.2c-2.579.932-5.385.109-8.08-.248a3.681,3.681,0,0,1-2.9-1.973c-3.191-5.569-.633-12.259,5.461-13.859,2.86-.751,5.819-1.117,8.731-1.656,2.384.005,3.433-.795,1.9-3.151m.939,11.079c.136-3.982-.538-4.9-3.627-4.919-4.675-.036-8.456,2.822-8.538,6.454a5.339,5.339,0,0,0,5.531,5.652c3.922.118,6.48-2.653,6.633-7.187" transform="translate(137.572 139.452)" fill="#d26764"/>
    <path id="Path_505" data-name="Path 505" d="M148.488,199.844c-3.068,2.795-6.861,3.4-10.8,3.589a1.583,1.583,0,0,0-1.417-.217c-3.531.281-5.207-2.309-6.966-4.632-4.534-5.978-4.556-15.642-.143-21.555,3.654-4.9,9.578-6.165,16.04-3.435,3.821,1.614,6.76,7.785,6.17,12.586-.333,2.7-2.132,2.95-4.232,3.064-4.874.268-9.821-.6-14.653.648,1.448,10.375,5.374,12.619,14.288,8.422l1.71,1.529m-10.442-13.529c0,.049,0,.1,0,.148,1.718-.08,3.439-.11,5.149-.259a1.966,1.966,0,0,0,1.922-1.881c.04-3.276-.585-6.371-3.444-8.481a4.33,4.33,0,0,0-5.459-.127c-2.06,1.41-4.666,7.135-4.071,9.066a2.13,2.13,0,0,0,2.217,1.524c1.227.036,2.456.009,3.683.009" transform="translate(101.957 139.457)" fill="#d26764"/>
    <path id="Path_506" data-name="Path 506" d="M60.794,181.033c-1.432-.5-1.314-2.052-2.174-2.912C53.435,172.931,46.182,174.548,44,181.6a21,21,0,0,0-.018,12.452c2.007,6.5,7.631,8.328,13.4,4.547,1.37-.9,2.4-2.574,4.715-1.537-2.738,6.809-8.385,6.279-14.087,6.246-5.388-.031-8-3.066-9.714-7.517a22.42,22.42,0,0,1-.443-14.608c2.335-7.888,14.277-11.85,21.082-7.332,2.8,1.861,2.758,4.38,1.855,7.184" transform="translate(29.844 139.267)" fill="#e78b72"/>
    <path id="Path_507" data-name="Path 507" d="M142.823,111.834a30.923,30.923,0,0,1,9.4-1.586c10.016-.3,16.423,6.109,14.107,14.968a24.147,24.147,0,0,1-10.121,10.253c-7.1,2.176-14.094,2.7-20.823-1.251-5.585-9.484-3.175-16.735,7.439-22.385m8.684.11a18.8,18.8,0,0,0-14.4,10.078,9.164,9.164,0,0,0,9.07,13.442c6.395-.568,11.828-3.452,14.981-9.394,3.855-7.26-.523-14.239-9.652-14.127" transform="translate(107.291 89.287)" fill="#e78b72"/>
    <path id="Path_508" data-name="Path 508" d="M34.723,137.833c12.842-1.071,14.156.029,14.291,11.281.083,6.885.014,13.772.024,20.657,0,2.328-.062,4.442-3.3,4.6-3.52.168-4.009-1.85-3.984-4.65.062-6.887.009-13.774.022-20.659.007-4.82-.778-9.207-7.057-11.227" transform="translate(28.124 111.376)" fill="#0099db"/>
    <path id="Path_509" data-name="Path 509" d="M77.67,166.624c9.922-1.171,11.035-.358,11.118,7.663.092,8.856.027,17.714.016,26.572a18.562,18.562,0,0,1-.167,3.678,3.518,3.518,0,0,1-4.233,3.115c-2.36-.277-2.624-2.1-2.4-3.832a107.946,107.946,0,0,0,.594-16.2c-.119-5.155-.536-10.3-.633-15.459-.047-2.494-.968-4.2-4.291-5.537" transform="translate(62.908 134.608)" fill="#e78b72"/>
    <path id="Path_510" data-name="Path 510" d="M169.875,193.665c0,3.459.025,6.918-.011,10.375-.018,1.627-.586,2.881-2.492,3-2.237.136-3.128-1.1-3.142-3.138-.034-5.187.016-10.376-.069-15.562a45.78,45.78,0,0,0-.543-6.624c-.31-1.89-5.187-3.917.664-5.488,1.993-.534.27-2.923-.507-4.4-.851-1.616-1.421-3.328.574-4.5a2.985,2.985,0,0,1,3.969.766,2.9,2.9,0,0,1-.373,4.559c-2.954,2.19-2.058,3.852.056,5.911a5.416,5.416,0,0,1,1.566,3.283c.188,3.933.072,7.882.072,11.826h.235" transform="translate(130.74 135.151)" fill="#d26764"/>
    <path id="Path_511" data-name="Path 511" d="M154.707,114.574q.033-1.279.067-2.556c11.175-3.957,17.616-1.828,22.3,7.366q0,1.488.009,2.974c-.081,2.909-1.957,5.053-3.176,7.475-1.551.952-3.777,1.828-3.575,3.732.147,1.376,2.271.686,3.564.6a5.666,5.666,0,0,1,1.953.862c.655.7.06,1.419-.624,1.662-1.888.671-14.118.129-18.849-.858,8.335-3.794,17.723-6.2,15.96-17.933-1.519-4.2-4.938-5.748-8.975-6.358-2.539-.384-4.308.442-4.5,3.318a7.315,7.315,0,0,1-4.147-.286" transform="translate(125.304 89.192)" fill="#e78b72"/>
    <path id="Path_512" data-name="Path 512" d="M129.627,111.188c7.265,1.8,10.185,6.914,7.6,13.366-.539,1.348-1.222,2.641-1.839,3.96-1.645,1.479-3.826,2.425-4.976,4.6a9.025,9.025,0,0,0,5.167.333c1.157,1.1,1.278,2.418-.485,2.48-5.806.2-11.622.076-17.558.076.271-2.956,2.255-2.063,3.4-2.465a23.4,23.4,0,0,0,8.9-5.088c5-4.876,5.265-9.077,1.055-14.764A13.627,13.627,0,0,1,129.7,111.1Z" transform="translate(95.198 89.981)" fill="#e78b72"/>
    <path id="Path_513" data-name="Path 513" d="M60.083,172.764a6.055,6.055,0,0,1,2.925,5.629c-.011,6.682.02,13.365.005,20.045,0,2.056-.121,4.1-2.985,4.094-2.89,0-2.932-2.078-2.945-4.114-.029-5.2,0-10.395-.031-15.591-.02-3.493.713-7.231-4.186-9.426l4.139-.943q1.539.155,3.077.306" transform="translate(42.819 139.681)" fill="#e78b72"/>
    <path id="Path_514" data-name="Path 514" d="M189.475,124.025c-4.981-.49-9.7,1.5-14.657,1.515-3.193.007-4.614-1.151-4.42-4.27.2-3.289-.606-6.693.965-11.09,2.411,3.528,1.158,6.538,1.768,9.155.018,1.093-.664,2.72,1.6,2.109,3.428-.317,6.854-.681,10.288-.939,4.029-.3,6.566-1.832,5.839-6.449a2.294,2.294,0,0,1,1.482-2.711v24.478c-2.471-4.033-.936-7.484-1.743-10.561.112-.852-.261-1.267-1.124-1.236" transform="translate(137.987 89.24)" fill="#e78b72"/>
    <path id="Path_515" data-name="Path 515" d="M45.761,133.969c-.148,3.479-1.709,4.407-4.328,4.462-3.184.069-3.417-2.1-3.582-4.319s.621-3.935,3.151-3.922a4.662,4.662,0,0,1,4.758,3.779" transform="translate(30.641 105.446)" fill="#0099db"/>
    <path id="Path_516" data-name="Path 516" d="M55.848,172.984c-1.1-2.185-2.557-4.53.677-6.083,1.768-.851,3.408.176,4.288,1.707,1.368,2.382.489,4.129-2.076,5.037l-2.889-.661" transform="translate(44.182 134.931)" fill="#e78b72"/>
    <path id="Path_517" data-name="Path 517" d="M130.452,112.054c-3.727.118-7.89-1.944-10.724,2.545-.6.947-2.333.615-2.961-.776a1.723,1.723,0,0,1,1.225-2.329c4.185-1.406,8.443-2.983,12.385.653l.074-.092" transform="translate(94.448 89.023)" fill="#e78b72"/>
    <path id="Path_518" data-name="Path 518" d="M39.642.189l62.331.094c.071,1.98-1.971,4.232.757,5.87.523,2.349,4.577,5.307-1.135,6.581-.21,4.156-4.212,7.082-4.138,11.079.179,9.5-1.951,18.994,1.073,28.545,1.707,5.39.677,11.31-1.233,16.809-.67,1.928-1.394,3.681-4.118,3.2-7.855-1.392-15.792-.827-23.707-.8-4.615.016-4.72-.185-3.862-4.565,1.519-7.754,3.1-15.5,4.61-23.252a65.356,65.356,0,0,0,.509-17.757c-.174-2.19-1.175-3.734-3.441-4.253-1.224-.282-3.113-.644-3.31.563-.881,5.365-6.925,5.39-9.115,9.269a4.792,4.792,0,0,1-2.825-2.176Q46.106,17.682,40.254,5.928c-.91-1.823-.637-3.8-.612-5.739" transform="translate(32.061 0.153)" fill="#9a7d8f"/>
    <path id="Path_519" data-name="Path 519" d="M55.652.343c-.025,1.938-.3,3.917.612,5.739q5.864,11.747,11.785,23.466a4.794,4.794,0,0,0,2.824,2.176c-.621,2.545-.1,5.274-2.194,7.582-1.819,2-2.288,4.885-2.42,7.582-.335,6.889-1.719,13.6-3.048,20.331-1.435,7.267-1.4,7.274-9.173,8.842.494-3.39-.91-6.248-2.376-9.164Q37.147,38.015,22.752,9.074C21.44,6.438,19.63,3.957,19.833.781,31.757-.662,43.71.333,55.652.343" transform="translate(16.051 0)" fill="#b87276"/>
    <path id="Path_520" data-name="Path 520" d="M75.111,6.241c-2.729-1.638-.688-3.89-.758-5.87C86.82.1,99.286-.128,111.753.4a21.819,21.819,0,0,0,3.7,11.71c6.673,10.878,11.556,22.668,17.513,33.909A8.589,8.589,0,0,1,133.807,51c-5.719.431-11.269-1.111-16.91-1.466-10.346-.65-17.484-5.47-21.707-15.093C92.226,27.687,89.21,20.856,84.7,14.927c-2.623-3.452-4.818-7.542-9.591-8.686" transform="translate(59.681 0.066)" fill="#668ab1"/>
    <path id="Path_521" data-name="Path 521" d="M116.862,3.485c4.775,1.144,6.968,5.234,9.593,8.686,4.507,5.929,7.522,12.76,10.487,19.515,4.223,9.622,11.363,14.443,21.707,15.093,5.643.355,11.191,1.9,16.908,1.466,1.166.407,2.353.76,3.491,1.233,4.9,2.034,6.988,4.57,5,9.026-4.452,9.973-1.278,17.1,6.626,23.24a9.685,9.685,0,0,1,3.415,6.391c-.954,2.632-3.006,5.191,1.243,7.267,1.922.939,2.764,3.6,2,5.924-1.89,5.716.239,10.668,2.624,15.613,1.5,3.115,2.688,6.445,4.6,9.285,5.019,7.441-1.133,15.741-9.028,16.832-3.663.507-7.383.6-10.939,1.759-6.871.031-13,2.556-18.927,5.7-8.5,4.507-15.314,17.942-6.608,27.6,1.368,1.52.2,2.024-1.142,2.329a1.006,1.006,0,0,0-1.214-.563,9.414,9.414,0,0,0-4.827-.845c-18.852-6.147-32.049-18.1-37.985-37.33-2.268-7.345-2.7-14.988-2.382-22.874-4.147.214-3.969,2.95-3.978,5.292-.053,12.4,1.015,24.626,6.049,36.179,1.117,2.561,3.265,4.686.177,7.814-1.763,1.788,1.2,4.925.918,8.228a15.719,15.719,0,0,1-8.485-7.495C99.5,156.653,93.91,144.087,93.69,129.8a23.06,23.06,0,0,0-.845-5.091c-.233-.95-.919-1.967-2.069-1.683-5.873,1.448-12.3.9-17.5,4.8-7.281-.948-8.208-.092-8.881,6.319a49.093,49.093,0,0,0,1.692,17.537c.554,2.159,1.251,4.253.959,6.518l.11-.087c-2.051,3.191-1.629,6.523-.6,9.906a1.658,1.658,0,0,1-.851,1.85,1.356,1.356,0,0,1-1.951-.382c-1.759-2.366-3.938-4.442-5.07-7.251-3.135-7.786-6.561-15.461-7.73-23.906-.65-4.693-.9-4.854-5.631-3.367-9.211,2.9-15.68-2.239-22.02-7.424-2.165-1.77-1.144-5.4,1.723-6.579a66.746,66.746,0,0,1,8.5-2.422c.952-.25,1.957-.3,2.93-.476,14.367-2.583,14.362-2.586,17.089-16.892.829-4.351,1.7-8.695,2.538-12.981-2.854-2.024-5.45-.795-8.009-.116-3.336.885-6.642,1.884-9.966,2.822-2.579.729-3,.541-2-2.418.623-1.835-3.6-.88-4.668-3.835,5.893-5.309,13.374-8.241,20.717-11.4,7.776-1.567,7.738-1.575,9.171-8.842,1.33-6.731,2.713-13.442,3.05-20.329.13-2.7.6-5.58,2.42-7.582,2.094-2.308,1.573-5.037,2.194-7.582,2.192-3.879,8.233-3.9,9.115-9.269.2-1.207,2.089-.845,3.312-.565,2.266.521,3.267,2.063,3.441,4.253a65.442,65.442,0,0,1-.509,17.759c-1.511,7.756-3.091,15.5-4.61,23.251-.86,4.382-.753,4.581,3.862,4.565,7.915-.027,15.85-.59,23.707.8,2.724.483,3.448-1.271,4.118-3.2,1.908-5.5,2.939-11.421,1.233-16.811-3.024-9.549-.894-19.046-1.073-28.545-.074-3.995,3.926-6.921,4.138-11.077,5.712-1.274,1.658-4.232,1.135-6.581M102.949,87.358C94.517,86.105,87.042,87.1,79.8,85.345c-3.365-.813-5.517,1.01-6.755,4.215-2.148,5.566-3.1,11.423-4.411,17.187-.659,2.885.691,4.009,3.647,3.768,6.628-.545,13.271-.939,19.913-1.332a3.285,3.285,0,0,0,3.283-2.373c2.309-6.192,4.731-12.344,7.475-19.453" transform="translate(17.93 2.823)" fill="#f8f8fa"/>
    <path id="Path_522" data-name="Path 522" d="M47.023,89c2.036.981,1.667,2.757,1.479,4.472l.112-.094c-2.223-.914-1.848-2.69-1.481-4.465l-.11.087" transform="translate(37.95 72.018)" fill="#f8f8fa"/>
    <path id="Path_523" data-name="Path 523" d="M47.769,91.477c1.714.384,1.647,1.658,1.493,2.977l.087-.087c-1.66-.418-1.739-1.614-1.47-2.983l-.11.092" transform="translate(38.684 74.017)" fill="#f8f8fa"/>
    <path id="Path_524" data-name="Path 524" d="M49.633,95.165l.507-.23-.056.556Z" transform="translate(40.2 76.892)" fill="#f8f8fa"/>
    <path id="Path_525" data-name="Path 525" d="M48.591,93.12c.594-.214,1.272.286,1.024.552-1.111,1.195-.8-.134-.938-.639l-.087.087" transform="translate(39.356 75.351)" fill="#f8f8fa"/>
    <path id="Path_526" data-name="Path 526" d="M77.087,97.482l-1.113-.311c.876-1.182.719.156,1,.411l.109-.1" transform="translate(61.535 78.314)" fill="#f8f8fa"/>
    <path id="Path_527" data-name="Path 527" d="M77.36,98.064l.9.693c-1.084.548-.795-.273-.8-.8l-.1.109" transform="translate(62.657 79.338)" fill="#f8f8fa"/>
    <path id="Path_528" data-name="Path 528" d="M78.132,98.622q-1.577.084-1.493-1.493l-.109.1a1.908,1.908,0,0,1,1.5,1.5l.1-.11" transform="translate(61.985 78.669)" fill="#f8f8fa"/>
    <path id="Path_529" data-name="Path 529" d="M96.481,100.96a1.008,1.008,0,0,1,1.214.565,3.152,3.152,0,0,1-1.214-.565" transform="translate(78.144 81.74)" fill="#b87276"/>
    <path id="Path_530" data-name="Path 530" d="M82.217,50.812c-2.744,7.109-5.166,13.261-7.475,19.453a3.285,3.285,0,0,1-3.283,2.373c-6.642.393-13.285.787-19.913,1.332-2.956.241-4.306-.883-3.647-3.768,1.314-5.765,2.262-11.622,4.411-17.187,1.238-3.205,3.39-5.028,6.755-4.215,7.245,1.75,14.72.76,23.153,2.013" transform="translate(38.662 39.368)" fill="#b87276"/>
  </g>
</svg>
