<svg xmlns="http://www.w3.org/2000/svg" xmlns:xlink="http://www.w3.org/1999/xlink" width="98" height="99" viewBox="0 0 98 99">
  <defs>
    <filter id="Ellipse_35" x="0" y="0" width="98" height="99" filterUnits="userSpaceOnUse">
      <feOffset dy="3" input="SourceAlpha"/>
      <feGaussianBlur stdDeviation="3" result="blur"/>
      <feFlood flood-opacity="0.161"/>
      <feComposite operator="in" in2="blur"/>
      <feComposite in="SourceGraphic"/>
    </filter>
    <clipPath id="clip-path">
      <rect id="Rectangle_238" data-name="Rectangle 238" width="67" height="67" transform="translate(-0.125 -0.125)" fill="none"/>
    </clipPath>
  </defs>
  <g id="Ideal_Mother" data-name="Ideal Mother" transform="translate(-109 -168)">
    <g transform="matrix(1, 0, 0, 1, 109, 168)" filter="url(#Ellipse_35)">
      <ellipse id="Ellipse_35-2" data-name="Ellipse 35" cx="40" cy="40.5" rx="40" ry="40.5" transform="translate(9 6)" fill="#fefefe"/>
    </g>
    <g id="Group_273" data-name="Group 273" transform="translate(124.925 180.925)">
      <g id="Group_272" data-name="Group 272" transform="translate(0.2 0.2)" clip-path="url(#clip-path)">
        <path id="Path_188" data-name="Path 188" d="M105.06,153.8a1,1,0,0,1,.142.7,3.162,3.162,0,0,1-1.453,1.719,10.594,10.594,0,0,0-1.145.779,4.066,4.066,0,0,1-.9.553l-.326.121.366.266a13.2,13.2,0,0,1,1.925,1.946l.226.308-.287-.063a75.87,75.87,0,0,1-7.306-2.106c-1.5-.513-3.5-1.251-3.665-1.332a5.731,5.731,0,0,1,.369-1,5.649,5.649,0,0,0,.39-1.085.958.958,0,0,0-.492-.245,3.384,3.384,0,0,1-2.312-1.7,5.86,5.86,0,0,1-.369-3.789c.511-2.659,2.741-4.073,5.626-3.623a4.192,4.192,0,0,1,3.562,3.541,3.062,3.062,0,0,0,.287.964,2.524,2.524,0,0,1,.245,2.659,2.617,2.617,0,0,1-1.351,1.187.939.939,0,0,0-.305.163.9.9,0,0,0,.305.226,6.036,6.036,0,0,1,.758.574,1.031,1.031,0,0,0,1.064.326,4.723,4.723,0,0,0,1.351-.369c.7-.305.779-.369,1-.8.266-.492.9-1.145,1.085-1.085.063.021.1.142.1.266,0,.205.021.224.308.205.348-.042.45.039.8.7" transform="translate(-66.553 -107.132)" fill="#88438d"/>
        <path id="Path_189" data-name="Path 189" d="M33.569,0A33.569,33.569,0,1,0,67.138,33.569,33.568,33.568,0,0,0,33.569,0M20.054,25.223c1.166-.574,1.309-.9,2.106-4.75,1.085-5.218,1.782-7.306,3.009-9.149a14.238,14.238,0,0,1,2.62-2.7,9.442,9.442,0,0,1,3.42-1.577,4.639,4.639,0,0,1,2,.124l.574.184.6-.205c1.84-.635,4.747.511,6.835,2.7,2.048,2.13,2.886,4.239,4.155,10.358.84,4.094.982,4.442,2.151,4.995a2.144,2.144,0,0,1,.756.471c.163.408-.8,2.251-1.574,3.028a8.41,8.41,0,0,1-3.91,2.006,19.173,19.173,0,0,1-3.42.471c-.469,0-.571.061-1.206.511a8.617,8.617,0,0,1-2.662,1.29,8.45,8.45,0,0,1-3.439,0,9.566,9.566,0,0,1-2.722-1.33c-.574-.411-.574-.411-1.577-.471-3.4-.205-6.037-1.269-7.306-2.946A6.561,6.561,0,0,1,19.336,25.9c0-.326.021-.348.719-.674m28.738,22.6c-.021,4.094,0,3.891-.758,4.626-1.372,1.311-4.81,2.272-9.8,2.722a84.948,84.948,0,0,1-9.191,0c-5.811-.532-9.455-1.738-10.355-3.4-.145-.266-.163-.677-.163-4.708,0-3.97.018-4.484.182-5.179.9-3.849,3.931-6.877,8.249-8.146.411-.124.8-.226.819-.247.042-.018,1.332.84,2.846,1.9s2.783,1.925,2.825,1.925,1.393-.858,3.028-1.925c3.378-2.169,2.888-2.025,4.526-1.451a11.386,11.386,0,0,1,7.43,7.327c.326,1.145.408,2.659.369,6.548m-24.214-23.8a2.941,2.941,0,0,0,1.556.574c.245,0,.266.039.55.94,1.251,4.034,4.257,6.611,7.472,6.408,2.988-.184,5.65-2.722,6.774-6.448l.266-.882.45-.1a2.516,2.516,0,0,0,1.5-1.127,1.909,1.909,0,0,0,.266-1.187,1.812,1.812,0,0,0-.266-1.166,2.44,2.44,0,0,0-1.351-1.085,5.3,5.3,0,0,1-3.583-2.58c-.121-.2-.387-.7-.613-1.085l-.348-.7-.6.716A12.044,12.044,0,0,1,30.8,20.186a8.526,8.526,0,0,1-4.484-.245,1.135,1.135,0,0,0-.9,0,2.37,2.37,0,0,0-.837,4.073" transform="translate(-0.194 -0.194)" fill="#88438d"/>
      </g>
    </g>
  </g>
</svg>
