<svg xmlns="http://www.w3.org/2000/svg" width="37.355" height="37.355" viewBox="0 0 37.355 37.355">
  <path id="iconmonstr-instagram-11" d="M18.678,3.367c4.987,0,5.578.019,7.549.109,5.062.23,7.426,2.632,7.656,7.656.09,1.969.107,2.56.107,7.547s-.019,5.578-.107,7.547c-.232,5.02-2.59,7.426-7.656,7.656-1.97.09-2.559.109-7.549.109s-5.578-.019-7.547-.109c-5.074-.232-7.426-2.644-7.656-7.658-.09-1.969-.109-2.559-.109-7.547s.02-5.577.109-7.547C3.706,6.108,6.064,3.7,11.13,3.474c1.97-.089,2.56-.107,7.547-.107Zm0-3.367c-5.073,0-5.708.022-7.7.112C4.195.423.425,4.187.114,10.976.022,12.97,0,13.605,0,18.678s.022,5.709.112,7.7c.311,6.783,4.075,10.553,10.864,10.864,1.994.09,2.629.112,7.7.112s5.709-.022,7.7-.112c6.777-.311,10.556-4.075,10.863-10.864.092-1.992.114-2.629.114-7.7s-.022-5.708-.112-7.7C36.938,4.2,33.17.425,26.381.114,24.387.022,23.75,0,18.678,0Zm0,9.087a9.592,9.592,0,1,0,9.591,9.591A9.591,9.591,0,0,0,18.678,9.087Zm0,15.817A6.226,6.226,0,1,1,24.9,18.678,6.225,6.225,0,0,1,18.678,24.9ZM28.648,6.467a2.241,2.241,0,1,0,2.24,2.241A2.242,2.242,0,0,0,28.648,6.467Z" fill="#88438d"/>
</svg>
