<svg xmlns="http://www.w3.org/2000/svg" width="37.355" height="37.355" viewBox="0 0 37.355 37.355">
  <path id="iconmonstr-linkedin-3" d="M29.573,0H7.782A7.783,7.783,0,0,0,0,7.782V29.573a7.783,7.783,0,0,0,7.782,7.782H29.573a7.782,7.782,0,0,0,7.782-7.782V7.782A7.782,7.782,0,0,0,29.573,0ZM12.452,29.573H7.782V12.452h4.669ZM10.117,10.478a2.746,2.746,0,1,1,2.724-2.746A2.736,2.736,0,0,1,10.117,10.478ZM31.129,29.573H26.46V20.85c0-5.242-6.226-4.845-6.226,0v8.722H15.565V12.452h4.669V15.2c2.173-4.025,10.9-4.322,10.9,3.854Z" fill="#88438d"/>
</svg>
