<svg xmlns="http://www.w3.org/2000/svg" width="37.355" height="37.355" viewBox="0 0 37.355 37.355">
  <path id="icons8-twitterx_1_" data-name="icons8-twitterx (1)" d="M10.226,4A6.226,6.226,0,0,0,4,10.226v24.9a6.226,6.226,0,0,0,6.226,6.226h24.9a6.226,6.226,0,0,0,6.226-6.226v-24.9A6.226,6.226,0,0,0,35.129,4Zm1.855,8h7.06l5.013,7.124L30.238,12h2.224l-7.3,8.55,9.005,12.8H27.106l-5.818-8.265-7.06,8.265H12l8.279-9.691Zm3.4,1.779L28.033,31.572h2.726L18.211,13.784Z" transform="translate(-4 -4)" fill="#88438d"/>
</svg>
