<svg xmlns="http://www.w3.org/2000/svg" xmlns:xlink="http://www.w3.org/1999/xlink" width="136.463" height="136.463" viewBox="0 0 136.463 136.463">
  <defs>
    <filter id="Ellipse_12" x="0" y="0" width="136.463" height="136.463" filterUnits="userSpaceOnUse">
      <feOffset dy="3" input="SourceAlpha"/>
      <feGaussianBlur stdDeviation="3" result="blur"/>
      <feFlood flood-opacity="0.161"/>
      <feComposite operator="in" in2="blur"/>
      <feComposite in="SourceGraphic"/>
    </filter>
  </defs>
  <g id="Group_184" data-name="Group 184" transform="translate(-509.644 114.232)">
    <g transform="matrix(1, 0, 0, 1, 509.64, -114.23)" filter="url(#Ellipse_12)">
      <circle id="Ellipse_12-2" data-name="Ellipse 12" cx="59.232" cy="59.232" r="59.232" transform="translate(9 6)" fill="#fff"/>
    </g>
    <path id="iconmonstr-user-20" d="M51.6,0a51.6,51.6,0,1,0,51.6,51.6A51.6,51.6,0,0,0,51.6,0ZM84.94,78.713c-1.122-2.52-3.393-4.261-8.045-5.336-9.86-2.275-19.041-4.27-14.59-12.664C75.828,35.162,65.886,21.5,51.6,21.5c-14.569,0-24.27,14.186-10.7,39.213,4.584,8.445-4.937,10.436-14.59,12.664-4.661,1.075-6.915,2.829-8.028,5.358a43,43,0,1,1,66.66-.021Z" transform="translate(526.275 -100.601)" fill="#959595"/>
  </g>
</svg>
