<svg xmlns="http://www.w3.org/2000/svg" xmlns:xlink="http://www.w3.org/1999/xlink" width="98" height="99" viewBox="0 0 98 99">
  <defs>
    <filter id="Ellipse_40" x="0" y="0" width="98" height="99" filterUnits="userSpaceOnUse">
      <feOffset dy="3" input="SourceAlpha"/>
      <feGaussianBlur stdDeviation="3" result="blur"/>
      <feFlood flood-opacity="0.161"/>
      <feComposite operator="in" in2="blur"/>
      <feComposite in="SourceGraphic"/>
    </filter>
    <clipPath id="clip-path">
      <rect id="Rectangle_243" data-name="Rectangle 243" width="67" height="67" transform="translate(0.05 0.05)" fill="none"/>
    </clipPath>
  </defs>
  <g id="Horse_Riding" data-name="Horse Riding" transform="translate(9 -271)">
    <g transform="matrix(1, 0, 0, 1, -9, 271)" filter="url(#Ellipse_40)">
      <ellipse id="Ellipse_40-2" data-name="Ellipse 40" cx="40" cy="40.5" rx="40" ry="40.5" transform="translate(9 6)" fill="#fefefe"/>
    </g>
    <g id="Group_283" data-name="Group 283" transform="translate(6.95 283.95)">
      <g id="Group_282" data-name="Group 282" clip-path="url(#clip-path)">
        <path id="Path_199" data-name="Path 199" d="M33.55,0A33.55,33.55,0,1,0,67.1,33.55,33.549,33.549,0,0,0,33.55,0m3.416,57.269a2.133,2.133,0,0,1-3.7.042L23.327,40.4h4.944l6.786,11.544L41.5,40.4h4.881ZM55.154,38.563H9.681c-1.676,0-3.35-.876.76-3.16.108-.061,3.555-2.15,3.626-2.847A20.787,20.787,0,0,1,32.3,14.046a2.662,2.662,0,0,1,5.313.055A20.764,20.764,0,0,1,55.154,38.563" fill="#88438d"/>
      </g>
    </g>
  </g>
</svg>
