<svg xmlns="http://www.w3.org/2000/svg" xmlns:xlink="http://www.w3.org/1999/xlink" width="98" height="99" viewBox="0 0 98 99">
  <defs>
    <filter id="Ellipse_55" x="0" y="0" width="98" height="99" filterUnits="userSpaceOnUse">
      <feOffset dy="3" input="SourceAlpha"/>
      <feGaussianBlur stdDeviation="3" result="blur"/>
      <feFlood flood-opacity="0.161"/>
      <feComposite operator="in" in2="blur"/>
      <feComposite in="SourceGraphic"/>
    </filter>
    <clipPath id="clip-path">
      <rect id="Rectangle_258" data-name="Rectangle 258" width="67" height="67" fill="none"/>
    </clipPath>
  </defs>
  <g id="Scientific_Findings" data-name="Scientific Findings" transform="translate(-212 -486)">
    <g transform="matrix(1, 0, 0, 1, 212, 486)" filter="url(#Ellipse_55)">
      <ellipse id="Ellipse_55-2" data-name="Ellipse 55" cx="40" cy="40.5" rx="40" ry="40.5" transform="translate(9 6)" fill="#fefefe"/>
    </g>
    <g id="Group_313" data-name="Group 313" transform="translate(228 499)">
      <g id="Group_312" data-name="Group 312" clip-path="url(#clip-path)">
        <path id="Path_229" data-name="Path 229" d="M85.35,103.228a19.513,19.513,0,0,0,4.188,11.931H78.75a19.5,19.5,0,0,0,4.188-11.931,10.453,10.453,0,0,0-2.031-5.838h6.348a9.473,9.473,0,0,0-1.9,5.838" transform="translate(-58.059 -71.801)" fill="#88438d"/>
        <path id="Path_230" data-name="Path 230" d="M42.683,26.926a6.252,6.252,0,1,0,6.253,6.253,6.251,6.251,0,0,0-6.253-6.253m0,0a6.252,6.252,0,1,0,6.253,6.253,6.251,6.251,0,0,0-6.253-6.253m0,0a6.252,6.252,0,1,0,6.253,6.253,6.251,6.251,0,0,0-6.253-6.253m0,0a6.252,6.252,0,1,0,6.253,6.253,6.251,6.251,0,0,0-6.253-6.253M33.5,0A33.5,33.5,0,1,0,67,33.5,33.5,33.5,0,0,0,33.5,0M28.56,14.165a1.269,1.269,0,0,1,2.538,0v1.269a1.269,1.269,0,0,1-2.538,0Zm-3.807,5.076a1.269,1.269,0,0,1,2.538,0V20.51a1.269,1.269,0,0,1-2.538,0Zm-3.807-3.807a1.269,1.269,0,1,1,2.538,0V16.7a1.269,1.269,0,1,1-2.538,0ZM36.43,48.687A3.723,3.723,0,0,1,33,50.973H18.915a3.723,3.723,0,0,1-3.426-2.286,3.683,3.683,0,0,1,.633-4.059l1.9-2.031a17.426,17.426,0,0,0,4.188-11.169,7.476,7.476,0,0,0-3.3-6.093,1.2,1.2,0,0,1-.507-1.4,1.522,1.522,0,0,1,1.269-.888H32.368a1.519,1.519,0,0,1,1.269.888,1.2,1.2,0,0,1-.507,1.4,7.476,7.476,0,0,0-3.3,6.093A17.173,17.173,0,0,0,34.018,42.6l1.9,2.031a3.446,3.446,0,0,1,.507,4.059m18.429-3.363a1.137,1.137,0,0,1-1.608.029l-5.394-5.394a8.528,8.528,0,1,1,1.608-1.608l5.394,5.394a1.141,1.141,0,0,1,0,1.579m-12.176-18.4a6.252,6.252,0,1,0,6.253,6.253,6.251,6.251,0,0,0-6.253-6.253m0,0a6.252,6.252,0,1,0,6.253,6.253,6.251,6.251,0,0,0-6.253-6.253m0,0a6.252,6.252,0,1,0,6.253,6.253,6.251,6.251,0,0,0-6.253-6.253" fill="#88438d"/>
      </g>
    </g>
  </g>
</svg>
