<svg xmlns="http://www.w3.org/2000/svg" xmlns:xlink="http://www.w3.org/1999/xlink" width="98" height="99" viewBox="0 0 98 99">
  <defs>
    <filter id="Ellipse_36" x="0" y="0" width="98" height="99" filterUnits="userSpaceOnUse">
      <feOffset dy="3" input="SourceAlpha"/>
      <feGaussianBlur stdDeviation="3" result="blur"/>
      <feFlood flood-opacity="0.161"/>
      <feComposite operator="in" in2="blur"/>
      <feComposite in="SourceGraphic"/>
    </filter>
    <clipPath id="clip-path">
      <rect id="Rectangle_239" data-name="Rectangle 239" width="67" height="67" transform="translate(-0.079 -0.079)" fill="none"/>
    </clipPath>
  </defs>
  <g id="Security" transform="translate(-212 -168)">
    <g transform="matrix(1, 0, 0, 1, 212, 168)" filter="url(#Ellipse_36)">
      <ellipse id="Ellipse_36-2" data-name="Ellipse 36" cx="40" cy="40.5" rx="40" ry="40.5" transform="translate(9 6)" fill="#fefefe"/>
    </g>
    <g id="Group_275" data-name="Group 275" transform="translate(228.079 181.079)">
      <g id="Group_274" data-name="Group 274" clip-path="url(#clip-path)">
        <path id="Path_190" data-name="Path 190" d="M80.963,56.21V96.473c-.962-.616-1.9-1.185-2.8-1.806-.936-.647-1.845-1.337-2.747-2.031-.509-.393-.98-.834-1.457-1.263-.524-.477-1.054-.957-1.554-1.46a34.185,34.185,0,0,1-3.754-4.448,27.271,27.271,0,0,1-2.357-4.037,19.454,19.454,0,0,1-1.339-3.688,18.565,18.565,0,0,1-.391-2.21,17.592,17.592,0,0,1-.11-2.071c-.01-3.99-.005-7.982-.005-11.974V61.2Q72.7,58.707,80.963,56.21" transform="translate(-47.552 -41.476)" fill="#88438d"/>
        <path id="Path_191" data-name="Path 191" d="M33.421,0A33.421,33.421,0,1,0,66.843,33.421,33.42,33.42,0,0,0,33.421,0M52.895,33.374c-.063.427-.118.855-.194,1.279-.128.734-.233,1.478-.419,2.2-.215.831-.5,1.644-.768,2.461a19.365,19.365,0,0,1-1.73,3.73c-.676,1.151-1.418,2.267-2.191,3.355a27.163,27.163,0,0,1-1.877,2.3c-.744.834-1.523,1.641-2.325,2.422-.713.695-1.463,1.358-2.231,1.995-.844.7-1.706,1.376-2.6,2.018a44.05,44.05,0,0,1-4.349,2.742c-.325.186-.6.336-.794.44l-.073-.037a31.335,31.335,0,0,1-4.807-2.959q-1.769-1.294-3.471-2.682c-.7-.571-1.347-1.211-1.992-1.848-.695-.687-1.379-1.389-2.029-2.123-.558-.629-1.072-1.3-1.588-1.966a29.238,29.238,0,0,1-2.8-4.349,24.514,24.514,0,0,1-1.9-4.634,18.029,18.029,0,0,1-.718-3.646c-.018-.22-.063-.438-.094-.655v-15.9a.441.441,0,0,0,.118-.005c.8-.249,1.588-.5,2.385-.75.841-.257,1.683-.509,2.524-.763L21.5,15.24c1-.3,2-.608,3-.907.734-.218,1.471-.427,2.2-.645,1-.3,2.005-.608,3.009-.912q1.018-.307,2.042-.621c.522-.16,1.043-.325,1.568-.49h.189a1.5,1.5,0,0,0,.2.094c.91.275,1.819.543,2.729.82,1.7.514,3.395,1.035,5.093,1.549,1.3.4,2.611.779,3.914,1.172q2.485.751,4.97,1.507,1.239.377,2.477.76Z" fill="#88438d"/>
      </g>
    </g>
  </g>
</svg>
