<svg xmlns="http://www.w3.org/2000/svg" xmlns:xlink="http://www.w3.org/1999/xlink" width="98" height="99" viewBox="0 0 98 99">
  <defs>
    <filter id="Ellipse_25" x="0" y="0" width="98" height="99" filterUnits="userSpaceOnUse">
      <feOffset dy="3" input="SourceAlpha"/>
      <feGaussianBlur stdDeviation="3" result="blur"/>
      <feFlood flood-opacity="0.161"/>
      <feComposite operator="in" in2="blur"/>
      <feComposite in="SourceGraphic"/>
    </filter>
  </defs>
  <g id="Group_272" data-name="Group 272" transform="translate(-285 -1138)">
    <g transform="matrix(1, 0, 0, 1, 285, 1138)" filter="url(#Ellipse_25)">
      <ellipse id="Ellipse_25-2" data-name="Ellipse 25" cx="40" cy="40.5" rx="40" ry="40.5" transform="translate(9 6)" fill="#fffc00"/>
    </g>
    <path id="iconmonstr-snapchat-1" d="M10.5,7.607c-1.081,2.422-.654,6.761-.481,9.8-1.168.647-2.667-.488-3.516-.488a2.148,2.148,0,0,0-2.1,1.445c-.119.623.16,1.532,2.164,2.323.775.306,2.618.667,3.045,1.672.6,1.413-3.081,7.934-8.862,8.886a.9.9,0,0,0-.75.935c.1,1.757,4.04,2.445,5.786,2.716a15.756,15.756,0,0,1,.551,2.038,1,1,0,0,0,1.049.764c.888,0,2.364-.685,4.934-.259,2.519.42,4.887,3.991,9.433,3.991,4.226,0,6.747-3.588,9.172-3.991a10.605,10.605,0,0,1,3.957.1c.928.182,1.761.283,2.025-.629a15.878,15.878,0,0,1,.55-2.024c1.73-.268,5.687-.955,5.786-2.712a.9.9,0,0,0-.75-.935c-5.683-.937-9.477-7.439-8.862-8.886.425-1,2.256-1.361,3.045-1.672,1.467-.578,2.2-1.29,2.186-2.114-.02-1.054-1.288-1.683-2.222-1.683-.95,0-2.314,1.124-3.418.515.173-3.06.6-7.379-.481-9.8A11.958,11.958,0,0,0,21.6.7,11.879,11.879,0,0,0,10.5,7.607Z" transform="translate(312.376 1163.6)" fill="#fefefe"/>
  </g>
</svg>
