<svg xmlns="http://www.w3.org/2000/svg" xmlns:xlink="http://www.w3.org/1999/xlink" width="98" height="99" viewBox="0 0 98 99">
  <defs>
    <filter id="Ellipse_49" x="0" y="0" width="98" height="99" filterUnits="userSpaceOnUse">
      <feOffset dy="3" input="SourceAlpha"/>
      <feGaussianBlur stdDeviation="3" result="blur"/>
      <feFlood flood-opacity="0.161"/>
      <feComposite operator="in" in2="blur"/>
      <feComposite in="SourceGraphic"/>
    </filter>
    <clipPath id="clip-path">
      <rect id="Rectangle_253" data-name="Rectangle 253" width="67" height="67" transform="translate(-0.207 -0.207)" fill="none"/>
    </clipPath>
  </defs>
  <g id="Social_Media" data-name="Social Media" transform="translate(-315 -383)">
    <g transform="matrix(1, 0, 0, 1, 315, 383)" filter="url(#Ellipse_49)">
      <ellipse id="Ellipse_49-2" data-name="Ellipse 49" cx="40" cy="40.5" rx="40" ry="40.5" transform="translate(9 6)" fill="#fefefe"/>
    </g>
    <g id="Group_303" data-name="Group 303" transform="translate(331.207 396.207)">
      <path id="Path_219" data-name="Path 219" d="M103.625,97.88h11.184L112.274,111.4H101.09Z" transform="translate(-74.693 -72.321)" fill="#88438d"/>
      <g id="Group_302" data-name="Group 302">
        <g id="Group_301" data-name="Group 301" clip-path="url(#clip-path)">
          <path id="Path_220" data-name="Path 220" d="M33.293,0A33.293,33.293,0,1,0,66.586,33.293,33.292,33.292,0,0,0,33.293,0M51.276,25.559H44.7L42.166,39.074h6.86a2.252,2.252,0,0,1,0,4.5H41.32l-1.345,7.173a2.253,2.253,0,0,1-2.212,1.838,2.305,2.305,0,0,1-.418-.039,2.253,2.253,0,0,1-1.8-2.629l1.191-6.343H25.553l-1.345,7.173a2.253,2.253,0,1,1-4.429-.83l1.188-6.343H15.236a2.252,2.252,0,1,1,0-4.5h6.578l2.533-13.516h-6.86a2.252,2.252,0,0,1,0-4.5h7.706l1.345-7.173a2.253,2.253,0,1,1,4.429.83l-1.191,6.343H40.959L42.3,13.881a2.253,2.253,0,0,1,4.429.83l-1.188,6.343h5.732a2.252,2.252,0,1,1,0,4.5" fill="#88438d"/>
        </g>
      </g>
    </g>
  </g>
</svg>
