<svg xmlns="http://www.w3.org/2000/svg" xmlns:xlink="http://www.w3.org/1999/xlink" width="98" height="99" viewBox="0 0 98 99">
  <defs>
    <filter id="Ellipse_43" x="0" y="0" width="98" height="99" filterUnits="userSpaceOnUse">
      <feOffset dy="3" input="SourceAlpha"/>
      <feGaussianBlur stdDeviation="3" result="blur"/>
      <feFlood flood-opacity="0.161"/>
      <feComposite operator="in" in2="blur"/>
      <feComposite in="SourceGraphic"/>
    </filter>
    <clipPath id="clip-path">
      <rect id="Rectangle_247" data-name="Rectangle 247" width="67" height="67" transform="translate(0.139 0.139)" fill="none"/>
    </clipPath>
  </defs>
  <g id="Space" transform="translate(-315 -271)">
    <g transform="matrix(1, 0, 0, 1, 315, 271)" filter="url(#Ellipse_43)">
      <ellipse id="Ellipse_43-2" data-name="Ellipse 43" cx="40" cy="40.5" rx="40" ry="40.5" transform="translate(9 6)" fill="#fefefe"/>
    </g>
    <g id="Group_290" data-name="Group 290" transform="translate(330.861 283.861)">
      <rect id="Rectangle_246" data-name="Rectangle 246" width="1.989" height="4.44" transform="matrix(0.707, -0.707, 0.707, 0.707, 18.128, 36.235)" fill="#88438d"/>
      <g id="Group_289" data-name="Group 289">
        <g id="Group_288" data-name="Group 288" clip-path="url(#clip-path)">
          <path id="Path_204" data-name="Path 204" d="M155.821,103.271c1.317,1.317,1.712,3.055.887,3.881s-5.591-3.936-4.765-4.765,2.564-.43,3.878.884" transform="translate(-111.784 -75.056)" fill="#88438d"/>
          <path id="Path_205" data-name="Path 205" d="M33.639,0A33.639,33.639,0,1,0,67.278,33.639,33.638,33.638,0,0,0,33.639,0M29.217,15.524l1.069-.42a.31.31,0,0,0,.164-.164l.419-1.069a.289.289,0,0,1,.538,0l.422,1.069a.293.293,0,0,0,.164.164l1.069.42a.29.29,0,0,1,0,.538l-1.069.422a.278.278,0,0,0-.164.164l-.422,1.069a.29.29,0,0,1-.538,0l-.419-1.069a.293.293,0,0,0-.164-.164l-1.069-.422a.289.289,0,0,1,0-.538m-5.448,5.67,1.6-.633a.423.423,0,0,0,.243-.243l.633-1.6a.434.434,0,0,1,.807,0l.633,1.6a.428.428,0,0,0,.245.243l1.6.633a.434.434,0,0,1,0,.807l-1.6.633a.432.432,0,0,0-.245.245l-.633,1.6a.434.434,0,0,1-.807,0l-.633-1.6a.427.427,0,0,0-.243-.245L23.769,22a.434.434,0,0,1,0-.807m-8.82-5.6,2.068-.815a.789.789,0,0,0,.446-.446l.815-2.068a.793.793,0,0,1,1.472,0l.815,2.068a.784.784,0,0,0,.443.446l2.068.815a.791.791,0,0,1,0,1.472l-2.068.815a.78.78,0,0,0-.443.443L19.751,20.4a.791.791,0,0,1-1.472,0l-.815-2.068a.784.784,0,0,0-.446-.443l-2.068-.815a.793.793,0,0,1,0-1.472m8.865,39.75-2.166-2.166-2.575-2.575L16.907,48.44,21.5,45.715l2.163,2.166.712.71,2.166,2.166Zm.984-7.891a1.379,1.379,0,0,1,0-1.95l4.981-4.981a1.379,1.379,0,0,1,1.95,1.95l-4.981,4.981a1.379,1.379,0,0,1-1.95,0m20.864-12.7C39.6,40.821,40.589,47.44,41.494,52.891c.765,4.62-2.944,8.1-4.19,6.852l-9.691-9.688,5.847-5.847a3.828,3.828,0,1,0-5.414-5.414L22.2,44.641,12.511,34.95C11.263,33.7,14.741,30,19.363,30.761c5.451.9,12.071,1.894,18.133-4.169,1.839-1.839,3.076-3.079,4.438-4.44L50.1,30.32c-1.361,1.361-2.6,2.6-4.44,4.438m6.823-6.82c-.3.3-.591.591-.868.865l-8.166-8.166c.274-.277.562-.562.865-.868,2.153-2.153,7.134-3.475,9.387-1.222s.931,7.237-1.219,9.39" fill="#88438d"/>
        </g>
      </g>
    </g>
  </g>
</svg>
