<svg xmlns="http://www.w3.org/2000/svg" xmlns:xlink="http://www.w3.org/1999/xlink" width="364.402" height="364.402" viewBox="0 0 364.402 364.402">
  <defs>
    <filter id="Path_540" x="0" y="0" width="364.402" height="364.402" filterUnits="userSpaceOnUse">
      <feOffset dx="3" dy="3" input="SourceAlpha"/>
      <feGaussianBlur stdDeviation="3" result="blur"/>
      <feFlood flood-opacity="0.161"/>
      <feComposite operator="in" in2="blur"/>
      <feComposite in="SourceGraphic"/>
    </filter>
  </defs>
  <g transform="matrix(1, 0, 0, 1, 0, 0)" filter="url(#Path_540)">
    <path id="Path_540-2" data-name="Path 540" d="M244.367,6.65c7.732,0,7.35-.382,7.35,7.35V237.717a14,14,0,0,1-14,14c-231.449,0-230.779.923-230.779-6.809Z" transform="translate(-3.61 179.29) rotate(-45)" fill="#88438d"/>
  </g>
  <g id="Path_541" data-name="Path 541" transform="translate(59.948 208.017) rotate(-45)" fill="#4a3685">
    <path d="M 142.2212066650391 154.1812133789062 L 11.80823802947998 148.7380828857422 C 11.97260570526123 148.5250701904297 12.15720367431641 148.2906341552734 12.36423683166504 148.0332183837891 C 13.52184104919434 146.5939178466797 15.16398620605469 144.7041320800781 17.24506950378418 142.4163665771484 C 21.14986228942871 138.1237487792969 26.71654891967773 132.3018035888672 33.79050827026367 125.1122817993164 C 45.72481918334961 112.9829940795898 62.10040283203125 96.80171966552734 82.46236419677734 77.01795196533203 C 111.0269622802734 49.26446151733398 139.5930938720703 22.05027198791504 148.9723358154297 13.13257598876953 L 154.1812438964844 142.2201385498047 C 154.1712188720703 145.4109802246094 152.9239349365234 148.4091796875 150.6665649414062 150.6665496826172 C 148.4094696044922 152.9236450195312 145.41162109375 154.1708984375 142.2212066650391 154.1812133789062 Z" stroke="none"/>
    <path d="M 147.1519622802734 17.62495422363281 C 135.6425628662109 28.58114624023438 110.2549743652344 52.81277465820312 84.72064208984375 77.61248016357422 C 64.54268646240234 97.20990753173828 48.22514343261719 113.3197326660156 36.22126007080078 125.4944763183594 C 29.1158447265625 132.7010192871094 23.47161865234375 138.5816345214844 19.44534301757812 142.9729309082031 C 17.99913024902344 144.5502624511719 16.84426879882812 145.8458862304688 15.92231750488281 146.9080200195312 L 142.2578277587891 152.1809997558594 C 147.7121887207031 152.1398468017578 152.1414642333984 147.7100524902344 152.1810150146484 142.2553253173828 L 147.1519622802734 17.62495422363281 M 150.7928466796875 8.64453125 L 156.1812744140625 142.1813049316406 C 156.1812744140625 149.9132690429688 149.9132537841797 156.1812896728516 142.1812744140625 156.1812896728516 L 8.82220458984375 150.6151580810547 C 1.0902099609375 150.6151580810547 150.7928466796875 8.64453125 150.7928466796875 8.64453125 Z" stroke="none" fill="#fefefe"/>
  </g>
</svg>
