<svg xmlns="http://www.w3.org/2000/svg" xmlns:xlink="http://www.w3.org/1999/xlink" width="98" height="99" viewBox="0 0 98 99">
  <defs>
    <filter id="Ellipse_46" x="0" y="0" width="98" height="99" filterUnits="userSpaceOnUse">
      <feOffset dy="3" input="SourceAlpha"/>
      <feGaussianBlur stdDeviation="3" result="blur"/>
      <feFlood flood-opacity="0.161"/>
      <feComposite operator="in" in2="blur"/>
      <feComposite in="SourceGraphic"/>
    </filter>
    <clipPath id="clip-path">
      <rect id="Rectangle_250" data-name="Rectangle 250" width="67" height="67" fill="none"/>
    </clipPath>
  </defs>
  <g id="Theatre" transform="translate(9 -383)">
    <g transform="matrix(1, 0, 0, 1, -9, 383)" filter="url(#Ellipse_46)">
      <ellipse id="Ellipse_46-2" data-name="Ellipse 46" cx="40" cy="40.5" rx="40" ry="40.5" transform="translate(9 6)" fill="#fefefe"/>
    </g>
    <g id="Group_296" data-name="Group 296" transform="translate(7 396)">
      <g id="Group_295" data-name="Group 295" clip-path="url(#clip-path)">
        <path id="Path_210" data-name="Path 210" d="M120.29,132.642a1.876,1.876,0,0,1,.891-2.5,5.387,5.387,0,0,1,7.178,2.554,1.878,1.878,0,0,1-3.392,1.611,1.633,1.633,0,0,0-2.176-.775,1.876,1.876,0,0,1-2.5-.888" transform="translate(-88.55 -95.56)" fill="#88438d"/>
        <path id="Path_211" data-name="Path 211" d="M135.926,173.075a1.876,1.876,0,0,1-.891,2.5,7.764,7.764,0,0,1-10.344-3.678,1.878,1.878,0,0,1,3.392-1.613,4.014,4.014,0,0,0,5.342,1.9,1.875,1.875,0,0,1,2.5.888" transform="translate(-91.795 -124.753)" fill="#88438d"/>
        <path id="Path_212" data-name="Path 212" d="M171.769,148.146a1.878,1.878,0,0,1-3.392,1.611,1.634,1.634,0,0,0-2.176-.775,1.877,1.877,0,1,1-1.611-3.392,5.393,5.393,0,0,1,7.178,2.557" transform="translate(-120.554 -106.952)" fill="#88438d"/>
        <path id="Path_213" data-name="Path 213" d="M33.5,0A33.5,33.5,0,1,0,67,33.5,33.5,33.5,0,0,0,33.5,0M19.622,36.222a1.876,1.876,0,1,0,2.654,2.654,4,4,0,0,1,2.591-1.164l-.512,1.437a16.181,16.181,0,0,0-.92,6.369A13.159,13.159,0,0,1,11.973,32.486V18.573a2.662,2.662,0,0,1,2.654-2.662,2.582,2.582,0,0,1,.549.058,50.876,50.876,0,0,0,9.937.878,50.867,50.867,0,0,0,9.934-.878,2.662,2.662,0,0,1,3.2,2.6V23.56c-.292-.166-.57-.328-.838-.491a5.737,5.737,0,0,0-7.974,2.057,1.877,1.877,0,0,0-2.173,3,5.509,5.509,0,0,0,.78.646l-1.868,5.25a7.747,7.747,0,0,0-6.555,2.2m37.123-.313L52.081,49.015a13.213,13.213,0,1,1-24.9-8.857l4.664-13.106a2.733,2.733,0,0,1,4-1.421A50.489,50.489,0,0,0,44.9,29.782a50.659,50.659,0,0,0,9.64,2.5,2.735,2.735,0,0,1,2.2,3.626M20.124,25.473a1.632,1.632,0,0,1-2.31,0,1.877,1.877,0,0,0-2.654,2.656,5.389,5.389,0,0,0,7.617,0,1.877,1.877,0,0,0-2.654-2.656" fill="#88438d"/>
      </g>
    </g>
  </g>
</svg>
