<svg xmlns="http://www.w3.org/2000/svg" xmlns:xlink="http://www.w3.org/1999/xlink" width="66" height="66" viewBox="0 0 66 66">
  <defs>
    <linearGradient id="linear-gradient" x1="0.031" y1="0.262" x2="0.947" y2="0.89" gradientUnits="objectBoundingBox">
      <stop offset="0" stop-color="#88438d"/>
      <stop offset="0.31" stop-color="#753f8b"/>
      <stop offset="0.515" stop-color="#683c89"/>
      <stop offset="0.69" stop-color="#5d3a88"/>
      <stop offset="1" stop-color="#4a3685"/>
    </linearGradient>
  </defs>
  <g id="Group_349" data-name="Group 349" transform="translate(-254 -2582)">
    <circle id="Ellipse_60" data-name="Ellipse 60" cx="33" cy="33" r="33" transform="translate(254 2582)" fill="url(#linear-gradient)"/>
    <path id="iconmonstr-star-filled" d="M13.212,3.009a.908.908,0,0,1,1.631,0c1.171,2.4,3.187,6.543,3.187,6.543l7.243,1a.9.9,0,0,1,.782.9.885.885,0,0,1-.278.645c-1.936,1.85-5.27,5.041-5.27,5.041s.814,4.531,1.286,7.159a.906.906,0,0,1-1.319.954c-2.367-1.26-6.446-3.429-6.446-3.429s-4.079,2.169-6.446,3.429a.906.906,0,0,1-1.319-.954c.473-2.628,1.287-7.159,1.287-7.159s-3.335-3.191-5.27-5.041A.881.881,0,0,1,2,11.448a.9.9,0,0,1,.783-.9l7.242-1,3.187-6.543Z" transform="translate(272.973 2601.574)" fill="#fefefe"/>
  </g>
</svg>
