<svg xmlns="http://www.w3.org/2000/svg" width="204.248" height="224.585" viewBox="0 0 204.248 224.585">
  <g id="Group_267" data-name="Group 267" transform="translate(58.47) rotate(21)" opacity="0.23">
    <path id="Path_140" data-name="Path 140" d="M132.831,69.292a70.525,70.525,0,0,0,41.138,13.158v-29.5a41.66,41.66,0,0,1-8.639-.9V75.266a70.538,70.538,0,0,1-41.138-13.157v60.21A54.578,54.578,0,0,1,39.253,167.63a54.572,54.572,0,0,0,93.579-38.13V69.292Zm10.658-29.766A41.113,41.113,0,0,1,132.831,15.45V11.655h-8.187a41.307,41.307,0,0,0,18.844,27.87ZM58.313,144.517a24.963,24.963,0,0,1,27.439-38.879V75.474a55.065,55.065,0,0,0-8.636-.5V98.455a24.954,24.954,0,0,0-18.8,46.062Z" transform="translate(-15.063 -4.473)" fill="#ff004f"/>
    <path id="Path_141" data-name="Path 141" d="M114.508,62.108a70.539,70.539,0,0,0,41.138,13.157V52.041A41.3,41.3,0,0,1,133.8,39.525a41.307,41.307,0,0,1-18.845-27.87h-21.5V129.5a24.964,24.964,0,0,1-44.828,15.018,24.957,24.957,0,0,1,18.8-46.061V74.977A54.53,54.53,0,0,0,29.57,167.631a54.578,54.578,0,0,0,84.939-45.312V62.108Z" transform="translate(-5.379 -4.473)" fill="#1d1d1d"/>
    <path id="Path_142" data-name="Path 142" d="M150.267,47.568v-6.28a41.146,41.146,0,0,1-21.841-6.237A41.26,41.26,0,0,0,150.267,47.568ZM109.581,7.182q-.295-1.684-.452-3.388V0H79.436V117.845a24.972,24.972,0,0,1-36.188,22.2,24.965,24.965,0,0,0,44.828-15.018V7.182ZM62.053,70.5V63.819a55.114,55.114,0,0,0-7.487-.508,54.533,54.533,0,0,0-30.375,99.845A54.53,54.53,0,0,1,62.053,70.5Z" transform="translate(0)" fill="#00f2ea"/>
  </g>
</svg>
