<svg xmlns="http://www.w3.org/2000/svg" xmlns:xlink="http://www.w3.org/1999/xlink" width="307.507" height="481.025" viewBox="0 0 307.507 481.025">
  <defs>
    <clipPath id="clip-path">
      <path id="Path_137" data-name="Path 137" d="M182.415,48.876a125.176,125.176,0,0,1-3.563,32.78c-5.095,21.42-14.923,41.007-27.6,58.959-25.086,36.188-59.905,65.9-88.838,103.572C48.121,263.007,35.04,283.842,27.424,307.4l-2.745,8.864c-.757,2.986-1.343,6.016-2.022,9.019-1.54,5.981-1.9,12.143-2.728,18.21-.852,12.2-.921,24.458.886,36.472a170,170,0,0,0,23.8,67.418c12.435,20.224,29.449,37.5,49.183,49.389A178.445,178.445,0,0,1,41.916,391.243a24.515,24.515,0,0,1,16.756-.912c37.633,10.344,89.992,35.258,98.847,6.463S162.7,359.806,179.24,354.5s-.723-16.782.43-23.649,16.446-1.79,16.7-9.32-11.936-10.069-9.389-19.225,26.36-6.7,28.494-19.458-29.923-38.322-25.078-58.2,12.952-18.4,16.4-43.683c2.375-17.436,1.282-49.208-19.5-75.5a139.4,139.4,0,0,0,3.855-21.816c.955-11.936.714-24-1.756-35.628A92.1,92.1,0,0,0,176.03,15.743a107.44,107.44,0,0,1,6.386,33.133" transform="translate(-19.35 -15.743)" fill="#fefefe"/>
    </clipPath>
    <clipPath id="clip-path-2">
      <path id="Path_74" data-name="Path 74" d="M93.954,107.02c-12.883,12.909-25.663,26.3-37.393,41.024-11.721,14.7-22.315,30.869-30.2,48.744A130.3,130.3,0,0,0,21.2,210.548l-2.3,7.04c-.7,2.349-1.17,4.768-1.747,7.16l-1.583,7.194-1.033,7.289-.955,7.281-.353,7.324a168.253,168.253,0,0,0,7.522,57.35,163.875,163.875,0,0,0,26.041,50.68c11.6,14.923,25.637,27.909,41.833,36.73A184.791,184.791,0,0,1,40.176,306.16c-6.807-33.675-3.821-68.529,9.553-99.131,13.537-31.024,36.3-58.5,59.1-86.644,11.4-14.165,22.9-28.632,33.064-44.139C151.923,60.686,161.019,44.24,166.424,26.6c-20.671,30.422-46.713,54.613-72.47,80.422" transform="translate(-13.081 -26.598)" fill="#fefefe"/>
    </clipPath>
    <clipPath id="clip-path-3">
      <path id="Path_75" data-name="Path 75" d="M125.347,111.224C98.764,138.04,69.753,164.1,46.534,197.016,23.049,229.985,9.469,269.864,6.9,309.7c-2.616,39.828,5.5,80.379,24.948,113.993a272.787,272.787,0,0,1-5.017-111.73c6.033-36.308,19.613-70.723,40.611-100.327,21.007-29.983,48.124-56.9,72.771-87.04,12.272-15.095,24.01-31.059,33.279-48.554,9.148-17.47,16.016-36.42,17.719-55.792C177.086,56.551,152,84.52,125.347,111.224" transform="translate(-6.419 -20.251)" fill="#fefefe"/>
    </clipPath>
  </defs>
  <g id="Group_171" data-name="Group 171" transform="translate(-1115.376 -166.185)" opacity="0.15">
    <g id="Group_168" data-name="Group 168" transform="translate(1226.66 166.185)" clip-path="url(#clip-path)">
      <rect id="Rectangle_100" data-name="Rectangle 100" width="198.598" height="481.025" transform="translate(-0.343 0.002)" fill="#fefefe"/>
    </g>
    <g id="Group_169" data-name="Group 169" transform="translate(1172.708 259.602)">
      <g id="Group_90" data-name="Group 90" clip-path="url(#clip-path-2)">
        <rect id="Rectangle_60" data-name="Rectangle 60" width="154.019" height="371.997" transform="translate(-0.676 0.002)" fill="#fefefe"/>
      </g>
    </g>
    <g id="Group_170" data-name="Group 170" transform="translate(1115.376 204.98)">
      <g id="Group_92" data-name="Group 92" clip-path="url(#clip-path-3)">
        <rect id="Rectangle_61" data-name="Rectangle 61" width="186.928" height="403.443" transform="translate(-2.139 0.002)" fill="#fefefe"/>
      </g>
    </g>
  </g>
</svg>
