<svg xmlns="http://www.w3.org/2000/svg" xmlns:xlink="http://www.w3.org/1999/xlink" width="221.914" height="344.053" viewBox="0 0 221.914 344.053">
  <defs>
    <clipPath id="clip-path">
      <path id="Path_137" data-name="Path 137" d="M43.066,39.441a89.532,89.532,0,0,0,2.548,23.446c3.644,15.321,10.673,29.33,19.74,42.17C83.3,130.94,108.2,152.195,128.9,179.137c10.224,13.462,19.58,28.364,25.028,45.211l1.964,6.34c.542,2.136.96,4.3,1.447,6.451,1.1,4.278,1.36,8.685,1.951,13.025a119.514,119.514,0,0,1-.634,26.086,121.593,121.593,0,0,1-17.02,48.221A106.3,106.3,0,0,1,106.453,359.8a127.633,127.633,0,0,0,37.1-75.477,17.535,17.535,0,0,0-11.984-.652c-26.917,7.4-64.366,25.218-70.7,4.623s-3.706-26.456-15.536-30.247.517-12-.308-16.915-11.763-1.28-11.941-6.666,8.537-7.2,6.715-13.751-18.854-4.789-20.38-13.917,21.4-27.41,17.937-41.629S28.1,152,25.628,133.919c-1.7-12.471-.917-35.2,13.948-54a99.7,99.7,0,0,1-2.758-15.6,88.747,88.747,0,0,1,1.256-25.483,65.871,65.871,0,0,1,9.559-23.089,76.847,76.847,0,0,0-4.567,23.7" transform="translate(-19.35 -15.743)" fill="#fefefe"/>
    </clipPath>
    <clipPath id="clip-path-2">
      <path id="Path_74" data-name="Path 74" d="M64.915,84.12A354.2,354.2,0,0,1,91.66,113.462a159.484,159.484,0,0,1,21.6,34.864,93.2,93.2,0,0,1,3.693,9.842L118.6,163.2c.5,1.68.837,3.41,1.25,5.121l1.133,5.146.739,5.214.683,5.207.252,5.238a120.343,120.343,0,0,1-5.38,41.019A117.212,117.212,0,0,1,98.646,266.4c-8.3,10.673-18.337,19.962-29.921,26.271a132.172,132.172,0,0,0,34.655-66.115c4.869-24.086,2.733-49.015-6.832-70.9-9.682-22.19-25.963-41.844-42.269-61.972C46.122,83.547,37.9,73.2,30.629,62.108,23.452,50.979,16.946,39.216,13.081,26.6,27.866,48.357,46.492,65.66,64.915,84.12" transform="translate(-13.081 -26.598)" fill="#fefefe"/>
    </clipPath>
    <clipPath id="clip-path-3">
      <path id="Path_75" data-name="Path 75" d="M53.525,85.319c19.014,19.18,39.764,37.818,56.371,61.363a157.543,157.543,0,0,1,28.352,80.6c1.871,28.487-3.933,57.491-17.844,81.534a195.11,195.11,0,0,0,3.589-79.915A172.629,172.629,0,0,0,94.945,157.14c-15.025-21.445-34.421-40.7-52.05-62.255-8.778-10.8-17.173-22.215-23.8-34.728C12.549,47.661,7.637,34.107,6.419,20.251c10.1,25.963,28.044,45.968,47.107,65.068" transform="translate(-6.419 -20.251)" fill="#fefefe"/>
    </clipPath>
  </defs>
  <g id="Group_177" data-name="Group 177" transform="translate(-1115.376 -166.185)" opacity="0.15">
    <g id="Group_168" data-name="Group 168" transform="translate(1115.376 166.185)" clip-path="url(#clip-path)">
      <rect id="Rectangle_100" data-name="Rectangle 100" width="142.047" height="344.053" transform="translate(-1.453 0.001)" fill="#fefefe"/>
    </g>
    <g id="Group_169" data-name="Group 169" transform="translate(1185.872 233.001)">
      <g id="Group_90" data-name="Group 90" clip-path="url(#clip-path-2)">
        <rect id="Rectangle_60" data-name="Rectangle 60" width="110.162" height="266.071" transform="translate(0 0.001)" fill="#fefefe"/>
      </g>
    </g>
    <g id="Group_170" data-name="Group 170" transform="translate(1205.12 193.933)">
      <g id="Group_92" data-name="Group 92" clip-path="url(#clip-path-3)">
        <rect id="Rectangle_61" data-name="Rectangle 61" width="133.7" height="288.562" transform="translate(0 0.001)" fill="#fefefe"/>
      </g>
    </g>
  </g>
</svg>
