<svg xmlns="http://www.w3.org/2000/svg" xmlns:xlink="http://www.w3.org/1999/xlink" width="458.676" height="726" viewBox="0 0 458.676 726">
  <defs>
    <clipPath id="clip-path">
      <path id="Path_137" data-name="Path 137" d="M262.578,65.749a191.066,191.066,0,0,1-5.314,49.474c-7.6,32.329-22.258,61.891-41.167,88.985-37.418,54.617-89.355,99.467-132.511,156.318-21.321,28.406-40.833,59.852-52.193,95.4L27.3,469.306c-1.13,4.507-2,9.079-3.017,13.612-2.3,9.027-2.837,18.327-4.069,27.484-1.271,18.418-1.374,36.914,1.322,55.046A258.562,258.562,0,0,0,57.027,667.2c18.549,30.523,43.926,56.592,73.361,74.542A270.566,270.566,0,0,1,53.009,582.476c7.291-3.208,15.558-4,24.993-1.377,56.134,15.612,134.231,53.214,147.44,9.754s7.728-55.825,32.4-63.826-1.078-25.328.642-35.693,24.531-2.7,24.9-14.067-17.8-15.2-14-29.017,39.318-10.105,42.5-29.367-44.633-57.838-37.406-87.842,19.319-27.77,24.466-65.93c3.543-26.315,1.913-74.269-29.087-113.949a212.656,212.656,0,0,0,5.751-32.926c1.425-18.015,1.065-36.225-2.619-53.773-3.71-17.509-10.282-34.277-19.935-48.72a163.853,163.853,0,0,1,9.525,50.006" transform="translate(-19.35 -15.743)" fill="#88438d"/>
    </clipPath>
    <clipPath id="clip-path-2">
      <path id="Path_74" data-name="Path 74" d="M133.711,146.555c-19.216,19.255-38.278,39.228-55.775,61.191-17.483,21.925-33.285,46.044-45.043,72.706a194.358,194.358,0,0,0-7.7,20.526l-3.427,10.5c-1.04,3.5-1.746,7.111-2.606,10.68L16.8,332.889l-1.54,10.872-1.425,10.86L13.3,365.545a250.966,250.966,0,0,0,11.219,85.542,244.436,244.436,0,0,0,38.843,75.594c17.3,22.258,38.24,41.629,62.4,54.786A275.634,275.634,0,0,1,53.5,443.591c-10.154-50.229-5.7-102.217,14.248-147.863,20.192-46.276,54.144-87.262,88.148-129.238,17.008-21.129,34.158-42.707,49.318-65.838,14.967-23.208,28.536-47.739,36.6-74.054-30.833,45.377-69.676,81.46-108.1,119.957" transform="translate(-13.081 -26.598)" fill="#88438d"/>
    </clipPath>
    <clipPath id="clip-path-3">
      <path id="Path_75" data-name="Path 75" d="M183.812,157.863c-39.652,40.564-82.924,79.982-117.557,129.775C31.225,337.51,10.969,397.835,7.13,458.095c-3.9,60.247,8.2,121.587,37.213,172.435-14.12-56.745-16.508-114.089-7.484-169.011,9-54.922,29.254-106.981,60.575-151.763,31.334-45.354,71.782-86.074,108.545-131.663,18.3-22.833,35.814-46.982,49.639-73.447,13.645-26.426,23.889-55.092,26.43-84.4-21.065,54.91-58.483,97.218-98.238,137.612" transform="translate(-6.419 -20.251)" fill="#88438d"/>
    </clipPath>
  </defs>
  <g id="Group_352" data-name="Group 352" transform="translate(-1115.376 -166.185)" opacity="0.15">
    <g id="Group_168" data-name="Group 168" transform="translate(1281.366 166.185)" clip-path="url(#clip-path)">
      <rect id="Rectangle_100" data-name="Rectangle 100" width="296.228" height="726" transform="translate(-0.511 0.003)" fill="#88438d"/>
    </g>
    <g id="Group_169" data-name="Group 169" transform="translate(1200.892 314.03)">
      <g id="Group_90" data-name="Group 90" clip-path="url(#clip-path-2)">
        <rect id="Rectangle_60" data-name="Rectangle 60" width="229.735" height="554.87" transform="translate(-1.008 0.003)" fill="#88438d"/>
      </g>
    </g>
    <g id="Group_170" data-name="Group 170" transform="translate(1115.376 224.052)">
      <g id="Group_92" data-name="Group 92" clip-path="url(#clip-path-3)">
        <rect id="Rectangle_61" data-name="Rectangle 61" width="278.821" height="610.279" transform="translate(-3.19 0.003)" fill="#88438d"/>
      </g>
    </g>
  </g>
</svg>
