<svg xmlns="http://www.w3.org/2000/svg" width="19.37" height="19.37" viewBox="0 0 19.37 19.37">
  <path id="iconmonstr-instagram-11" d="M9.685,1.746c2.586,0,2.893.01,3.914.056,2.625.119,3.851,1.365,3.97,3.97.047,1.021.056,1.328.056,3.913s-.01,2.893-.056,3.913c-.12,2.6-1.343,3.851-3.97,3.97-1.022.047-1.327.056-3.914.056s-2.893-.01-3.913-.056C3.14,17.449,1.921,16.2,1.8,13.6c-.047-1.021-.056-1.327-.056-3.913s.01-2.892.056-3.913c.12-2.6,1.343-3.851,3.97-3.97,1.022-.046,1.328-.056,3.913-.056ZM9.685,0c-2.63,0-2.96.011-3.993.058C2.175.22.22,2.171.059,5.691.011,6.725,0,7.055,0,9.685s.011,2.96.058,3.993C.22,17.2,2.171,19.15,5.691,19.312c1.034.047,1.363.058,3.993.058s2.96-.011,3.993-.058c3.514-.161,5.474-2.113,5.633-5.633.048-1.033.059-1.363.059-3.993s-.011-2.96-.058-3.993C19.153,2.178,17.2.22,13.679.059,12.645.011,12.315,0,9.685,0Zm0,4.712a4.974,4.974,0,1,0,4.973,4.973A4.973,4.973,0,0,0,9.685,4.712Zm0,8.2a3.228,3.228,0,1,1,3.228-3.228A3.228,3.228,0,0,1,9.685,12.913Zm5.17-9.56a1.162,1.162,0,1,0,1.161,1.162A1.163,1.163,0,0,0,14.855,3.353Z" fill="#fefefe"/>
</svg>
