<svg xmlns="http://www.w3.org/2000/svg" width="19.37" height="19.37" viewBox="0 0 19.37 19.37">
  <path id="iconmonstr-linkedin-3" d="M15.334,0H4.035A4.036,4.036,0,0,0,0,4.035v11.3A4.036,4.036,0,0,0,4.035,19.37h11.3a4.035,4.035,0,0,0,4.035-4.035V4.035A4.035,4.035,0,0,0,15.334,0ZM6.457,15.334H4.035V6.457H6.457Zm-1.211-9.9A1.424,1.424,0,1,1,6.658,4.01,1.418,1.418,0,0,1,5.246,5.433Zm10.9,9.9H13.72V10.811c0-2.718-3.228-2.512-3.228,0v4.523H8.071V6.457h2.421V7.881a3.07,3.07,0,0,1,5.649,2Z" fill="#fefefe"/>
</svg>
